<?xml version="1.0" encoding="UTF-8" standalone="no"?>
<svg
   xmlns:dc="http://purl.org/dc/elements/1.1/"
   xmlns:cc="http://creativecommons.org/ns#"
   xmlns:rdf="http://www.w3.org/1999/02/22-rdf-syntax-ns#"
   xmlns:svg="http://www.w3.org/2000/svg"
   xmlns="http://www.w3.org/2000/svg"
   xmlns:xlink="http://www.w3.org/1999/xlink"
   xmlns:sodipodi="http://sodipodi.sourceforge.net/DTD/sodipodi-0.dtd"
   xmlns:inkscape="http://www.inkscape.org/namespaces/inkscape"
   version="1.1"
   width="210mm"
   height="297mm"
   viewBox="0 0 744.09449 1052.3622"
   id="svg2"
   inkscape:version="0.91 r13725"
   sodipodi:docname="floraldesign.svg"
   inkscape:export-filename="C:\Users\RIia\Downloads\floraldesign.png"
   inkscape:export-xdpi="90"
   inkscape:export-ydpi="90">
  <metadata
     id="metadata542">
    <rdf:RDF>
      <cc:Work
         rdf:about="">
        <dc:format>image/svg+xml</dc:format>
        <dc:type
           rdf:resource="http://purl.org/dc/dcmitype/StillImage" />
        <dc:title></dc:title>
      </cc:Work>
    </rdf:RDF>
  </metadata>
  <sodipodi:namedview
     pagecolor="#ffffff"
     bordercolor="#666666"
     borderopacity="1"
     objecttolerance="10"
     gridtolerance="10"
     guidetolerance="10"
     inkscape:pageopacity="0"
     inkscape:pageshadow="2"
     inkscape:window-width="1787"
     inkscape:window-height="904"
     id="namedview540"
     showgrid="false"
     units="mm"
     inkscape:zoom="0.69842873"
     inkscape:cx="372.04724"
     inkscape:cy="526.1811"
     inkscape:window-x="0"
     inkscape:window-y="0"
     inkscape:window-maximized="0"
     inkscape:current-layer="svg2" />
  <defs
     id="defs4">
    <pattern
       inkscape:collect="always"
       xlink:href="#pattern6524"
       id="pattern6609"
       patternTransform="translate(-832.20337,281.1757)" />
    <clipPath
       clipPathUnits="userSpaceOnUse"
       id="clipPath4937">
      <rect
         style="fill:#ff012a;fill-opacity:1;stroke:#000000;stroke-width:0;stroke-miterlimit:4;stroke-dasharray:none;stroke-opacity:1"
         id="rect4939"
         width="400"
         height="400"
         x="4.9999999e-006"
         y="4.9999999e-006" />
    </clipPath>
    <clipPath
       clipPathUnits="userSpaceOnUse"
       id="clipPath4941">
      <rect
         style="fill:#ff012a;fill-opacity:1;stroke:#000000;stroke-width:0;stroke-miterlimit:4;stroke-dasharray:none;stroke-opacity:1"
         id="rect4943"
         width="400"
         height="400"
         x="4.9999999e-006"
         y="4.9999999e-006" />
    </clipPath>
    <pattern
       patternUnits="userSpaceOnUse"
       width="400"
       height="400"
       patternTransform="translate(-832.20339,281.17574)"
       id="pattern6383">
      <g
         transform="translate(-4.9999999e-6,-4.9999999e-6)"
         clip-path="url(#clipPath4941)"
         id="g10">
        <g
           id="g12">
          <rect
             x="0"
             y="0"
             width="400"
             height="400"
             id="rect14"
             style="fill:#ffffff;fill-opacity:1;stroke:none" />
        </g>
        <g
           transform="matrix(-0.65261087,0.75769324,-0.75769324,-0.65261087,274.00358,379.15743)"
           id="g16">
          <path
             d="M 45.220286,32.000513 C 46.209031,44.412216 13.469185,74.255805 5.9324702,74.470216 -1.6042442,74.684627 2.0413607,33.298802 0,33.286978 -2.0413607,33.275154 1.2482541,74.701148 -6.315694,74.399274 -13.879642,74.0974 -46.436304,40.446866 -45.383689,31.475734 -44.331073,22.504602 0.62331855,23.488312 0,20.572484 c -0.62331855,-2.915828 -43.460078,6.006554 -49.1236,-6.591717 -5.663522,-12.5982709 6.955201,-63.239034 15.142468,-68.997909 8.187266,-5.758876 32.3250033,36.234915 33.981132,34.444658 1.6561287,-1.790257 -28.108059,-37.701915 -24.04436,-45.186201 4.063699,-7.484286 44.41916,-5.131464 48.426554,0.280487 C 28.389587,-60.066247 -1.6468624,-35.096366 0,-33.286978 1.6468624,-31.47759 26.088342,-62.594598 34.263368,-54.62187 42.438394,-46.649141 54.760718,5.4457456 49.050157,14.549391 43.339595,23.653036 0.63831175,-2.9085204 0,0 -0.63831175,2.9085204 44.231541,19.58881 45.220286,32.000513"
             stroke-miterlimit="10"
             id="path18"
             inkscape:connector-curvature="0"
             style="fill:#000000;fill-opacity:0.5;stroke:#304de6;stroke-linecap:round;stroke-miterlimit:10;stroke-opacity:1;paint-order:fill stroke markers" />
        </g>
        <g
           transform="matrix(0.44326367,-0.89639128,0.89639128,0.44326367,249.87639,36.581325)"
           id="g20">
          <path
             d="M 45.220286,32.000513 C 46.209031,44.412216 13.469185,74.255805 5.9324702,74.470216 -1.6042442,74.684627 2.0413607,33.298802 0,33.286978 -2.0413607,33.275154 1.2482541,74.701148 -6.315694,74.399274 -13.879642,74.0974 -46.436304,40.446866 -45.383689,31.475734 -44.331073,22.504602 0.62331855,23.488312 0,20.572484 c -0.62331855,-2.915828 -43.460078,6.006554 -49.1236,-6.591717 -5.663522,-12.5982709 6.955201,-63.239034 15.142468,-68.997909 8.187266,-5.758876 32.3250033,36.234915 33.981132,34.444658 1.6561287,-1.790257 -28.108059,-37.701915 -24.04436,-45.186201 4.063699,-7.484286 44.41916,-5.131464 48.426554,0.280487 C 28.389587,-60.066247 -1.6468624,-35.096366 0,-33.286978 1.6468624,-31.47759 26.088342,-62.594598 34.263368,-54.62187 42.438394,-46.649141 54.760718,5.4457456 49.050157,14.549391 43.339595,23.653036 0.63831175,-2.9085204 0,0 -0.63831175,2.9085204 44.231541,19.58881 45.220286,32.000513"
             stroke-miterlimit="10"
             id="path22"
             inkscape:connector-curvature="0"
             style="fill:#ffffff;fill-opacity:0.5;stroke:#304de6;stroke-linecap:round;stroke-miterlimit:10;stroke-opacity:1;paint-order:fill stroke markers" />
        </g>
        <g
           transform="matrix(-0.35774579,-0.93381901,0.93381901,-0.35774579,30.23509,391.50831)"
           id="g24">
          <path
             d="M 45.220286,32.000513 C 46.209031,44.412216 13.469185,74.255805 5.9324702,74.470216 -1.6042442,74.684627 2.0413607,33.298802 0,33.286978 -2.0413607,33.275154 1.2482541,74.701148 -6.315694,74.399274 -13.879642,74.0974 -46.436304,40.446866 -45.383689,31.475734 -44.331073,22.504602 0.62331855,23.488312 0,20.572484 c -0.62331855,-2.915828 -43.460078,6.006554 -49.1236,-6.591717 -5.663522,-12.5982709 6.955201,-63.239034 15.142468,-68.997909 8.187266,-5.758876 32.3250033,36.234915 33.981132,34.444658 1.6561287,-1.790257 -28.108059,-37.701915 -24.04436,-45.186201 4.063699,-7.484286 44.41916,-5.131464 48.426554,0.280487 C 28.389587,-60.066247 -1.6468624,-35.096366 0,-33.286978 1.6468624,-31.47759 26.088342,-62.594598 34.263368,-54.62187 42.438394,-46.649141 54.760718,5.4457456 49.050157,14.549391 43.339595,23.653036 0.63831175,-2.9085204 0,0 -0.63831175,2.9085204 44.231541,19.58881 45.220286,32.000513"
             stroke-miterlimit="10"
             id="path26"
             inkscape:connector-curvature="0"
             style="fill:#c30808;fill-opacity:0.5;stroke:#304de6;stroke-linecap:round;stroke-miterlimit:10;stroke-opacity:1;paint-order:fill stroke markers" />
        </g>
        <g
           transform="matrix(0.09847926,-0.9951391,0.9951391,0.09847926,370.91482,241.47382)"
           id="g28">
          <path
             d="M 45.220286,32.000513 C 46.209031,44.412216 13.469185,74.255805 5.9324702,74.470216 -1.6042442,74.684627 2.0413607,33.298802 0,33.286978 -2.0413607,33.275154 1.2482541,74.701148 -6.315694,74.399274 -13.879642,74.0974 -46.436304,40.446866 -45.383689,31.475734 -44.331073,22.504602 0.62331855,23.488312 0,20.572484 c -0.62331855,-2.915828 -43.460078,6.006554 -49.1236,-6.591717 -5.663522,-12.5982709 6.955201,-63.239034 15.142468,-68.997909 8.187266,-5.758876 32.3250033,36.234915 33.981132,34.444658 1.6561287,-1.790257 -28.108059,-37.701915 -24.04436,-45.186201 4.063699,-7.484286 44.41916,-5.131464 48.426554,0.280487 C 28.389587,-60.066247 -1.6468624,-35.096366 0,-33.286978 1.6468624,-31.47759 26.088342,-62.594598 34.263368,-54.62187 42.438394,-46.649141 54.760718,5.4457456 49.050157,14.549391 43.339595,23.653036 0.63831175,-2.9085204 0,0 -0.63831175,2.9085204 44.231541,19.58881 45.220286,32.000513"
             stroke-miterlimit="10"
             id="path30"
             inkscape:connector-curvature="0"
             style="fill:#f47171;fill-opacity:0.5;stroke:#304de6;stroke-linecap:round;stroke-miterlimit:10;stroke-opacity:1;paint-order:fill stroke markers" />
        </g>
        <g
           transform="matrix(0.96172619,-0.27401228,0.27401228,0.96172619,397.30615,146.41109)"
           id="g32">
          <path
             d="M 45.220286,32.000513 C 46.209031,44.412216 13.469185,74.255805 5.9324702,74.470216 -1.6042442,74.684627 2.0413607,33.298802 0,33.286978 -2.0413607,33.275154 1.2482541,74.701148 -6.315694,74.399274 -13.879642,74.0974 -46.436304,40.446866 -45.383689,31.475734 -44.331073,22.504602 0.62331855,23.488312 0,20.572484 c -0.62331855,-2.915828 -43.460078,6.006554 -49.1236,-6.591717 -5.663522,-12.5982709 6.955201,-63.239034 15.142468,-68.997909 8.187266,-5.758876 32.3250033,36.234915 33.981132,34.444658 1.6561287,-1.790257 -28.108059,-37.701915 -24.04436,-45.186201 4.063699,-7.484286 44.41916,-5.131464 48.426554,0.280487 C 28.389587,-60.066247 -1.6468624,-35.096366 0,-33.286978 1.6468624,-31.47759 26.088342,-62.594598 34.263368,-54.62187 42.438394,-46.649141 54.760718,5.4457456 49.050157,14.549391 43.339595,23.653036 0.63831175,-2.9085204 0,0 -0.63831175,2.9085204 44.231541,19.58881 45.220286,32.000513"
             stroke-miterlimit="10"
             id="path34"
             inkscape:connector-curvature="0"
             style="fill:#dcf421;fill-opacity:0.5;stroke:#304de6;stroke-linecap:round;stroke-miterlimit:10;stroke-opacity:1;paint-order:fill stroke markers" />
        </g>
        <g
           transform="matrix(0.23088806,0.97298032,-0.97298032,0.23088806,104.90468,355.00382)"
           id="g36">
          <path
             d="M 45.220286,32.000513 C 46.209031,44.412216 13.469185,74.255805 5.9324702,74.470216 -1.6042442,74.684627 2.0413607,33.298802 0,33.286978 -2.0413607,33.275154 1.2482541,74.701148 -6.315694,74.399274 -13.879642,74.0974 -46.436304,40.446866 -45.383689,31.475734 -44.331073,22.504602 0.62331855,23.488312 0,20.572484 c -0.62331855,-2.915828 -43.460078,6.006554 -49.1236,-6.591717 -5.663522,-12.5982709 6.955201,-63.239034 15.142468,-68.997909 8.187266,-5.758876 32.3250033,36.234915 33.981132,34.444658 1.6561287,-1.790257 -28.108059,-37.701915 -24.04436,-45.186201 4.063699,-7.484286 44.41916,-5.131464 48.426554,0.280487 C 28.389587,-60.066247 -1.6468624,-35.096366 0,-33.286978 1.6468624,-31.47759 26.088342,-62.594598 34.263368,-54.62187 42.438394,-46.649141 54.760718,5.4457456 49.050157,14.549391 43.339595,23.653036 0.63831175,-2.9085204 0,0 -0.63831175,2.9085204 44.231541,19.58881 45.220286,32.000513"
             stroke-miterlimit="10"
             id="path38"
             inkscape:connector-curvature="0"
             style="fill:#365d09;fill-opacity:0.5;stroke:#304de6;stroke-linecap:round;stroke-miterlimit:10;stroke-opacity:1;paint-order:fill stroke markers" />
        </g>
        <g
           transform="matrix(0.9989811,-0.04513054,0.04513054,0.9989811,103.2914,299.16529)"
           id="g40">
          <path
             d="M 45.220286,32.000513 C 46.209031,44.412216 13.469185,74.255805 5.9324702,74.470216 -1.6042442,74.684627 2.0413607,33.298802 0,33.286978 -2.0413607,33.275154 1.2482541,74.701148 -6.315694,74.399274 -13.879642,74.0974 -46.436304,40.446866 -45.383689,31.475734 -44.331073,22.504602 0.62331855,23.488312 0,20.572484 c -0.62331855,-2.915828 -43.460078,6.006554 -49.1236,-6.591717 -5.663522,-12.5982709 6.955201,-63.239034 15.142468,-68.997909 8.187266,-5.758876 32.3250033,36.234915 33.981132,34.444658 1.6561287,-1.790257 -28.108059,-37.701915 -24.04436,-45.186201 4.063699,-7.484286 44.41916,-5.131464 48.426554,0.280487 C 28.389587,-60.066247 -1.6468624,-35.096366 0,-33.286978 1.6468624,-31.47759 26.088342,-62.594598 34.263368,-54.62187 42.438394,-46.649141 54.760718,5.4457456 49.050157,14.549391 43.339595,23.653036 0.63831175,-2.9085204 0,0 -0.63831175,2.9085204 44.231541,19.58881 45.220286,32.000513"
             stroke-miterlimit="10"
             id="path42"
             inkscape:connector-curvature="0"
             style="fill:#113d04;fill-opacity:0.5;stroke:#304de6;stroke-linecap:round;stroke-miterlimit:10;stroke-opacity:1;paint-order:fill stroke markers" />
        </g>
        <g
           transform="matrix(0.90700166,0.42112705,-0.42112705,0.90700166,133.80021,222.14468)"
           id="g44">
          <path
             d="M 45.220286,32.000513 C 46.209031,44.412216 13.469185,74.255805 5.9324702,74.470216 -1.6042442,74.684627 2.0413607,33.298802 0,33.286978 -2.0413607,33.275154 1.2482541,74.701148 -6.315694,74.399274 -13.879642,74.0974 -46.436304,40.446866 -45.383689,31.475734 -44.331073,22.504602 0.62331855,23.488312 0,20.572484 c -0.62331855,-2.915828 -43.460078,6.006554 -49.1236,-6.591717 -5.663522,-12.5982709 6.955201,-63.239034 15.142468,-68.997909 8.187266,-5.758876 32.3250033,36.234915 33.981132,34.444658 1.6561287,-1.790257 -28.108059,-37.701915 -24.04436,-45.186201 4.063699,-7.484286 44.41916,-5.131464 48.426554,0.280487 C 28.389587,-60.066247 -1.6468624,-35.096366 0,-33.286978 1.6468624,-31.47759 26.088342,-62.594598 34.263368,-54.62187 42.438394,-46.649141 54.760718,5.4457456 49.050157,14.549391 43.339595,23.653036 0.63831175,-2.9085204 0,0 -0.63831175,2.9085204 44.231541,19.58881 45.220286,32.000513"
             stroke-miterlimit="10"
             id="path46"
             inkscape:connector-curvature="0"
             style="fill:#b8ec76;fill-opacity:0.5;stroke:#304de6;stroke-linecap:round;stroke-miterlimit:10;stroke-opacity:1;paint-order:fill stroke markers" />
        </g>
        <g
           transform="matrix(-0.71222424,0.70195201,-0.70195201,-0.71222424,144.76272,144.7563)"
           id="g48">
          <path
             d="M 45.220286,32.000513 C 46.209031,44.412216 13.469185,74.255805 5.9324702,74.470216 -1.6042442,74.684627 2.0413607,33.298802 0,33.286978 -2.0413607,33.275154 1.2482541,74.701148 -6.315694,74.399274 -13.879642,74.0974 -46.436304,40.446866 -45.383689,31.475734 -44.331073,22.504602 0.62331855,23.488312 0,20.572484 c -0.62331855,-2.915828 -43.460078,6.006554 -49.1236,-6.591717 -5.663522,-12.5982709 6.955201,-63.239034 15.142468,-68.997909 8.187266,-5.758876 32.3250033,36.234915 33.981132,34.444658 1.6561287,-1.790257 -28.108059,-37.701915 -24.04436,-45.186201 4.063699,-7.484286 44.41916,-5.131464 48.426554,0.280487 C 28.389587,-60.066247 -1.6468624,-35.096366 0,-33.286978 1.6468624,-31.47759 26.088342,-62.594598 34.263368,-54.62187 42.438394,-46.649141 54.760718,5.4457456 49.050157,14.549391 43.339595,23.653036 0.63831175,-2.9085204 0,0 -0.63831175,2.9085204 44.231541,19.58881 45.220286,32.000513"
             stroke-miterlimit="10"
             id="path50"
             inkscape:connector-curvature="0"
             style="fill:#000000;fill-opacity:0.5;stroke:#304de6;stroke-linecap:round;stroke-miterlimit:10;stroke-opacity:1;paint-order:fill stroke markers" />
        </g>
        <g
           transform="matrix(0.35120528,-0.93629848,0.93629848,0.35120528,155.22417,124.87345)"
           id="g52">
          <path
             d="M 45.220286,32.000513 C 46.209031,44.412216 13.469185,74.255805 5.9324702,74.470216 -1.6042442,74.684627 2.0413607,33.298802 0,33.286978 -2.0413607,33.275154 1.2482541,74.701148 -6.315694,74.399274 -13.879642,74.0974 -46.436304,40.446866 -45.383689,31.475734 -44.331073,22.504602 0.62331855,23.488312 0,20.572484 c -0.62331855,-2.915828 -43.460078,6.006554 -49.1236,-6.591717 -5.663522,-12.5982709 6.955201,-63.239034 15.142468,-68.997909 8.187266,-5.758876 32.3250033,36.234915 33.981132,34.444658 1.6561287,-1.790257 -28.108059,-37.701915 -24.04436,-45.186201 4.063699,-7.484286 44.41916,-5.131464 48.426554,0.280487 C 28.389587,-60.066247 -1.6468624,-35.096366 0,-33.286978 1.6468624,-31.47759 26.088342,-62.594598 34.263368,-54.62187 42.438394,-46.649141 54.760718,5.4457456 49.050157,14.549391 43.339595,23.653036 0.63831175,-2.9085204 0,0 -0.63831175,2.9085204 44.231541,19.58881 45.220286,32.000513"
             stroke-miterlimit="10"
             id="path54"
             inkscape:connector-curvature="0"
             style="fill:#ffffff;fill-opacity:0.5;stroke:#304de6;stroke-linecap:round;stroke-miterlimit:10;stroke-opacity:1;paint-order:fill stroke markers" />
        </g>
      </g>
      <g
         transform="translate(-4.9999999e-6,-4.9999999e-6)"
         clip-path="url(#clipPath4937)"
         id="g156">
        <g
           transform="translate(0,-400)"
           id="g158">
          <g
             transform="matrix(-0.65261087,0.75769324,-0.75769324,-0.65261087,274.00358,379.15743)"
             id="g160">
            <path
               d="M 45.220286,32.000513 C 46.209031,44.412216 13.469185,74.255805 5.9324702,74.470216 -1.6042442,74.684627 2.0413607,33.298802 0,33.286978 -2.0413607,33.275154 1.2482541,74.701148 -6.315694,74.399274 -13.879642,74.0974 -46.436304,40.446866 -45.383689,31.475734 -44.331073,22.504602 0.62331855,23.488312 0,20.572484 c -0.62331855,-2.915828 -43.460078,6.006554 -49.1236,-6.591717 -5.663522,-12.5982709 6.955201,-63.239034 15.142468,-68.997909 8.187266,-5.758876 32.3250033,36.234915 33.981132,34.444658 1.6561287,-1.790257 -28.108059,-37.701915 -24.04436,-45.186201 4.063699,-7.484286 44.41916,-5.131464 48.426554,0.280487 C 28.389587,-60.066247 -1.6468624,-35.096366 0,-33.286978 1.6468624,-31.47759 26.088342,-62.594598 34.263368,-54.62187 42.438394,-46.649141 54.760718,5.4457456 49.050157,14.549391 43.339595,23.653036 0.63831175,-2.9085204 0,0 -0.63831175,2.9085204 44.231541,19.58881 45.220286,32.000513"
               stroke-miterlimit="10"
               id="path162"
               inkscape:connector-curvature="0"
               style="fill:#000000;fill-opacity:0.5;stroke:#304de6;stroke-linecap:round;stroke-miterlimit:10;stroke-opacity:1;paint-order:fill stroke markers" />
          </g>
        </g>
        <g
           transform="translate(0,400)"
           id="g164">
          <g
             transform="matrix(0.44326367,-0.89639128,0.89639128,0.44326367,249.87639,36.581325)"
             id="g166">
            <path
               d="M 45.220286,32.000513 C 46.209031,44.412216 13.469185,74.255805 5.9324702,74.470216 -1.6042442,74.684627 2.0413607,33.298802 0,33.286978 -2.0413607,33.275154 1.2482541,74.701148 -6.315694,74.399274 -13.879642,74.0974 -46.436304,40.446866 -45.383689,31.475734 -44.331073,22.504602 0.62331855,23.488312 0,20.572484 c -0.62331855,-2.915828 -43.460078,6.006554 -49.1236,-6.591717 -5.663522,-12.5982709 6.955201,-63.239034 15.142468,-68.997909 8.187266,-5.758876 32.3250033,36.234915 33.981132,34.444658 1.6561287,-1.790257 -28.108059,-37.701915 -24.04436,-45.186201 4.063699,-7.484286 44.41916,-5.131464 48.426554,0.280487 C 28.389587,-60.066247 -1.6468624,-35.096366 0,-33.286978 1.6468624,-31.47759 26.088342,-62.594598 34.263368,-54.62187 42.438394,-46.649141 54.760718,5.4457456 49.050157,14.549391 43.339595,23.653036 0.63831175,-2.9085204 0,0 -0.63831175,2.9085204 44.231541,19.58881 45.220286,32.000513"
               stroke-miterlimit="10"
               id="path168"
               inkscape:connector-curvature="0"
               style="fill:#ffffff;fill-opacity:0.5;stroke:#304de6;stroke-linecap:round;stroke-miterlimit:10;stroke-opacity:1;paint-order:fill stroke markers" />
          </g>
        </g>
        <g
           transform="translate(400,0)"
           id="g170">
          <g
             transform="matrix(-0.35774579,-0.93381901,0.93381901,-0.35774579,30.23509,391.50831)"
             id="g172">
            <path
               d="M 45.220286,32.000513 C 46.209031,44.412216 13.469185,74.255805 5.9324702,74.470216 -1.6042442,74.684627 2.0413607,33.298802 0,33.286978 -2.0413607,33.275154 1.2482541,74.701148 -6.315694,74.399274 -13.879642,74.0974 -46.436304,40.446866 -45.383689,31.475734 -44.331073,22.504602 0.62331855,23.488312 0,20.572484 c -0.62331855,-2.915828 -43.460078,6.006554 -49.1236,-6.591717 -5.663522,-12.5982709 6.955201,-63.239034 15.142468,-68.997909 8.187266,-5.758876 32.3250033,36.234915 33.981132,34.444658 1.6561287,-1.790257 -28.108059,-37.701915 -24.04436,-45.186201 4.063699,-7.484286 44.41916,-5.131464 48.426554,0.280487 C 28.389587,-60.066247 -1.6468624,-35.096366 0,-33.286978 1.6468624,-31.47759 26.088342,-62.594598 34.263368,-54.62187 42.438394,-46.649141 54.760718,5.4457456 49.050157,14.549391 43.339595,23.653036 0.63831175,-2.9085204 0,0 -0.63831175,2.9085204 44.231541,19.58881 45.220286,32.000513"
               stroke-miterlimit="10"
               id="path174"
               inkscape:connector-curvature="0"
               style="fill:#c30808;fill-opacity:0.5;stroke:#304de6;stroke-linecap:round;stroke-miterlimit:10;stroke-opacity:1;paint-order:fill stroke markers" />
          </g>
        </g>
        <g
           transform="translate(0,-400)"
           id="g176">
          <g
             transform="matrix(-0.35774579,-0.93381901,0.93381901,-0.35774579,30.23509,391.50831)"
             id="g178">
            <path
               d="M 45.220286,32.000513 C 46.209031,44.412216 13.469185,74.255805 5.9324702,74.470216 -1.6042442,74.684627 2.0413607,33.298802 0,33.286978 -2.0413607,33.275154 1.2482541,74.701148 -6.315694,74.399274 -13.879642,74.0974 -46.436304,40.446866 -45.383689,31.475734 -44.331073,22.504602 0.62331855,23.488312 0,20.572484 c -0.62331855,-2.915828 -43.460078,6.006554 -49.1236,-6.591717 -5.663522,-12.5982709 6.955201,-63.239034 15.142468,-68.997909 8.187266,-5.758876 32.3250033,36.234915 33.981132,34.444658 1.6561287,-1.790257 -28.108059,-37.701915 -24.04436,-45.186201 4.063699,-7.484286 44.41916,-5.131464 48.426554,0.280487 C 28.389587,-60.066247 -1.6468624,-35.096366 0,-33.286978 1.6468624,-31.47759 26.088342,-62.594598 34.263368,-54.62187 42.438394,-46.649141 54.760718,5.4457456 49.050157,14.549391 43.339595,23.653036 0.63831175,-2.9085204 0,0 -0.63831175,2.9085204 44.231541,19.58881 45.220286,32.000513"
               stroke-miterlimit="10"
               id="path180"
               inkscape:connector-curvature="0"
               style="fill:#c30808;fill-opacity:0.5;stroke:#304de6;stroke-linecap:round;stroke-miterlimit:10;stroke-opacity:1;paint-order:fill stroke markers" />
          </g>
        </g>
        <g
           transform="translate(-400,0)"
           id="g182">
          <g
             transform="matrix(0.09847926,-0.9951391,0.9951391,0.09847926,370.91482,241.47382)"
             id="g184">
            <path
               d="M 45.220286,32.000513 C 46.209031,44.412216 13.469185,74.255805 5.9324702,74.470216 -1.6042442,74.684627 2.0413607,33.298802 0,33.286978 -2.0413607,33.275154 1.2482541,74.701148 -6.315694,74.399274 -13.879642,74.0974 -46.436304,40.446866 -45.383689,31.475734 -44.331073,22.504602 0.62331855,23.488312 0,20.572484 c -0.62331855,-2.915828 -43.460078,6.006554 -49.1236,-6.591717 -5.663522,-12.5982709 6.955201,-63.239034 15.142468,-68.997909 8.187266,-5.758876 32.3250033,36.234915 33.981132,34.444658 1.6561287,-1.790257 -28.108059,-37.701915 -24.04436,-45.186201 4.063699,-7.484286 44.41916,-5.131464 48.426554,0.280487 C 28.389587,-60.066247 -1.6468624,-35.096366 0,-33.286978 1.6468624,-31.47759 26.088342,-62.594598 34.263368,-54.62187 42.438394,-46.649141 54.760718,5.4457456 49.050157,14.549391 43.339595,23.653036 0.63831175,-2.9085204 0,0 -0.63831175,2.9085204 44.231541,19.58881 45.220286,32.000513"
               stroke-miterlimit="10"
               id="path186"
               inkscape:connector-curvature="0"
               style="fill:#f47171;fill-opacity:0.5;stroke:#304de6;stroke-linecap:round;stroke-miterlimit:10;stroke-opacity:1;paint-order:fill stroke markers" />
          </g>
        </g>
        <g
           transform="translate(-400,0)"
           id="g188">
          <g
             transform="matrix(0.96172619,-0.27401228,0.27401228,0.96172619,397.30615,146.41109)"
             id="g190">
            <path
               d="M 45.220286,32.000513 C 46.209031,44.412216 13.469185,74.255805 5.9324702,74.470216 -1.6042442,74.684627 2.0413607,33.298802 0,33.286978 -2.0413607,33.275154 1.2482541,74.701148 -6.315694,74.399274 -13.879642,74.0974 -46.436304,40.446866 -45.383689,31.475734 -44.331073,22.504602 0.62331855,23.488312 0,20.572484 c -0.62331855,-2.915828 -43.460078,6.006554 -49.1236,-6.591717 -5.663522,-12.5982709 6.955201,-63.239034 15.142468,-68.997909 8.187266,-5.758876 32.3250033,36.234915 33.981132,34.444658 1.6561287,-1.790257 -28.108059,-37.701915 -24.04436,-45.186201 4.063699,-7.484286 44.41916,-5.131464 48.426554,0.280487 C 28.389587,-60.066247 -1.6468624,-35.096366 0,-33.286978 1.6468624,-31.47759 26.088342,-62.594598 34.263368,-54.62187 42.438394,-46.649141 54.760718,5.4457456 49.050157,14.549391 43.339595,23.653036 0.63831175,-2.9085204 0,0 -0.63831175,2.9085204 44.231541,19.58881 45.220286,32.000513"
               stroke-miterlimit="10"
               id="path192"
               inkscape:connector-curvature="0"
               style="fill:#dcf421;fill-opacity:0.5;stroke:#304de6;stroke-linecap:round;stroke-miterlimit:10;stroke-opacity:1;paint-order:fill stroke markers" />
          </g>
        </g>
        <g
           transform="translate(0,-400)"
           id="g194">
          <g
             transform="matrix(0.23088806,0.97298032,-0.97298032,0.23088806,104.90468,355.00382)"
             id="g196">
            <path
               d="M 45.220286,32.000513 C 46.209031,44.412216 13.469185,74.255805 5.9324702,74.470216 -1.6042442,74.684627 2.0413607,33.298802 0,33.286978 -2.0413607,33.275154 1.2482541,74.701148 -6.315694,74.399274 -13.879642,74.0974 -46.436304,40.446866 -45.383689,31.475734 -44.331073,22.504602 0.62331855,23.488312 0,20.572484 c -0.62331855,-2.915828 -43.460078,6.006554 -49.1236,-6.591717 -5.663522,-12.5982709 6.955201,-63.239034 15.142468,-68.997909 8.187266,-5.758876 32.3250033,36.234915 33.981132,34.444658 1.6561287,-1.790257 -28.108059,-37.701915 -24.04436,-45.186201 4.063699,-7.484286 44.41916,-5.131464 48.426554,0.280487 C 28.389587,-60.066247 -1.6468624,-35.096366 0,-33.286978 1.6468624,-31.47759 26.088342,-62.594598 34.263368,-54.62187 42.438394,-46.649141 54.760718,5.4457456 49.050157,14.549391 43.339595,23.653036 0.63831175,-2.9085204 0,0 -0.63831175,2.9085204 44.231541,19.58881 45.220286,32.000513"
               stroke-miterlimit="10"
               id="path198"
               inkscape:connector-curvature="0"
               style="fill:#365d09;fill-opacity:0.5;stroke:#304de6;stroke-linecap:round;stroke-miterlimit:10;stroke-opacity:1;paint-order:fill stroke markers" />
          </g>
        </g>
      </g>
    </pattern>
    <pattern
       patternUnits="userSpaceOnUse"
       width="89.830512"
       height="101.69495"
       patternTransform="translate(-832.20337,281.1757)"
       id="pattern6524">
      <rect
         id="rect6430"
         y="0"
         x="0"
         height="101.69492"
         width="89.830505"
         style="fill:none;stroke:none" />
      <g
         transform="matrix(0.22457628,0,0,0.25423729,-8.5937495e-7,2.9785156e-5)"
         clip-path="url(#clipPath4941)"
         id="g6434">
        <g
           id="g6436">
          <rect
             x="0"
             y="0"
             width="400"
             height="400"
             id="rect6438"
             style="fill:#ffffff;fill-opacity:1;stroke:none" />
        </g>
        <g
           transform="matrix(-0.65261087,0.75769324,-0.75769324,-0.65261087,274.00358,379.15743)"
           id="g6440">
          <path
             d="M 45.220286,32.000513 C 46.209031,44.412216 13.469185,74.255805 5.9324702,74.470216 -1.6042442,74.684627 2.0413607,33.298802 0,33.286978 -2.0413607,33.275154 1.2482541,74.701148 -6.315694,74.399274 -13.879642,74.0974 -46.436304,40.446866 -45.383689,31.475734 -44.331073,22.504602 0.62331855,23.488312 0,20.572484 c -0.62331855,-2.915828 -43.460078,6.006554 -49.1236,-6.591717 -5.663522,-12.5982709 6.955201,-63.239034 15.142468,-68.997909 8.187266,-5.758876 32.3250033,36.234915 33.981132,34.444658 1.6561287,-1.790257 -28.108059,-37.701915 -24.04436,-45.186201 4.063699,-7.484286 44.41916,-5.131464 48.426554,0.280487 C 28.389587,-60.066247 -1.6468624,-35.096366 0,-33.286978 1.6468624,-31.47759 26.088342,-62.594598 34.263368,-54.62187 42.438394,-46.649141 54.760718,5.4457456 49.050157,14.549391 43.339595,23.653036 0.63831175,-2.9085204 0,0 -0.63831175,2.9085204 44.231541,19.58881 45.220286,32.000513"
             stroke-miterlimit="10"
             id="path6442"
             inkscape:connector-curvature="0"
             style="fill:#000000;fill-opacity:0.5;stroke:#304de6;stroke-linecap:round;stroke-miterlimit:10;stroke-opacity:1;paint-order:fill stroke markers" />
        </g>
        <g
           transform="matrix(0.44326367,-0.89639128,0.89639128,0.44326367,249.87639,36.581325)"
           id="g6444">
          <path
             d="M 45.220286,32.000513 C 46.209031,44.412216 13.469185,74.255805 5.9324702,74.470216 -1.6042442,74.684627 2.0413607,33.298802 0,33.286978 -2.0413607,33.275154 1.2482541,74.701148 -6.315694,74.399274 -13.879642,74.0974 -46.436304,40.446866 -45.383689,31.475734 -44.331073,22.504602 0.62331855,23.488312 0,20.572484 c -0.62331855,-2.915828 -43.460078,6.006554 -49.1236,-6.591717 -5.663522,-12.5982709 6.955201,-63.239034 15.142468,-68.997909 8.187266,-5.758876 32.3250033,36.234915 33.981132,34.444658 1.6561287,-1.790257 -28.108059,-37.701915 -24.04436,-45.186201 4.063699,-7.484286 44.41916,-5.131464 48.426554,0.280487 C 28.389587,-60.066247 -1.6468624,-35.096366 0,-33.286978 1.6468624,-31.47759 26.088342,-62.594598 34.263368,-54.62187 42.438394,-46.649141 54.760718,5.4457456 49.050157,14.549391 43.339595,23.653036 0.63831175,-2.9085204 0,0 -0.63831175,2.9085204 44.231541,19.58881 45.220286,32.000513"
             stroke-miterlimit="10"
             id="path6446"
             inkscape:connector-curvature="0"
             style="fill:#ffffff;fill-opacity:0.5;stroke:#304de6;stroke-linecap:round;stroke-miterlimit:10;stroke-opacity:1;paint-order:fill stroke markers" />
        </g>
        <g
           transform="matrix(-0.35774579,-0.93381901,0.93381901,-0.35774579,30.23509,391.50831)"
           id="g6448">
          <path
             d="M 45.220286,32.000513 C 46.209031,44.412216 13.469185,74.255805 5.9324702,74.470216 -1.6042442,74.684627 2.0413607,33.298802 0,33.286978 -2.0413607,33.275154 1.2482541,74.701148 -6.315694,74.399274 -13.879642,74.0974 -46.436304,40.446866 -45.383689,31.475734 -44.331073,22.504602 0.62331855,23.488312 0,20.572484 c -0.62331855,-2.915828 -43.460078,6.006554 -49.1236,-6.591717 -5.663522,-12.5982709 6.955201,-63.239034 15.142468,-68.997909 8.187266,-5.758876 32.3250033,36.234915 33.981132,34.444658 1.6561287,-1.790257 -28.108059,-37.701915 -24.04436,-45.186201 4.063699,-7.484286 44.41916,-5.131464 48.426554,0.280487 C 28.389587,-60.066247 -1.6468624,-35.096366 0,-33.286978 1.6468624,-31.47759 26.088342,-62.594598 34.263368,-54.62187 42.438394,-46.649141 54.760718,5.4457456 49.050157,14.549391 43.339595,23.653036 0.63831175,-2.9085204 0,0 -0.63831175,2.9085204 44.231541,19.58881 45.220286,32.000513"
             stroke-miterlimit="10"
             id="path6450"
             inkscape:connector-curvature="0"
             style="fill:#c30808;fill-opacity:0.5;stroke:#304de6;stroke-linecap:round;stroke-miterlimit:10;stroke-opacity:1;paint-order:fill stroke markers" />
        </g>
        <g
           transform="matrix(0.09847926,-0.9951391,0.9951391,0.09847926,370.91482,241.47382)"
           id="g6452">
          <path
             d="M 45.220286,32.000513 C 46.209031,44.412216 13.469185,74.255805 5.9324702,74.470216 -1.6042442,74.684627 2.0413607,33.298802 0,33.286978 -2.0413607,33.275154 1.2482541,74.701148 -6.315694,74.399274 -13.879642,74.0974 -46.436304,40.446866 -45.383689,31.475734 -44.331073,22.504602 0.62331855,23.488312 0,20.572484 c -0.62331855,-2.915828 -43.460078,6.006554 -49.1236,-6.591717 -5.663522,-12.5982709 6.955201,-63.239034 15.142468,-68.997909 8.187266,-5.758876 32.3250033,36.234915 33.981132,34.444658 1.6561287,-1.790257 -28.108059,-37.701915 -24.04436,-45.186201 4.063699,-7.484286 44.41916,-5.131464 48.426554,0.280487 C 28.389587,-60.066247 -1.6468624,-35.096366 0,-33.286978 1.6468624,-31.47759 26.088342,-62.594598 34.263368,-54.62187 42.438394,-46.649141 54.760718,5.4457456 49.050157,14.549391 43.339595,23.653036 0.63831175,-2.9085204 0,0 -0.63831175,2.9085204 44.231541,19.58881 45.220286,32.000513"
             stroke-miterlimit="10"
             id="path6454"
             inkscape:connector-curvature="0"
             style="fill:#f47171;fill-opacity:0.5;stroke:#304de6;stroke-linecap:round;stroke-miterlimit:10;stroke-opacity:1;paint-order:fill stroke markers" />
        </g>
        <g
           transform="matrix(0.96172619,-0.27401228,0.27401228,0.96172619,397.30615,146.41109)"
           id="g6456">
          <path
             d="M 45.220286,32.000513 C 46.209031,44.412216 13.469185,74.255805 5.9324702,74.470216 -1.6042442,74.684627 2.0413607,33.298802 0,33.286978 -2.0413607,33.275154 1.2482541,74.701148 -6.315694,74.399274 -13.879642,74.0974 -46.436304,40.446866 -45.383689,31.475734 -44.331073,22.504602 0.62331855,23.488312 0,20.572484 c -0.62331855,-2.915828 -43.460078,6.006554 -49.1236,-6.591717 -5.663522,-12.5982709 6.955201,-63.239034 15.142468,-68.997909 8.187266,-5.758876 32.3250033,36.234915 33.981132,34.444658 1.6561287,-1.790257 -28.108059,-37.701915 -24.04436,-45.186201 4.063699,-7.484286 44.41916,-5.131464 48.426554,0.280487 C 28.389587,-60.066247 -1.6468624,-35.096366 0,-33.286978 1.6468624,-31.47759 26.088342,-62.594598 34.263368,-54.62187 42.438394,-46.649141 54.760718,5.4457456 49.050157,14.549391 43.339595,23.653036 0.63831175,-2.9085204 0,0 -0.63831175,2.9085204 44.231541,19.58881 45.220286,32.000513"
             stroke-miterlimit="10"
             id="path6458"
             inkscape:connector-curvature="0"
             style="fill:#dcf421;fill-opacity:0.5;stroke:#304de6;stroke-linecap:round;stroke-miterlimit:10;stroke-opacity:1;paint-order:fill stroke markers" />
        </g>
        <g
           transform="matrix(0.23088806,0.97298032,-0.97298032,0.23088806,104.90468,355.00382)"
           id="g6460">
          <path
             d="M 45.220286,32.000513 C 46.209031,44.412216 13.469185,74.255805 5.9324702,74.470216 -1.6042442,74.684627 2.0413607,33.298802 0,33.286978 -2.0413607,33.275154 1.2482541,74.701148 -6.315694,74.399274 -13.879642,74.0974 -46.436304,40.446866 -45.383689,31.475734 -44.331073,22.504602 0.62331855,23.488312 0,20.572484 c -0.62331855,-2.915828 -43.460078,6.006554 -49.1236,-6.591717 -5.663522,-12.5982709 6.955201,-63.239034 15.142468,-68.997909 8.187266,-5.758876 32.3250033,36.234915 33.981132,34.444658 1.6561287,-1.790257 -28.108059,-37.701915 -24.04436,-45.186201 4.063699,-7.484286 44.41916,-5.131464 48.426554,0.280487 C 28.389587,-60.066247 -1.6468624,-35.096366 0,-33.286978 1.6468624,-31.47759 26.088342,-62.594598 34.263368,-54.62187 42.438394,-46.649141 54.760718,5.4457456 49.050157,14.549391 43.339595,23.653036 0.63831175,-2.9085204 0,0 -0.63831175,2.9085204 44.231541,19.58881 45.220286,32.000513"
             stroke-miterlimit="10"
             id="path6462"
             inkscape:connector-curvature="0"
             style="fill:#365d09;fill-opacity:0.5;stroke:#304de6;stroke-linecap:round;stroke-miterlimit:10;stroke-opacity:1;paint-order:fill stroke markers" />
        </g>
        <g
           transform="matrix(0.9989811,-0.04513054,0.04513054,0.9989811,103.2914,299.16529)"
           id="g6464">
          <path
             d="M 45.220286,32.000513 C 46.209031,44.412216 13.469185,74.255805 5.9324702,74.470216 -1.6042442,74.684627 2.0413607,33.298802 0,33.286978 -2.0413607,33.275154 1.2482541,74.701148 -6.315694,74.399274 -13.879642,74.0974 -46.436304,40.446866 -45.383689,31.475734 -44.331073,22.504602 0.62331855,23.488312 0,20.572484 c -0.62331855,-2.915828 -43.460078,6.006554 -49.1236,-6.591717 -5.663522,-12.5982709 6.955201,-63.239034 15.142468,-68.997909 8.187266,-5.758876 32.3250033,36.234915 33.981132,34.444658 1.6561287,-1.790257 -28.108059,-37.701915 -24.04436,-45.186201 4.063699,-7.484286 44.41916,-5.131464 48.426554,0.280487 C 28.389587,-60.066247 -1.6468624,-35.096366 0,-33.286978 1.6468624,-31.47759 26.088342,-62.594598 34.263368,-54.62187 42.438394,-46.649141 54.760718,5.4457456 49.050157,14.549391 43.339595,23.653036 0.63831175,-2.9085204 0,0 -0.63831175,2.9085204 44.231541,19.58881 45.220286,32.000513"
             stroke-miterlimit="10"
             id="path6466"
             inkscape:connector-curvature="0"
             style="fill:#113d04;fill-opacity:0.5;stroke:#304de6;stroke-linecap:round;stroke-miterlimit:10;stroke-opacity:1;paint-order:fill stroke markers" />
        </g>
        <g
           transform="matrix(0.90700166,0.42112705,-0.42112705,0.90700166,133.80021,222.14468)"
           id="g6468">
          <path
             d="M 45.220286,32.000513 C 46.209031,44.412216 13.469185,74.255805 5.9324702,74.470216 -1.6042442,74.684627 2.0413607,33.298802 0,33.286978 -2.0413607,33.275154 1.2482541,74.701148 -6.315694,74.399274 -13.879642,74.0974 -46.436304,40.446866 -45.383689,31.475734 -44.331073,22.504602 0.62331855,23.488312 0,20.572484 c -0.62331855,-2.915828 -43.460078,6.006554 -49.1236,-6.591717 -5.663522,-12.5982709 6.955201,-63.239034 15.142468,-68.997909 8.187266,-5.758876 32.3250033,36.234915 33.981132,34.444658 1.6561287,-1.790257 -28.108059,-37.701915 -24.04436,-45.186201 4.063699,-7.484286 44.41916,-5.131464 48.426554,0.280487 C 28.389587,-60.066247 -1.6468624,-35.096366 0,-33.286978 1.6468624,-31.47759 26.088342,-62.594598 34.263368,-54.62187 42.438394,-46.649141 54.760718,5.4457456 49.050157,14.549391 43.339595,23.653036 0.63831175,-2.9085204 0,0 -0.63831175,2.9085204 44.231541,19.58881 45.220286,32.000513"
             stroke-miterlimit="10"
             id="path6470"
             inkscape:connector-curvature="0"
             style="fill:#b8ec76;fill-opacity:0.5;stroke:#304de6;stroke-linecap:round;stroke-miterlimit:10;stroke-opacity:1;paint-order:fill stroke markers" />
        </g>
        <g
           transform="matrix(-0.71222424,0.70195201,-0.70195201,-0.71222424,144.76272,144.7563)"
           id="g6472">
          <path
             d="M 45.220286,32.000513 C 46.209031,44.412216 13.469185,74.255805 5.9324702,74.470216 -1.6042442,74.684627 2.0413607,33.298802 0,33.286978 -2.0413607,33.275154 1.2482541,74.701148 -6.315694,74.399274 -13.879642,74.0974 -46.436304,40.446866 -45.383689,31.475734 -44.331073,22.504602 0.62331855,23.488312 0,20.572484 c -0.62331855,-2.915828 -43.460078,6.006554 -49.1236,-6.591717 -5.663522,-12.5982709 6.955201,-63.239034 15.142468,-68.997909 8.187266,-5.758876 32.3250033,36.234915 33.981132,34.444658 1.6561287,-1.790257 -28.108059,-37.701915 -24.04436,-45.186201 4.063699,-7.484286 44.41916,-5.131464 48.426554,0.280487 C 28.389587,-60.066247 -1.6468624,-35.096366 0,-33.286978 1.6468624,-31.47759 26.088342,-62.594598 34.263368,-54.62187 42.438394,-46.649141 54.760718,5.4457456 49.050157,14.549391 43.339595,23.653036 0.63831175,-2.9085204 0,0 -0.63831175,2.9085204 44.231541,19.58881 45.220286,32.000513"
             stroke-miterlimit="10"
             id="path6474"
             inkscape:connector-curvature="0"
             style="fill:#000000;fill-opacity:0.5;stroke:#304de6;stroke-linecap:round;stroke-miterlimit:10;stroke-opacity:1;paint-order:fill stroke markers" />
        </g>
        <g
           transform="matrix(0.35120528,-0.93629848,0.93629848,0.35120528,155.22417,124.87345)"
           id="g6476">
          <path
             d="M 45.220286,32.000513 C 46.209031,44.412216 13.469185,74.255805 5.9324702,74.470216 -1.6042442,74.684627 2.0413607,33.298802 0,33.286978 -2.0413607,33.275154 1.2482541,74.701148 -6.315694,74.399274 -13.879642,74.0974 -46.436304,40.446866 -45.383689,31.475734 -44.331073,22.504602 0.62331855,23.488312 0,20.572484 c -0.62331855,-2.915828 -43.460078,6.006554 -49.1236,-6.591717 -5.663522,-12.5982709 6.955201,-63.239034 15.142468,-68.997909 8.187266,-5.758876 32.3250033,36.234915 33.981132,34.444658 1.6561287,-1.790257 -28.108059,-37.701915 -24.04436,-45.186201 4.063699,-7.484286 44.41916,-5.131464 48.426554,0.280487 C 28.389587,-60.066247 -1.6468624,-35.096366 0,-33.286978 1.6468624,-31.47759 26.088342,-62.594598 34.263368,-54.62187 42.438394,-46.649141 54.760718,5.4457456 49.050157,14.549391 43.339595,23.653036 0.63831175,-2.9085204 0,0 -0.63831175,2.9085204 44.231541,19.58881 45.220286,32.000513"
             stroke-miterlimit="10"
             id="path6478"
             inkscape:connector-curvature="0"
             style="fill:#ffffff;fill-opacity:0.5;stroke:#304de6;stroke-linecap:round;stroke-miterlimit:10;stroke-opacity:1;paint-order:fill stroke markers" />
        </g>
      </g>
      <g
         transform="matrix(0.22457628,0,0,0.25423729,-8.5937495e-7,2.9785156e-5)"
         clip-path="url(#clipPath4937)"
         id="g6480">
        <g
           transform="translate(0,-400)"
           id="g6482">
          <g
             transform="matrix(-0.65261087,0.75769324,-0.75769324,-0.65261087,274.00358,379.15743)"
             id="g6484">
            <path
               d="M 45.220286,32.000513 C 46.209031,44.412216 13.469185,74.255805 5.9324702,74.470216 -1.6042442,74.684627 2.0413607,33.298802 0,33.286978 -2.0413607,33.275154 1.2482541,74.701148 -6.315694,74.399274 -13.879642,74.0974 -46.436304,40.446866 -45.383689,31.475734 -44.331073,22.504602 0.62331855,23.488312 0,20.572484 c -0.62331855,-2.915828 -43.460078,6.006554 -49.1236,-6.591717 -5.663522,-12.5982709 6.955201,-63.239034 15.142468,-68.997909 8.187266,-5.758876 32.3250033,36.234915 33.981132,34.444658 1.6561287,-1.790257 -28.108059,-37.701915 -24.04436,-45.186201 4.063699,-7.484286 44.41916,-5.131464 48.426554,0.280487 C 28.389587,-60.066247 -1.6468624,-35.096366 0,-33.286978 1.6468624,-31.47759 26.088342,-62.594598 34.263368,-54.62187 42.438394,-46.649141 54.760718,5.4457456 49.050157,14.549391 43.339595,23.653036 0.63831175,-2.9085204 0,0 -0.63831175,2.9085204 44.231541,19.58881 45.220286,32.000513"
               stroke-miterlimit="10"
               id="path6486"
               inkscape:connector-curvature="0"
               style="fill:#000000;fill-opacity:0.5;stroke:#304de6;stroke-linecap:round;stroke-miterlimit:10;stroke-opacity:1;paint-order:fill stroke markers" />
          </g>
        </g>
        <g
           transform="translate(0,400)"
           id="g6488">
          <g
             transform="matrix(0.44326367,-0.89639128,0.89639128,0.44326367,249.87639,36.581325)"
             id="g6490">
            <path
               d="M 45.220286,32.000513 C 46.209031,44.412216 13.469185,74.255805 5.9324702,74.470216 -1.6042442,74.684627 2.0413607,33.298802 0,33.286978 -2.0413607,33.275154 1.2482541,74.701148 -6.315694,74.399274 -13.879642,74.0974 -46.436304,40.446866 -45.383689,31.475734 -44.331073,22.504602 0.62331855,23.488312 0,20.572484 c -0.62331855,-2.915828 -43.460078,6.006554 -49.1236,-6.591717 -5.663522,-12.5982709 6.955201,-63.239034 15.142468,-68.997909 8.187266,-5.758876 32.3250033,36.234915 33.981132,34.444658 1.6561287,-1.790257 -28.108059,-37.701915 -24.04436,-45.186201 4.063699,-7.484286 44.41916,-5.131464 48.426554,0.280487 C 28.389587,-60.066247 -1.6468624,-35.096366 0,-33.286978 1.6468624,-31.47759 26.088342,-62.594598 34.263368,-54.62187 42.438394,-46.649141 54.760718,5.4457456 49.050157,14.549391 43.339595,23.653036 0.63831175,-2.9085204 0,0 -0.63831175,2.9085204 44.231541,19.58881 45.220286,32.000513"
               stroke-miterlimit="10"
               id="path6492"
               inkscape:connector-curvature="0"
               style="fill:#ffffff;fill-opacity:0.5;stroke:#304de6;stroke-linecap:round;stroke-miterlimit:10;stroke-opacity:1;paint-order:fill stroke markers" />
          </g>
        </g>
        <g
           transform="translate(400,0)"
           id="g6494">
          <g
             transform="matrix(-0.35774579,-0.93381901,0.93381901,-0.35774579,30.23509,391.50831)"
             id="g6496">
            <path
               d="M 45.220286,32.000513 C 46.209031,44.412216 13.469185,74.255805 5.9324702,74.470216 -1.6042442,74.684627 2.0413607,33.298802 0,33.286978 -2.0413607,33.275154 1.2482541,74.701148 -6.315694,74.399274 -13.879642,74.0974 -46.436304,40.446866 -45.383689,31.475734 -44.331073,22.504602 0.62331855,23.488312 0,20.572484 c -0.62331855,-2.915828 -43.460078,6.006554 -49.1236,-6.591717 -5.663522,-12.5982709 6.955201,-63.239034 15.142468,-68.997909 8.187266,-5.758876 32.3250033,36.234915 33.981132,34.444658 1.6561287,-1.790257 -28.108059,-37.701915 -24.04436,-45.186201 4.063699,-7.484286 44.41916,-5.131464 48.426554,0.280487 C 28.389587,-60.066247 -1.6468624,-35.096366 0,-33.286978 1.6468624,-31.47759 26.088342,-62.594598 34.263368,-54.62187 42.438394,-46.649141 54.760718,5.4457456 49.050157,14.549391 43.339595,23.653036 0.63831175,-2.9085204 0,0 -0.63831175,2.9085204 44.231541,19.58881 45.220286,32.000513"
               stroke-miterlimit="10"
               id="path6498"
               inkscape:connector-curvature="0"
               style="fill:#c30808;fill-opacity:0.5;stroke:#304de6;stroke-linecap:round;stroke-miterlimit:10;stroke-opacity:1;paint-order:fill stroke markers" />
          </g>
        </g>
        <g
           transform="translate(0,-400)"
           id="g6500">
          <g
             transform="matrix(-0.35774579,-0.93381901,0.93381901,-0.35774579,30.23509,391.50831)"
             id="g6502">
            <path
               d="M 45.220286,32.000513 C 46.209031,44.412216 13.469185,74.255805 5.9324702,74.470216 -1.6042442,74.684627 2.0413607,33.298802 0,33.286978 -2.0413607,33.275154 1.2482541,74.701148 -6.315694,74.399274 -13.879642,74.0974 -46.436304,40.446866 -45.383689,31.475734 -44.331073,22.504602 0.62331855,23.488312 0,20.572484 c -0.62331855,-2.915828 -43.460078,6.006554 -49.1236,-6.591717 -5.663522,-12.5982709 6.955201,-63.239034 15.142468,-68.997909 8.187266,-5.758876 32.3250033,36.234915 33.981132,34.444658 1.6561287,-1.790257 -28.108059,-37.701915 -24.04436,-45.186201 4.063699,-7.484286 44.41916,-5.131464 48.426554,0.280487 C 28.389587,-60.066247 -1.6468624,-35.096366 0,-33.286978 1.6468624,-31.47759 26.088342,-62.594598 34.263368,-54.62187 42.438394,-46.649141 54.760718,5.4457456 49.050157,14.549391 43.339595,23.653036 0.63831175,-2.9085204 0,0 -0.63831175,2.9085204 44.231541,19.58881 45.220286,32.000513"
               stroke-miterlimit="10"
               id="path6504"
               inkscape:connector-curvature="0"
               style="fill:#c30808;fill-opacity:0.5;stroke:#304de6;stroke-linecap:round;stroke-miterlimit:10;stroke-opacity:1;paint-order:fill stroke markers" />
          </g>
        </g>
        <g
           transform="translate(-400,0)"
           id="g6506">
          <g
             transform="matrix(0.09847926,-0.9951391,0.9951391,0.09847926,370.91482,241.47382)"
             id="g6508">
            <path
               d="M 45.220286,32.000513 C 46.209031,44.412216 13.469185,74.255805 5.9324702,74.470216 -1.6042442,74.684627 2.0413607,33.298802 0,33.286978 -2.0413607,33.275154 1.2482541,74.701148 -6.315694,74.399274 -13.879642,74.0974 -46.436304,40.446866 -45.383689,31.475734 -44.331073,22.504602 0.62331855,23.488312 0,20.572484 c -0.62331855,-2.915828 -43.460078,6.006554 -49.1236,-6.591717 -5.663522,-12.5982709 6.955201,-63.239034 15.142468,-68.997909 8.187266,-5.758876 32.3250033,36.234915 33.981132,34.444658 1.6561287,-1.790257 -28.108059,-37.701915 -24.04436,-45.186201 4.063699,-7.484286 44.41916,-5.131464 48.426554,0.280487 C 28.389587,-60.066247 -1.6468624,-35.096366 0,-33.286978 1.6468624,-31.47759 26.088342,-62.594598 34.263368,-54.62187 42.438394,-46.649141 54.760718,5.4457456 49.050157,14.549391 43.339595,23.653036 0.63831175,-2.9085204 0,0 -0.63831175,2.9085204 44.231541,19.58881 45.220286,32.000513"
               stroke-miterlimit="10"
               id="path6510"
               inkscape:connector-curvature="0"
               style="fill:#f47171;fill-opacity:0.5;stroke:#304de6;stroke-linecap:round;stroke-miterlimit:10;stroke-opacity:1;paint-order:fill stroke markers" />
          </g>
        </g>
        <g
           transform="translate(-400,0)"
           id="g6512">
          <g
             transform="matrix(0.96172619,-0.27401228,0.27401228,0.96172619,397.30615,146.41109)"
             id="g6514">
            <path
               d="M 45.220286,32.000513 C 46.209031,44.412216 13.469185,74.255805 5.9324702,74.470216 -1.6042442,74.684627 2.0413607,33.298802 0,33.286978 -2.0413607,33.275154 1.2482541,74.701148 -6.315694,74.399274 -13.879642,74.0974 -46.436304,40.446866 -45.383689,31.475734 -44.331073,22.504602 0.62331855,23.488312 0,20.572484 c -0.62331855,-2.915828 -43.460078,6.006554 -49.1236,-6.591717 -5.663522,-12.5982709 6.955201,-63.239034 15.142468,-68.997909 8.187266,-5.758876 32.3250033,36.234915 33.981132,34.444658 1.6561287,-1.790257 -28.108059,-37.701915 -24.04436,-45.186201 4.063699,-7.484286 44.41916,-5.131464 48.426554,0.280487 C 28.389587,-60.066247 -1.6468624,-35.096366 0,-33.286978 1.6468624,-31.47759 26.088342,-62.594598 34.263368,-54.62187 42.438394,-46.649141 54.760718,5.4457456 49.050157,14.549391 43.339595,23.653036 0.63831175,-2.9085204 0,0 -0.63831175,2.9085204 44.231541,19.58881 45.220286,32.000513"
               stroke-miterlimit="10"
               id="path6516"
               inkscape:connector-curvature="0"
               style="fill:#dcf421;fill-opacity:0.5;stroke:#304de6;stroke-linecap:round;stroke-miterlimit:10;stroke-opacity:1;paint-order:fill stroke markers" />
          </g>
        </g>
        <g
           transform="translate(0,-400)"
           id="g6518">
          <g
             transform="matrix(0.23088806,0.97298032,-0.97298032,0.23088806,104.90468,355.00382)"
             id="g6520">
            <path
               d="M 45.220286,32.000513 C 46.209031,44.412216 13.469185,74.255805 5.9324702,74.470216 -1.6042442,74.684627 2.0413607,33.298802 0,33.286978 -2.0413607,33.275154 1.2482541,74.701148 -6.315694,74.399274 -13.879642,74.0974 -46.436304,40.446866 -45.383689,31.475734 -44.331073,22.504602 0.62331855,23.488312 0,20.572484 c -0.62331855,-2.915828 -43.460078,6.006554 -49.1236,-6.591717 -5.663522,-12.5982709 6.955201,-63.239034 15.142468,-68.997909 8.187266,-5.758876 32.3250033,36.234915 33.981132,34.444658 1.6561287,-1.790257 -28.108059,-37.701915 -24.04436,-45.186201 4.063699,-7.484286 44.41916,-5.131464 48.426554,0.280487 C 28.389587,-60.066247 -1.6468624,-35.096366 0,-33.286978 1.6468624,-31.47759 26.088342,-62.594598 34.263368,-54.62187 42.438394,-46.649141 54.760718,5.4457456 49.050157,14.549391 43.339595,23.653036 0.63831175,-2.9085204 0,0 -0.63831175,2.9085204 44.231541,19.58881 45.220286,32.000513"
               stroke-miterlimit="10"
               id="path6522"
               inkscape:connector-curvature="0"
               style="fill:#365d09;fill-opacity:0.5;stroke:#304de6;stroke-linecap:round;stroke-miterlimit:10;stroke-opacity:1;paint-order:fill stroke markers" />
          </g>
        </g>
      </g>
    </pattern>
  </defs>
  <g
     id="g6"
     transform="translate(0,652.3622)" />
  <rect
     style="stroke:none;fill:url(#pattern6524)"
     width="89.830512"
     height="101.69495"
     x="-832.20337"
     y="281.1757"
     id="rect6572" />
  <g
     id="g56"
     transform="translate(0,652.3622)" />
  <g
     id="g58"
     transform="translate(0,652.3622)" />
  <g
     id="g60"
     transform="translate(0,652.3622)" />
  <g
     id="g62"
     transform="translate(0,652.3622)" />
  <g
     id="g64"
     transform="translate(0,652.3622)" />
  <g
     id="g66"
     transform="translate(0,652.3622)" />
  <g
     id="g68"
     transform="translate(0,652.3622)" />
  <g
     id="g70"
     transform="translate(0,652.3622)" />
  <g
     id="g72"
     transform="translate(0,652.3622)" />
  <g
     id="g74"
     transform="translate(0,652.3622)" />
  <g
     id="g76"
     transform="translate(0,652.3622)" />
  <g
     id="g78"
     transform="translate(0,652.3622)" />
  <g
     id="g80"
     transform="translate(0,652.3622)" />
  <g
     id="g82"
     transform="translate(0,652.3622)" />
  <g
     id="g84"
     transform="translate(0,652.3622)" />
  <g
     id="g86"
     transform="translate(0,652.3622)" />
  <g
     id="g88"
     transform="translate(0,652.3622)" />
  <g
     id="g90"
     transform="translate(0,652.3622)" />
  <g
     id="g92"
     transform="translate(0,652.3622)" />
  <g
     id="g94"
     transform="translate(0,652.3622)" />
  <g
     id="g96"
     transform="translate(0,652.3622)" />
  <g
     id="g98"
     transform="translate(0,652.3622)" />
  <g
     id="g100"
     transform="translate(0,652.3622)" />
  <g
     id="g102"
     transform="translate(0,652.3622)" />
  <g
     id="g104"
     transform="translate(0,652.3622)" />
  <g
     id="g106"
     transform="translate(0,652.3622)" />
  <g
     id="g108"
     transform="translate(0,652.3622)" />
  <g
     id="g110"
     transform="translate(0,652.3622)" />
  <g
     id="g112"
     transform="translate(0,652.3622)" />
  <g
     id="g114"
     transform="translate(0,652.3622)" />
  <g
     id="g116"
     transform="translate(0,652.3622)" />
  <g
     id="g118"
     transform="translate(0,652.3622)" />
  <g
     id="g120"
     transform="translate(0,652.3622)" />
  <g
     id="g122"
     transform="translate(0,652.3622)" />
  <g
     id="g124"
     transform="translate(0,652.3622)" />
  <g
     id="g126"
     transform="translate(0,652.3622)" />
  <g
     id="g128"
     transform="translate(0,652.3622)" />
  <g
     id="g130"
     transform="translate(0,652.3622)" />
  <g
     id="g132"
     transform="translate(0,652.3622)" />
  <g
     id="g134"
     transform="translate(0,652.3622)" />
  <g
     id="g136"
     transform="translate(0,652.3622)" />
  <g
     id="g138"
     transform="translate(0,652.3622)" />
  <g
     id="g140"
     transform="translate(0,652.3622)" />
  <g
     id="g142"
     transform="translate(0,652.3622)" />
  <g
     id="g144"
     transform="translate(0,652.3622)" />
  <g
     id="g146"
     transform="translate(0,652.3622)" />
  <g
     id="g148"
     transform="translate(0,652.3622)" />
  <g
     id="g150"
     transform="translate(0,652.3622)" />
  <g
     id="g152"
     transform="translate(0,652.3622)" />
  <g
     id="g154"
     transform="translate(0,652.3622)" />
  <g
     id="g200"
     transform="translate(0,652.3622)" />
  <g
     id="g202"
     transform="translate(0,652.3622)" />
  <g
     id="g204"
     transform="translate(0,652.3622)" />
  <g
     id="g206"
     transform="translate(0,652.3622)" />
  <g
     id="g208"
     transform="translate(0,652.3622)" />
  <g
     id="g210"
     transform="translate(0,652.3622)" />
  <g
     id="g212"
     transform="translate(0,652.3622)" />
  <g
     id="g214"
     transform="translate(0,652.3622)" />
  <g
     id="g216"
     transform="translate(0,652.3622)" />
  <g
     id="g218"
     transform="translate(0,652.3622)" />
  <g
     id="g220"
     transform="translate(0,652.3622)" />
  <g
     id="g222"
     transform="translate(0,652.3622)" />
  <g
     id="g224"
     transform="translate(0,652.3622)" />
  <g
     id="g226"
     transform="translate(0,652.3622)" />
  <g
     id="g228"
     transform="translate(0,652.3622)" />
  <g
     id="g230"
     transform="translate(0,652.3622)" />
  <g
     id="g232"
     transform="translate(0,652.3622)" />
  <g
     id="g234"
     transform="translate(0,652.3622)" />
  <g
     id="g236"
     transform="translate(0,652.3622)" />
  <g
     id="g238"
     transform="translate(0,652.3622)" />
  <g
     id="g240"
     transform="translate(0,652.3622)" />
  <g
     id="g242"
     transform="translate(0,652.3622)" />
  <g
     id="g244"
     transform="translate(0,652.3622)" />
  <g
     id="g246"
     transform="translate(0,652.3622)" />
  <g
     id="g248"
     transform="translate(0,652.3622)" />
  <g
     id="g250"
     transform="translate(0,652.3622)" />
  <g
     id="g252"
     transform="translate(0,652.3622)" />
  <g
     id="g254"
     transform="translate(0,652.3622)" />
  <g
     id="g256"
     transform="translate(0,652.3622)" />
  <g
     id="g258"
     transform="translate(0,652.3622)" />
  <g
     id="g260"
     transform="translate(0,652.3622)" />
  <g
     id="g262"
     transform="translate(0,652.3622)" />
  <g
     id="g264"
     transform="translate(0,652.3622)" />
  <g
     id="g266"
     transform="translate(0,652.3622)" />
  <g
     id="g268"
     transform="translate(0,652.3622)" />
  <g
     id="g270"
     transform="translate(0,652.3622)" />
  <g
     id="g272"
     transform="translate(0,652.3622)" />
  <g
     id="g274"
     transform="translate(0,652.3622)" />
  <g
     id="g276"
     transform="translate(0,652.3622)" />
  <g
     id="g278"
     transform="translate(0,652.3622)" />
  <g
     id="g280"
     transform="translate(0,652.3622)" />
  <g
     id="g282"
     transform="translate(0,652.3622)" />
  <g
     id="g284"
     transform="translate(0,652.3622)" />
  <g
     id="g286"
     transform="translate(0,652.3622)" />
  <g
     id="g288"
     transform="translate(0,652.3622)" />
  <g
     id="g290"
     transform="translate(0,652.3622)" />
  <g
     id="g292"
     transform="translate(0,652.3622)" />
  <g
     id="g294"
     transform="translate(0,652.3622)" />
  <g
     id="g296"
     transform="translate(0,652.3622)" />
  <g
     id="g298"
     transform="translate(0,652.3622)" />
  <g
     id="g300"
     transform="translate(0,652.3622)" />
  <g
     id="g302"
     transform="translate(0,652.3622)" />
  <g
     id="g304"
     transform="translate(0,652.3622)" />
  <g
     id="g306"
     transform="translate(0,652.3622)" />
  <g
     id="g308"
     transform="translate(0,652.3622)" />
  <g
     id="g310"
     transform="translate(0,652.3622)" />
  <g
     id="g312"
     transform="translate(0,652.3622)" />
  <g
     id="g314"
     transform="translate(0,652.3622)" />
  <g
     id="g316"
     transform="translate(0,652.3622)" />
  <g
     id="g318"
     transform="translate(0,652.3622)" />
  <g
     id="g320"
     transform="translate(0,652.3622)" />
  <g
     id="g322"
     transform="translate(0,652.3622)" />
  <g
     id="g324"
     transform="translate(0,652.3622)" />
  <g
     id="g326"
     transform="translate(0,652.3622)" />
  <g
     id="g328"
     transform="translate(0,652.3622)" />
  <g
     id="g330"
     transform="translate(0,652.3622)" />
  <g
     id="g332"
     transform="translate(0,652.3622)" />
  <g
     id="g334"
     transform="translate(0,652.3622)" />
  <g
     id="g336"
     transform="translate(0,652.3622)" />
  <g
     id="g338"
     transform="translate(0,652.3622)" />
  <g
     id="g340"
     transform="translate(0,652.3622)" />
  <g
     id="g342"
     transform="translate(0,652.3622)" />
  <g
     id="g344"
     transform="translate(0,652.3622)" />
  <g
     id="g346"
     transform="translate(0,652.3622)" />
  <g
     id="g348"
     transform="translate(0,652.3622)" />
  <g
     id="g350"
     transform="translate(0,652.3622)" />
  <g
     id="g352"
     transform="translate(0,652.3622)" />
  <g
     id="g354"
     transform="translate(0,652.3622)" />
  <g
     id="g356"
     transform="translate(0,652.3622)" />
  <g
     id="g358"
     transform="translate(0,652.3622)" />
  <g
     id="g360"
     transform="translate(0,652.3622)" />
  <g
     id="g362"
     transform="translate(0,652.3622)" />
  <g
     id="g364"
     transform="translate(0,652.3622)" />
  <g
     id="g366"
     transform="translate(0,652.3622)" />
  <g
     id="g368"
     transform="translate(0,652.3622)" />
  <g
     id="g370"
     transform="translate(0,652.3622)" />
  <g
     id="g372"
     transform="translate(0,652.3622)" />
  <g
     id="g374"
     transform="translate(0,652.3622)" />
  <g
     id="g376"
     transform="translate(0,652.3622)" />
  <g
     id="g378"
     transform="translate(0,652.3622)" />
  <g
     id="g380"
     transform="translate(0,652.3622)" />
  <g
     id="g382"
     transform="translate(0,652.3622)" />
  <g
     id="g384"
     transform="translate(0,652.3622)" />
  <g
     id="g386"
     transform="translate(0,652.3622)" />
  <g
     id="g388"
     transform="translate(0,652.3622)" />
  <g
     id="g390"
     transform="translate(0,652.3622)" />
  <g
     id="g392"
     transform="translate(0,652.3622)" />
  <g
     id="g394"
     transform="translate(0,652.3622)" />
  <g
     id="g396"
     transform="translate(0,652.3622)" />
  <g
     id="g398"
     transform="translate(0,652.3622)" />
  <g
     id="g400"
     transform="translate(0,652.3622)" />
  <g
     id="g402"
     transform="translate(0,652.3622)" />
  <g
     id="g404"
     transform="translate(0,652.3622)" />
  <g
     id="g406"
     transform="translate(0,652.3622)" />
  <g
     id="g408"
     transform="translate(0,652.3622)" />
  <g
     id="g410"
     transform="translate(0,652.3622)" />
  <g
     id="g412"
     transform="translate(0,652.3622)" />
  <g
     id="g414"
     transform="translate(0,652.3622)" />
  <g
     id="g416"
     transform="translate(0,652.3622)" />
  <g
     id="g418"
     transform="translate(0,652.3622)" />
  <g
     id="g420"
     transform="translate(0,652.3622)" />
  <g
     id="g422"
     transform="translate(0,652.3622)" />
  <g
     id="g424"
     transform="translate(0,652.3622)" />
  <g
     id="g426"
     transform="translate(0,652.3622)" />
  <g
     id="g428"
     transform="translate(0,652.3622)" />
  <g
     id="g430"
     transform="translate(0,652.3622)" />
  <g
     id="g432"
     transform="translate(0,652.3622)" />
  <g
     id="g434"
     transform="translate(0,652.3622)" />
  <g
     id="g436"
     transform="translate(0,652.3622)" />
  <g
     id="g438"
     transform="translate(0,652.3622)" />
  <g
     id="g440"
     transform="translate(0,652.3622)" />
  <g
     id="g442"
     transform="translate(0,652.3622)" />
  <g
     id="g444"
     transform="translate(0,652.3622)" />
  <g
     id="g446"
     transform="translate(0,652.3622)" />
  <g
     id="g448"
     transform="translate(0,652.3622)" />
  <g
     id="g450"
     transform="translate(0,652.3622)" />
  <g
     id="g452"
     transform="translate(0,652.3622)" />
  <g
     id="g454"
     transform="translate(0,652.3622)" />
  <g
     id="g456"
     transform="translate(0,652.3622)" />
  <g
     id="g458"
     transform="translate(0,652.3622)" />
  <g
     id="g460"
     transform="translate(0,652.3622)" />
  <g
     id="g462"
     transform="translate(0,652.3622)" />
  <g
     id="g464"
     transform="translate(0,652.3622)" />
  <g
     id="g466"
     transform="translate(0,652.3622)" />
  <g
     id="g468"
     transform="translate(0,652.3622)" />
  <g
     id="g470"
     transform="translate(0,652.3622)" />
  <g
     id="g472"
     transform="translate(0,652.3622)" />
  <g
     id="g474"
     transform="translate(0,652.3622)" />
  <g
     id="g476"
     transform="translate(0,652.3622)" />
  <g
     id="g478"
     transform="translate(0,652.3622)" />
  <g
     id="g480"
     transform="translate(0,652.3622)" />
  <g
     id="g482"
     transform="translate(0,652.3622)" />
  <g
     id="g484"
     transform="translate(0,652.3622)" />
  <g
     id="g486"
     transform="translate(0,652.3622)" />
  <g
     id="g488"
     transform="translate(0,652.3622)" />
  <g
     id="g490"
     transform="translate(0,652.3622)" />
  <g
     id="g492"
     transform="translate(0,652.3622)" />
  <g
     id="g494"
     transform="translate(0,652.3622)" />
  <g
     id="g496"
     transform="translate(0,652.3622)" />
  <g
     id="g498"
     transform="translate(0,652.3622)" />
  <g
     id="g500"
     transform="translate(0,652.3622)" />
  <g
     id="g502"
     transform="translate(0,652.3622)" />
  <g
     id="g504"
     transform="translate(0,652.3622)" />
  <g
     id="g506"
     transform="translate(0,652.3622)" />
  <g
     id="g508"
     transform="translate(0,652.3622)" />
  <g
     id="g510"
     transform="translate(0,652.3622)" />
  <g
     id="g512"
     transform="translate(0,652.3622)" />
  <g
     id="g514"
     transform="translate(0,652.3622)" />
  <g
     id="g516"
     transform="translate(0,652.3622)" />
  <g
     id="g518"
     transform="translate(0,652.3622)" />
  <g
     id="g520"
     transform="translate(0,652.3622)" />
  <g
     id="g522"
     transform="translate(0,652.3622)" />
  <g
     id="g524"
     transform="translate(0,652.3622)" />
  <g
     id="g526"
     transform="translate(0,652.3622)" />
  <g
     id="g528"
     transform="translate(0,652.3622)" />
  <g
     id="g530"
     transform="translate(0,652.3622)" />
  <g
     id="g532"
     transform="translate(0,652.3622)" />
  <g
     id="g534"
     transform="translate(0,652.3622)" />
  <g
     id="g536"
     transform="translate(0,652.3622)" />
  <g
     id="g538"
     transform="translate(0,652.3622)" />
  <path
     style="fill:#f5c5c5;fill-opacity:1;fill-rule:evenodd;stroke:#000000;stroke-width:0;stroke-linecap:butt;stroke-linejoin:miter;stroke-opacity:1;stroke-miterlimit:4;stroke-dasharray:none"
     d="M 218.64407,264.22659 137.28813,471.00625 69.491525,365.9215 87.551219,344.54726 107.30835,327.00901 81.480596,337.35609 c -6.308628,-16.54026 28.631044,-51.80582 29.323644,-59.10751 0.56312,-5.9367 -11.873349,5.10851 -23.978688,17.15285 L 37.288136,347.27744 140.67797,521.85371 200,413.37913 248.13559,343.54862 Z"
     id="path6580"
     inkscape:connector-curvature="0"
     sodipodi:nodetypes="ccccccscccccc" />
  <path
     style="fill:url(#pattern6609);fill-opacity:1;fill-rule:evenodd;stroke:#000000;stroke-width:1px;stroke-linecap:butt;stroke-linejoin:miter;stroke-opacity:1"
     d="m 379.66016,21.853516 c 3.82893,8.781109 7.95027,41.560466 13.83789,45.332031 l 3.11133,-1.263672 -0.11133,3.1875 1.40625,0.900391 20.74023,-15.953125 z m 18.24414,48.15625 c -5.60655,26.35314 -3.8293,68.026224 -4.6836,92.521484 l -50.84765,22.03516 11.86328,64.40625 c 0,0 15.53112,2.78454 29.51746,1.28259 47.77767,-5.13068 148.03771,-28.00733 148.03771,-28.00733 l -77.76001,-109.7583 z m -128.41211,187.437504 -51.15686,8.78186 c 0,0 3.06598,30.55968 16.48303,45.57165 37.55774,42.02233 -34.46094,72.71094 -34.46094,72.71094 l 91.16797,91.58008 c 0,0 -1.96442,96.98349 -16.52734,142.54687 -36.10821,112.97275 -171.60743,311.68945 -171.60743,311.68945 l 413.5586,5.08399 c 0,0 80.78305,-463.0295 -10.16992,-476.26953 -145.75912,42.29382 -96.39022,13.99696 -113.6875,-128.75196 -5.61352,-31.42237 43.11914,-57.87695 43.11914,-57.87695 0,0 -39.87995,-25.46997 -52.56092,-22.75415 -38.76963,8.30311 -25.41509,108.14324 -65.00549,105.99243 -36.5822,-1.98738 -49.15234,-98.30468 -49.15234,-98.30468 z"
     id="path4945"
     inkscape:connector-curvature="0"
     sodipodi:nodetypes="cccccccccccscccscccsccscccccs" />
  <path
     style="fill:none;fill-rule:evenodd;stroke:#000000;stroke-width:1px;stroke-linecap:butt;stroke-linejoin:miter;stroke-opacity:1"
     d="m 150.84746,932.0232 -57.627121,57.62712 88.135591,-38.98305 -16.94915,35.59322 47.45763,-55.93221 z"
     id="path6574"
     inkscape:connector-curvature="0" />
  <path
     style="fill:none;fill-rule:evenodd;stroke:#000000;stroke-width:1px;stroke-linecap:butt;stroke-linejoin:miter;stroke-opacity:1"
     d="m 469.49153,935.41303 20.33898,50.84746 15.25424,-50.84746 z"
     id="path6576"
     inkscape:connector-curvature="0" />
  <path
     style="fill:none;fill-rule:evenodd;stroke:#000000;stroke-width:1px;stroke-linecap:butt;stroke-linejoin:miter;stroke-opacity:1"
     d="M 261.01695,74.396081 Z"
     id="path6586"
     inkscape:connector-curvature="0" />
  <path
     style="fill:#fbc4c4;fill-opacity:1;stroke:#000000;stroke-width:0;stroke-miterlimit:4;stroke-dasharray:none;stroke-opacity:1"
     d="m 528.29136,498.48133 c -5.58567,-6.53124 -11.74825,-15.4441 -13.69463,-19.80639 -4.1681,-9.34173 -11.18629,-9.32319 -11.18629,-9.32319 -12.70606,-20.2269 -54.72984,30.15433 -34.35512,-1.51941 24.00542,-22.738 30.96911,-35.56848 38.71212,-64.00069 9.42562,-34.61074 13.46515,-52.03955 12.22318,-52.73774 -1.02027,-0.57356 -28.74062,-10.4714 -61.60079,-21.99521 -32.86017,-11.5238 -59.74576,-21.55758 -59.74576,-22.29728 0,-0.7397 5.91101,-9.32889 13.13559,-19.0871 10.96543,-14.81095 13.74612,-17.60495 16.83101,-16.91148 2.03248,0.45688 30.85277,11.58147 64.04508,24.72129 54.0486,21.39619 60.24077,24.23371 59.30667,27.1768 -0.57365,1.80742 -8.20878,30.14445 -16.96696,62.97118 l -15.92395,59.68497 10.23606,31.95135 c 5.62983,17.57324 28.56587,10.62532 28.26433,10.92685 -0.30154,0.30154 -23.69487,16.77727 -29.28054,10.24605 z"
     id="path6590"
     inkscape:connector-curvature="0"
     sodipodi:nodetypes="ssscssssssssscscs" />
  <path
     style="fill:#000000;fill-opacity:1;stroke:#000000;stroke-width:0;stroke-miterlimit:4;stroke-dasharray:none;stroke-opacity:1"
     d="m 397.70869,72.568808 c 4.42802,0.884229 -10.94079,-7.852768 -14.8096,-22.723355 -2.55055,-9.803564 -6.7166,-33.722726 -6.32825,-34.11108 0.38836,-0.388353 16.2205,13.509102 24.90638,20.656836 l 19.40632,15.969745 -9.2493,12.433891 c -3.23338,4.346647 -8.43219,5.161866 -8.89829,5.062734 -0.4661,-0.09913 -9.45528,1.827 -5.02726,2.711229 z"
     id="path6594"
     inkscape:connector-curvature="0"
     sodipodi:nodetypes="sscscsss" />
  <path
     style="fill:#000000;fill-opacity:1;stroke:#000000;stroke-width:0;stroke-miterlimit:4;stroke-dasharray:none;stroke-opacity:1"
     d="m 480.45809,959.30577 c -4.87342,-12.21698 -8.59279,-22.48065 -8.26528,-22.80817 0.32751,-0.32751 7.45845,-0.37489 15.84652,-0.10529 l 15.25103,0.49019 -6.55104,21.88327 c -3.60308,12.03579 -6.74667,22.07889 -6.98576,22.31798 -0.2391,0.23909 -4.42206,-9.561 -9.29547,-21.77798 z"
     id="path6596"
     inkscape:connector-curvature="0" />
  <path
     style="fill:#000000;fill-opacity:1;stroke:#000000;stroke-width:0;stroke-miterlimit:4;stroke-dasharray:none;stroke-opacity:1"
     d="m 126.66784,958.02517 25.4675,-25.4675 27.56524,0.4675 27.56524,0.4675 -16.59901,19.77043 c -9.12946,10.87374 -16.87919,19.49187 -17.22162,19.1514 -0.34244,-0.34046 1.71495,-5.61428 4.57196,-11.71958 2.85702,-6.10531 4.59572,-11.10055 3.86378,-11.10055 -0.73194,0 -18.58856,7.62711 -39.68137,16.94915 -21.09282,9.32203 -38.94653,16.94915 -39.6749,16.94915 -0.72838,0 10.13605,-11.46038 24.14318,-25.4675 z"
     id="path6598"
     inkscape:connector-curvature="0" />
  <path
     style="fill:none;fill-rule:evenodd;stroke:#000000;stroke-width:1px;stroke-linecap:butt;stroke-linejoin:miter;stroke-opacity:1"
     d="M 106.66526,327.87735 Z"
     id="path6600"
     inkscape:connector-curvature="0" />
  <path
     style="fill:#fbc4c4;fill-opacity:1;stroke:#000000;stroke-width:0;stroke-miterlimit:4;stroke-dasharray:none;stroke-opacity:1"
     d="M 89.054686,434.41366 C 43.687863,357.79786 37.709188,347.41962 38.41865,346.51578 c 1.729454,-2.2033 50.33833,-52.82501 54.79713,-57.06622 10.02901,-9.53959 15.68958,-13.54476 17.12057,-12.11377 1.03247,1.03246 -1.19028,4.89355 -9.39296,16.3163 -11.659228,16.23621 -16.312697,24.01837 -18.957841,31.70388 -1.151474,3.34563 -1.549287,11.10253 -0.599498,11.68953 0.283562,0.17524 5.859682,-1.82813 12.391378,-4.45194 6.531701,-2.62381 11.931281,-4.70632 11.999061,-4.62778 0.0678,0.0785 -3.95779,3.7542 -8.94573,8.16815 -6.568792,5.81289 -11.588322,10.99251 -18.207437,18.78812 -5.026151,5.91952 -9.138456,10.86985 -9.138456,11.00073 0,0.38589 66.569063,103.53887 67.324443,104.32348 0.52442,0.54473 10.3684,-23.89695 41.0894,-102.02112 22.21987,-56.50561 40.55671,-102.73589 40.74853,-102.73395 0.88549,0.009 4.45518,11.49442 4.93113,15.86589 1.04545,9.60221 3.46242,18.91784 6.4046,24.685 0.69572,1.36373 2.84409,4.45964 4.77415,6.8798 3.02775,3.79659 3.98544,5.6864 6.98028,13.77419 l 3.47106,9.37388 -0.69644,3.99925 c -0.92184,5.29363 -2.57356,9.34584 -5.74501,14.09436 -6.47236,9.69088 -19.26598,19.94164 -34.36049,27.53101 -2.68725,1.35113 -4.88591,2.66116 -4.88591,2.91117 0,0.25003 2.56176,3.0057 5.6928,6.12372 3.13105,3.11803 5.69281,5.89802 5.69281,6.17777 0,0.27975 -2.42314,3.98072 -5.38476,8.22439 -3.87702,5.55533 -13.62264,22.78238 -34.80562,61.52486 -16.18148,29.595 -29.60083,53.99385 -29.82077,54.21966 -0.21995,0.22581 -23.54812,-38.68231 -51.840384,-86.46248 z"
     id="path6602"
     inkscape:connector-curvature="0" />
  <path
     style="fill:#fbc4c4;fill-opacity:1;stroke:#000000;stroke-width:0;stroke-miterlimit:4;stroke-dasharray:none;stroke-opacity:1"
     d="M 128.5218,501.09546 C 46.728951,363.24173 37.613069,347.67331 38.148817,346.75326 c 0.875399,-1.50335 48.552151,-51.02806 55.912461,-58.07965 12.229852,-11.71687 19.129372,-15.252 15.620422,-8.00347 -0.68307,1.41104 -4.87168,7.67323 -9.30803,13.91598 -14.614079,20.5647 -18.827164,28.66784 -19.361919,37.23932 -0.276951,4.43918 -0.198726,4.97215 0.729758,4.97215 0.571979,0 6.183048,-2.02235 12.469042,-4.49411 6.285989,-2.47176 11.494939,-4.42679 11.575439,-4.34451 0.0805,0.0823 -3.87898,3.74508 -8.798834,8.13957 -7.73298,6.90723 -18.12118,18.09019 -25.737564,27.70666 l -1.753606,2.2141 23.125088,35.87537 c 12.718796,19.73146 27.882306,43.21672 33.696676,52.18948 l 10.57159,16.31412 1.09578,-2.1359 c 1.33431,-2.60084 17.88702,-44.27769 53.46309,-134.61081 14.76482,-37.49014 27.03684,-68.16389 27.27115,-68.16389 0.83742,0 4.32759,11.166 4.8108,15.39103 1.74516,15.25913 4.99031,24.36676 11.58788,32.52178 2.64478,3.2691 3.74566,5.45901 6.6155,13.1597 3.19456,8.57202 3.41263,9.47922 3.02483,12.5841 -1.85691,14.8672 -16.95785,30.78802 -40.36564,42.55723 -4.16885,2.09606 -4.81442,2.61792 -4.3279,3.49858 0.3145,0.56928 2.88247,3.3212 5.70661,6.11538 2.82413,2.79419 5.13478,5.29215 5.13478,5.55103 0,0.25887 -2.39559,4.04006 -5.32354,8.40263 -5.45065,8.12133 -12.54339,20.66164 -37.53186,66.35814 -22.56076,41.25694 -26.72658,48.81146 -27.15442,49.24321 -0.22068,0.22269 -5.78925,-8.67607 -12.3746,-19.77502 z"
     id="path6604"
     inkscape:connector-curvature="0" />
  <path
     style="fill:#fbc4c4;fill-opacity:1;stroke:#000000;stroke-width:0;stroke-miterlimit:4;stroke-dasharray:none;stroke-opacity:1"
     d="m 312.11385,353.36414 c -4.21318,-1.73315 -5.96776,-3.00255 -10.20377,-7.38226 -9.73357,-10.06375 -18.01738,-28.22184 -24.69324,-54.12752 -3.25387,-12.62662 -7.19168,-33.15174 -6.4941,-33.84931 0.16914,-0.16915 0.92453,-0.30754 1.67863,-0.30754 2.36268,0 13.76601,-4.38862 28.39131,-10.92653 7.74521,-3.46232 14.68894,-6.48332 15.43051,-6.71332 0.74156,-0.23002 1.34589,-0.87194 1.34295,-1.4265 -0.003,-0.55456 -1.56539,-9.80499 -3.4721,-20.55651 l -17.24934,-50.70885 18.68544,-28.87509 -6.67581,-32.88146 18.87783,11.11992 c 23.55024,13.87219 67.52056,-42.043789 67.61745,-41.795158 0.26587,0.682288 -2.8557,86.372228 -3.16463,86.872088 -0.14737,0.23845 -11.40026,5.23878 -25.00643,11.11185 -13.60616,5.87308 -24.94165,10.84887 -25.18996,11.05731 -0.66226,0.55593 11.4365,65.49562 12.30678,66.05626 0.40084,0.25823 5.22313,-2.07733 8.51896,-0.79569 5.23905,2.03729 9.28526,-0.31146 15.76385,1.02535 1.25581,0.25913 -2.50381,7.09471 -5.39319,9.26271 -6.25583,4.69395 -11.81297,13.7595 -15.96144,26.03842 -1.00216,2.96625 -3.20198,10.51672 -4.88849,16.7788 -4.88328,18.13182 -7.22031,26.04557 -9.11363,30.86102 -4.09035,10.40333 -9.13631,17.01961 -15.14979,19.86451 -4.76945,2.25636 -10.9173,2.37097 -15.95779,0.2975 z"
     id="path6612"
     inkscape:connector-curvature="0"
     sodipodi:nodetypes="ssscssccscccscssssssssssss" />
  <path
     style="fill:#000000;fill-opacity:1;stroke:#000000;stroke-width:0;stroke-miterlimit:4;stroke-dasharray:none;stroke-opacity:1"
     d="m 366.28603,250.1196 -13.36294,-0.29823 -5.0088,-34.29711 c -2.48053,-16.98513 -5.11302,-31.2147 -4.508,-31.84176 0.60503,-0.62705 11.92316,-5.78997 25.15141,-11.47315 l 24.05136,-10.33306 1.69491,-46.03212 1.69492,-46.032115 27.9661,17.856911 c 15.38136,9.821301 29.25752,19.168684 30.83591,20.771954 6.14407,6.2409 79.22558,113.0126 78.04435,114.02234 -0.92509,0.79078 -93.95031,19.89034 -151.25314,31.0547 -1.3983,0.27244 -8.28604,-1.25683 -15.30608,-3.39836 z"
     id="path6592"
     inkscape:connector-curvature="0"
     sodipodi:nodetypes="scscscccsssss" />
</svg>
