<svg version="1.1" xmlns="http://www.w3.org/2000/svg" xmlns:xlink="http://www.w3.org/1999/xlink" width="400" height="400" viewBox="0 0 400 400"><defs/><g/><g transform="scale(1,1)"><g><g transform="scale(1,1)"><rect fill="rgb(255,255,255)" stroke="none" x="0" y="0" width="400" height="400" fill-opacity="1"/></g><g transform="translate(74.42189728917911,52.30823930940787) scale(1,1) rotate(139.52936987267722,0,0)"><path fill="rgb(195,8,8)" stroke="rgb(0,0,0)" paint-order="fill stroke markers" d=" M 45.220286313569055 21.333675391709686 C 29.542364682938995 29.60814381561206 8.318901362232006 51.61732891487393 5.932470216219621 49.64681054341424 C 3.5460390702072364 47.67629217195455 32.94306014626758 9.518447550892358 30.901699437494745 9.510565162951535 C 28.860338728721914 9.502682775010712 6.398537297356742 47.68730663771274 -6.3156940364173755 49.5995162157693 C -19.029925370191492 51.51172579382586 -32.9526876649704 28.270766580098346 -45.38368856514996 20.98382263129092 C -57.81468946532952 13.696878682483494 -80.27838088324974 7.821737718942001 -80.90169943749474 5.877852522924733 C -81.52501799173974 3.9339673269074646 -56.94369441614875 16.413169366237632 -49.12359989062001 9.320511455187312 C -41.30350536509126 2.227853544136991 -28.684782359843133 -34.145034280358516 -33.98113228432226 -36.67809494337719 C -39.27748220880138 -39.21115560639586 -82.55782809392572 -4.684347789499128 -80.90169943749474 -5.87785252292473 C -79.24557078106376 -7.071357256350332 -41.591675891524275 -37.543410106269306 -24.04436034573641 -43.8391233439308 C -6.497044799948551 -50.134836581592296 15.224517206693902 -49.37355831239023 24.382193837232425 -43.65213194889369 C 33.539870467770946 -37.93070558539715 29.254837083832673 -10.716823867977903 30.901699437494724 -9.510565162951536 C 32.54856179115678 -8.30430645792517 31.238625066117166 -39.61627286548837 34.263367959204736 -36.414579718735496 C 37.288110852292306 -33.21288657198262 38.09405145588759 3.630497097776436 49.05015679602013 9.699593717565685 C 60.00626213615268 15.768690337354935 100.63831174707518 -1.9390136123573336 100 0 C 99.36168825292482 1.9390136123573336 60.898207944199115 13.059206967807313 45.220286313569055 21.333675391709686" fill-opacity="1" stroke-opacity="1" stroke-linecap="round" stroke-miterlimit="10"/></g><g transform="translate(118.89947329773109,284.8777707054943) scale(1,1) rotate(74.25438897626285,0,0)"><path fill="rgb(195,8,8)" stroke="rgb(0,0,0)" paint-order="fill stroke markers" d=" M 45.220286313569055 21.333675391709686 C 29.542364682938995 29.60814381561206 8.318901362232006 51.61732891487393 5.932470216219621 49.64681054341424 C 3.5460390702072364 47.67629217195455 32.94306014626758 9.518447550892358 30.901699437494745 9.510565162951535 C 28.860338728721914 9.502682775010712 6.398537297356742 47.68730663771274 -6.3156940364173755 49.5995162157693 C -19.029925370191492 51.51172579382586 -32.9526876649704 28.270766580098346 -45.38368856514996 20.98382263129092 C -57.81468946532952 13.696878682483494 -80.27838088324974 7.821737718942001 -80.90169943749474 5.877852522924733 C -81.52501799173974 3.9339673269074646 -56.94369441614875 16.413169366237632 -49.12359989062001 9.320511455187312 C -41.30350536509126 2.227853544136991 -28.684782359843133 -34.145034280358516 -33.98113228432226 -36.67809494337719 C -39.27748220880138 -39.21115560639586 -82.55782809392572 -4.684347789499128 -80.90169943749474 -5.87785252292473 C -79.24557078106376 -7.071357256350332 -41.591675891524275 -37.543410106269306 -24.04436034573641 -43.8391233439308 C -6.497044799948551 -50.134836581592296 15.224517206693902 -49.37355831239023 24.382193837232425 -43.65213194889369 C 33.539870467770946 -37.93070558539715 29.254837083832673 -10.716823867977903 30.901699437494724 -9.510565162951536 C 32.54856179115678 -8.30430645792517 31.238625066117166 -39.61627286548837 34.263367959204736 -36.414579718735496 C 37.288110852292306 -33.21288657198262 38.09405145588759 3.630497097776436 49.05015679602013 9.699593717565685 C 60.00626213615268 15.768690337354935 100.63831174707518 -1.9390136123573336 100 0 C 99.36168825292482 1.9390136123573336 60.898207944199115 13.059206967807313 45.220286313569055 21.333675391709686" fill-opacity="1" stroke-opacity="1" stroke-linecap="round" stroke-miterlimit="10"/></g><g transform="translate(207.10791166053008,214.16549028669857) scale(1,1) rotate(91.31937202017386,0,0)"><path fill="rgb(195,8,8)" stroke="rgb(0,0,0)" paint-order="fill stroke markers" d=" M 45.220286313569055 21.333675391709686 C 29.542364682938995 29.60814381561206 8.318901362232006 51.61732891487393 5.932470216219621 49.64681054341424 C 3.5460390702072364 47.67629217195455 32.94306014626758 9.518447550892358 30.901699437494745 9.510565162951535 C 28.860338728721914 9.502682775010712 6.398537297356742 47.68730663771274 -6.3156940364173755 49.5995162157693 C -19.029925370191492 51.51172579382586 -32.9526876649704 28.270766580098346 -45.38368856514996 20.98382263129092 C -57.81468946532952 13.696878682483494 -80.27838088324974 7.821737718942001 -80.90169943749474 5.877852522924733 C -81.52501799173974 3.9339673269074646 -56.94369441614875 16.413169366237632 -49.12359989062001 9.320511455187312 C -41.30350536509126 2.227853544136991 -28.684782359843133 -34.145034280358516 -33.98113228432226 -36.67809494337719 C -39.27748220880138 -39.21115560639586 -82.55782809392572 -4.684347789499128 -80.90169943749474 -5.87785252292473 C -79.24557078106376 -7.071357256350332 -41.591675891524275 -37.543410106269306 -24.04436034573641 -43.8391233439308 C -6.497044799948551 -50.134836581592296 15.224517206693902 -49.37355831239023 24.382193837232425 -43.65213194889369 C 33.539870467770946 -37.93070558539715 29.254837083832673 -10.716823867977903 30.901699437494724 -9.510565162951536 C 32.54856179115678 -8.30430645792517 31.238625066117166 -39.61627286548837 34.263367959204736 -36.414579718735496 C 37.288110852292306 -33.21288657198262 38.09405145588759 3.630497097776436 49.05015679602013 9.699593717565685 C 60.00626213615268 15.768690337354935 100.63831174707518 -1.9390136123573336 100 0 C 99.36168825292482 1.9390136123573336 60.898207944199115 13.059206967807313 45.220286313569055 21.333675391709686" fill-opacity="1" stroke-opacity="1" stroke-linecap="round" stroke-miterlimit="10"/></g><g transform="translate(315.59921921048925,384.88889669137166) scale(1,1) rotate(284.8398894904656,0,0)"><path fill="rgb(195,8,8)" stroke="rgb(0,0,0)" paint-order="fill stroke markers" d=" M 45.220286313569055 21.333675391709686 C 29.542364682938995 29.60814381561206 8.318901362232006 51.61732891487393 5.932470216219621 49.64681054341424 C 3.5460390702072364 47.67629217195455 32.94306014626758 9.518447550892358 30.901699437494745 9.510565162951535 C 28.860338728721914 9.502682775010712 6.398537297356742 47.68730663771274 -6.3156940364173755 49.5995162157693 C -19.029925370191492 51.51172579382586 -32.9526876649704 28.270766580098346 -45.38368856514996 20.98382263129092 C -57.81468946532952 13.696878682483494 -80.27838088324974 7.821737718942001 -80.90169943749474 5.877852522924733 C -81.52501799173974 3.9339673269074646 -56.94369441614875 16.413169366237632 -49.12359989062001 9.320511455187312 C -41.30350536509126 2.227853544136991 -28.684782359843133 -34.145034280358516 -33.98113228432226 -36.67809494337719 C -39.27748220880138 -39.21115560639586 -82.55782809392572 -4.684347789499128 -80.90169943749474 -5.87785252292473 C -79.24557078106376 -7.071357256350332 -41.591675891524275 -37.543410106269306 -24.04436034573641 -43.8391233439308 C -6.497044799948551 -50.134836581592296 15.224517206693902 -49.37355831239023 24.382193837232425 -43.65213194889369 C 33.539870467770946 -37.93070558539715 29.254837083832673 -10.716823867977903 30.901699437494724 -9.510565162951536 C 32.54856179115678 -8.30430645792517 31.238625066117166 -39.61627286548837 34.263367959204736 -36.414579718735496 C 37.288110852292306 -33.21288657198262 38.09405145588759 3.630497097776436 49.05015679602013 9.699593717565685 C 60.00626213615268 15.768690337354935 100.63831174707518 -1.9390136123573336 100 0 C 99.36168825292482 1.9390136123573336 60.898207944199115 13.059206967807313 45.220286313569055 21.333675391709686" fill-opacity="1" stroke-opacity="1" stroke-linecap="round" stroke-miterlimit="10"/></g><g transform="translate(97.50593685441231,2.3767440560402697) scale(1,1) rotate(27.458886069175175,0,0)"><path fill="rgb(195,8,8)" stroke="rgb(0,0,0)" paint-order="fill stroke markers" d=" M 45.220286313569055 21.333675391709686 C 29.542364682938995 29.60814381561206 8.318901362232006 51.61732891487393 5.932470216219621 49.64681054341424 C 3.5460390702072364 47.67629217195455 32.94306014626758 9.518447550892358 30.901699437494745 9.510565162951535 C 28.860338728721914 9.502682775010712 6.398537297356742 47.68730663771274 -6.3156940364173755 49.5995162157693 C -19.029925370191492 51.51172579382586 -32.9526876649704 28.270766580098346 -45.38368856514996 20.98382263129092 C -57.81468946532952 13.696878682483494 -80.27838088324974 7.821737718942001 -80.90169943749474 5.877852522924733 C -81.52501799173974 3.9339673269074646 -56.94369441614875 16.413169366237632 -49.12359989062001 9.320511455187312 C -41.30350536509126 2.227853544136991 -28.684782359843133 -34.145034280358516 -33.98113228432226 -36.67809494337719 C -39.27748220880138 -39.21115560639586 -82.55782809392572 -4.684347789499128 -80.90169943749474 -5.87785252292473 C -79.24557078106376 -7.071357256350332 -41.591675891524275 -37.543410106269306 -24.04436034573641 -43.8391233439308 C -6.497044799948551 -50.134836581592296 15.224517206693902 -49.37355831239023 24.382193837232425 -43.65213194889369 C 33.539870467770946 -37.93070558539715 29.254837083832673 -10.716823867977903 30.901699437494724 -9.510565162951536 C 32.54856179115678 -8.30430645792517 31.238625066117166 -39.61627286548837 34.263367959204736 -36.414579718735496 C 37.288110852292306 -33.21288657198262 38.09405145588759 3.630497097776436 49.05015679602013 9.699593717565685 C 60.00626213615268 15.768690337354935 100.63831174707518 -1.9390136123573336 100 0 C 99.36168825292482 1.9390136123573336 60.898207944199115 13.059206967807313 45.220286313569055 21.333675391709686" fill-opacity="1" stroke-opacity="1" stroke-linecap="round" stroke-miterlimit="10"/></g><g transform="translate(190.52433722583598,104.77392177597605) scale(1,1) rotate(294.7135200838292,0,0)"><path fill="rgb(195,8,8)" stroke="rgb(0,0,0)" paint-order="fill stroke markers" d=" M 45.220286313569055 21.333675391709686 C 29.542364682938995 29.60814381561206 8.318901362232006 51.61732891487393 5.932470216219621 49.64681054341424 C 3.5460390702072364 47.67629217195455 32.94306014626758 9.518447550892358 30.901699437494745 9.510565162951535 C 28.860338728721914 9.502682775010712 6.398537297356742 47.68730663771274 -6.3156940364173755 49.5995162157693 C -19.029925370191492 51.51172579382586 -32.9526876649704 28.270766580098346 -45.38368856514996 20.98382263129092 C -57.81468946532952 13.696878682483494 -80.27838088324974 7.821737718942001 -80.90169943749474 5.877852522924733 C -81.52501799173974 3.9339673269074646 -56.94369441614875 16.413169366237632 -49.12359989062001 9.320511455187312 C -41.30350536509126 2.227853544136991 -28.684782359843133 -34.145034280358516 -33.98113228432226 -36.67809494337719 C -39.27748220880138 -39.21115560639586 -82.55782809392572 -4.684347789499128 -80.90169943749474 -5.87785252292473 C -79.24557078106376 -7.071357256350332 -41.591675891524275 -37.543410106269306 -24.04436034573641 -43.8391233439308 C -6.497044799948551 -50.134836581592296 15.224517206693902 -49.37355831239023 24.382193837232425 -43.65213194889369 C 33.539870467770946 -37.93070558539715 29.254837083832673 -10.716823867977903 30.901699437494724 -9.510565162951536 C 32.54856179115678 -8.30430645792517 31.238625066117166 -39.61627286548837 34.263367959204736 -36.414579718735496 C 37.288110852292306 -33.21288657198262 38.09405145588759 3.630497097776436 49.05015679602013 9.699593717565685 C 60.00626213615268 15.768690337354935 100.63831174707518 -1.9390136123573336 100 0 C 99.36168825292482 1.9390136123573336 60.898207944199115 13.059206967807313 45.220286313569055 21.333675391709686" fill-opacity="1" stroke-opacity="1" stroke-linecap="round" stroke-miterlimit="10"/></g><g transform="translate(228.98625995585223,120.9659978125166) scale(1,1) rotate(198.3338527556083,0,0)"><path fill="rgb(195,8,8)" stroke="rgb(0,0,0)" paint-order="fill stroke markers" d=" M 45.220286313569055 21.333675391709686 C 29.542364682938995 29.60814381561206 8.318901362232006 51.61732891487393 5.932470216219621 49.64681054341424 C 3.5460390702072364 47.67629217195455 32.94306014626758 9.518447550892358 30.901699437494745 9.510565162951535 C 28.860338728721914 9.502682775010712 6.398537297356742 47.68730663771274 -6.3156940364173755 49.5995162157693 C -19.029925370191492 51.51172579382586 -32.9526876649704 28.270766580098346 -45.38368856514996 20.98382263129092 C -57.81468946532952 13.696878682483494 -80.27838088324974 7.821737718942001 -80.90169943749474 5.877852522924733 C -81.52501799173974 3.9339673269074646 -56.94369441614875 16.413169366237632 -49.12359989062001 9.320511455187312 C -41.30350536509126 2.227853544136991 -28.684782359843133 -34.145034280358516 -33.98113228432226 -36.67809494337719 C -39.27748220880138 -39.21115560639586 -82.55782809392572 -4.684347789499128 -80.90169943749474 -5.87785252292473 C -79.24557078106376 -7.071357256350332 -41.591675891524275 -37.543410106269306 -24.04436034573641 -43.8391233439308 C -6.497044799948551 -50.134836581592296 15.224517206693902 -49.37355831239023 24.382193837232425 -43.65213194889369 C 33.539870467770946 -37.93070558539715 29.254837083832673 -10.716823867977903 30.901699437494724 -9.510565162951536 C 32.54856179115678 -8.30430645792517 31.238625066117166 -39.61627286548837 34.263367959204736 -36.414579718735496 C 37.288110852292306 -33.21288657198262 38.09405145588759 3.630497097776436 49.05015679602013 9.699593717565685 C 60.00626213615268 15.768690337354935 100.63831174707518 -1.9390136123573336 100 0 C 99.36168825292482 1.9390136123573336 60.898207944199115 13.059206967807313 45.220286313569055 21.333675391709686" fill-opacity="1" stroke-opacity="1" stroke-linecap="round" stroke-miterlimit="10"/></g><g transform="translate(104.42461051937019,31.495051965829468) scale(1,1) rotate(314.49117786202714,0,0)"><path fill="rgb(195,8,8)" stroke="rgb(0,0,0)" paint-order="fill stroke markers" d=" M 45.220286313569055 21.333675391709686 C 29.542364682938995 29.60814381561206 8.318901362232006 51.61732891487393 5.932470216219621 49.64681054341424 C 3.5460390702072364 47.67629217195455 32.94306014626758 9.518447550892358 30.901699437494745 9.510565162951535 C 28.860338728721914 9.502682775010712 6.398537297356742 47.68730663771274 -6.3156940364173755 49.5995162157693 C -19.029925370191492 51.51172579382586 -32.9526876649704 28.270766580098346 -45.38368856514996 20.98382263129092 C -57.81468946532952 13.696878682483494 -80.27838088324974 7.821737718942001 -80.90169943749474 5.877852522924733 C -81.52501799173974 3.9339673269074646 -56.94369441614875 16.413169366237632 -49.12359989062001 9.320511455187312 C -41.30350536509126 2.227853544136991 -28.684782359843133 -34.145034280358516 -33.98113228432226 -36.67809494337719 C -39.27748220880138 -39.21115560639586 -82.55782809392572 -4.684347789499128 -80.90169943749474 -5.87785252292473 C -79.24557078106376 -7.071357256350332 -41.591675891524275 -37.543410106269306 -24.04436034573641 -43.8391233439308 C -6.497044799948551 -50.134836581592296 15.224517206693902 -49.37355831239023 24.382193837232425 -43.65213194889369 C 33.539870467770946 -37.93070558539715 29.254837083832673 -10.716823867977903 30.901699437494724 -9.510565162951536 C 32.54856179115678 -8.30430645792517 31.238625066117166 -39.61627286548837 34.263367959204736 -36.414579718735496 C 37.288110852292306 -33.21288657198262 38.09405145588759 3.630497097776436 49.05015679602013 9.699593717565685 C 60.00626213615268 15.768690337354935 100.63831174707518 -1.9390136123573336 100 0 C 99.36168825292482 1.9390136123573336 60.898207944199115 13.059206967807313 45.220286313569055 21.333675391709686" fill-opacity="1" stroke-opacity="1" stroke-linecap="round" stroke-miterlimit="10"/></g><g transform="translate(252.6946084983341,14.257491622221252) scale(1,1) rotate(116.92459875015078,0,0)"><path fill="rgb(195,8,8)" stroke="rgb(0,0,0)" paint-order="fill stroke markers" d=" M 45.220286313569055 21.333675391709686 C 29.542364682938995 29.60814381561206 8.318901362232006 51.61732891487393 5.932470216219621 49.64681054341424 C 3.5460390702072364 47.67629217195455 32.94306014626758 9.518447550892358 30.901699437494745 9.510565162951535 C 28.860338728721914 9.502682775010712 6.398537297356742 47.68730663771274 -6.3156940364173755 49.5995162157693 C -19.029925370191492 51.51172579382586 -32.9526876649704 28.270766580098346 -45.38368856514996 20.98382263129092 C -57.81468946532952 13.696878682483494 -80.27838088324974 7.821737718942001 -80.90169943749474 5.877852522924733 C -81.52501799173974 3.9339673269074646 -56.94369441614875 16.413169366237632 -49.12359989062001 9.320511455187312 C -41.30350536509126 2.227853544136991 -28.684782359843133 -34.145034280358516 -33.98113228432226 -36.67809494337719 C -39.27748220880138 -39.21115560639586 -82.55782809392572 -4.684347789499128 -80.90169943749474 -5.87785252292473 C -79.24557078106376 -7.071357256350332 -41.591675891524275 -37.543410106269306 -24.04436034573641 -43.8391233439308 C -6.497044799948551 -50.134836581592296 15.224517206693902 -49.37355831239023 24.382193837232425 -43.65213194889369 C 33.539870467770946 -37.93070558539715 29.254837083832673 -10.716823867977903 30.901699437494724 -9.510565162951536 C 32.54856179115678 -8.30430645792517 31.238625066117166 -39.61627286548837 34.263367959204736 -36.414579718735496 C 37.288110852292306 -33.21288657198262 38.09405145588759 3.630497097776436 49.05015679602013 9.699593717565685 C 60.00626213615268 15.768690337354935 100.63831174707518 -1.9390136123573336 100 0 C 99.36168825292482 1.9390136123573336 60.898207944199115 13.059206967807313 45.220286313569055 21.333675391709686" fill-opacity="1" stroke-opacity="1" stroke-linecap="round" stroke-miterlimit="10"/></g><g transform="translate(135.49828480094357,198.42404550474848) scale(1,1) rotate(57.79555477820015,0,0)"><path fill="rgb(195,8,8)" stroke="rgb(0,0,0)" paint-order="fill stroke markers" d=" M 45.220286313569055 21.333675391709686 C 29.542364682938995 29.60814381561206 8.318901362232006 51.61732891487393 5.932470216219621 49.64681054341424 C 3.5460390702072364 47.67629217195455 32.94306014626758 9.518447550892358 30.901699437494745 9.510565162951535 C 28.860338728721914 9.502682775010712 6.398537297356742 47.68730663771274 -6.3156940364173755 49.5995162157693 C -19.029925370191492 51.51172579382586 -32.9526876649704 28.270766580098346 -45.38368856514996 20.98382263129092 C -57.81468946532952 13.696878682483494 -80.27838088324974 7.821737718942001 -80.90169943749474 5.877852522924733 C -81.52501799173974 3.9339673269074646 -56.94369441614875 16.413169366237632 -49.12359989062001 9.320511455187312 C -41.30350536509126 2.227853544136991 -28.684782359843133 -34.145034280358516 -33.98113228432226 -36.67809494337719 C -39.27748220880138 -39.21115560639586 -82.55782809392572 -4.684347789499128 -80.90169943749474 -5.87785252292473 C -79.24557078106376 -7.071357256350332 -41.591675891524275 -37.543410106269306 -24.04436034573641 -43.8391233439308 C -6.497044799948551 -50.134836581592296 15.224517206693902 -49.37355831239023 24.382193837232425 -43.65213194889369 C 33.539870467770946 -37.93070558539715 29.254837083832673 -10.716823867977903 30.901699437494724 -9.510565162951536 C 32.54856179115678 -8.30430645792517 31.238625066117166 -39.61627286548837 34.263367959204736 -36.414579718735496 C 37.288110852292306 -33.21288657198262 38.09405145588759 3.630497097776436 49.05015679602013 9.699593717565685 C 60.00626213615268 15.768690337354935 100.63831174707518 -1.9390136123573336 100 0 C 99.36168825292482 1.9390136123573336 60.898207944199115 13.059206967807313 45.220286313569055 21.333675391709686" fill-opacity="1" stroke-opacity="1" stroke-linecap="round" stroke-miterlimit="10"/></g></g><g/><g/><g/><g/><g/><g/><g/><g/><g/><g/><g/><g/><g/><g/><g/><g/><g/><g/><g/><g/><g/><g/><g/><g/><g/><g/><g/><g/><g/><g/><g/><g/><g/><g/><g/><g/><g/><g/><g/><g/><g/><g/><g/><g/><g/><g/><g/><g/><g/><g/><g><g transform="translate(0,-400)"><g transform="translate(315.59921921048925,384.88889669137166) scale(1,1) rotate(284.8398894904656,0,0)"><path fill="rgb(195,8,8)" stroke="rgb(0,0,0)" paint-order="fill stroke markers" d=" M 45.220286313569055 21.333675391709686 C 29.542364682938995 29.60814381561206 8.318901362232006 51.61732891487393 5.932470216219621 49.64681054341424 C 3.5460390702072364 47.67629217195455 32.94306014626758 9.518447550892358 30.901699437494745 9.510565162951535 C 28.860338728721914 9.502682775010712 6.398537297356742 47.68730663771274 -6.3156940364173755 49.5995162157693 C -19.029925370191492 51.51172579382586 -32.9526876649704 28.270766580098346 -45.38368856514996 20.98382263129092 C -57.81468946532952 13.696878682483494 -80.27838088324974 7.821737718942001 -80.90169943749474 5.877852522924733 C -81.52501799173974 3.9339673269074646 -56.94369441614875 16.413169366237632 -49.12359989062001 9.320511455187312 C -41.30350536509126 2.227853544136991 -28.684782359843133 -34.145034280358516 -33.98113228432226 -36.67809494337719 C -39.27748220880138 -39.21115560639586 -82.55782809392572 -4.684347789499128 -80.90169943749474 -5.87785252292473 C -79.24557078106376 -7.071357256350332 -41.591675891524275 -37.543410106269306 -24.04436034573641 -43.8391233439308 C -6.497044799948551 -50.134836581592296 15.224517206693902 -49.37355831239023 24.382193837232425 -43.65213194889369 C 33.539870467770946 -37.93070558539715 29.254837083832673 -10.716823867977903 30.901699437494724 -9.510565162951536 C 32.54856179115678 -8.30430645792517 31.238625066117166 -39.61627286548837 34.263367959204736 -36.414579718735496 C 37.288110852292306 -33.21288657198262 38.09405145588759 3.630497097776436 49.05015679602013 9.699593717565685 C 60.00626213615268 15.768690337354935 100.63831174707518 -1.9390136123573336 100 0 C 99.36168825292482 1.9390136123573336 60.898207944199115 13.059206967807313 45.220286313569055 21.333675391709686" fill-opacity="1" stroke-opacity="1" stroke-linecap="round" stroke-miterlimit="10"/></g></g><g transform="translate(0,400)"><g transform="translate(97.50593685441231,2.3767440560402697) scale(1,1) rotate(27.458886069175175,0,0)"><path fill="rgb(195,8,8)" stroke="rgb(0,0,0)" paint-order="fill stroke markers" d=" M 45.220286313569055 21.333675391709686 C 29.542364682938995 29.60814381561206 8.318901362232006 51.61732891487393 5.932470216219621 49.64681054341424 C 3.5460390702072364 47.67629217195455 32.94306014626758 9.518447550892358 30.901699437494745 9.510565162951535 C 28.860338728721914 9.502682775010712 6.398537297356742 47.68730663771274 -6.3156940364173755 49.5995162157693 C -19.029925370191492 51.51172579382586 -32.9526876649704 28.270766580098346 -45.38368856514996 20.98382263129092 C -57.81468946532952 13.696878682483494 -80.27838088324974 7.821737718942001 -80.90169943749474 5.877852522924733 C -81.52501799173974 3.9339673269074646 -56.94369441614875 16.413169366237632 -49.12359989062001 9.320511455187312 C -41.30350536509126 2.227853544136991 -28.684782359843133 -34.145034280358516 -33.98113228432226 -36.67809494337719 C -39.27748220880138 -39.21115560639586 -82.55782809392572 -4.684347789499128 -80.90169943749474 -5.87785252292473 C -79.24557078106376 -7.071357256350332 -41.591675891524275 -37.543410106269306 -24.04436034573641 -43.8391233439308 C -6.497044799948551 -50.134836581592296 15.224517206693902 -49.37355831239023 24.382193837232425 -43.65213194889369 C 33.539870467770946 -37.93070558539715 29.254837083832673 -10.716823867977903 30.901699437494724 -9.510565162951536 C 32.54856179115678 -8.30430645792517 31.238625066117166 -39.61627286548837 34.263367959204736 -36.414579718735496 C 37.288110852292306 -33.21288657198262 38.09405145588759 3.630497097776436 49.05015679602013 9.699593717565685 C 60.00626213615268 15.768690337354935 100.63831174707518 -1.9390136123573336 100 0 C 99.36168825292482 1.9390136123573336 60.898207944199115 13.059206967807313 45.220286313569055 21.333675391709686" fill-opacity="1" stroke-opacity="1" stroke-linecap="round" stroke-miterlimit="10"/></g></g><g transform="translate(0,400)"><g transform="translate(104.42461051937019,31.495051965829468) scale(1,1) rotate(314.49117786202714,0,0)"><path fill="rgb(195,8,8)" stroke="rgb(0,0,0)" paint-order="fill stroke markers" d=" M 45.220286313569055 21.333675391709686 C 29.542364682938995 29.60814381561206 8.318901362232006 51.61732891487393 5.932470216219621 49.64681054341424 C 3.5460390702072364 47.67629217195455 32.94306014626758 9.518447550892358 30.901699437494745 9.510565162951535 C 28.860338728721914 9.502682775010712 6.398537297356742 47.68730663771274 -6.3156940364173755 49.5995162157693 C -19.029925370191492 51.51172579382586 -32.9526876649704 28.270766580098346 -45.38368856514996 20.98382263129092 C -57.81468946532952 13.696878682483494 -80.27838088324974 7.821737718942001 -80.90169943749474 5.877852522924733 C -81.52501799173974 3.9339673269074646 -56.94369441614875 16.413169366237632 -49.12359989062001 9.320511455187312 C -41.30350536509126 2.227853544136991 -28.684782359843133 -34.145034280358516 -33.98113228432226 -36.67809494337719 C -39.27748220880138 -39.21115560639586 -82.55782809392572 -4.684347789499128 -80.90169943749474 -5.87785252292473 C -79.24557078106376 -7.071357256350332 -41.591675891524275 -37.543410106269306 -24.04436034573641 -43.8391233439308 C -6.497044799948551 -50.134836581592296 15.224517206693902 -49.37355831239023 24.382193837232425 -43.65213194889369 C 33.539870467770946 -37.93070558539715 29.254837083832673 -10.716823867977903 30.901699437494724 -9.510565162951536 C 32.54856179115678 -8.30430645792517 31.238625066117166 -39.61627286548837 34.263367959204736 -36.414579718735496 C 37.288110852292306 -33.21288657198262 38.09405145588759 3.630497097776436 49.05015679602013 9.699593717565685 C 60.00626213615268 15.768690337354935 100.63831174707518 -1.9390136123573336 100 0 C 99.36168825292482 1.9390136123573336 60.898207944199115 13.059206967807313 45.220286313569055 21.333675391709686" fill-opacity="1" stroke-opacity="1" stroke-linecap="round" stroke-miterlimit="10"/></g></g><g transform="translate(0,400)"><g transform="translate(252.6946084983341,14.257491622221252) scale(1,1) rotate(116.92459875015078,0,0)"><path fill="rgb(195,8,8)" stroke="rgb(0,0,0)" paint-order="fill stroke markers" d=" M 45.220286313569055 21.333675391709686 C 29.542364682938995 29.60814381561206 8.318901362232006 51.61732891487393 5.932470216219621 49.64681054341424 C 3.5460390702072364 47.67629217195455 32.94306014626758 9.518447550892358 30.901699437494745 9.510565162951535 C 28.860338728721914 9.502682775010712 6.398537297356742 47.68730663771274 -6.3156940364173755 49.5995162157693 C -19.029925370191492 51.51172579382586 -32.9526876649704 28.270766580098346 -45.38368856514996 20.98382263129092 C -57.81468946532952 13.696878682483494 -80.27838088324974 7.821737718942001 -80.90169943749474 5.877852522924733 C -81.52501799173974 3.9339673269074646 -56.94369441614875 16.413169366237632 -49.12359989062001 9.320511455187312 C -41.30350536509126 2.227853544136991 -28.684782359843133 -34.145034280358516 -33.98113228432226 -36.67809494337719 C -39.27748220880138 -39.21115560639586 -82.55782809392572 -4.684347789499128 -80.90169943749474 -5.87785252292473 C -79.24557078106376 -7.071357256350332 -41.591675891524275 -37.543410106269306 -24.04436034573641 -43.8391233439308 C -6.497044799948551 -50.134836581592296 15.224517206693902 -49.37355831239023 24.382193837232425 -43.65213194889369 C 33.539870467770946 -37.93070558539715 29.254837083832673 -10.716823867977903 30.901699437494724 -9.510565162951536 C 32.54856179115678 -8.30430645792517 31.238625066117166 -39.61627286548837 34.263367959204736 -36.414579718735496 C 37.288110852292306 -33.21288657198262 38.09405145588759 3.630497097776436 49.05015679602013 9.699593717565685 C 60.00626213615268 15.768690337354935 100.63831174707518 -1.9390136123573336 100 0 C 99.36168825292482 1.9390136123573336 60.898207944199115 13.059206967807313 45.220286313569055 21.333675391709686" fill-opacity="1" stroke-opacity="1" stroke-linecap="round" stroke-miterlimit="10"/></g></g></g><g/><g/><g/><g/><g/><g/><g/><g/><g/><g/><g/><g/><g/><g/><g/><g/><g/><g/><g/><g/><g/><g/><g/><g/><g/><g/><g/><g/><g/><g/><g/><g/><g/><g/><g/><g/><g/><g/><g/><g/><g/><g/><g/><g/><g/><g/><g/><g/><g/><g/><g/><g/><g/><g/><g/><g/><g/><g/><g/><g/><g/><g/><g/><g/><g/><g/><g/><g/><g/><g/><g/><g/><g/><g/><g/><g/><g/><g/><g/><g/><g/><g/><g/><g/><g/><g/><g/><g/><g/><g/><g/><g/><g/><g/><g/><g/><g/><g/><g/><g/><g/><g/><g/><g/><g/><g/><g/><g/><g/><g/><g/><g/><g/><g/><g/><g/><g/><g/><g/><g/><g/><g/><g/><g/><g/><g/><g/><g/><g/><g/><g/><g/><g/><g/><g/><g/><g/><g/><g/><g/><g/><g/><g/><g/><g/><g/><g/><g/><g/><g/><g/><g/><g/><g/><g/><g/><g/><g/><g/><g/><g/><g/><g/><g/><g/><g/><g/><g/><g/><g/><g/><g/><g/><g/><g/><g/><g/><g/><g/><g/><g/><g/><g/><g/><g/><g/><g/><g/><g/><g/><g/><g/><g/><g/><g/><g/><g/><g/><g/><g/><g/><g/><g/><g/><g/><g/><g/><g/><g/><g/><g/><g/><g/><g/><g/><g/><g/><g/><g/><g/><g/><g/><g/><g/><g/><g/><g/><g/><g/><g/><g/><g/><g/><g/><g/><g/><g/><g/><g/><g/><g/><g/><g/><g/><g/><g/><g/><g/><g/><g/><g/><g/><g/><g/><g/><g/><g/><g/><g/><g/><g/><g/><g/><g/><g/><g/><g/><g/><g/><g/><g/><g/><g/><g/><g/><g/><g/><g/><g/><g/><g/><g/><g/><g/><g/><g/><g/><g/><g/><g/><g/><g/><g/><g/><g/><g/><g/><g/><g/><g/><g/><g/><g/><g/><g/><g/><g/><g/><g/><g/><g/><g/><g/><g/><g/><g/><g/><g/><g/><g/><g/><g/><g/><g/><g/><g/><g/><g/><g/><g/><g/><g/><g/><g/><g/><g/><g/><g/><g/><g/><g/><g/><g/><g/><g/><g/><g/><g/><g/><g/><g/><g/><g/><g/><g/><g/><g/><g/><g/><g/><g/><g/><g/><g/><g/><g/><g/><g/><g/><g/><g/><g/><g/><g/><g/><g/><g/><g/><g/><g/><g/><g/><g/><g/><g/><g/><g/><g/><g/><g/><g/><g/><g/><g/><g/><g/><g/><g/><g/><g/><g/><g/><g/><g/><g/><g/><g/><g/><g/><g/><g/><g/><g/><g/><g/><g/><g/><g/><g/><g/><g/><g/><g/><g/><g/><g/><g/><g/><g/><g/><g/><g/><g/><g/><g/><g/><g/><g/><g/><g/><g/><g/><g/><g/><g/><g/><g/><g/><g/><g/><g/><g/><g/><g/><g/><g/><g/><g/><g/><g/><g/><g/><g/><g/><g/><g/><g/><g/><g/><g/><g/><g/><g/><g/><g/><g/><g/><g/><g/><g/><g/><g/><g/><g/><g/><g/><g/><g/><g/><g/><g/><g/><g/><g/><g/><g/><g/><g/><g/><g/><g/><g/><g/><g/><g/><g/><g/><g/><g/><g/><g/><g/><g/><g/><g/><g/><g/><g/><g/><g/><g/><g/><g/><g/><g/><g/><g/><g/><g/><g/><g/><g/><g/><g/><g/><g/><g/><g/><g/><g/><g/><g/><g/><g/><g/><g/><g/><g/><g/><g/><g/><g/><g/><g/><g/><g/><g/><g/><g/><g/><g/><g/><g/><g/><g/><g/><g/><g/><g/><g/><g/><g/><g/><g/><g/><g/><g/><g/><g/><g/><g/><g/><g/><g/><g/><g/><g/><g/><g/><g/><g/><g/><g/><g/><g/><g/><g/><g/><g/><g/><g/><g/><g/><g/><g/><g/><g/><g/><g/><g/><g/><g/><g/><g/><g/><g/><g/><g/><g/><g/><g/><g/><g/><g/><g/><g/><g/><g/><g/><g/><g/><g/><g/><g/><g/><g/><g/><g/><g/><g/><g/><g/><g/><g/><g/><g/><g/><g/><g/><g/><g/><g/><g/><g/><g/><g/><g/><g/><g/><g/><g/><g/><g/><g/><g/><g/><g/><g/><g/><g/><g/><g/><g/><g/><g/><g/><g/><g/><g/><g/><g/><g/><g/><g/><g/><g/><g/><g/><g/><g/><g/><g/><g/><g/><g/><g/><g/><g/><g/><g/><g/><g/><g/><g/><g/><g/><g/><g/><g/><g/><g/><g/><g/><g/><g/><g/><g/><g/><g/><g/><g/><g/><g/><g/><g/><g/><g/><g/><g/><g/><g/><g/><g/><g/><g/><g/><g/><g/><g/><g/><g/><g/><g/><g/><g/><g/><g/><g/><g/><g/><g/><g/><g/><g/><g/><g/><g/><g/><g/><g/><g/><g/><g/><g/><g/><g/><g/><g/><g/><g/><g/><g/><g/><g/><g/><g/><g/><g/><g/><g/><g/><g/><g/><g/><g/><g/><g/><g/><g/><g/><g/><g/><g/><g/><g/><g/><g/><g/><g/><g/><g/><g/><g/><g/><g/><g/><g/><g/><g/><g/><g/><g/><g/><g/><g/><g/><g/><g/><g/><g/><g/><g/><g/><g/><g/><g/><g/><g/><g/><g/><g/><g/><g/><g/><g/><g/><g/><g/><g/><g/><g/><g/><g/><g/><g/><g/><g/><g/><g/><g/><g/><g/><g/><g/><g/><g/><g/><g/><g/><g/><g/><g/><g/><g/><g/><g/><g/><g/><g/><g/><g/><g/><g/><g/><g/><g/><g/><g/><g/><g/><g/><g/><g/><g/><g/><g/><g/><g/><g/><g/><g/><g/><g/><g/><g/><g/><g/><g/><g/><g/><g/><g/><g/><g/><g/><g/><g/><g/><g/><g/><g/><g/><g/><g/><g/><g/><g/><g/><g/><g/><g/><g/><g/><g/><g/><g/><g/><g/><g/><g/><g/><g/><g/><g/><g/><g/><g/><g/><g/><g/><g/><g/><g/><g/><g/><g/><g/><g/><g/><g/><g/><g/><g/><g/><g/><g/><g/><g/><g/><g/><g/><g/><g/><g/><g/><g/><g/><g/><g/><g/><g/><g/><g/><g/><g/><g/><g/><g/><g/><g/><g/><g/><g/><g/><g/><g/><g/><g/><g/><g/><g/><g/><g/><g/><g/><g/><g/><g/><g/><g/><g/><g/><g/><g/><g/><g/><g/><g/><g/><g/><g/><g/><g/><g/><g/><g/><g/><g/><g/><g/><g/><g/><g/><g/><g/><g/><g/><g/><g/><g/><g/><g/><g/><g/><g/><g/><g/><g/><g/><g/><g/><g/><g/><g/><g/><g/><g/><g/><g/><g/><g/><g/><g/><g/><g/><g/><g/><g/><g/><g/><g/><g/><g/><g/><g/><g/><g/><g/><g/><g/><g/><g/><g/><g/><g/><g/><g/><g/><g/><g/><g/><g/><g/><g/><g/><g/><g/><g/><g/><g/><g/><g/><g/><g/><g/><g/><g/><g/><g/><g/><g/><g/><g/><g/><g/><g/><g/><g/><g/><g/><g/><g/><g/><g/><g/><g/><g/><g/><g/><g/><g/><g/><g/><g/><g/><g/><g/><g/><g/><g/><g/><g/><g/><g/><g/><g/><g/><g/><g/><g/><g/><g/><g/><g/><g/><g/><g/><g/><g/><g/><g/><g/><g/><g/><g/><g/><g/><g/><g/><g/><g/><g/><g/><g/><g/><g/><g/><g/><g/><g/><g/><g/><g/><g/><g/><g/><g/><g/><g/><g/><g/><g/><g/><g/><g/><g/><g/><g/><g/><g/><g/><g/><g/><g/><g/><g/><g/><g/><g/><g/><g/><g/><g/><g/><g/><g/><g/><g/><g/><g/><g/><g/><g/><g/><g/><g/><g/><g/><g/><g/><g/><g/><g/><g/><g/><g/><g/><g/><g/><g/><g/><g/><g/><g/><g/><g/><g/><g/><g/><g/><g/><g/><g/><g/><g/><g/><g/><g/><g/><g/><g/><g/><g/><g/><g/><g/><g/><g/><g/><g/><g/><g/><g/><g/><g/><g/><g/><g/><g/><g/><g/><g/><g/><g/><g/><g/><g/><g/><g/><g/><g/><g/><g/><g/><g/><g/><g/><g/><g/><g/><g/><g/><g/><g/><g/><g/><g/><g/><g/><g/><g/><g/><g/><g/><g/><g/><g/><g/><g/><g/><g/><g/><g/><g/><g/><g/><g/><g/><g/><g/><g/><g/><g/><g/><g/><g/><g/><g/><g/><g/><g/><g/><g/><g/><g/><g/><g/><g/><g/><g/><g/><g/><g/><g/><g/><g/><g/><g/><g/><g/><g/><g/><g/><g/><g/><g/><g/><g/><g/><g/><g/><g/><g/><g/><g/><g/><g/><g/><g/><g/><g/><g/><g/><g/><g/><g/><g/><g/><g/><g/><g/><g/><g/><g/><g/><g/><g/><g/><g/><g/><g/><g/><g/><g/><g/><g/><g/><g/><g/><g/><g/><g/><g/><g/><g/><g/><g/><g/><g/><g/><g/><g/><g/><g/><g/><g/><g/><g/><g/><g/><g/><g/><g/><g/><g/></g></svg>