<svg version="1.1" xmlns="http://www.w3.org/2000/svg" xmlns:xlink="http://www.w3.org/1999/xlink" width="400" height="400" viewBox="0 0 400 400"><defs/><g/><g transform="scale(1,1)"><g><g transform="scale(1,1)"><rect fill="rgb(255,255,255)" stroke="none" x="0" y="0" width="400" height="400" fill-opacity="1"/></g><g transform="translate(274.0035842865216,379.15742899793605) scale(1,1) rotate(130.73874086678566,0,0)"><path fill="rgb(0,0,0)" stroke="rgb(48,77,230)" paint-order="fill stroke markers" d=" M 45.220286313569055 32.00051308756453 C 46.20903134960566 44.412215723418086 13.469184601814463 74.25580498466039 5.932470216219621 74.47021581512136 C -1.604244169375221 74.68462664558234 2.041360708772833 33.29880165224161 0 33.28697807033037 C -2.041360708772833 33.27515448841913 1.2482540577742842 74.70114834421962 -6.3156940364173755 74.39927432365396 C -13.879642130609035 74.09740030308829 -46.43630423788619 40.44686569583928 -45.38368856514996 31.475733946936383 C -44.33107289241373 22.504602198033485 0.6233185542450078 23.488311624262465 0 20.572483830236564 C -0.6233185542450078 17.656656036210663 -43.460077843232966 26.579038223664696 -49.12359989062001 13.98076718278097 C -54.78712193800705 1.382496141897244 -42.168398932758926 -49.258267246229536 -33.98113228432226 -55.01714241506579 C -25.793865635885588 -60.776017583902046 -1.6561286564309743 -18.782226730098156 0 -20.572483830236557 C 1.6561286564309743 -22.362740930374958 -28.108059318608483 -58.27439933371221 -24.04436034573641 -65.7586850158962 C -19.98066137286434 -73.2429706980802 20.374800446276357 -70.89014908093483 24.382193837232425 -65.47819792334053 C 28.389587228188493 -60.06624676574623 -1.646862353662052 -35.09636612786993 0 -33.28697807033038 C 1.646862353662052 -31.47759001279083 26.088341826534716 -62.59459768588306 34.263367959204736 -54.621869578103244 C 42.438394091874756 -46.64914147032343 54.76071812255425 5.445745646664655 49.05015679602013 14.549390576348529 C 43.339595469486014 23.653035506032403 0.6383117470751797 -2.908520418536 0 0 C -0.6383117470751797 2.908520418536 44.23154127753245 19.58881045171097 45.220286313569055 32.00051308756453" fill-opacity="0.49999999999999994" stroke-opacity="1" stroke-linecap="round" stroke-miterlimit="10"/></g><g transform="translate(249.87639056880536,36.58132540104795) scale(1,1) rotate(296.31230213956724,0,0)"><path fill="rgb(255,255,255)" stroke="rgb(48,77,230)" paint-order="fill stroke markers" d=" M 45.220286313569055 32.00051308756453 C 46.20903134960566 44.412215723418086 13.469184601814463 74.25580498466039 5.932470216219621 74.47021581512136 C -1.604244169375221 74.68462664558234 2.041360708772833 33.29880165224161 0 33.28697807033037 C -2.041360708772833 33.27515448841913 1.2482540577742842 74.70114834421962 -6.3156940364173755 74.39927432365396 C -13.879642130609035 74.09740030308829 -46.43630423788619 40.44686569583928 -45.38368856514996 31.475733946936383 C -44.33107289241373 22.504602198033485 0.6233185542450078 23.488311624262465 0 20.572483830236564 C -0.6233185542450078 17.656656036210663 -43.460077843232966 26.579038223664696 -49.12359989062001 13.98076718278097 C -54.78712193800705 1.382496141897244 -42.168398932758926 -49.258267246229536 -33.98113228432226 -55.01714241506579 C -25.793865635885588 -60.776017583902046 -1.6561286564309743 -18.782226730098156 0 -20.572483830236557 C 1.6561286564309743 -22.362740930374958 -28.108059318608483 -58.27439933371221 -24.04436034573641 -65.7586850158962 C -19.98066137286434 -73.2429706980802 20.374800446276357 -70.89014908093483 24.382193837232425 -65.47819792334053 C 28.389587228188493 -60.06624676574623 -1.646862353662052 -35.09636612786993 0 -33.28697807033038 C 1.646862353662052 -31.47759001279083 26.088341826534716 -62.59459768588306 34.263367959204736 -54.621869578103244 C 42.438394091874756 -46.64914147032343 54.76071812255425 5.445745646664655 49.05015679602013 14.549390576348529 C 43.339595469486014 23.653035506032403 0.6383117470751797 -2.908520418536 0 0 C -0.6383117470751797 2.908520418536 44.23154127753245 19.58881045171097 45.220286313569055 32.00051308756453" fill-opacity="0.49999999999999994" stroke-opacity="1" stroke-linecap="round" stroke-miterlimit="10"/></g><g transform="translate(30.235089619576172,391.50831058625977) scale(1,1) rotate(249.03817806974658,0,0)"><path fill="rgb(195,8,8)" stroke="rgb(48,77,230)" paint-order="fill stroke markers" d=" M 45.220286313569055 32.00051308756453 C 46.20903134960566 44.412215723418086 13.469184601814463 74.25580498466039 5.932470216219621 74.47021581512136 C -1.604244169375221 74.68462664558234 2.041360708772833 33.29880165224161 0 33.28697807033037 C -2.041360708772833 33.27515448841913 1.2482540577742842 74.70114834421962 -6.3156940364173755 74.39927432365396 C -13.879642130609035 74.09740030308829 -46.43630423788619 40.44686569583928 -45.38368856514996 31.475733946936383 C -44.33107289241373 22.504602198033485 0.6233185542450078 23.488311624262465 0 20.572483830236564 C -0.6233185542450078 17.656656036210663 -43.460077843232966 26.579038223664696 -49.12359989062001 13.98076718278097 C -54.78712193800705 1.382496141897244 -42.168398932758926 -49.258267246229536 -33.98113228432226 -55.01714241506579 C -25.793865635885588 -60.776017583902046 -1.6561286564309743 -18.782226730098156 0 -20.572483830236557 C 1.6561286564309743 -22.362740930374958 -28.108059318608483 -58.27439933371221 -24.04436034573641 -65.7586850158962 C -19.98066137286434 -73.2429706980802 20.374800446276357 -70.89014908093483 24.382193837232425 -65.47819792334053 C 28.389587228188493 -60.06624676574623 -1.646862353662052 -35.09636612786993 0 -33.28697807033038 C 1.646862353662052 -31.47759001279083 26.088341826534716 -62.59459768588306 34.263367959204736 -54.621869578103244 C 42.438394091874756 -46.64914147032343 54.76071812255425 5.445745646664655 49.05015679602013 14.549390576348529 C 43.339595469486014 23.653035506032403 0.6383117470751797 -2.908520418536 0 0 C -0.6383117470751797 2.908520418536 44.23154127753245 19.58881045171097 45.220286313569055 32.00051308756453" fill-opacity="0.49999999999999994" stroke-opacity="1" stroke-linecap="round" stroke-miterlimit="10"/></g><g transform="translate(370.9148150936321,241.47381921570297) scale(1,1) rotate(275.65160644696255,0,0)"><path fill="rgb(244,113,113)" stroke="rgb(48,77,230)" paint-order="fill stroke markers" d=" M 45.220286313569055 32.00051308756453 C 46.20903134960566 44.412215723418086 13.469184601814463 74.25580498466039 5.932470216219621 74.47021581512136 C -1.604244169375221 74.68462664558234 2.041360708772833 33.29880165224161 0 33.28697807033037 C -2.041360708772833 33.27515448841913 1.2482540577742842 74.70114834421962 -6.3156940364173755 74.39927432365396 C -13.879642130609035 74.09740030308829 -46.43630423788619 40.44686569583928 -45.38368856514996 31.475733946936383 C -44.33107289241373 22.504602198033485 0.6233185542450078 23.488311624262465 0 20.572483830236564 C -0.6233185542450078 17.656656036210663 -43.460077843232966 26.579038223664696 -49.12359989062001 13.98076718278097 C -54.78712193800705 1.382496141897244 -42.168398932758926 -49.258267246229536 -33.98113228432226 -55.01714241506579 C -25.793865635885588 -60.776017583902046 -1.6561286564309743 -18.782226730098156 0 -20.572483830236557 C 1.6561286564309743 -22.362740930374958 -28.108059318608483 -58.27439933371221 -24.04436034573641 -65.7586850158962 C -19.98066137286434 -73.2429706980802 20.374800446276357 -70.89014908093483 24.382193837232425 -65.47819792334053 C 28.389587228188493 -60.06624676574623 -1.646862353662052 -35.09636612786993 0 -33.28697807033038 C 1.646862353662052 -31.47759001279083 26.088341826534716 -62.59459768588306 34.263367959204736 -54.621869578103244 C 42.438394091874756 -46.64914147032343 54.76071812255425 5.445745646664655 49.05015679602013 14.549390576348529 C 43.339595469486014 23.653035506032403 0.6383117470751797 -2.908520418536 0 0 C -0.6383117470751797 2.908520418536 44.23154127753245 19.58881045171097 45.220286313569055 32.00051308756453" fill-opacity="0.49999999999999994" stroke-opacity="1" stroke-linecap="round" stroke-miterlimit="10"/></g><g transform="translate(397.3061500765862,146.41108581938678) scale(1,1) rotate(344.0968385636996,0,0)"><path fill="rgb(220,244,33)" stroke="rgb(48,77,230)" paint-order="fill stroke markers" d=" M 45.220286313569055 32.00051308756453 C 46.20903134960566 44.412215723418086 13.469184601814463 74.25580498466039 5.932470216219621 74.47021581512136 C -1.604244169375221 74.68462664558234 2.041360708772833 33.29880165224161 0 33.28697807033037 C -2.041360708772833 33.27515448841913 1.2482540577742842 74.70114834421962 -6.3156940364173755 74.39927432365396 C -13.879642130609035 74.09740030308829 -46.43630423788619 40.44686569583928 -45.38368856514996 31.475733946936383 C -44.33107289241373 22.504602198033485 0.6233185542450078 23.488311624262465 0 20.572483830236564 C -0.6233185542450078 17.656656036210663 -43.460077843232966 26.579038223664696 -49.12359989062001 13.98076718278097 C -54.78712193800705 1.382496141897244 -42.168398932758926 -49.258267246229536 -33.98113228432226 -55.01714241506579 C -25.793865635885588 -60.776017583902046 -1.6561286564309743 -18.782226730098156 0 -20.572483830236557 C 1.6561286564309743 -22.362740930374958 -28.108059318608483 -58.27439933371221 -24.04436034573641 -65.7586850158962 C -19.98066137286434 -73.2429706980802 20.374800446276357 -70.89014908093483 24.382193837232425 -65.47819792334053 C 28.389587228188493 -60.06624676574623 -1.646862353662052 -35.09636612786993 0 -33.28697807033038 C 1.646862353662052 -31.47759001279083 26.088341826534716 -62.59459768588306 34.263367959204736 -54.621869578103244 C 42.438394091874756 -46.64914147032343 54.76071812255425 5.445745646664655 49.05015679602013 14.549390576348529 C 43.339595469486014 23.653035506032403 0.6383117470751797 -2.908520418536 0 0 C -0.6383117470751797 2.908520418536 44.23154127753245 19.58881045171097 45.220286313569055 32.00051308756453" fill-opacity="0.49999999999999994" stroke-opacity="1" stroke-linecap="round" stroke-miterlimit="10"/></g><g transform="translate(104.9046830910732,355.00381596799616) scale(1,1) rotate(76.65063908510211,0,0)"><path fill="rgb(54,93,9)" stroke="rgb(48,77,230)" paint-order="fill stroke markers" d=" M 45.220286313569055 32.00051308756453 C 46.20903134960566 44.412215723418086 13.469184601814463 74.25580498466039 5.932470216219621 74.47021581512136 C -1.604244169375221 74.68462664558234 2.041360708772833 33.29880165224161 0 33.28697807033037 C -2.041360708772833 33.27515448841913 1.2482540577742842 74.70114834421962 -6.3156940364173755 74.39927432365396 C -13.879642130609035 74.09740030308829 -46.43630423788619 40.44686569583928 -45.38368856514996 31.475733946936383 C -44.33107289241373 22.504602198033485 0.6233185542450078 23.488311624262465 0 20.572483830236564 C -0.6233185542450078 17.656656036210663 -43.460077843232966 26.579038223664696 -49.12359989062001 13.98076718278097 C -54.78712193800705 1.382496141897244 -42.168398932758926 -49.258267246229536 -33.98113228432226 -55.01714241506579 C -25.793865635885588 -60.776017583902046 -1.6561286564309743 -18.782226730098156 0 -20.572483830236557 C 1.6561286564309743 -22.362740930374958 -28.108059318608483 -58.27439933371221 -24.04436034573641 -65.7586850158962 C -19.98066137286434 -73.2429706980802 20.374800446276357 -70.89014908093483 24.382193837232425 -65.47819792334053 C 28.389587228188493 -60.06624676574623 -1.646862353662052 -35.09636612786993 0 -33.28697807033038 C 1.646862353662052 -31.47759001279083 26.088341826534716 -62.59459768588306 34.263367959204736 -54.621869578103244 C 42.438394091874756 -46.64914147032343 54.76071812255425 5.445745646664655 49.05015679602013 14.549390576348529 C 43.339595469486014 23.653035506032403 0.6383117470751797 -2.908520418536 0 0 C -0.6383117470751797 2.908520418536 44.23154127753245 19.58881045171097 45.220286313569055 32.00051308756453" fill-opacity="0.49999999999999994" stroke-opacity="1" stroke-linecap="round" stroke-miterlimit="10"/></g><g transform="translate(103.29139941783261,299.16529123428387) scale(1,1) rotate(357.41333215840933,0,0)"><path fill="rgb(17,61,4)" stroke="rgb(48,77,230)" paint-order="fill stroke markers" d=" M 45.220286313569055 32.00051308756453 C 46.20903134960566 44.412215723418086 13.469184601814463 74.25580498466039 5.932470216219621 74.47021581512136 C -1.604244169375221 74.68462664558234 2.041360708772833 33.29880165224161 0 33.28697807033037 C -2.041360708772833 33.27515448841913 1.2482540577742842 74.70114834421962 -6.3156940364173755 74.39927432365396 C -13.879642130609035 74.09740030308829 -46.43630423788619 40.44686569583928 -45.38368856514996 31.475733946936383 C -44.33107289241373 22.504602198033485 0.6233185542450078 23.488311624262465 0 20.572483830236564 C -0.6233185542450078 17.656656036210663 -43.460077843232966 26.579038223664696 -49.12359989062001 13.98076718278097 C -54.78712193800705 1.382496141897244 -42.168398932758926 -49.258267246229536 -33.98113228432226 -55.01714241506579 C -25.793865635885588 -60.776017583902046 -1.6561286564309743 -18.782226730098156 0 -20.572483830236557 C 1.6561286564309743 -22.362740930374958 -28.108059318608483 -58.27439933371221 -24.04436034573641 -65.7586850158962 C -19.98066137286434 -73.2429706980802 20.374800446276357 -70.89014908093483 24.382193837232425 -65.47819792334053 C 28.389587228188493 -60.06624676574623 -1.646862353662052 -35.09636612786993 0 -33.28697807033038 C 1.646862353662052 -31.47759001279083 26.088341826534716 -62.59459768588306 34.263367959204736 -54.621869578103244 C 42.438394091874756 -46.64914147032343 54.76071812255425 5.445745646664655 49.05015679602013 14.549390576348529 C 43.339595469486014 23.653035506032403 0.6383117470751797 -2.908520418536 0 0 C -0.6383117470751797 2.908520418536 44.23154127753245 19.58881045171097 45.220286313569055 32.00051308756453" fill-opacity="0.49999999999999994" stroke-opacity="1" stroke-linecap="round" stroke-miterlimit="10"/></g><g transform="translate(133.80021450314902,222.14467687984572) scale(1,1) rotate(24.905763484437998,0,0)"><path fill="rgb(184,236,118)" stroke="rgb(48,77,230)" paint-order="fill stroke markers" d=" M 45.220286313569055 32.00051308756453 C 46.20903134960566 44.412215723418086 13.469184601814463 74.25580498466039 5.932470216219621 74.47021581512136 C -1.604244169375221 74.68462664558234 2.041360708772833 33.29880165224161 0 33.28697807033037 C -2.041360708772833 33.27515448841913 1.2482540577742842 74.70114834421962 -6.3156940364173755 74.39927432365396 C -13.879642130609035 74.09740030308829 -46.43630423788619 40.44686569583928 -45.38368856514996 31.475733946936383 C -44.33107289241373 22.504602198033485 0.6233185542450078 23.488311624262465 0 20.572483830236564 C -0.6233185542450078 17.656656036210663 -43.460077843232966 26.579038223664696 -49.12359989062001 13.98076718278097 C -54.78712193800705 1.382496141897244 -42.168398932758926 -49.258267246229536 -33.98113228432226 -55.01714241506579 C -25.793865635885588 -60.776017583902046 -1.6561286564309743 -18.782226730098156 0 -20.572483830236557 C 1.6561286564309743 -22.362740930374958 -28.108059318608483 -58.27439933371221 -24.04436034573641 -65.7586850158962 C -19.98066137286434 -73.2429706980802 20.374800446276357 -70.89014908093483 24.382193837232425 -65.47819792334053 C 28.389587228188493 -60.06624676574623 -1.646862353662052 -35.09636612786993 0 -33.28697807033038 C 1.646862353662052 -31.47759001279083 26.088341826534716 -62.59459768588306 34.263367959204736 -54.621869578103244 C 42.438394091874756 -46.64914147032343 54.76071812255425 5.445745646664655 49.05015679602013 14.549390576348529 C 43.339595469486014 23.653035506032403 0.6383117470751797 -2.908520418536 0 0 C -0.6383117470751797 2.908520418536 44.23154127753245 19.58881045171097 45.220286313569055 32.00051308756453" fill-opacity="0.49999999999999994" stroke-opacity="1" stroke-linecap="round" stroke-miterlimit="10"/></g><g transform="translate(144.76272365797166,144.7563028407253) scale(1,1) rotate(135.4161752441706,0,0)"><path fill="rgb(0,0,0)" stroke="rgb(48,77,230)" paint-order="fill stroke markers" d=" M 45.220286313569055 32.00051308756453 C 46.20903134960566 44.412215723418086 13.469184601814463 74.25580498466039 5.932470216219621 74.47021581512136 C -1.604244169375221 74.68462664558234 2.041360708772833 33.29880165224161 0 33.28697807033037 C -2.041360708772833 33.27515448841913 1.2482540577742842 74.70114834421962 -6.3156940364173755 74.39927432365396 C -13.879642130609035 74.09740030308829 -46.43630423788619 40.44686569583928 -45.38368856514996 31.475733946936383 C -44.33107289241373 22.504602198033485 0.6233185542450078 23.488311624262465 0 20.572483830236564 C -0.6233185542450078 17.656656036210663 -43.460077843232966 26.579038223664696 -49.12359989062001 13.98076718278097 C -54.78712193800705 1.382496141897244 -42.168398932758926 -49.258267246229536 -33.98113228432226 -55.01714241506579 C -25.793865635885588 -60.776017583902046 -1.6561286564309743 -18.782226730098156 0 -20.572483830236557 C 1.6561286564309743 -22.362740930374958 -28.108059318608483 -58.27439933371221 -24.04436034573641 -65.7586850158962 C -19.98066137286434 -73.2429706980802 20.374800446276357 -70.89014908093483 24.382193837232425 -65.47819792334053 C 28.389587228188493 -60.06624676574623 -1.646862353662052 -35.09636612786993 0 -33.28697807033038 C 1.646862353662052 -31.47759001279083 26.088341826534716 -62.59459768588306 34.263367959204736 -54.621869578103244 C 42.438394091874756 -46.64914147032343 54.76071812255425 5.445745646664655 49.05015679602013 14.549390576348529 C 43.339595469486014 23.653035506032403 0.6383117470751797 -2.908520418536 0 0 C -0.6383117470751797 2.908520418536 44.23154127753245 19.58881045171097 45.220286313569055 32.00051308756453" fill-opacity="0.49999999999999994" stroke-opacity="1" stroke-linecap="round" stroke-miterlimit="10"/></g><g transform="translate(155.22416985733338,124.87345489828625) scale(1,1) rotate(290.5610533989655,0,0)"><path fill="rgb(255,255,255)" stroke="rgb(48,77,230)" paint-order="fill stroke markers" d=" M 45.220286313569055 32.00051308756453 C 46.20903134960566 44.412215723418086 13.469184601814463 74.25580498466039 5.932470216219621 74.47021581512136 C -1.604244169375221 74.68462664558234 2.041360708772833 33.29880165224161 0 33.28697807033037 C -2.041360708772833 33.27515448841913 1.2482540577742842 74.70114834421962 -6.3156940364173755 74.39927432365396 C -13.879642130609035 74.09740030308829 -46.43630423788619 40.44686569583928 -45.38368856514996 31.475733946936383 C -44.33107289241373 22.504602198033485 0.6233185542450078 23.488311624262465 0 20.572483830236564 C -0.6233185542450078 17.656656036210663 -43.460077843232966 26.579038223664696 -49.12359989062001 13.98076718278097 C -54.78712193800705 1.382496141897244 -42.168398932758926 -49.258267246229536 -33.98113228432226 -55.01714241506579 C -25.793865635885588 -60.776017583902046 -1.6561286564309743 -18.782226730098156 0 -20.572483830236557 C 1.6561286564309743 -22.362740930374958 -28.108059318608483 -58.27439933371221 -24.04436034573641 -65.7586850158962 C -19.98066137286434 -73.2429706980802 20.374800446276357 -70.89014908093483 24.382193837232425 -65.47819792334053 C 28.389587228188493 -60.06624676574623 -1.646862353662052 -35.09636612786993 0 -33.28697807033038 C 1.646862353662052 -31.47759001279083 26.088341826534716 -62.59459768588306 34.263367959204736 -54.621869578103244 C 42.438394091874756 -46.64914147032343 54.76071812255425 5.445745646664655 49.05015679602013 14.549390576348529 C 43.339595469486014 23.653035506032403 0.6383117470751797 -2.908520418536 0 0 C -0.6383117470751797 2.908520418536 44.23154127753245 19.58881045171097 45.220286313569055 32.00051308756453" fill-opacity="0.49999999999999994" stroke-opacity="1" stroke-linecap="round" stroke-miterlimit="10"/></g></g><g/><g/><g/><g/><g/><g/><g/><g/><g/><g/><g/><g/><g/><g/><g/><g/><g/><g/><g/><g/><g/><g/><g/><g/><g/><g/><g/><g/><g/><g/><g/><g/><g/><g/><g/><g/><g/><g/><g/><g/><g/><g/><g/><g/><g/><g/><g/><g/><g/><g/><g><g transform="translate(0,-400)"><g transform="translate(274.0035842865216,379.15742899793605) scale(1,1) rotate(130.73874086678566,0,0)"><path fill="rgb(0,0,0)" stroke="rgb(48,77,230)" paint-order="fill stroke markers" d=" M 45.220286313569055 32.00051308756453 C 46.20903134960566 44.412215723418086 13.469184601814463 74.25580498466039 5.932470216219621 74.47021581512136 C -1.604244169375221 74.68462664558234 2.041360708772833 33.29880165224161 0 33.28697807033037 C -2.041360708772833 33.27515448841913 1.2482540577742842 74.70114834421962 -6.3156940364173755 74.39927432365396 C -13.879642130609035 74.09740030308829 -46.43630423788619 40.44686569583928 -45.38368856514996 31.475733946936383 C -44.33107289241373 22.504602198033485 0.6233185542450078 23.488311624262465 0 20.572483830236564 C -0.6233185542450078 17.656656036210663 -43.460077843232966 26.579038223664696 -49.12359989062001 13.98076718278097 C -54.78712193800705 1.382496141897244 -42.168398932758926 -49.258267246229536 -33.98113228432226 -55.01714241506579 C -25.793865635885588 -60.776017583902046 -1.6561286564309743 -18.782226730098156 0 -20.572483830236557 C 1.6561286564309743 -22.362740930374958 -28.108059318608483 -58.27439933371221 -24.04436034573641 -65.7586850158962 C -19.98066137286434 -73.2429706980802 20.374800446276357 -70.89014908093483 24.382193837232425 -65.47819792334053 C 28.389587228188493 -60.06624676574623 -1.646862353662052 -35.09636612786993 0 -33.28697807033038 C 1.646862353662052 -31.47759001279083 26.088341826534716 -62.59459768588306 34.263367959204736 -54.621869578103244 C 42.438394091874756 -46.64914147032343 54.76071812255425 5.445745646664655 49.05015679602013 14.549390576348529 C 43.339595469486014 23.653035506032403 0.6383117470751797 -2.908520418536 0 0 C -0.6383117470751797 2.908520418536 44.23154127753245 19.58881045171097 45.220286313569055 32.00051308756453" fill-opacity="0.49999999999999994" stroke-opacity="1" stroke-linecap="round" stroke-miterlimit="10"/></g></g><g transform="translate(0,400)"><g transform="translate(249.87639056880536,36.58132540104795) scale(1,1) rotate(296.31230213956724,0,0)"><path fill="rgb(255,255,255)" stroke="rgb(48,77,230)" paint-order="fill stroke markers" d=" M 45.220286313569055 32.00051308756453 C 46.20903134960566 44.412215723418086 13.469184601814463 74.25580498466039 5.932470216219621 74.47021581512136 C -1.604244169375221 74.68462664558234 2.041360708772833 33.29880165224161 0 33.28697807033037 C -2.041360708772833 33.27515448841913 1.2482540577742842 74.70114834421962 -6.3156940364173755 74.39927432365396 C -13.879642130609035 74.09740030308829 -46.43630423788619 40.44686569583928 -45.38368856514996 31.475733946936383 C -44.33107289241373 22.504602198033485 0.6233185542450078 23.488311624262465 0 20.572483830236564 C -0.6233185542450078 17.656656036210663 -43.460077843232966 26.579038223664696 -49.12359989062001 13.98076718278097 C -54.78712193800705 1.382496141897244 -42.168398932758926 -49.258267246229536 -33.98113228432226 -55.01714241506579 C -25.793865635885588 -60.776017583902046 -1.6561286564309743 -18.782226730098156 0 -20.572483830236557 C 1.6561286564309743 -22.362740930374958 -28.108059318608483 -58.27439933371221 -24.04436034573641 -65.7586850158962 C -19.98066137286434 -73.2429706980802 20.374800446276357 -70.89014908093483 24.382193837232425 -65.47819792334053 C 28.389587228188493 -60.06624676574623 -1.646862353662052 -35.09636612786993 0 -33.28697807033038 C 1.646862353662052 -31.47759001279083 26.088341826534716 -62.59459768588306 34.263367959204736 -54.621869578103244 C 42.438394091874756 -46.64914147032343 54.76071812255425 5.445745646664655 49.05015679602013 14.549390576348529 C 43.339595469486014 23.653035506032403 0.6383117470751797 -2.908520418536 0 0 C -0.6383117470751797 2.908520418536 44.23154127753245 19.58881045171097 45.220286313569055 32.00051308756453" fill-opacity="0.49999999999999994" stroke-opacity="1" stroke-linecap="round" stroke-miterlimit="10"/></g></g><g transform="translate(400,0)"><g transform="translate(30.235089619576172,391.50831058625977) scale(1,1) rotate(249.03817806974658,0,0)"><path fill="rgb(195,8,8)" stroke="rgb(48,77,230)" paint-order="fill stroke markers" d=" M 45.220286313569055 32.00051308756453 C 46.20903134960566 44.412215723418086 13.469184601814463 74.25580498466039 5.932470216219621 74.47021581512136 C -1.604244169375221 74.68462664558234 2.041360708772833 33.29880165224161 0 33.28697807033037 C -2.041360708772833 33.27515448841913 1.2482540577742842 74.70114834421962 -6.3156940364173755 74.39927432365396 C -13.879642130609035 74.09740030308829 -46.43630423788619 40.44686569583928 -45.38368856514996 31.475733946936383 C -44.33107289241373 22.504602198033485 0.6233185542450078 23.488311624262465 0 20.572483830236564 C -0.6233185542450078 17.656656036210663 -43.460077843232966 26.579038223664696 -49.12359989062001 13.98076718278097 C -54.78712193800705 1.382496141897244 -42.168398932758926 -49.258267246229536 -33.98113228432226 -55.01714241506579 C -25.793865635885588 -60.776017583902046 -1.6561286564309743 -18.782226730098156 0 -20.572483830236557 C 1.6561286564309743 -22.362740930374958 -28.108059318608483 -58.27439933371221 -24.04436034573641 -65.7586850158962 C -19.98066137286434 -73.2429706980802 20.374800446276357 -70.89014908093483 24.382193837232425 -65.47819792334053 C 28.389587228188493 -60.06624676574623 -1.646862353662052 -35.09636612786993 0 -33.28697807033038 C 1.646862353662052 -31.47759001279083 26.088341826534716 -62.59459768588306 34.263367959204736 -54.621869578103244 C 42.438394091874756 -46.64914147032343 54.76071812255425 5.445745646664655 49.05015679602013 14.549390576348529 C 43.339595469486014 23.653035506032403 0.6383117470751797 -2.908520418536 0 0 C -0.6383117470751797 2.908520418536 44.23154127753245 19.58881045171097 45.220286313569055 32.00051308756453" fill-opacity="0.49999999999999994" stroke-opacity="1" stroke-linecap="round" stroke-miterlimit="10"/></g></g><g transform="translate(0,-400)"><g transform="translate(30.235089619576172,391.50831058625977) scale(1,1) rotate(249.03817806974658,0,0)"><path fill="rgb(195,8,8)" stroke="rgb(48,77,230)" paint-order="fill stroke markers" d=" M 45.220286313569055 32.00051308756453 C 46.20903134960566 44.412215723418086 13.469184601814463 74.25580498466039 5.932470216219621 74.47021581512136 C -1.604244169375221 74.68462664558234 2.041360708772833 33.29880165224161 0 33.28697807033037 C -2.041360708772833 33.27515448841913 1.2482540577742842 74.70114834421962 -6.3156940364173755 74.39927432365396 C -13.879642130609035 74.09740030308829 -46.43630423788619 40.44686569583928 -45.38368856514996 31.475733946936383 C -44.33107289241373 22.504602198033485 0.6233185542450078 23.488311624262465 0 20.572483830236564 C -0.6233185542450078 17.656656036210663 -43.460077843232966 26.579038223664696 -49.12359989062001 13.98076718278097 C -54.78712193800705 1.382496141897244 -42.168398932758926 -49.258267246229536 -33.98113228432226 -55.01714241506579 C -25.793865635885588 -60.776017583902046 -1.6561286564309743 -18.782226730098156 0 -20.572483830236557 C 1.6561286564309743 -22.362740930374958 -28.108059318608483 -58.27439933371221 -24.04436034573641 -65.7586850158962 C -19.98066137286434 -73.2429706980802 20.374800446276357 -70.89014908093483 24.382193837232425 -65.47819792334053 C 28.389587228188493 -60.06624676574623 -1.646862353662052 -35.09636612786993 0 -33.28697807033038 C 1.646862353662052 -31.47759001279083 26.088341826534716 -62.59459768588306 34.263367959204736 -54.621869578103244 C 42.438394091874756 -46.64914147032343 54.76071812255425 5.445745646664655 49.05015679602013 14.549390576348529 C 43.339595469486014 23.653035506032403 0.6383117470751797 -2.908520418536 0 0 C -0.6383117470751797 2.908520418536 44.23154127753245 19.58881045171097 45.220286313569055 32.00051308756453" fill-opacity="0.49999999999999994" stroke-opacity="1" stroke-linecap="round" stroke-miterlimit="10"/></g></g><g transform="translate(-400,0)"><g transform="translate(370.9148150936321,241.47381921570297) scale(1,1) rotate(275.65160644696255,0,0)"><path fill="rgb(244,113,113)" stroke="rgb(48,77,230)" paint-order="fill stroke markers" d=" M 45.220286313569055 32.00051308756453 C 46.20903134960566 44.412215723418086 13.469184601814463 74.25580498466039 5.932470216219621 74.47021581512136 C -1.604244169375221 74.68462664558234 2.041360708772833 33.29880165224161 0 33.28697807033037 C -2.041360708772833 33.27515448841913 1.2482540577742842 74.70114834421962 -6.3156940364173755 74.39927432365396 C -13.879642130609035 74.09740030308829 -46.43630423788619 40.44686569583928 -45.38368856514996 31.475733946936383 C -44.33107289241373 22.504602198033485 0.6233185542450078 23.488311624262465 0 20.572483830236564 C -0.6233185542450078 17.656656036210663 -43.460077843232966 26.579038223664696 -49.12359989062001 13.98076718278097 C -54.78712193800705 1.382496141897244 -42.168398932758926 -49.258267246229536 -33.98113228432226 -55.01714241506579 C -25.793865635885588 -60.776017583902046 -1.6561286564309743 -18.782226730098156 0 -20.572483830236557 C 1.6561286564309743 -22.362740930374958 -28.108059318608483 -58.27439933371221 -24.04436034573641 -65.7586850158962 C -19.98066137286434 -73.2429706980802 20.374800446276357 -70.89014908093483 24.382193837232425 -65.47819792334053 C 28.389587228188493 -60.06624676574623 -1.646862353662052 -35.09636612786993 0 -33.28697807033038 C 1.646862353662052 -31.47759001279083 26.088341826534716 -62.59459768588306 34.263367959204736 -54.621869578103244 C 42.438394091874756 -46.64914147032343 54.76071812255425 5.445745646664655 49.05015679602013 14.549390576348529 C 43.339595469486014 23.653035506032403 0.6383117470751797 -2.908520418536 0 0 C -0.6383117470751797 2.908520418536 44.23154127753245 19.58881045171097 45.220286313569055 32.00051308756453" fill-opacity="0.49999999999999994" stroke-opacity="1" stroke-linecap="round" stroke-miterlimit="10"/></g></g><g transform="translate(-400,0)"><g transform="translate(397.3061500765862,146.41108581938678) scale(1,1) rotate(344.0968385636996,0,0)"><path fill="rgb(220,244,33)" stroke="rgb(48,77,230)" paint-order="fill stroke markers" d=" M 45.220286313569055 32.00051308756453 C 46.20903134960566 44.412215723418086 13.469184601814463 74.25580498466039 5.932470216219621 74.47021581512136 C -1.604244169375221 74.68462664558234 2.041360708772833 33.29880165224161 0 33.28697807033037 C -2.041360708772833 33.27515448841913 1.2482540577742842 74.70114834421962 -6.3156940364173755 74.39927432365396 C -13.879642130609035 74.09740030308829 -46.43630423788619 40.44686569583928 -45.38368856514996 31.475733946936383 C -44.33107289241373 22.504602198033485 0.6233185542450078 23.488311624262465 0 20.572483830236564 C -0.6233185542450078 17.656656036210663 -43.460077843232966 26.579038223664696 -49.12359989062001 13.98076718278097 C -54.78712193800705 1.382496141897244 -42.168398932758926 -49.258267246229536 -33.98113228432226 -55.01714241506579 C -25.793865635885588 -60.776017583902046 -1.6561286564309743 -18.782226730098156 0 -20.572483830236557 C 1.6561286564309743 -22.362740930374958 -28.108059318608483 -58.27439933371221 -24.04436034573641 -65.7586850158962 C -19.98066137286434 -73.2429706980802 20.374800446276357 -70.89014908093483 24.382193837232425 -65.47819792334053 C 28.389587228188493 -60.06624676574623 -1.646862353662052 -35.09636612786993 0 -33.28697807033038 C 1.646862353662052 -31.47759001279083 26.088341826534716 -62.59459768588306 34.263367959204736 -54.621869578103244 C 42.438394091874756 -46.64914147032343 54.76071812255425 5.445745646664655 49.05015679602013 14.549390576348529 C 43.339595469486014 23.653035506032403 0.6383117470751797 -2.908520418536 0 0 C -0.6383117470751797 2.908520418536 44.23154127753245 19.58881045171097 45.220286313569055 32.00051308756453" fill-opacity="0.49999999999999994" stroke-opacity="1" stroke-linecap="round" stroke-miterlimit="10"/></g></g><g transform="translate(0,-400)"><g transform="translate(104.9046830910732,355.00381596799616) scale(1,1) rotate(76.65063908510211,0,0)"><path fill="rgb(54,93,9)" stroke="rgb(48,77,230)" paint-order="fill stroke markers" d=" M 45.220286313569055 32.00051308756453 C 46.20903134960566 44.412215723418086 13.469184601814463 74.25580498466039 5.932470216219621 74.47021581512136 C -1.604244169375221 74.68462664558234 2.041360708772833 33.29880165224161 0 33.28697807033037 C -2.041360708772833 33.27515448841913 1.2482540577742842 74.70114834421962 -6.3156940364173755 74.39927432365396 C -13.879642130609035 74.09740030308829 -46.43630423788619 40.44686569583928 -45.38368856514996 31.475733946936383 C -44.33107289241373 22.504602198033485 0.6233185542450078 23.488311624262465 0 20.572483830236564 C -0.6233185542450078 17.656656036210663 -43.460077843232966 26.579038223664696 -49.12359989062001 13.98076718278097 C -54.78712193800705 1.382496141897244 -42.168398932758926 -49.258267246229536 -33.98113228432226 -55.01714241506579 C -25.793865635885588 -60.776017583902046 -1.6561286564309743 -18.782226730098156 0 -20.572483830236557 C 1.6561286564309743 -22.362740930374958 -28.108059318608483 -58.27439933371221 -24.04436034573641 -65.7586850158962 C -19.98066137286434 -73.2429706980802 20.374800446276357 -70.89014908093483 24.382193837232425 -65.47819792334053 C 28.389587228188493 -60.06624676574623 -1.646862353662052 -35.09636612786993 0 -33.28697807033038 C 1.646862353662052 -31.47759001279083 26.088341826534716 -62.59459768588306 34.263367959204736 -54.621869578103244 C 42.438394091874756 -46.64914147032343 54.76071812255425 5.445745646664655 49.05015679602013 14.549390576348529 C 43.339595469486014 23.653035506032403 0.6383117470751797 -2.908520418536 0 0 C -0.6383117470751797 2.908520418536 44.23154127753245 19.58881045171097 45.220286313569055 32.00051308756453" fill-opacity="0.49999999999999994" stroke-opacity="1" stroke-linecap="round" stroke-miterlimit="10"/></g></g></g><g/><g/><g/><g/><g/><g/><g/><g/><g/><g/><g/><g/><g/></g></svg>