<svg version="1.1" xmlns="http://www.w3.org/2000/svg" xmlns:xlink="http://www.w3.org/1999/xlink" width="900" height="900" viewBox="0 0 900 900"><defs/><g/><g transform="scale(1,1)"><g><g transform="scale(1,1)"><rect fill="rgb(255,255,255)" stroke="none" x="0" y="0" width="900" height="900" fill-opacity="1"/></g></g><g><g transform="translate(100,100)"><path fill="rgb(174,32,198)" stroke="rgb(0,0,0)" paint-order="fill stroke markers" d=" M 50 0 C 50 0 -50 100 50 100 C 0 100 50 0 50 0" fill-opacity="0.49999999999999994" stroke-opacity="1" stroke-linecap="round" stroke-miterlimit="10" stroke-width="4"/><path fill="rgb(174,32,198)" stroke="rgb(0,0,0)" paint-order="fill stroke markers" d=" M 50 0 C 50 0 100 100 50 100 C 150 100 50 0 50 0" fill-opacity="0.49999999999999994" stroke-opacity="1" stroke-linecap="round" stroke-miterlimit="10" stroke-width="4"/></g></g><g/><g/><g/><g/><g/><g/><g/><g/><g/><g/><g/><g/><g/><g/><g/><g/><g/><g/><g/><g/><g/><g/><g/><g/><g/><g/><g/><g/><g/><g/><g/><g/><g/><g/><g/><g/><g/><g/><g/><g/><g/><g/><g/><g/><g/><g/><g/><g/><g/><g/><g><g transform="translate(200,100)"><path fill="rgb(174,32,198)" stroke="rgb(0,0,0)" paint-order="fill stroke markers" d=" M 50 0 C 50 0 -50 100 50 100 C 150 100 50 0 50 0" fill-opacity="0.49999999999999994" stroke-opacity="1" stroke-linecap="round" stroke-miterlimit="10" stroke-width="4"/><path fill="rgb(174,32,198)" stroke="rgb(0,0,0)" paint-order="fill stroke markers" d=" M 50 0 C 50 0 0 100 50 100 C 100 100 50 0 50 0" fill-opacity="0.49999999999999994" stroke-opacity="1" stroke-linecap="round" stroke-miterlimit="10" stroke-width="4"/></g></g><g/><g/><g/><g/><g/><g/><g/><g/><g/><g/><g/><g/><g/><g/><g/><g/><g/><g/><g/><g/><g/><g/><g/><g/><g/><g/><g/><g/><g/><g/><g/><g/><g/><g/><g/><g/><g/><g/><g/><g/><g/><g/><g/><g/><g/><g/><g/><g/><g/><g/><g><g transform="translate(300,100)"><path fill="rgb(174,32,198)" stroke="rgb(0,0,0)" paint-order="fill stroke markers" d=" M 50 0 C 50 0 -50 100 50 100 C 150 100 50 0 50 0" fill-opacity="0.49999999999999994" stroke-opacity="1" stroke-linecap="round" stroke-miterlimit="10" stroke-width="4"/><path fill="rgb(174,32,198)" stroke="rgb(0,0,0)" paint-order="fill stroke markers" d=" M 50 0 C 50 0 0 100 50 100 C -50 100 50 0 50 0" fill-opacity="0.49999999999999994" stroke-opacity="1" stroke-linecap="round" stroke-miterlimit="10" stroke-width="4"/></g></g><g/><g/><g/><g/><g/><g/><g/><g/><g/><g/><g/><g/><g/><g/><g/><g/><g/><g/><g/><g/><g/><g/><g/><g/><g/><g/><g/><g/><g/><g/><g/><g/><g/><g/><g/><g/><g/><g/><g/><g/><g/><g/><g/><g/><g/><g/><g/><g/><g/><g/><g><g transform="translate(400,100)"><path fill="rgb(174,32,198)" stroke="rgb(0,0,0)" paint-order="fill stroke markers" d=" M 50 0 C 50 0 -50 100 50 100 C 150 100 50 0 50 0" fill-opacity="0.49999999999999994" stroke-opacity="1" stroke-linecap="round" stroke-miterlimit="10" stroke-width="4"/><path fill="rgb(174,32,198)" stroke="rgb(0,0,0)" paint-order="fill stroke markers" d=" M 50 0 C 50 0 100 100 50 100 C 150 100 50 0 50 0" fill-opacity="0.49999999999999994" stroke-opacity="1" stroke-linecap="round" stroke-miterlimit="10" stroke-width="4"/></g></g><g/><g/><g/><g/><g/><g/><g/><g/><g/><g/><g/><g/><g/><g/><g/><g/><g/><g/><g/><g/><g/><g/><g/><g/><g/><g/><g/><g/><g/><g/><g/><g/><g/><g/><g/><g/><g/><g/><g/><g/><g/><g/><g/><g/><g/><g/><g/><g/><g/><g/><g><g transform="translate(100,220)"><path fill="rgb(174,32,198)" stroke="rgb(0,0,0)" paint-order="fill stroke markers" d=" M 50 0 C 50 0 -50 100 50 100 C 150 100 50 0 50 0" fill-opacity="0.49999999999999994" stroke-opacity="1" stroke-linecap="round" stroke-miterlimit="10" stroke-width="4"/><path fill="rgb(174,32,198)" stroke="rgb(0,0,0)" paint-order="fill stroke markers" d=" M 50 0 C 0 25 100 100 50 100 C 133.33333333333334 100 0 25 50 0" fill-opacity="0.49999999999999994" stroke-opacity="1" stroke-linecap="round" stroke-miterlimit="10" stroke-width="4"/></g></g><g/><g/><g/><g/><g/><g/><g/><g/><g/><g/><g/><g/><g/><g/><g/><g/><g/><g/><g/><g/><g/><g/><g/><g/><g/><g/><g/><g/><g/><g/><g/><g/><g/><g/><g/><g/><g/><g/><g/><g/><g/><g/><g/><g/><g/><g/><g/><g/><g/><g/><g><g transform="translate(200,220)"><path fill="rgb(174,32,198)" stroke="rgb(0,0,0)" paint-order="fill stroke markers" d=" M 50 0 C 50 0 -50 100 50 100 C 150 100 50 0 50 0" fill-opacity="0.49999999999999994" stroke-opacity="1" stroke-linecap="round" stroke-miterlimit="10" stroke-width="4"/><path fill="rgb(174,32,198)" stroke="rgb(0,0,0)" paint-order="fill stroke markers" d=" M 50 0 C 100 25 0 100 50 100 C -33.333333333333336 100 100 25 50 0" fill-opacity="0.49999999999999994" stroke-opacity="1" stroke-linecap="round" stroke-miterlimit="10" stroke-width="4"/></g></g><g/><g/><g/><g/><g/><g/><g/><g/><g/><g/><g/><g/><g/><g/><g/><g/><g/><g/><g/><g/><g/><g/><g/><g/><g/><g/><g/><g/><g/><g/><g/><g/><g/><g/><g/><g/><g/><g/><g/><g/><g/><g/><g/><g/><g/><g/><g/><g/><g/><g/><g><g transform="translate(300,220)"><path fill="rgb(174,32,198)" stroke="rgb(0,0,0)" paint-order="fill stroke markers" d=" M 50 0 C 50 0 -50 100 50 100 C 150 100 50 0 50 0" fill-opacity="0.49999999999999994" stroke-opacity="1" stroke-linecap="round" stroke-miterlimit="10" stroke-width="4"/><path fill="rgb(174,32,198)" stroke="rgb(0,0,0)" paint-order="fill stroke markers" d=" M 50 0 C 100 25 0 100 50 100 C 83.33333333333334 100 100 25 50 0" fill-opacity="0.49999999999999994" stroke-opacity="1" stroke-linecap="round" stroke-miterlimit="10" stroke-width="4"/></g></g><g/><g/><g/><g/><g/><g/><g/><g/><g/><g/><g/><g/><g/><g/><g/><g/><g/><g/><g/><g/><g/><g/><g/><g/><g/><g/><g/><g/><g/><g/><g/><g/><g/><g/><g/><g/><g/><g/><g/><g/><g/><g/><g/><g/><g/><g/><g/><g/><g/><g/><g><g transform="translate(400,220)"><path fill="rgb(174,32,198)" stroke="rgb(0,0,0)" paint-order="fill stroke markers" d=" M 50 0 C 50 0 -50 100 50 100 C 150 100 50 0 50 0" fill-opacity="0.49999999999999994" stroke-opacity="1" stroke-linecap="round" stroke-miterlimit="10" stroke-width="4"/><path fill="rgb(174,32,198)" stroke="rgb(0,0,0)" paint-order="fill stroke markers" d=" M 50 0 C 0 25 100 100 50 100 C 16.666666666666664 100 0 25 50 0" fill-opacity="0.49999999999999994" stroke-opacity="1" stroke-linecap="round" stroke-miterlimit="10" stroke-width="4"/></g></g><g/><g/><g/><g/><g/><g/><g/><g/><g/><g/><g/><g/><g/><g/><g/><g/><g/><g/><g/><g/><g/><g/><g/><g/><g/><g/><g/><g/><g/><g/><g/><g/><g/><g/><g/><g/><g/><g/><g/><g/><g/><g/><g/><g/><g/><g/><g/><g/><g/><g/><g/><g/><g/><g/><g/><g/><g/><g/><g/><g/><g/><g/><g/><g/><g/><g/><g/><g/><g/><g/><g/><g/><g/><g/><g/><g/><g/><g/><g/><g/><g/><g/><g/><g/><g/><g/><g/><g/><g/><g/><g/><g/><g/><g/><g/><g/><g/><g/><g/><g/><g/><g/><g/><g/><g/><g/><g/><g/><g/><g/><g/><g/><g/><g/><g/><g/><g/><g/><g/><g/><g/><g/><g/><g/><g/><g/><g/><g/><g/><g/><g/><g/><g/><g/><g/><g/><g/><g/><g/><g/><g/><g/><g/><g/><g/><g/><g/><g/><g/><g/><g/><g/><g/><g/><g/><g/><g/><g/><g/><g/><g/><g/><g/><g/><g/><g/><g/><g/><g/><g/><g/><g/><g/><g/><g/><g/><g/><g/><g/><g/><g/><g/><g/><g/><g/><g/><g/><g/><g/><g/><g/><g/><g/><g/><g/><g/><g/><g/><g/><g/><g/><g/><g/><g/><g/><g/><g/><g/><g/><g/><g/><g/><g/><g/><g/><g/><g/><g/><g/><g/><g/><g/><g/><g/><g/><g/><g/><g/><g/><g/><g/><g/><g/><g/><g/><g/><g/><g/><g/><g/><g/><g/><g/><g/><g/><g/><g/><g/><g/><g/><g/><g/><g/><g/><g/><g/><g/><g/><g/><g/><g/><g/><g/><g/><g/><g/><g/><g/><g/><g/><g/><g/><g/><g/><g/><g/><g/><g/><g/><g/><g/><g/><g/><g/><g/><g/><g/><g/><g/><g/><g/><g/><g/><g/><g/><g/><g/><g/><g/><g/><g/><g/><g/><g/><g/><g/><g/><g/><g/><g/><g/><g/><g/><g/><g/><g/><g/><g/><g/><g/><g/><g/><g/><g/><g/><g/><g/><g/><g/><g/><g/><g/><g/><g/><g/><g/><g/><g/><g/><g/><g/><g/><g/><g/><g/><g/><g/><g/><g/><g/><g/><g/><g/><g/><g/><g/><g/><g/><g/><g/><g/><g/><g/><g/><g/><g/></g></svg>