<?xml version="1.0" encoding="UTF-8" standalone="no"?>
<!-- Created with Inkscape (http://www.inkscape.org/) -->

<svg
   xmlns:dc="http://purl.org/dc/elements/1.1/"
   xmlns:cc="http://creativecommons.org/ns#"
   xmlns:rdf="http://www.w3.org/1999/02/22-rdf-syntax-ns#"
   xmlns:svg="http://www.w3.org/2000/svg"
   xmlns="http://www.w3.org/2000/svg"
   xmlns:sodipodi="http://sodipodi.sourceforge.net/DTD/sodipodi-0.dtd"
   xmlns:inkscape="http://www.inkscape.org/namespaces/inkscape"
   width="20cm"
   height="20cm"
   viewBox="0 0 708.66142 708.6614"
   id="svg4231"
   version="1.1"
   inkscape:version="0.91 r13725"
   sodipodi:docname="cufffull.svg">
  <defs
     id="defs4233" />
  <sodipodi:namedview
     id="base"
     pagecolor="#ffffff"
     bordercolor="#666666"
     borderopacity="1.0"
     inkscape:pageopacity="0.0"
     inkscape:pageshadow="2"
     inkscape:zoom="0.35"
     inkscape:cx="-112.14286"
     inkscape:cy="520"
     inkscape:document-units="px"
     inkscape:current-layer="layer1"
     showgrid="false"
     units="cm"
     inkscape:window-width="1920"
     inkscape:window-height="1017"
     inkscape:window-x="-8"
     inkscape:window-y="-8"
     inkscape:window-maximized="1" />
  <metadata
     id="metadata4236">
    <rdf:RDF>
      <cc:Work
         rdf:about="">
        <dc:format>image/svg+xml</dc:format>
        <dc:type
           rdf:resource="http://purl.org/dc/dcmitype/StillImage" />
        <dc:title></dc:title>
      </cc:Work>
    </rdf:RDF>
  </metadata>
  <g
     inkscape:label="Layer 1"
     inkscape:groupmode="layer"
     id="layer1"
     transform="translate(0,-343.70081)">
    <g
       transform="translate(681.18045,38.263719)"
       id="g8605">
      <path
         sodipodi:nodetypes="cscccc"
         style="fill:#ffffff;fill-opacity:1;stroke:#000000;stroke-width:3.69227934;stroke-linecap:round;stroke-miterlimit:10;stroke-dasharray:none;stroke-opacity:1;paint-order:fill stroke markers"
         inkscape:connector-curvature="0"
         id="path314-1-6-2"
         stroke-miterlimit="10"
         d="m -225.28344,532.89163 c 16.20426,162.59622 -40.51026,392.69116 -8.26726,393.31881 l 18.21284,0.35455 c 70.55655,-43.3935 -9.26425,-391.85509 -9.26425,-391.85509 l -1.18699,0.0991 c 0,0 7.13553,25.03114 -0.0439,-0.93392" />
      <path
         style="fill:#ffffff;fill-opacity:1;stroke:#000000;stroke-width:4.07829762;stroke-linecap:round;stroke-miterlimit:10;stroke-dasharray:none;stroke-opacity:1;paint-order:fill stroke markers"
         inkscape:connector-curvature="0"
         id="path318-3-9-9"
         stroke-miterlimit="10"
         d="m -247.26266,407.59575 c 0,0 -82.52801,137.71223 6.12861,130.31032 88.65648,-7.40189 -6.12861,-130.31032 -6.12861,-130.31032" />
      <path
         style="fill:#000000;fill-opacity:1;stroke:#000000;stroke-width:4.07829762;stroke-linecap:round;stroke-miterlimit:10;stroke-dasharray:none;stroke-opacity:1;paint-order:fill stroke markers"
         inkscape:connector-curvature="0"
         id="path320-9-5-0"
         stroke-miterlimit="10"
         d="m -247.26266,407.59575 c 45.86032,28.87665 -38.19977,134.01128 6.12861,130.31032 29.5521,-2.46729 39.73171,-101.43367 -6.12861,-130.31032" />
      <path
         sodipodi:nodetypes="cccccc"
         style="fill:#ffffff;fill-opacity:1;stroke:#000000;stroke-width:4.07829762;stroke-linecap:round;stroke-miterlimit:10;stroke-dasharray:none;stroke-opacity:1;paint-order:fill stroke markers"
         inkscape:connector-curvature="0"
         id="path308-19-2-2"
         stroke-miterlimit="10"
         d="m -243.79378,538.12813 c -78.3784,208.58625 110.85392,196.00199 18.38581,390.93103 l 5.31939,-0.44411 C -122.89364,724.26728 -325.02697,737.6531 -238.4744,537.68402 l -5.31938,0.44411 0,0" />
      <path
         sodipodi:nodetypes="cscccc"
         style="fill:#ffffff;fill-opacity:1;stroke:#000000;stroke-width:4.47665071;stroke-linecap:round;stroke-miterlimit:10;stroke-dasharray:none;stroke-opacity:1;paint-order:fill stroke markers"
         inkscape:connector-curvature="0"
         id="path314-1-5-7-2"
         stroke-miterlimit="10"
         d="m -263.50667,638.44584 c -2.3631,201.61107 73.15014,290.32749 45.49702,291.29624 l -16.19377,0.56731 c -64.8097,-17.80285 -30.60361,-294.92803 -30.60361,-294.92803 l 0.96749,-1.11554 c 0,0 -2.09321,21.55781 0.69914,0.14802" />
      <path
         d="m -339.6603,534.53651 c -8.46279,163.63797 58.32796,388.57016 26.46999,391.88347 l -17.99535,1.87158 c -71.7962,-37.43159 -9.06388,-391.88346 -9.06388,-391.88346 l 1.1785,0 c 0,0 -5.89254,25.57826 -1e-5,-0.9358"
         stroke-miterlimit="10"
         id="path7778-6"
         inkscape:connector-curvature="0"
         style="fill:#ffffff;fill-opacity:1;stroke:#000000;stroke-width:3.67555833;stroke-linecap:round;stroke-miterlimit:10;stroke-dasharray:none;stroke-opacity:1;paint-order:fill stroke markers"
         sodipodi:nodetypes="cscccc" />
      <path
         d="m -323.75138,407.64685 c 0,0 88.02248,130.57373 0,130.57373 -88.02235,0 0,-130.57373 0,-130.57373"
         stroke-miterlimit="10"
         id="path7780-1"
         inkscape:connector-curvature="0"
         style="fill:#ffffff;fill-opacity:1;stroke:#000000;stroke-width:4.05982828;stroke-linecap:round;stroke-miterlimit:10;stroke-dasharray:none;stroke-opacity:1;paint-order:fill stroke markers" />
      <path
         sodipodi:nodetypes="csc"
         d="m -323.75138,407.64685 c -21.78774,55.87695 -20.67128,131.41251 0,130.57373 21.30728,-0.86459 24.67927,-73.68663 0,-130.57373"
         stroke-miterlimit="10"
         id="path7782-6"
         inkscape:connector-curvature="0"
         style="fill:#000000;fill-opacity:1;stroke:#000000;stroke-width:4.05982828;stroke-linecap:round;stroke-miterlimit:10;stroke-dasharray:none;stroke-opacity:1;paint-order:fill stroke markers" />
      <path
         d="m -321.11068,538.22058 c 87.21514,201.65904 -100.51414,204.86762 0,391.72126 l -5.28134,0 c -105.62688,-195.86061 94.89831,-199.34419 0,-391.72126 l 5.28134,0 0,0"
         stroke-miterlimit="10"
         id="path7784-6"
         inkscape:connector-curvature="0"
         style="fill:#ffffff;fill-opacity:1;stroke:#000000;stroke-width:4.05982828;stroke-linecap:round;stroke-miterlimit:10;stroke-dasharray:none;stroke-opacity:1;paint-order:fill stroke markers"
         sodipodi:nodetypes="cccccc" />
      <path
         d="m -296.94938,636.70521 c 11.71431,201.03156 -58.83921,295.87222 -31.44621,294.53477 l 16.04144,-0.78322 c 63.26642,-23.16973 16.54824,-296.91856 16.54824,-296.91856 l -1.0087,-1.03281 c 0,0 3.0728,21.34247 -0.68453,0.206"
         stroke-miterlimit="10"
         id="path7786-3"
         inkscape:connector-curvature="0"
         style="fill:#ffffff;fill-opacity:1;stroke:#000000;stroke-width:4.45637751;stroke-linecap:round;stroke-miterlimit:10;stroke-dasharray:none;stroke-opacity:1;paint-order:fill stroke markers"
         sodipodi:nodetypes="cscccc" />
      <path
         sodipodi:nodetypes="cscccc"
         style="fill:#ffffff;fill-opacity:1;stroke:#000000;stroke-width:3.67060828;stroke-linecap:round;stroke-miterlimit:10;stroke-dasharray:none;stroke-opacity:1;paint-order:fill stroke markers"
         inkscape:connector-curvature="0"
         id="path314-1-6-2-1-5"
         stroke-miterlimit="10"
         d="m -506.49588,528.6428 c -26.47538,160.69273 14.49717,395.42125 -17.29779,393.08101 l -17.95976,-1.3219 c -66.6806,-49.77442 34.46893,-390.00814 34.46893,-390.00814 l 1.1626,0.20805 c 0,0 -8.6464,24.31116 0.10365,-0.92751" />
      <path
         style="fill:#ffffff;fill-opacity:1;stroke:#000000;stroke-width:4.05436087;stroke-linecap:round;stroke-miterlimit:10;stroke-dasharray:none;stroke-opacity:1;paint-order:fill stroke markers"
         inkscape:connector-curvature="0"
         id="path318-3-9-9-4-3"
         stroke-miterlimit="10"
         d="m -476.74565,405.687 c 0,0 72.37013,144.9551 -14.46417,129.41574 -86.83415,-15.53934 14.46417,-129.41574 14.46417,-129.41574" />
      <path
         style="fill:#000000;fill-opacity:1;stroke:#000000;stroke-width:4.05436087;stroke-linecap:round;stroke-miterlimit:10;stroke-dasharray:none;stroke-opacity:1;paint-order:fill stroke markers"
         inkscape:connector-curvature="0"
         id="path320-9-5-0-9-8"
         stroke-miterlimit="10"
         d="m -476.74565,405.687 c -47.03305,24.58428 28.95305,137.18543 -14.46417,129.41574 -28.94466,-5.17977 -32.56888,-104.83146 14.46417,-129.41574" />
      <path
         sodipodi:nodetypes="cccccc"
         style="fill:#ffffff;fill-opacity:1;stroke:#000000;stroke-width:4.05436087;stroke-linecap:round;stroke-miterlimit:10;stroke-dasharray:none;stroke-opacity:1;paint-order:fill stroke markers"
         inkscape:connector-curvature="0"
         id="path308-19-2-2-8-9"
         stroke-miterlimit="10"
         d="m -488.60476,535.56892 c 63.69929,215.26746 -121.85131,185.30612 -43.39249,388.24727 l -5.21005,-0.93236 c -82.50481,-212.77083 115.69944,-180.8231 43.3925,-388.24727 l 5.21004,0.93236 0,0" />
      <path
         sodipodi:nodetypes="cscccc"
         style="fill:#ffffff;fill-opacity:1;stroke:#000000;stroke-width:4.45037603;stroke-linecap:round;stroke-miterlimit:10;stroke-dasharray:none;stroke-opacity:1;paint-order:fill stroke markers"
         inkscape:connector-curvature="0"
         id="path314-1-5-7-2-8-6"
         stroke-miterlimit="10"
         d="m -475.67913,637.44554 c -10.71287,201.31672 -90.81987,282.86087 -63.64849,286.3712 l 15.91166,2.05566 c 64.979,-11.79528 49.21569,-291.36393 49.21569,-291.36393 l -0.88068,-1.20172 c 0,0 0.66713,21.69567 -0.69811,0.0833" />
      <path
         sodipodi:nodetypes="cscccc"
         style="fill:#ffffff;fill-opacity:1;stroke:#000000;stroke-width:3.69227934;stroke-linecap:round;stroke-miterlimit:10;stroke-dasharray:none;stroke-opacity:1;paint-order:fill stroke markers"
         inkscape:connector-curvature="0"
         id="path314-1-6-2-7"
         stroke-miterlimit="10"
         d="m -424.19061,530.32015 c -16.20426,162.59622 40.51026,392.69115 8.26726,393.31881 l -18.21284,0.35455 c -70.55655,-43.3935 9.26425,-391.85509 9.26425,-391.85509 l 1.18699,0.0991 c 0,0 -7.13553,25.03115 0.0439,-0.93392" />
      <path
         style="fill:#ffffff;fill-opacity:1;stroke:#000000;stroke-width:4.07829762;stroke-linecap:round;stroke-miterlimit:10;stroke-dasharray:none;stroke-opacity:1;paint-order:fill stroke markers"
         inkscape:connector-curvature="0"
         id="path318-3-9-9-1"
         stroke-miterlimit="10"
         d="m -402.21139,405.02427 c 0,0 82.52801,137.71223 -6.12861,130.31032 -88.65648,-7.40189 6.12861,-130.31032 6.12861,-130.31032" />
      <path
         style="fill:#000000;fill-opacity:1;stroke:#000000;stroke-width:4.07829762;stroke-linecap:round;stroke-miterlimit:10;stroke-dasharray:none;stroke-opacity:1;paint-order:fill stroke markers"
         inkscape:connector-curvature="0"
         id="path320-9-5-0-2"
         stroke-miterlimit="10"
         d="m -402.21139,405.02427 c -45.86032,28.87664 38.19977,134.01128 -6.12861,130.31032 -29.5521,-2.46729 -39.73171,-101.43368 6.12861,-130.31032" />
      <path
         sodipodi:nodetypes="cccccc"
         style="fill:#ffffff;fill-opacity:1;stroke:#000000;stroke-width:4.07829762;stroke-linecap:round;stroke-miterlimit:10;stroke-dasharray:none;stroke-opacity:1;paint-order:fill stroke markers"
         inkscape:connector-curvature="0"
         id="path308-19-2-2-5"
         stroke-miterlimit="10"
         d="m -405.68027,535.55665 c 78.3784,208.58624 -110.85392,196.00199 -18.38581,390.93103 l -5.31939,-0.44411 c -97.19494,-204.34778 104.93839,-190.96195 18.38582,-390.93103 l 5.31938,0.44411 0,0" />
      <path
         sodipodi:nodetypes="cscccc"
         style="fill:#ffffff;fill-opacity:1;stroke:#000000;stroke-width:4.47665071;stroke-linecap:round;stroke-miterlimit:10;stroke-dasharray:none;stroke-opacity:1;paint-order:fill stroke markers"
         inkscape:connector-curvature="0"
         id="path314-1-5-7-2-2"
         stroke-miterlimit="10"
         d="m -385.96738,635.87436 c 2.3631,201.61107 -73.15014,290.32749 -45.49702,291.29624 l 16.19377,0.56731 c 64.8097,-17.80285 30.60361,-294.92803 30.60361,-294.92803 l -0.96749,-1.11554 c 0,0 2.09321,21.55781 -0.69914,0.14802" />
      <path
         sodipodi:nodetypes="cscccc"
         style="fill:#ffffff;fill-opacity:1;stroke:#000000;stroke-width:3.67060828;stroke-linecap:round;stroke-miterlimit:10;stroke-dasharray:none;stroke-opacity:1;paint-order:fill stroke markers"
         inkscape:connector-curvature="0"
         id="path314-1-6-2-1-5-6"
         stroke-miterlimit="10"
         d="m -142.32366,530.24976 c 26.47537,160.69273 -14.49718,395.42125 17.29778,393.08101 l 17.95976,-1.3219 c 66.6806,-49.77442 -34.46893,-390.00814 -34.46893,-390.00814 l -1.16259,0.20805 c 0,0 8.6464,24.31116 -0.10366,-0.92751" />
      <path
         style="fill:#ffffff;fill-opacity:1;stroke:#000000;stroke-width:4.05436087;stroke-linecap:round;stroke-miterlimit:10;stroke-dasharray:none;stroke-opacity:1;paint-order:fill stroke markers"
         inkscape:connector-curvature="0"
         id="path318-3-9-9-4-3-0"
         stroke-miterlimit="10"
         d="m -172.07389,407.29396 c 0,0 -72.37013,144.9551 14.46416,129.41574 86.83416,-15.53934 -14.46416,-129.41574 -14.46416,-129.41574" />
      <path
         style="fill:#000000;fill-opacity:1;stroke:#000000;stroke-width:4.05436087;stroke-linecap:round;stroke-miterlimit:10;stroke-dasharray:none;stroke-opacity:1;paint-order:fill stroke markers"
         inkscape:connector-curvature="0"
         id="path320-9-5-0-9-8-0"
         stroke-miterlimit="10"
         d="m -172.07389,407.29396 c 47.03304,24.58428 -28.95305,137.18543 14.46416,129.41574 28.94467,-5.17977 32.56888,-104.83146 -14.46416,-129.41574" />
      <path
         sodipodi:nodetypes="cccccc"
         style="fill:#ffffff;fill-opacity:1;stroke:#000000;stroke-width:4.05436087;stroke-linecap:round;stroke-miterlimit:10;stroke-dasharray:none;stroke-opacity:1;paint-order:fill stroke markers"
         inkscape:connector-curvature="0"
         id="path308-19-2-2-8-9-7"
         stroke-miterlimit="10"
         d="m -160.21478,537.17588 c -63.69929,215.26746 121.85131,185.30612 43.39249,388.24727 l 5.21004,-0.93236 c 82.50482,-212.77083 -115.69943,-180.8231 -43.39249,-388.24727 l -5.21004,0.93236 0,0" />
      <path
         sodipodi:nodetypes="cscccc"
         style="fill:#ffffff;fill-opacity:1;stroke:#000000;stroke-width:4.45037603;stroke-linecap:round;stroke-miterlimit:10;stroke-dasharray:none;stroke-opacity:1;paint-order:fill stroke markers"
         inkscape:connector-curvature="0"
         id="path314-1-5-7-2-8-6-0"
         stroke-miterlimit="10"
         d="m -173.14041,639.0525 c 10.71286,201.31672 90.81987,282.86087 63.64848,286.3712 l -15.91166,2.05566 c -64.979,-11.79528 -49.21568,-291.36393 -49.21568,-291.36393 l 0.88067,-1.20172 c 0,0 -0.66713,21.69567 0.69812,0.0833" />
      <path
         sodipodi:nodetypes="cscccc"
         style="fill:#ffffff;fill-opacity:1;stroke:#000000;stroke-width:3.67060828;stroke-linecap:round;stroke-miterlimit:10;stroke-dasharray:none;stroke-opacity:1;paint-order:fill stroke markers"
         inkscape:connector-curvature="0"
         id="path314-1-6-2-1-5-6-5"
         stroke-miterlimit="10"
         d="m -59.25958,526.42764 c 35.62259,158.91548 8.14201,395.60313 39.75108,391.44826 l 17.85476,-2.34691 C 62.07095,862.02236 -58.37211,528.13064 -58.37211,528.13064 l -1.14879,0.2742 c 0,0 10.02268,23.77685 -0.15653,-0.92006" />
      <path
         style="fill:#ffffff;fill-opacity:1;stroke:#000000;stroke-width:4.05436087;stroke-linecap:round;stroke-miterlimit:10;stroke-dasharray:none;stroke-opacity:1;paint-order:fill stroke markers"
         inkscape:connector-curvature="0"
         id="path318-3-9-9-4-3-0-0"
         stroke-miterlimit="10"
         d="m -95.99336,405.37462 c 0,0 -63.96121,148.85691 21.8422,128.37664 85.80328,-20.48023 -21.8422,-128.37664 -21.8422,-128.37664" />
      <path
         style="fill:#000000;fill-opacity:1;stroke:#000000;stroke-width:4.05436087;stroke-linecap:round;stroke-miterlimit:10;stroke-dasharray:none;stroke-opacity:1;paint-order:fill stroke markers"
         inkscape:connector-curvature="0"
         id="path320-9-5-0-9-8-0-8"
         stroke-miterlimit="10"
         d="m -95.99336,405.37462 c 48.36212,21.85406 -21.05957,138.61679 21.8422,128.37664 28.60104,-6.82673 26.51992,-106.52258 -21.8422,-128.37664" />
      <path
         sodipodi:nodetypes="cccccc"
         style="fill:#ffffff;fill-opacity:1;stroke:#000000;stroke-width:4.05436087;stroke-linecap:round;stroke-miterlimit:10;stroke-dasharray:none;stroke-opacity:1;paint-order:fill stroke markers"
         inkscape:connector-curvature="0"
         id="path308-19-2-2-8-9-7-8"
         stroke-miterlimit="10"
         d="m -76.72528,534.36567 c -51.28317,218.55827 132.25012,178.03372 65.52661,385.12999 l 5.14819,-1.22881 C 64.15021,701.12558 -131.9024,744.35698 -71.57709,533.13686 l -5.14819,1.22881 0,0" />
      <path
         sodipodi:nodetypes="cscccc"
         style="fill:#ffffff;fill-opacity:1;stroke:#000000;stroke-width:4.45037603;stroke-linecap:round;stroke-miterlimit:10;stroke-dasharray:none;stroke-opacity:1;paint-order:fill stroke markers"
         inkscape:connector-curvature="0"
         id="path314-1-5-7-2-8-6-0-4"
         stroke-miterlimit="10"
         d="m -83.80309,636.81479 c 22.2093,200.37449 106.84896,277.20357 79.92281,282.26218 l -15.76804,2.96234 C -85.19557,913.97969 -85.44751,633.96712 -85.44751,633.96712 l 0.8105,-1.25013 c 0,0 0.57481,21.69831 0.70174,0.0433" />
      <path
         sodipodi:nodetypes="cscccc"
         style="fill:#ffffff;fill-opacity:1;stroke:#000000;stroke-width:3.67060828;stroke-linecap:round;stroke-miterlimit:10;stroke-dasharray:none;stroke-opacity:1;paint-order:fill stroke markers"
         inkscape:connector-curvature="0"
         id="path314-1-6-2-1-5-6-5-9"
         stroke-miterlimit="10"
         d="m -588.81562,525.05717 c -35.62258,158.91548 -8.142,395.60313 -39.75107,391.44827 l -17.85476,-2.34691 c -63.72469,-53.50664 56.71836,-387.39836 56.71836,-387.39836 l 1.1488,0.2742 c 0,0 -10.02269,23.77685 0.15653,-0.92006" />
      <path
         style="fill:#ffffff;fill-opacity:1;stroke:#000000;stroke-width:4.05436087;stroke-linecap:round;stroke-miterlimit:10;stroke-dasharray:none;stroke-opacity:1;paint-order:fill stroke markers"
         inkscape:connector-curvature="0"
         id="path318-3-9-9-4-3-0-0-0"
         stroke-miterlimit="10"
         d="m -552.08184,404.00415 c 0,0 63.96121,148.85691 -21.8422,128.37664 -85.80327,-20.48023 21.8422,-128.37664 21.8422,-128.37664" />
      <path
         style="fill:#000000;fill-opacity:1;stroke:#000000;stroke-width:4.05436087;stroke-linecap:round;stroke-miterlimit:10;stroke-dasharray:none;stroke-opacity:1;paint-order:fill stroke markers"
         inkscape:connector-curvature="0"
         id="path320-9-5-0-9-8-0-8-8"
         stroke-miterlimit="10"
         d="m -552.08184,404.00415 c -48.36211,21.85406 21.05957,138.61679 -21.8422,128.37664 -28.60104,-6.82673 -26.51991,-106.52258 21.8422,-128.37664" />
      <path
         sodipodi:nodetypes="cccccc"
         style="fill:#ffffff;fill-opacity:1;stroke:#000000;stroke-width:4.05436087;stroke-linecap:round;stroke-miterlimit:10;stroke-dasharray:none;stroke-opacity:1;paint-order:fill stroke markers"
         inkscape:connector-curvature="0"
         id="path308-19-2-2-8-9-7-8-3"
         stroke-miterlimit="10"
         d="m -571.34991,532.99521 c 51.28316,218.55826 -132.25013,178.03371 -65.52661,385.12999 l -5.14819,-1.22882 c -70.2007,-217.14127 125.85192,-173.90987 65.52661,-385.12999 l 5.14819,1.22882 0,0" />
      <path
         sodipodi:nodetypes="cscccc"
         style="fill:#ffffff;fill-opacity:1;stroke:#000000;stroke-width:4.45037603;stroke-linecap:round;stroke-miterlimit:10;stroke-dasharray:none;stroke-opacity:1;paint-order:fill stroke markers"
         inkscape:connector-curvature="0"
         id="path314-1-5-7-2-8-6-0-4-3"
         stroke-miterlimit="10"
         d="m -564.2721,635.44432 c -22.2093,200.37449 -106.84896,277.20358 -79.92282,282.26218 l 15.76805,2.96234 c 65.54725,-8.05961 65.79919,-288.07219 65.79919,-288.07219 l -0.8105,-1.25012 c 0,0 -0.57481,21.6983 -0.70174,0.0433" />
      <ellipse
         transform="scale(-1,1)"
         ry="18.880148"
         rx="21.693096"
         cy="905.38495"
         cx="579.32251"
         id="path7831-8"
         style="fill:#ffffff;fill-opacity:1;fill-rule:nonzero;stroke:#000000;stroke-width:4.83072472;stroke-miterlimit:10;stroke-dasharray:none;stroke-opacity:1" />
      <ellipse
         transform="scale(-1,1)"
         ry="18.880148"
         rx="21.693096"
         cy="906.90021"
         cx="473.76157"
         id="path7831-8-5"
         style="fill:#ffffff;fill-opacity:1;fill-rule:nonzero;stroke:#000000;stroke-width:4.83072472;stroke-miterlimit:10;stroke-dasharray:none;stroke-opacity:1" />
      <ellipse
         transform="matrix(-0.98846083,-0.15147667,-0.11274032,0.99362449,0,0)"
         ry="19.443287"
         rx="19.32342"
         cy="956.20062"
         cx="268.54779"
         id="path7831-8-8"
         style="fill:#ffffff;fill-opacity:1;fill-rule:nonzero;stroke:#000000;stroke-width:4.6267457;stroke-miterlimit:10;stroke-dasharray:none;stroke-opacity:1" />
      <ellipse
         transform="matrix(-0.98698469,-0.16081426,-0.10611338,0.99435404,0,0)"
         ry="17.690456"
         rx="16.572701"
         cy="946.86902"
         cx="177.60777"
         id="path7831-8-8-5"
         style="fill:#ffffff;fill-opacity:1;fill-rule:nonzero;stroke:#000000;stroke-width:4.08709717;stroke-miterlimit:10;stroke-dasharray:none;stroke-opacity:1" />
      <ellipse
         transform="matrix(-0.99046433,-0.13776942,-0.12404015,0.9922772,0,0)"
         ry="20.262669"
         rx="22.111317"
         cy="927.41992"
         cx="60.294014"
         id="path7831-8-8-2"
         style="fill:#ffffff;fill-opacity:1;fill-rule:nonzero;stroke:#000000;stroke-width:5.05247784;stroke-miterlimit:10;stroke-dasharray:none;stroke-opacity:1" />
      <ellipse
         transform="matrix(-0.99046433,-0.13776942,-0.12404015,0.9922772,0,0)"
         ry="20.262669"
         rx="22.111317"
         cy="910.94385"
         cx="-43.709892"
         id="path7831-8-8-2-9"
         style="fill:#ffffff;fill-opacity:1;fill-rule:nonzero;stroke:#000000;stroke-width:5.05247784;stroke-miterlimit:10;stroke-dasharray:none;stroke-opacity:1" />
    </g>
  </g>
</svg>
