<svg version="1.1" xmlns="http://www.w3.org/2000/svg" xmlns:xlink="http://www.w3.org/1999/xlink" width="900" height="1800" viewBox="0 0 900 1800"><defs/><g/><g transform="scale(1,1)"><g><g transform="scale(1,1)"><rect fill="rgb(255,255,255)" stroke="none" x="0" y="0" width="900" height="1800" fill-opacity="1"/></g></g><g><g transform="translate(100,100)"><path fill="rgb(174,32,198)" stroke="rgb(0,0,0)" paint-order="fill stroke markers" d=" M 50 0 C 50 0 -50 100 50 100 C 0 100 50 0 50 0" fill-opacity="0.49999999999999994" stroke-opacity="1" stroke-linecap="round" stroke-miterlimit="10" stroke-width="4"/><path fill="rgb(174,32,198)" stroke="rgb(0,0,0)" paint-order="fill stroke markers" d=" M 50 0 C 50 0 100 100 50 100 C 150 100 50 0 50 0" fill-opacity="0.49999999999999994" stroke-opacity="1" stroke-linecap="round" stroke-miterlimit="10" stroke-width="4"/></g></g><g/><g><g transform="translate(200,100)"><path fill="rgb(174,32,198)" stroke="rgb(0,0,0)" paint-order="fill stroke markers" d=" M 50 0 C 50 0 -50 100 50 100 C 150 100 50 0 50 0" fill-opacity="0.49999999999999994" stroke-opacity="1" stroke-linecap="round" stroke-miterlimit="10" stroke-width="4"/><path fill="rgb(174,32,198)" stroke="rgb(0,0,0)" paint-order="fill stroke markers" d=" M 50 0 C 50 0 0 100 50 100 C 100 100 50 0 50 0" fill-opacity="0.49999999999999994" stroke-opacity="1" stroke-linecap="round" stroke-miterlimit="10" stroke-width="4"/></g></g><g/><g><g transform="translate(300,100)"><path fill="rgb(174,32,198)" stroke="rgb(0,0,0)" paint-order="fill stroke markers" d=" M 50 0 C 50 0 -50 100 50 100 C 150 100 50 0 50 0" fill-opacity="0.49999999999999994" stroke-opacity="1" stroke-linecap="round" stroke-miterlimit="10" stroke-width="4"/><path fill="rgb(174,32,198)" stroke="rgb(0,0,0)" paint-order="fill stroke markers" d=" M 50 0 C 50 0 0 100 50 100 C -50 100 50 0 50 0" fill-opacity="0.49999999999999994" stroke-opacity="1" stroke-linecap="round" stroke-miterlimit="10" stroke-width="4"/></g></g><g/><g><g transform="translate(400,100)"><path fill="rgb(174,32,198)" stroke="rgb(0,0,0)" paint-order="fill stroke markers" d=" M 50 0 C 50 0 -50 100 50 100 C 150 100 50 0 50 0" fill-opacity="0.49999999999999994" stroke-opacity="1" stroke-linecap="round" stroke-miterlimit="10" stroke-width="4"/><path fill="rgb(174,32,198)" stroke="rgb(0,0,0)" paint-order="fill stroke markers" d=" M 50 0 C 50 0 100 100 50 100 C 150 100 50 0 50 0" fill-opacity="0.49999999999999994" stroke-opacity="1" stroke-linecap="round" stroke-miterlimit="10" stroke-width="4"/></g></g><g/><g><g transform="translate(100,220)"><path fill="rgb(174,32,198)" stroke="rgb(0,0,0)" paint-order="fill stroke markers" d=" M 50 0 C 50 0 -50 100 50 100 C 150 100 50 0 50 0" fill-opacity="0.49999999999999994" stroke-opacity="1" stroke-linecap="round" stroke-miterlimit="10" stroke-width="4"/><path fill="rgb(174,32,198)" stroke="rgb(0,0,0)" paint-order="fill stroke markers" d=" M 50 0 C 0 25 100 100 50 100 C 133.33333333333334 100 0 25 50 0" fill-opacity="0.49999999999999994" stroke-opacity="1" stroke-linecap="round" stroke-miterlimit="10" stroke-width="4"/></g></g><g/><g><g transform="translate(200,220)"><path fill="rgb(174,32,198)" stroke="rgb(0,0,0)" paint-order="fill stroke markers" d=" M 50 0 C 50 0 -50 100 50 100 C 150 100 50 0 50 0" fill-opacity="0.49999999999999994" stroke-opacity="1" stroke-linecap="round" stroke-miterlimit="10" stroke-width="4"/><path fill="rgb(174,32,198)" stroke="rgb(0,0,0)" paint-order="fill stroke markers" d=" M 50 0 C 100 25 0 100 50 100 C -33.333333333333336 100 100 25 50 0" fill-opacity="0.49999999999999994" stroke-opacity="1" stroke-linecap="round" stroke-miterlimit="10" stroke-width="4"/></g></g><g/><g><g transform="translate(300,220)"><path fill="rgb(174,32,198)" stroke="rgb(0,0,0)" paint-order="fill stroke markers" d=" M 50 0 C 50 0 -50 100 50 100 C 150 100 50 0 50 0" fill-opacity="0.49999999999999994" stroke-opacity="1" stroke-linecap="round" stroke-miterlimit="10" stroke-width="4"/><path fill="rgb(174,32,198)" stroke="rgb(0,0,0)" paint-order="fill stroke markers" d=" M 50 0 C 100 25 0 100 50 100 C 83.33333333333334 100 100 25 50 0" fill-opacity="0.49999999999999994" stroke-opacity="1" stroke-linecap="round" stroke-miterlimit="10" stroke-width="4"/></g></g><g/><g><g transform="translate(400,220)"><path fill="rgb(174,32,198)" stroke="rgb(0,0,0)" paint-order="fill stroke markers" d=" M 50 0 C 50 0 -50 100 50 100 C 150 100 50 0 50 0" fill-opacity="0.49999999999999994" stroke-opacity="1" stroke-linecap="round" stroke-miterlimit="10" stroke-width="4"/><path fill="rgb(174,32,198)" stroke="rgb(0,0,0)" paint-order="fill stroke markers" d=" M 50 0 C 0 25 100 100 50 100 C 16.666666666666664 100 0 25 50 0" fill-opacity="0.49999999999999994" stroke-opacity="1" stroke-linecap="round" stroke-miterlimit="10" stroke-width="4"/></g></g><g/><g><g transform="translate(100,340)"><path fill="rgb(174,32,198)" stroke="rgb(0,0,0)" paint-order="fill stroke markers" d=" M 50 0 C 50 50 -50 100 50 100 C 0 100 50 0 50 0" fill-opacity="0.49999999999999994" stroke-opacity="1" stroke-linecap="round" stroke-miterlimit="10" stroke-width="4"/><path fill="rgb(174,32,198)" stroke="rgb(0,0,0)" paint-order="fill stroke markers" d=" M 50 0 C 50 0 100 100 50 100 C 150 100 50 50 50 0" fill-opacity="0.49999999999999994" stroke-opacity="1" stroke-linecap="round" stroke-miterlimit="10" stroke-width="4"/></g></g><g/><g><g transform="translate(200,340)"><path fill="rgb(174,32,198)" stroke="rgb(0,0,0)" paint-order="fill stroke markers" d=" M 50 0 C 50 0 -50 100 50 100 C 0 100 50 50 50 0" fill-opacity="0.49999999999999994" stroke-opacity="1" stroke-linecap="round" stroke-miterlimit="10" stroke-width="4"/><path fill="rgb(174,32,198)" stroke="rgb(0,0,0)" paint-order="fill stroke markers" d=" M 50 0 C 50 50 100 100 50 100 C 150 100 50 0 50 0" fill-opacity="0.49999999999999994" stroke-opacity="1" stroke-linecap="round" stroke-miterlimit="10" stroke-width="4"/></g></g><g/><g><g transform="translate(300,340)"><path fill="rgb(174,32,198)" stroke="rgb(0,0,0)" paint-order="fill stroke markers" d=" M 50 0 C 50 50 -50 100 50 100 C 0 100 50 50 50 0" fill-opacity="0.49999999999999994" stroke-opacity="1" stroke-linecap="round" stroke-miterlimit="10" stroke-width="4"/><path fill="rgb(174,32,198)" stroke="rgb(0,0,0)" paint-order="fill stroke markers" d=" M 50 0 C 50 50 100 100 50 100 C 150 100 50 50 50 0" fill-opacity="0.49999999999999994" stroke-opacity="1" stroke-linecap="round" stroke-miterlimit="10" stroke-width="4"/></g></g><g/><g><g transform="translate(400,340)"><path fill="rgb(174,32,198)" stroke="rgb(0,0,0)" paint-order="fill stroke markers" d=" M 50 0 C 50 50 -50 100 50 100 C 100 100 50 50 50 0" fill-opacity="0.49999999999999994" stroke-opacity="1" stroke-linecap="round" stroke-miterlimit="10" stroke-width="4"/><path fill="rgb(174,32,198)" stroke="rgb(0,0,0)" paint-order="fill stroke markers" d=" M 50 0 C 50 50 0 100 50 100 C 150 100 50 50 50 0" fill-opacity="0.49999999999999994" stroke-opacity="1" stroke-linecap="round" stroke-miterlimit="10" stroke-width="4"/></g></g><g/><g><g transform="translate(100,460)"><path fill="rgb(174,32,198)" stroke="rgb(0,0,0)" paint-order="fill stroke markers" d=" M 50 0 C 50 0 -50 100 50 100 C 150 100 50 0 50 0" fill-opacity="0.49999999999999994" stroke-opacity="1" stroke-linecap="round" stroke-miterlimit="10" stroke-width="4"/><path fill="rgb(174,32,198)" stroke="rgb(0,0,0)" paint-order="fill stroke markers" d=" M 50 0 C 50 0 -50 100 50 100 C 83.33333333333334 100 0 25 50 0" fill-opacity="0.49999999999999994" stroke-opacity="1" stroke-linecap="round" stroke-miterlimit="10" stroke-width="4"/></g></g><g/><g><g transform="translate(200,460)"><path fill="rgb(174,32,198)" stroke="rgb(0,0,0)" paint-order="fill stroke markers" d=" M 50 0 C 50 0 -50 100 50 100 C 150 100 50 0 50 0" fill-opacity="0.49999999999999994" stroke-opacity="1" stroke-linecap="round" stroke-miterlimit="10" stroke-width="4"/><path fill="rgb(174,32,198)" stroke="rgb(0,0,0)" paint-order="fill stroke markers" d=" M 50 0 C 50 0 -50 100 50 100 C 100 100 0 25 50 0" fill-opacity="0.49999999999999994" stroke-opacity="1" stroke-linecap="round" stroke-miterlimit="10" stroke-width="4"/></g></g><g/><g><g transform="translate(300,460)"><path fill="rgb(174,32,198)" stroke="rgb(0,0,0)" paint-order="fill stroke markers" d=" M 50 0 C 50 0 -50 100 50 100 C 150 100 50 0 50 0" fill-opacity="0.49999999999999994" stroke-opacity="1" stroke-linecap="round" stroke-miterlimit="10" stroke-width="4"/><path fill="rgb(174,32,198)" stroke="rgb(0,0,0)" paint-order="fill stroke markers" d=" M 50 0 C 50 0 -50 100 50 100 C 150 100 0 25 50 0" fill-opacity="0.49999999999999994" stroke-opacity="1" stroke-linecap="round" stroke-miterlimit="10" stroke-width="4"/></g></g><g/><g><g transform="translate(400,460)"><path fill="rgb(174,32,198)" stroke="rgb(0,0,0)" paint-order="fill stroke markers" d=" M 50 0 C 50 0 -50 100 50 100 C 150 100 50 0 50 0" fill-opacity="0.49999999999999994" stroke-opacity="1" stroke-linecap="round" stroke-miterlimit="10" stroke-width="4"/><path fill="rgb(174,32,198)" stroke="rgb(0,0,0)" paint-order="fill stroke markers" d=" M 50 0 C 50 0 50 100 50 100 C 50 100 50 0 50 0" fill-opacity="0.49999999999999994" stroke-opacity="1" stroke-linecap="round" stroke-miterlimit="10" stroke-width="4"/></g></g><g/><g><g transform="translate(100,580)"><path fill="rgb(174,32,198)" stroke="rgb(0,0,0)" paint-order="fill stroke markers" d=" M 50 0 C 50 0 -50 100 50 100 C 150 100 50 0 50 0" fill-opacity="0.49999999999999994" stroke-opacity="1" stroke-linecap="round" stroke-miterlimit="10" stroke-width="4"/><path fill="rgb(174,32,198)" stroke="rgb(0,0,0)" paint-order="fill stroke markers" d=" M 50 0 C 100 25 25 100 50 100 C 75 100 0 50 50 0" fill-opacity="0.49999999999999994" stroke-opacity="1" stroke-linecap="round" stroke-miterlimit="10" stroke-width="4"/></g></g><g/><g><g transform="translate(200,580)"><path fill="rgb(174,32,198)" stroke="rgb(0,0,0)" paint-order="fill stroke markers" d=" M 50 0 C 50 0 -50 100 50 100 C 150 100 50 0 50 0" fill-opacity="0.49999999999999994" stroke-opacity="1" stroke-linecap="round" stroke-miterlimit="10" stroke-width="4"/><path fill="rgb(174,32,198)" stroke="rgb(0,0,0)" paint-order="fill stroke markers" d=" M 50 0 C 100 25 0 100 50 100 C 100 100 0 25 50 0" fill-opacity="0.49999999999999994" stroke-opacity="1" stroke-linecap="round" stroke-miterlimit="10" stroke-width="4"/></g></g><g/><g><g transform="translate(300,580)"><path fill="rgb(174,32,198)" stroke="rgb(0,0,0)" paint-order="fill stroke markers" d=" M 50 0 C 50 0 -50 100 50 100 C 150 100 50 0 50 0" fill-opacity="0.49999999999999994" stroke-opacity="1" stroke-linecap="round" stroke-miterlimit="10" stroke-width="4"/><path fill="rgb(174,32,198)" stroke="rgb(0,0,0)" paint-order="fill stroke markers" d=" M 50 0 C 150 25 -50 100 50 100 C 150 100 -50 25 50 0" fill-opacity="0.49999999999999994" stroke-opacity="1" stroke-linecap="round" stroke-miterlimit="10" stroke-width="4"/></g></g><g/><g><g transform="translate(400,580)"><path fill="rgb(174,32,198)" stroke="rgb(0,0,0)" paint-order="fill stroke markers" d=" M 50 0 C 50 0 -50 100 50 100 C 150 100 50 0 50 0" fill-opacity="0.49999999999999994" stroke-opacity="1" stroke-linecap="round" stroke-miterlimit="10" stroke-width="4"/><path fill="rgb(174,32,198)" stroke="rgb(0,0,0)" paint-order="fill stroke markers" d=" M 50 0 C 100 25 -50 100 50 100 C 150 100 0 25 50 0" fill-opacity="0.49999999999999994" stroke-opacity="1" stroke-linecap="round" stroke-miterlimit="10" stroke-width="4"/></g></g><g/><g><g transform="translate(100,700)"><path fill="rgb(54,93,9)" stroke="rgb(0,0,0)" paint-order="fill stroke markers" d=" M 47 0 C 42 150 52 150 47 300 L 53 300 C 63 150 43 150 53 0 L 47 0 L 47 0" fill-opacity="0.49999999999999994" stroke-opacity="1" stroke-linecap="round" stroke-miterlimit="10" stroke-width="4"/></g></g><g><g transform="translate(200,700)"><path fill="rgb(54,93,9)" stroke="rgb(0,0,0)" paint-order="fill stroke markers" d=" M 47 0 C -53 150 22 150 47 300 L 53 300 C 23 150 -47 150 53 0 L 47 0 L 47 0" fill-opacity="0.49999999999999994" stroke-opacity="1" stroke-linecap="round" stroke-miterlimit="10" stroke-width="4"/></g></g><g><g transform="translate(300,700)"><path fill="rgb(54,93,9)" stroke="rgb(0,0,0)" paint-order="fill stroke markers" d=" M 47 0 C -58 150 152 150 47 300 L 53 300 C 173 150 -67 150 53 0 L 47 0 L 47 0" fill-opacity="0.49999999999999994" stroke-opacity="1" stroke-linecap="round" stroke-miterlimit="10" stroke-width="4"/></g></g><g><g transform="translate(400,700)"><path fill="rgb(54,93,9)" stroke="rgb(0,0,0)" paint-order="fill stroke markers" d=" M 47 0 C 42 150 52 150 47 300 L 53 300 C 73 150 33 150 53 0 L 47 0 L 47 0" fill-opacity="0.49999999999999994" stroke-opacity="1" stroke-linecap="round" stroke-miterlimit="10" stroke-width="4"/></g></g><g><g transform="translate(100,1020)"><path fill="rgb(17,61,4)" stroke="rgb(0,0,0)" paint-order="fill stroke markers" d=" M 0 71.20650250735494 C -50 71.20650250735494 40 300 60 300 L 40 300 C 140 300 -50 71.20650250735494 0 71.20650250735494 L 0 71.20650250735494 L 0 71.20650250735494" fill-opacity="0.49999999999999994" stroke-opacity="1" stroke-linecap="round" stroke-miterlimit="10" stroke-width="4"/><path fill="rgb(17,61,4)" stroke="rgb(0,0,0)" paint-order="fill stroke markers" d=" M 100 23.149282482229715 C -50 71.20650250735494 40 300 60 300 L 40 300 C 140 300 -50 71.20650250735494 100 23.149282482229715 L 100 23.149282482229715 L 100 23.149282482229715" fill-opacity="0.49999999999999994" stroke-opacity="1" stroke-linecap="round" stroke-miterlimit="10" stroke-width="4"/></g></g><g><g transform="translate(200,1020)"><path fill="rgb(17,61,4)" stroke="rgb(0,0,0)" paint-order="fill stroke markers" d=" M 0 36.072835233440074 C 100 36.072835233440074 10 300 60 300 L 40 300 C -10 300 50 36.072835233440074 0 36.072835233440074 L 0 36.072835233440074 L 0 36.072835233440074" fill-opacity="0.49999999999999994" stroke-opacity="1" stroke-linecap="round" stroke-miterlimit="10" stroke-width="4"/><path fill="rgb(17,61,4)" stroke="rgb(0,0,0)" paint-order="fill stroke markers" d=" M 100 0.06977782852182202 C 100 36.072835233440074 10 300 60 300 L 40 300 C -10 300 50 36.072835233440074 100 0.06977782852182202 L 100 0.06977782852182202 L 100 0.06977782852182202" fill-opacity="0.49999999999999994" stroke-opacity="1" stroke-linecap="round" stroke-miterlimit="10" stroke-width="4"/></g></g><g><g transform="translate(300,1020)"><path fill="rgb(17,61,4)" stroke="rgb(0,0,0)" paint-order="fill stroke markers" d=" M 0 89.59879463838512 C 50 89.59879463838512 160 300 60 300 L 40 300 C 120 300 10 89.59879463838512 0 89.59879463838512 L 0 89.59879463838512 L 0 89.59879463838512" fill-opacity="0.49999999999999994" stroke-opacity="1" stroke-linecap="round" stroke-miterlimit="10" stroke-width="4"/><path fill="rgb(17,61,4)" stroke="rgb(0,0,0)" paint-order="fill stroke markers" d=" M 100 9.51634819159002 C 50 89.59879463838512 160 300 60 300 L 40 300 C 120 300 10 89.59879463838512 100 9.51634819159002 L 100 9.51634819159002 L 100 9.51634819159002" fill-opacity="0.49999999999999994" stroke-opacity="1" stroke-linecap="round" stroke-miterlimit="10" stroke-width="4"/></g></g><g><g transform="translate(400,1020)"><path fill="rgb(17,61,4)" stroke="rgb(0,0,0)" paint-order="fill stroke markers" d=" M 0 86.42562722954776 C 50 86.42562722954776 10 300 60 300 L 40 300 C 90 300 50 86.42562722954776 0 86.42562722954776 L 0 86.42562722954776 L 0 86.42562722954776" fill-opacity="0.49999999999999994" stroke-opacity="1" stroke-linecap="round" stroke-miterlimit="10" stroke-width="4"/><path fill="rgb(17,61,4)" stroke="rgb(0,0,0)" paint-order="fill stroke markers" d=" M 100 19.35577037464219 C 50 86.42562722954776 10 300 60 300 L 40 300 C 90 300 50 86.42562722954776 100 19.35577037464219 L 100 19.35577037464219 L 100 19.35577037464219" fill-opacity="0.49999999999999994" stroke-opacity="1" stroke-linecap="round" stroke-miterlimit="10" stroke-width="4"/></g></g><g><g transform="translate(100,1440)"><path fill="rgb(54,93,9)" stroke="rgb(0,0,0)" paint-order="fill stroke markers" d=" M 47 0 C 42 150 52 150 47 300 L 53 300 C 63 150 43 150 53 0 L 47 0 L 47 0" fill-opacity="0.49999999999999994" stroke-opacity="1" stroke-linecap="round" stroke-miterlimit="10" stroke-width="4"/></g><g transform="translate(100,1440)"><path fill="rgb(17,61,4)" stroke="rgb(0,0,0)" paint-order="fill stroke markers" d=" M 0 71.20650250735494 C -50 71.20650250735494 40 300 60 300 L 40 300 C 140 300 -50 71.20650250735494 0 71.20650250735494 L 0 71.20650250735494 L 0 71.20650250735494" fill-opacity="0.49999999999999994" stroke-opacity="1" stroke-linecap="round" stroke-miterlimit="10" stroke-width="4"/><path fill="rgb(17,61,4)" stroke="rgb(0,0,0)" paint-order="fill stroke markers" d=" M 100 23.149282482229715 C -50 71.20650250735494 40 300 60 300 L 40 300 C 140 300 -50 71.20650250735494 100 23.149282482229715 L 100 23.149282482229715 L 100 23.149282482229715" fill-opacity="0.49999999999999994" stroke-opacity="1" stroke-linecap="round" stroke-miterlimit="10" stroke-width="4"/></g><g transform="translate(100,1340)"><path fill="rgb(174,32,198)" stroke="rgb(0,0,0)" paint-order="fill stroke markers" d=" M 50 0 C 50 0 -50 100 50 100 C 150 100 50 0 50 0" fill-opacity="0.49999999999999994" stroke-opacity="1" stroke-linecap="round" stroke-miterlimit="10" stroke-width="4"/><path fill="rgb(174,32,198)" stroke="rgb(0,0,0)" paint-order="fill stroke markers" d=" M 50 0 C 0 25 100 100 50 100 C 133.33333333333334 100 0 25 50 0" fill-opacity="0.49999999999999994" stroke-opacity="1" stroke-linecap="round" stroke-miterlimit="10" stroke-width="4"/></g><g transform="translate(200,1440)"><path fill="rgb(54,93,9)" stroke="rgb(0,0,0)" paint-order="fill stroke markers" d=" M 47 0 C -53 150 22 150 47 300 L 53 300 C 23 150 -47 150 53 0 L 47 0 L 47 0" fill-opacity="0.49999999999999994" stroke-opacity="1" stroke-linecap="round" stroke-miterlimit="10" stroke-width="4"/></g><g transform="translate(200,1440)"><path fill="rgb(17,61,4)" stroke="rgb(0,0,0)" paint-order="fill stroke markers" d=" M 0 36.072835233440074 C 100 36.072835233440074 10 300 60 300 L 40 300 C -10 300 50 36.072835233440074 0 36.072835233440074 L 0 36.072835233440074 L 0 36.072835233440074" fill-opacity="0.49999999999999994" stroke-opacity="1" stroke-linecap="round" stroke-miterlimit="10" stroke-width="4"/><path fill="rgb(17,61,4)" stroke="rgb(0,0,0)" paint-order="fill stroke markers" d=" M 100 0.06977782852182202 C 100 36.072835233440074 10 300 60 300 L 40 300 C -10 300 50 36.072835233440074 100 0.06977782852182202 L 100 0.06977782852182202 L 100 0.06977782852182202" fill-opacity="0.49999999999999994" stroke-opacity="1" stroke-linecap="round" stroke-miterlimit="10" stroke-width="4"/></g><g transform="translate(200,1340)"><path fill="rgb(174,32,198)" stroke="rgb(0,0,0)" paint-order="fill stroke markers" d=" M 50 0 C 50 0 -50 100 50 100 C 150 100 50 0 50 0" fill-opacity="0.49999999999999994" stroke-opacity="1" stroke-linecap="round" stroke-miterlimit="10" stroke-width="4"/><path fill="rgb(174,32,198)" stroke="rgb(0,0,0)" paint-order="fill stroke markers" d=" M 50 0 C 100 25 0 100 50 100 C -33.333333333333336 100 100 25 50 0" fill-opacity="0.49999999999999994" stroke-opacity="1" stroke-linecap="round" stroke-miterlimit="10" stroke-width="4"/></g><g transform="translate(300,1440)"><path fill="rgb(54,93,9)" stroke="rgb(0,0,0)" paint-order="fill stroke markers" d=" M 47 0 C -58 150 152 150 47 300 L 53 300 C 173 150 -67 150 53 0 L 47 0 L 47 0" fill-opacity="0.49999999999999994" stroke-opacity="1" stroke-linecap="round" stroke-miterlimit="10" stroke-width="4"/></g><g transform="translate(300,1440)"><path fill="rgb(17,61,4)" stroke="rgb(0,0,0)" paint-order="fill stroke markers" d=" M 0 89.59879463838512 C 50 89.59879463838512 160 300 60 300 L 40 300 C 120 300 10 89.59879463838512 0 89.59879463838512 L 0 89.59879463838512 L 0 89.59879463838512" fill-opacity="0.49999999999999994" stroke-opacity="1" stroke-linecap="round" stroke-miterlimit="10" stroke-width="4"/><path fill="rgb(17,61,4)" stroke="rgb(0,0,0)" paint-order="fill stroke markers" d=" M 100 9.51634819159002 C 50 89.59879463838512 160 300 60 300 L 40 300 C 120 300 10 89.59879463838512 100 9.51634819159002 L 100 9.51634819159002 L 100 9.51634819159002" fill-opacity="0.49999999999999994" stroke-opacity="1" stroke-linecap="round" stroke-miterlimit="10" stroke-width="4"/></g><g transform="translate(300,1340)"><path fill="rgb(174,32,198)" stroke="rgb(0,0,0)" paint-order="fill stroke markers" d=" M 50 0 C 50 0 -50 100 50 100 C 150 100 50 0 50 0" fill-opacity="0.49999999999999994" stroke-opacity="1" stroke-linecap="round" stroke-miterlimit="10" stroke-width="4"/><path fill="rgb(174,32,198)" stroke="rgb(0,0,0)" paint-order="fill stroke markers" d=" M 50 0 C 100 25 0 100 50 100 C 83.33333333333334 100 100 25 50 0" fill-opacity="0.49999999999999994" stroke-opacity="1" stroke-linecap="round" stroke-miterlimit="10" stroke-width="4"/></g><g transform="translate(400,1440)"><path fill="rgb(54,93,9)" stroke="rgb(0,0,0)" paint-order="fill stroke markers" d=" M 47 0 C 42 150 52 150 47 300 L 53 300 C 73 150 33 150 53 0 L 47 0 L 47 0" fill-opacity="0.49999999999999994" stroke-opacity="1" stroke-linecap="round" stroke-miterlimit="10" stroke-width="4"/></g><g transform="translate(400,1440)"><path fill="rgb(17,61,4)" stroke="rgb(0,0,0)" paint-order="fill stroke markers" d=" M 0 86.42562722954776 C 50 86.42562722954776 10 300 60 300 L 40 300 C 90 300 50 86.42562722954776 0 86.42562722954776 L 0 86.42562722954776 L 0 86.42562722954776" fill-opacity="0.49999999999999994" stroke-opacity="1" stroke-linecap="round" stroke-miterlimit="10" stroke-width="4"/><path fill="rgb(17,61,4)" stroke="rgb(0,0,0)" paint-order="fill stroke markers" d=" M 100 19.35577037464219 C 50 86.42562722954776 10 300 60 300 L 40 300 C 90 300 50 86.42562722954776 100 19.35577037464219 L 100 19.35577037464219 L 100 19.35577037464219" fill-opacity="0.49999999999999994" stroke-opacity="1" stroke-linecap="round" stroke-miterlimit="10" stroke-width="4"/></g><g transform="translate(400,1340)"><path fill="rgb(174,32,198)" stroke="rgb(0,0,0)" paint-order="fill stroke markers" d=" M 50 0 C 50 0 -50 100 50 100 C 150 100 50 0 50 0" fill-opacity="0.49999999999999994" stroke-opacity="1" stroke-linecap="round" stroke-miterlimit="10" stroke-width="4"/><path fill="rgb(174,32,198)" stroke="rgb(0,0,0)" paint-order="fill stroke markers" d=" M 50 0 C 0 25 100 100 50 100 C 16.666666666666664 100 0 25 50 0" fill-opacity="0.49999999999999994" stroke-opacity="1" stroke-linecap="round" stroke-miterlimit="10" stroke-width="4"/></g></g><g/><g/><g/><g/><g/><g/><g/><g/><g/><g/><g/><g/><g/><g/><g/><g/><g/><g/><g/><g/><g/><g/><g/><g/><g/><g/><g/><g/><g/><g/><g/><g/><g/><g/><g/><g/><g/><g/><g/><g/><g/><g/><g/><g/><g/><g/><g/><g/><g/><g/><g/><g/><g/><g/><g/><g/><g/><g/><g/><g/><g/><g/><g/><g/><g/><g/><g/><g/><g/><g/><g/><g/><g/><g/><g/><g/><g/><g/><g/><g/><g/><g/><g/><g/><g/><g/><g/><g/><g/><g/><g/><g/><g/><g/><g/><g/><g/><g/><g/><g/><g/><g/><g/><g/><g/><g/><g/><g/><g/><g/><g/><g/><g/><g/><g/><g/><g/><g/><g/><g/><g/><g/><g/><g/><g/><g/><g/><g/><g/><g/><g/><g/><g/><g/><g/><g/><g/><g/><g/><g/><g/><g/><g/><g/><g/><g/><g/><g/><g/><g/><g/><g/><g/><g/><g/><g/><g/><g/><g/><g/><g/><g/><g/><g/><g/><g/><g/><g/><g/><g/><g/><g/><g/><g/><g/><g/><g/><g/><g/><g/><g/><g/><g/><g/><g/><g/><g/><g/><g/><g/><g/><g/><g/><g/><g/><g/><g/><g/><g/><g/><g/><g/><g/><g/><g/><g/><g/><g/><g/><g/><g/><g/><g/><g/><g/><g/><g/><g/><g/><g/><g/><g/><g/><g/><g/><g/><g/><g/><g/><g/><g/><g/><g/><g/><g/><g/><g/><g/><g/><g/><g/><g/><g/><g/><g/><g/><g/><g/><g/><g/><g/><g/><g/><g/><g/><g/><g/><g/><g/><g/><g/><g/><g/><g/><g/><g/><g/><g/><g/><g/><g/><g/><g/><g/><g/><g/><g/><g/><g/><g/><g/><g/><g/><g/><g/><g/><g/><g/><g/><g/><g/><g/><g/><g/><g/><g/><g/><g/><g/><g/><g/><g/><g/><g/><g/><g/><g/><g/><g/><g/><g/><g/><g/><g/><g/><g/><g/><g/><g/><g/><g/><g/><g/><g/><g/><g/><g/><g/><g/><g/><g/><g/><g/><g/><g/><g/><g/><g/><g/><g/><g/><g/><g/><g/><g/><g/><g/><g/><g/><g/><g/><g/><g/><g/><g/><g/><g/><g/><g/><g/><g/><g/><g/><g/><g/><g/><g/><g/><g/><g/><g/><g/><g/><g/><g/><g/><g/><g/><g/><g/><g/><g/><g/><g/><g/><g/><g/><g/><g/><g/><g/><g/><g/><g/><g/><g/><g/><g/><g/><g/><g/><g/><g/></g></svg>