  0
SECTION
  2
HEADER
  9
$ACADVER
  1
AC1014
  9
$HANDSEED
  5
FFFF
  9
$MEASUREMENT
 70
     1
  0
ENDSEC
  0
SECTION
  2
TABLES
  0
TABLE
  2
VPORT
  5
8
330
0
100
AcDbSymbolTable
 70
     4
  0
VPORT
  5
2E
330
8
100
AcDbSymbolTableRecord
100
AcDbViewportTableRecord
  2
*ACTIVE
 70
     0
 10
0.0
 20
0.0
 11
1.0
 21
1.0
 12
210.0
 22
148.5
 13
0.0
 23
0.0
 14
10.0
 24
10.0
 15
10.0
 25
10.0
 16
0.0
 26
0.0
 36
1.0
 17
0.0
 27
0.0
 37
0.0
 40
341.0
 41
1.24
 42
50.0
 43
0.0
 44
0.0
 50
0.0
 51
0.0
 71
     0
 72
   100
 73
     1
 74
     3
 75
     0
 76
     0
 77
     0
 78
     0
  0
ENDTAB
  0
TABLE
  2
LTYPE
  5
5
330
0
100
AcDbSymbolTable
 70
     1
  0
LTYPE
  5
14
330
5
100
AcDbSymbolTableRecord
100
AcDbLinetypeTableRecord
  2
BYBLOCK
 70
     0
  3

 72
    65
 73
     0
 40
0.0
  0
LTYPE
  5
15
330
5
100
AcDbSymbolTableRecord
100
AcDbLinetypeTableRecord
  2
BYLAYER
 70
     0
  3

 72
    65
 73
     0
 40
0.0
  0
LTYPE
  5
16
330
5
100
AcDbSymbolTableRecord
100
AcDbLinetypeTableRecord
  2
CONTINUOUS
 70
     0
  3
Solid line
 72
    65
 73
     0
 40
0.0
  0
ENDTAB
  0
TABLE
  2
LAYER
  5
2
100
AcDbSymbolTable
 70
1
  0
LAYER
  5
50
100
AcDbSymbolTableRecord
100
AcDbLayerTableRecord
  2
0
 70
0
  6
CONTINUOUS
  0
ENDTAB
  0
TABLE
  2
STYLE
  5
3
330
0
100
AcDbSymbolTable
 70
     1
  0
STYLE
  5
11
330
3
100
AcDbSymbolTableRecord
100
AcDbTextStyleTableRecord
  2
STANDARD
 70
     0
 40
0.0
 41
1.0
 50
0.0
 71
     0
 42
2.5
  3
txt
  4

  0
ENDTAB
  0
TABLE
  2
VIEW
  5
6
330
0
100
AcDbSymbolTable
 70
     0
  0
ENDTAB
  0
TABLE
  2
UCS
  5
7
330
0
100
AcDbSymbolTable
 70
     0
  0
ENDTAB
  0
TABLE
  2
APPID
  5
9
330
0
100
AcDbSymbolTable
 70
     2
  0
APPID
  5
12
330
9
100
AcDbSymbolTableRecord
100
AcDbRegAppTableRecord
  2
ACAD
 70
     0
  0
ENDTAB
  0
TABLE
  2
DIMSTYLE
  5
A
330
0
100
AcDbSymbolTable
 70
     1
  0
DIMSTYLE
105
27
330
A
100
AcDbSymbolTableRecord
100
AcDbDimStyleTableRecord
  2
ISO-25
 70
     0
  3

  4

  5

  6

  7

 40
1.0
 41
2.5
 42
0.625
 43
3.75
 44
1.25
 45
0.0
 46
0.0
 47
0.0
 48
0.0
140
2.5
141
2.5
142
0.0
143
0.03937007874016
144
1.0
145
0.0
146
1.0
147
0.625
 71
     0
 72
     0
 73
     0
 74
     0
 75
     0
 76
     0
 77
     1
 78
     8
170
     0
171
     3
172
     1
173
     0
174
     0
175
     0
176
     0
177
     0
178
     0
270
     2
271
     2
272
     2
273
     2
274
     3
340
11
275
     0
280
     0
281
     0
282
     0
283
     0
284
     8
285
     0
286
     0
287
     3
288
     0
  0
ENDTAB
  0
TABLE
  2
BLOCK_RECORD
  5
1
330
0
100
AcDbSymbolTable
 70
     1
  0
BLOCK_RECORD
  5
1F
330
1
100
AcDbSymbolTableRecord
100
AcDbBlockTableRecord
  2
*MODEL_SPACE
  0
BLOCK_RECORD
  5
1B
330
1
100
AcDbSymbolTableRecord
100
AcDbBlockTableRecord
  2
*PAPER_SPACE
  0
ENDTAB
  0
ENDSEC
  0
SECTION
  2
BLOCKS
  0
BLOCK
  5
20
330
1F
100
AcDbEntity
  8
0
100
AcDbBlockBegin
  2
*MODEL_SPACE
 70
     0
 10
0.0
 20
0.0
 30
0.0
  3
*MODEL_SPACE
  1

  0
ENDBLK
  5
21
330
1F
100
AcDbEntity
  8
0
100
AcDbBlockEnd
  0
BLOCK
  5
1C
330
1B
100
AcDbEntity
 67
     1
  8
0
100
AcDbBlockBegin
  2
*PAPER_SPACE
  1

  0
ENDBLK
  5
1D
330
1B
100
AcDbEntity
 67
     1
  8
0
100
AcDbBlockEnd
  0
ENDSEC
  0
SECTION
  2
ENTITIES
  0
SPLINE
  5
100
100
AcDbEntity
  8
0
 62
7
100
AcDbSpline
 70
8
 71
3
 72
8
 73
4
 74
0
 40
0
 40
0
 40
0
 40
0
 40
1
 40
1
 40
1
 40
1
 10
286.400000
 20
-92.587704
 30
0.0
 10
286.400000
 20
-92.448824
 30
0.0
 10
286.063136
 20
-91.160632
 30
0.0
 10
285.651416
 20
-89.725048
 30
0.0
  0
SPLINE
  5
101
100
AcDbEntity
  8
0
 62
7
100
AcDbSpline
 70
8
 71
3
 72
8
 73
4
 74
0
 40
0
 40
0
 40
0
 40
0
 40
1
 40
1
 40
1
 40
1
 10
285.651416
 20
-89.725048
 30
0.0
 10
285.186640
 20
-88.104472
 30
0.0
 10
285.186640
 20
-87.290296
 30
0.0
 10
285.651416
 20
-87.577544
 30
0.0
  0
SPLINE
  5
102
100
AcDbEntity
  8
0
 62
7
100
AcDbSpline
 70
8
 71
3
 72
8
 73
4
 74
0
 40
0
 40
0
 40
0
 40
0
 40
1
 40
1
 40
1
 40
1
 10
285.651416
 20
-87.577544
 30
0.0
 10
286.063136
 20
-87.832000
 30
0.0
 10
286.412760
 20
-88.648952
 30
0.0
 10
286.428352
 20
-89.392984
 30
0.0
  0
SPLINE
  5
103
100
AcDbEntity
  8
0
 62
7
100
AcDbSpline
 70
8
 71
3
 72
8
 73
4
 74
0
 40
0
 40
0
 40
0
 40
0
 40
1
 40
1
 40
1
 40
1
 10
286.428352
 20
-89.392984
 30
0.0
 10
286.449072
 20
-90.380920
 30
0.0
 10
286.768096
 20
-90.206360
 30
0.0
 10
287.611288
 20
-88.745768
 30
0.0
  0
SPLINE
  5
104
100
AcDbEntity
  8
0
 62
7
100
AcDbSpline
 70
8
 71
3
 72
8
 73
4
 74
0
 40
0
 40
0
 40
0
 40
0
 40
1
 40
1
 40
1
 40
1
 10
289.313112
 20
-88.686776
 30
0.0
 10
289.858440
 20
-90.620968
 30
0.0
 10
289.862624
 20
-90.621672
 30
0.0
 10
290.504400
 20
-88.886776
 30
0.0
  0
SPLINE
  5
105
100
AcDbEntity
  8
0
 62
7
100
AcDbSpline
 70
8
 71
3
 72
8
 73
4
 74
0
 40
0
 40
0
 40
0
 40
0
 40
1
 40
1
 40
1
 40
1
 10
290.504400
 20
-88.886776
 30
0.0
 10
290.858624
 20
-87.929224
 30
0.0
 10
291.531640
 20
-87.145768
 30
0.0
 10
292.000000
 20
-87.145768
 30
0.0
  0
SPLINE
  5
106
100
AcDbEntity
  8
0
 62
7
100
AcDbSpline
 70
8
 71
3
 72
8
 73
4
 74
0
 40
0
 40
0
 40
0
 40
0
 40
1
 40
1
 40
1
 40
1
 10
292.000000
 20
-87.145768
 30
0.0
 10
292.468360
 20
-87.145768
 30
0.0
 10
293.141376
 20
-87.929224
 30
0.0
 10
293.495600
 20
-88.886776
 30
0.0
  0
SPLINE
  5
107
100
AcDbEntity
  8
0
 62
7
100
AcDbSpline
 70
8
 71
3
 72
8
 73
4
 74
0
 40
0
 40
0
 40
0
 40
0
 40
1
 40
1
 40
1
 40
1
 10
293.495600
 20
-88.886776
 30
0.0
 10
294.137936
 20
-90.623168
 30
0.0
 10
294.141192
 20
-90.622640
 30
0.0
 10
294.723664
 20
-88.686776
 30
0.0
  0
SPLINE
  5
108
100
AcDbEntity
  8
0
 62
7
100
AcDbSpline
 70
8
 71
3
 72
8
 73
4
 74
0
 40
0
 40
0
 40
0
 40
0
 40
1
 40
1
 40
1
 40
1
 10
294.723664
 20
-88.686776
 30
0.0
 10
295.044872
 20
-87.619224
 30
0.0
 10
295.486256
 20
-87.174184
 30
0.0
 10
295.704520
 20
-87.697808
 30
0.0
  0
SPLINE
  5
109
100
AcDbEntity
  8
0
 62
7
100
AcDbSpline
 70
8
 71
3
 72
8
 73
4
 74
0
 40
0
 40
0
 40
0
 40
0
 40
1
 40
1
 40
1
 40
1
 10
295.704520
 20
-87.697808
 30
0.0
 10
295.922784
 20
-88.221424
 30
0.0
 10
295.569520
 20
-89.661424
 30
0.0
 10
294.919488
 20
-90.897808
 30
0.0
  0
LWPOLYLINE
  5
10a
100
AcDbEntity
  8
0
 62
7
100
AcDbPolyline
 90
3
 70
1
 10
287.611288
 20
-88.745768
 30
0.0
 10
288.765872
 20
-86.745768
 30
0.0
 10
289.313112
 20
-88.686776
 30
0.0
  0
SPLINE
  5
10b
100
AcDbEntity
  8
0
 62
7
100
AcDbSpline
 70
8
 71
3
 72
8
 73
4
 74
0
 40
0
 40
0
 40
0
 40
0
 40
1
 40
1
 40
1
 40
1
 10
293.182080
 20
-90.945768
 30
0.0
 10
292.876536
 20
-89.735768
 30
0.0
 10
292.375072
 20
-88.745768
 30
0.0
 10
292.067704
 20
-88.745768
 30
0.0
  0
SPLINE
  5
10c
100
AcDbEntity
  8
0
 62
7
100
AcDbSpline
 70
8
 71
3
 72
8
 73
4
 74
0
 40
0
 40
0
 40
0
 40
0
 40
1
 40
1
 40
1
 40
1
 10
292.067704
 20
-88.745768
 30
0.0
 10
291.760344
 20
-88.745768
 30
0.0
 10
291.131056
 20
-89.735768
 30
0.0
 10
290.669288
 20
-90.945768
 30
0.0
  0
LWPOLYLINE
  5
10d
100
AcDbEntity
  8
0
 62
7
100
AcDbPolyline
 90
3
 70
1
 10
294.919488
 20
-90.897808
 30
0.0
 10
293.737624
 20
-93.145768
 30
0.0
 10
293.182080
 20
-90.945768
 30
0.0
  0
SPLINE
  5
10e
100
AcDbEntity
  8
0
 62
7
100
AcDbSpline
 70
8
 71
3
 72
8
 73
4
 74
0
 40
0
 40
0
 40
0
 40
0
 40
1
 40
1
 40
1
 40
1
 10
288.965568
 20
-91.145768
 30
0.0
 10
288.380048
 20
-89.790640
 30
0.0
 10
288.085064
 20
-89.581952
 30
0.0
 10
288.050712
 20
-90.498552
 30
0.0
  0
SPLINE
  5
10f
100
AcDbEntity
  8
0
 62
7
100
AcDbSpline
 70
8
 71
3
 72
8
 73
4
 74
0
 40
0
 40
0
 40
0
 40
0
 40
1
 40
1
 40
1
 40
1
 10
288.050712
 20
-90.498552
 30
0.0
 10
288.010960
 20
-91.558920
 30
0.0
 10
286.400000
 20
-93.597760
 30
0.0
 10
286.400000
 20
-92.587704
 30
0.0
  0
LWPOLYLINE
  5
110
100
AcDbEntity
  8
0
 62
7
100
AcDbPolyline
 90
3
 70
1
 10
290.669288
 20
-90.945768
 30
0.0
 10
289.829712
 20
-93.145768
 30
0.0
 10
288.965568
 20
-91.145768
 30
0.0
  0
SPLINE
  5
111
100
AcDbEntity
  8
0
 62
7
100
AcDbSpline
 70
8
 71
3
 72
8
 73
4
 74
0
 40
0
 40
0
 40
0
 40
0
 40
1
 40
1
 40
1
 40
1
 10
296.000000
 20
-91.098552
 30
0.0
 10
296.000000
 20
-90.192584
 30
0.0
 10
296.319072
 20
-89.648536
 30
0.0
 10
296.709048
 20
-89.889560
 30
0.0
  0
SPLINE
  5
112
100
AcDbEntity
  8
0
 62
7
100
AcDbSpline
 70
8
 71
3
 72
8
 73
4
 74
0
 40
0
 40
0
 40
0
 40
0
 40
1
 40
1
 40
1
 40
1
 10
296.709048
 20
-89.889560
 30
0.0
 10
297.099024
 20
-90.130576
 30
0.0
 10
297.605320
 20
-89.611824
 30
0.0
 10
297.834152
 20
-88.736768
 30
0.0
  0
SPLINE
  5
113
100
AcDbEntity
  8
0
 62
7
100
AcDbSpline
 70
8
 71
3
 72
8
 73
4
 74
0
 40
0
 40
0
 40
0
 40
0
 40
1
 40
1
 40
1
 40
1
 10
297.834152
 20
-88.736768
 30
0.0
 10
298.062984
 20
-87.861720
 30
0.0
 10
298.600240
 20
-87.145768
 30
0.0
 10
299.028048
 20
-87.145768
 30
0.0
  0
SPLINE
  5
114
100
AcDbEntity
  8
0
 62
7
100
AcDbSpline
 70
8
 71
3
 72
8
 73
4
 74
0
 40
0
 40
0
 40
0
 40
0
 40
1
 40
1
 40
1
 40
1
 10
299.028048
 20
-87.145768
 30
0.0
 10
299.972320
 20
-87.145768
 30
0.0
 10
302.005440
 20
-91.806992
 30
0.0
 10
301.347952
 20
-92.464488
 30
0.0
  0
SPLINE
  5
115
100
AcDbEntity
  8
0
 62
7
100
AcDbSpline
 70
8
 71
3
 72
8
 73
4
 74
0
 40
0
 40
0
 40
0
 40
0
 40
1
 40
1
 40
1
 40
1
 10
301.347952
 20
-92.464488
 30
0.0
 10
301.090872
 20
-92.721560
 30
0.0
 10
300.378008
 20
-91.720016
 30
0.0
 10
299.763800
 20
-90.238832
 30
0.0
  0
LWPOLYLINE
  5
116
100
AcDbEntity
  8
0
 62
7
100
AcDbPolyline
 90
2
 70
1
 10
286.400000
 20
-92.587704
 30
0.0
 10
286.400000
 20
-92.587704
 30
0.0
  0
SPLINE
  5
117
100
AcDbEntity
  8
0
 62
7
100
AcDbSpline
 70
8
 71
3
 72
8
 73
4
 74
0
 40
0
 40
0
 40
0
 40
0
 40
1
 40
1
 40
1
 40
1
 10
298.059968
 20
-90.145768
 30
0.0
 10
297.409296
 20
-93.027304
 30
0.0
 10
296.000000
 20
-93.679136
 30
0.0
 10
296.000000
 20
-91.098552
 30
0.0
  0
LWPOLYLINE
  5
118
100
AcDbEntity
  8
0
 62
7
100
AcDbPolyline
 90
3
 70
1
 10
299.763800
 20
-90.238832
 30
0.0
 10
298.647064
 20
-87.545768
 30
0.0
 10
298.059968
 20
-90.145768
 30
0.0
  0
SPLINE
  5
119
100
AcDbEntity
  8
0
 62
7
100
AcDbSpline
 70
8
 71
3
 72
8
 73
4
 74
0
 40
0
 40
0
 40
0
 40
0
 40
1
 40
1
 40
1
 40
1
 10
303.200000
 20
-92.037216
 30
0.0
 10
303.200000
 20
-91.647512
 30
0.0
 10
303.737784
 20
-90.297512
 30
0.0
 10
304.395072
 20
-89.037216
 30
0.0
  0
SPLINE
  5
11a
100
AcDbEntity
  8
0
 62
7
100
AcDbSpline
 70
8
 71
3
 72
8
 73
4
 74
0
 40
0
 40
0
 40
0
 40
0
 40
1
 40
1
 40
1
 40
1
 10
304.395072
 20
-89.037216
 30
0.0
 10
305.610808
 20
-86.706144
 30
0.0
 10
305.969864
 20
-87.684112
 30
0.0
 10
305.095768
 20
-90.945768
 30
0.0
  0
SPLINE
  5
11b
100
AcDbEntity
  8
0
 62
7
100
AcDbSpline
 70
8
 71
3
 72
8
 73
4
 74
0
 40
0
 40
0
 40
0
 40
0
 40
1
 40
1
 40
1
 40
1
 10
305.095768
 20
-90.945768
 30
0.0
 10
304.632336
 20
-92.675072
 30
0.0
 10
303.200000
 20
-93.499704
 30
0.0
 10
303.200000
 20
-92.037216
 30
0.0
  0
LWPOLYLINE
  5
11c
100
AcDbEntity
  8
0
 62
7
100
AcDbPolyline
 90
2
 70
1
 10
296.000000
 20
-91.098552
 30
0.0
 10
296.000000
 20
-91.098552
 30
0.0
  0
SPLINE
  5
11d
100
AcDbEntity
  8
0
 62
7
100
AcDbSpline
 70
8
 71
3
 72
8
 73
4
 74
0
 40
0
 40
0
 40
0
 40
0
 40
1
 40
1
 40
1
 40
1
 10
308.908944
 20
-90.145768
 30
0.0
 10
308.826192
 20
-87.867040
 30
0.0
 10
309.112064
 20
-87.145768
 30
0.0
 10
310.097952
 20
-87.145768
 30
0.0
  0
SPLINE
  5
11e
100
AcDbEntity
  8
0
 62
7
100
AcDbSpline
 70
8
 71
3
 72
8
 73
4
 74
0
 40
0
 40
0
 40
0
 40
0
 40
1
 40
1
 40
1
 40
1
 10
310.097952
 20
-87.145768
 30
0.0
 10
311.041016
 20
-87.145768
 30
0.0
 10
311.171344
 20
-87.419192
 30
0.0
 10
310.574608
 20
-88.145768
 30
0.0
  0
SPLINE
  5
11f
100
AcDbEntity
  8
0
 62
7
100
AcDbSpline
 70
8
 71
3
 72
8
 73
4
 74
0
 40
0
 40
0
 40
0
 40
0
 40
1
 40
1
 40
1
 40
1
 10
310.574608
 20
-88.145768
 30
0.0
 10
310.122896
 20
-88.695768
 30
0.0
 10
309.587840
 20
-90.045768
 30
0.0
 10
309.385600
 20
-91.145768
 30
0.0
  0
SPLINE
  5
120
100
AcDbEntity
  8
0
 62
7
100
AcDbSpline
 70
8
 71
3
 72
8
 73
4
 74
0
 40
0
 40
0
 40
0
 40
0
 40
1
 40
1
 40
1
 40
1
 10
309.385600
 20
-91.145768
 30
0.0
 10
309.114536
 20
-92.620096
 30
0.0
 10
308.989256
 20
-92.357264
 30
0.0
 10
308.908944
 20
-90.145768
 30
0.0
  0
LWPOLYLINE
  5
121
100
AcDbEntity
  8
0
 62
7
100
AcDbPolyline
 90
2
 70
1
 10
303.200000
 20
-92.037216
 30
0.0
 10
303.200000
 20
-92.037216
 30
0.0
  0
SPLINE
  5
122
100
AcDbEntity
  8
0
 62
7
100
AcDbSpline
 70
8
 71
3
 72
8
 73
4
 74
0
 40
0
 40
0
 40
0
 40
0
 40
1
 40
1
 40
1
 40
1
 10
312.201744
 20
-89.945768
 30
0.0
 10
312.210624
 20
-88.185768
 30
0.0
 10
312.374456
 20
-87.559968
 30
0.0
 10
312.565808
 20
-88.555096
 30
0.0
  0
SPLINE
  5
123
100
AcDbEntity
  8
0
 62
7
100
AcDbSpline
 70
8
 71
3
 72
8
 73
4
 74
0
 40
0
 40
0
 40
0
 40
0
 40
1
 40
1
 40
1
 40
1
 10
312.565808
 20
-88.555096
 30
0.0
 10
312.757160
 20
-89.550224
 30
0.0
 10
312.749896
 20
-90.990224
 30
0.0
 10
312.549648
 20
-91.755096
 30
0.0
  0
SPLINE
  5
124
100
AcDbEntity
  8
0
 62
7
100
AcDbSpline
 70
8
 71
3
 72
8
 73
4
 74
0
 40
0
 40
0
 40
0
 40
0
 40
1
 40
1
 40
1
 40
1
 10
312.549648
 20
-91.755096
 30
0.0
 10
312.349416
 20
-92.519968
 30
0.0
 10
312.192848
 20
-91.705736
 30
0.0
 10
312.201728
 20
-89.945768
 30
0.0
  0
LWPOLYLINE
  5
125
100
AcDbEntity
  8
0
 62
7
100
AcDbPolyline
 90
2
 70
1
 10
308.908944
 20
-90.145768
 30
0.0
 10
308.908944
 20
-90.145768
 30
0.0
  0
SPLINE
  5
126
100
AcDbEntity
  8
0
 62
7
100
AcDbSpline
 70
8
 71
3
 72
8
 73
4
 74
0
 40
0
 40
0
 40
0
 40
0
 40
1
 40
1
 40
1
 40
1
 10
314.000000
 20
-91.945768
 30
0.0
 10
313.330368
 20
-90.862280
 30
0.0
 10
314.233944
 20
-89.545768
 30
0.0
 10
315.647216
 20
-89.545768
 30
0.0
  0
SPLINE
  5
127
100
AcDbEntity
  8
0
 62
7
100
AcDbSpline
 70
8
 71
3
 72
8
 73
4
 74
0
 40
0
 40
0
 40
0
 40
0
 40
1
 40
1
 40
1
 40
1
 10
315.647216
 20
-89.545768
 30
0.0
 10
316.281248
 20
-89.545768
 30
0.0
 10
316.800000
 20
-89.147256
 30
0.0
 10
316.800000
 20
-88.660176
 30
0.0
  0
SPLINE
  5
128
100
AcDbEntity
  8
0
 62
7
100
AcDbSpline
 70
8
 71
3
 72
8
 73
4
 74
0
 40
0
 40
0
 40
0
 40
0
 40
1
 40
1
 40
1
 40
1
 10
316.800000
 20
-88.660176
 30
0.0
 10
316.800000
 20
-88.173104
 30
0.0
 10
316.260000
 20
-87.981800
 30
0.0
 10
315.600000
 20
-88.235072
 30
0.0
  0
SPLINE
  5
129
100
AcDbEntity
  8
0
 62
7
100
AcDbSpline
 70
8
 71
3
 72
8
 73
4
 74
0
 40
0
 40
0
 40
0
 40
0
 40
1
 40
1
 40
1
 40
1
 10
315.600000
 20
-88.235072
 30
0.0
 10
314.940000
 20
-88.488336
 30
0.0
 10
314.400000
 20
-88.321816
 30
0.0
 10
314.400000
 20
-87.865016
 30
0.0
  0
SPLINE
  5
12a
100
AcDbEntity
  8
0
 62
7
100
AcDbSpline
 70
8
 71
3
 72
8
 73
4
 74
0
 40
0
 40
0
 40
0
 40
0
 40
1
 40
1
 40
1
 40
1
 10
314.400000
 20
-87.865016
 30
0.0
 10
314.400000
 20
-87.408224
 30
0.0
 10
315.210000
 20
-87.149528
 30
0.0
 10
316.200000
 20
-87.290128
 30
0.0
  0
SPLINE
  5
12b
100
AcDbEntity
  8
0
 62
7
100
AcDbSpline
 70
8
 71
3
 72
8
 73
4
 74
0
 40
0
 40
0
 40
0
 40
0
 40
1
 40
1
 40
1
 40
1
 10
316.200000
 20
-87.290128
 30
0.0
 10
317.579600
 20
-87.486064
 30
0.0
 10
318.058552
 20
-88.153008
 30
0.0
 10
318.250688
 20
-90.145768
 30
0.0
  0
SPLINE
  5
12c
100
AcDbEntity
  8
0
 62
7
100
AcDbSpline
 70
8
 71
3
 72
8
 73
4
 74
0
 40
0
 40
0
 40
0
 40
0
 40
1
 40
1
 40
1
 40
1
 10
318.250688
 20
-90.145768
 30
0.0
 10
318.473216
 20
-92.453704
 30
0.0
 10
318.276288
 20
-92.745768
 30
0.0
 10
316.497904
 20
-92.745768
 30
0.0
  0
SPLINE
  5
12d
100
AcDbEntity
  8
0
 62
7
100
AcDbSpline
 70
8
 71
3
 72
8
 73
4
 74
0
 40
0
 40
0
 40
0
 40
0
 40
1
 40
1
 40
1
 40
1
 10
316.497904
 20
-92.745768
 30
0.0
 10
315.395992
 20
-92.745768
 30
0.0
 10
314.271936
 20
-92.385768
 30
0.0
 10
314.000000
 20
-91.945768
 30
0.0
  0
LWPOLYLINE
  5
12e
100
AcDbEntity
  8
0
 62
7
100
AcDbPolyline
 90
2
 70
1
 10
312.201728
 20
-89.945768
 30
0.0
 10
312.201744
 20
-89.945768
 30
0.0
  0
SPLINE
  5
12f
100
AcDbEntity
  8
0
 62
7
100
AcDbSpline
 70
8
 71
3
 72
8
 73
4
 74
0
 40
0
 40
0
 40
0
 40
0
 40
1
 40
1
 40
1
 40
1
 10
317.200000
 20
-91.145768
 30
0.0
 10
317.471936
 20
-90.705768
 30
0.0
 10
317.133200
 20
-90.345768
 30
0.0
 10
316.447216
 20
-90.345768
 30
0.0
  0
SPLINE
  5
130
100
AcDbEntity
  8
0
 62
7
100
AcDbSpline
 70
8
 71
3
 72
8
 73
4
 74
0
 40
0
 40
0
 40
0
 40
0
 40
1
 40
1
 40
1
 40
1
 10
316.447216
 20
-90.345768
 30
0.0
 10
315.761248
 20
-90.345768
 30
0.0
 10
315.200000
 20
-90.705768
 30
0.0
 10
315.200000
 20
-91.145768
 30
0.0
  0
SPLINE
  5
131
100
AcDbEntity
  8
0
 62
7
100
AcDbSpline
 70
8
 71
3
 72
8
 73
4
 74
0
 40
0
 40
0
 40
0
 40
0
 40
1
 40
1
 40
1
 40
1
 10
315.200000
 20
-91.145768
 30
0.0
 10
315.200000
 20
-91.585768
 30
0.0
 10
315.538752
 20
-91.945768
 30
0.0
 10
315.952784
 20
-91.945768
 30
0.0
  0
SPLINE
  5
132
100
AcDbEntity
  8
0
 62
7
100
AcDbSpline
 70
8
 71
3
 72
8
 73
4
 74
0
 40
0
 40
0
 40
0
 40
0
 40
1
 40
1
 40
1
 40
1
 10
315.952784
 20
-91.945768
 30
0.0
 10
316.366816
 20
-91.945768
 30
0.0
 10
316.928064
 20
-91.585768
 30
0.0
 10
317.200000
 20
-91.145768
 30
0.0
  0
LWPOLYLINE
  5
133
100
AcDbEntity
  8
0
 62
7
100
AcDbPolyline
 90
2
 70
1
 10
314.000000
 20
-91.945768
 30
0.0
 10
314.000000
 20
-91.945768
 30
0.0
  0
SPLINE
  5
134
100
AcDbEntity
  8
0
 62
7
100
AcDbSpline
 70
8
 71
3
 72
8
 73
4
 74
0
 40
0
 40
0
 40
0
 40
0
 40
1
 40
1
 40
1
 40
1
 10
319.200000
 20
-92.076304
 30
0.0
 10
319.200000
 20
-91.646896
 30
0.0
 10
320.010000
 20
-91.472504
 30
0.0
 10
321.000000
 20
-91.688776
 30
0.0
  0
LWPOLYLINE
  5
135
100
AcDbEntity
  8
0
 62
7
100
AcDbPolyline
 90
2
 70
1
 10
317.200000
 20
-91.145768
 30
0.0
 10
317.200000
 20
-91.145768
 30
0.0
  0
SPLINE
  5
136
100
AcDbEntity
  8
0
 62
7
100
AcDbSpline
 70
8
 71
3
 72
8
 73
4
 74
0
 40
0
 40
0
 40
0
 40
0
 40
1
 40
1
 40
1
 40
1
 10
320.884944
 20
-90.523648
 30
0.0
 10
319.821920
 20
-89.658632
 30
0.0
 10
319.220048
 20
-88.560544
 30
0.0
 10
319.532160
 20
-88.055536
 30
0.0
  0
SPLINE
  5
137
100
AcDbEntity
  8
0
 62
7
100
AcDbSpline
 70
8
 71
3
 72
8
 73
4
 74
0
 40
0
 40
0
 40
0
 40
0
 40
1
 40
1
 40
1
 40
1
 10
319.532160
 20
-88.055536
 30
0.0
 10
320.249808
 20
-86.894360
 30
0.0
 10
322.141720
 20
-86.880648
 30
0.0
 10
322.852968
 20
-88.031456
 30
0.0
  0
SPLINE
  5
138
100
AcDbEntity
  8
0
 62
7
100
AcDbSpline
 70
8
 71
3
 72
8
 73
4
 74
0
 40
0
 40
0
 40
0
 40
0
 40
1
 40
1
 40
1
 40
1
 10
322.852968
 20
-88.031456
 30
0.0
 10
323.221328
 20
-88.627480
 30
0.0
 10
322.844328
 20
-88.740672
 30
0.0
 10
321.700184
 20
-88.377552
 30
0.0
  0
SPLINE
  5
139
100
AcDbEntity
  8
0
 62
7
100
AcDbSpline
 70
8
 71
3
 72
8
 73
4
 74
0
 40
0
 40
0
 40
0
 40
0
 40
1
 40
1
 40
1
 40
1
 10
321.700184
 20
-88.377552
 30
0.0
 10
320.765080
 20
-88.080776
 30
0.0
 10
320.000000
 20
-88.180216
 30
0.0
 10
320.000000
 20
-88.598552
 30
0.0
  0
SPLINE
  5
13a
100
AcDbEntity
  8
0
 62
7
100
AcDbSpline
 70
8
 71
3
 72
8
 73
4
 74
0
 40
0
 40
0
 40
0
 40
0
 40
1
 40
1
 40
1
 40
1
 10
320.000000
 20
-88.598552
 30
0.0
 10
320.000000
 20
-89.016888
 30
0.0
 10
320.757928
 20
-89.557360
 30
0.0
 10
321.684288
 20
-89.799608
 30
0.0
  0
SPLINE
  5
13b
100
AcDbEntity
  8
0
 62
7
100
AcDbSpline
 70
8
 71
3
 72
8
 73
4
 74
0
 40
0
 40
0
 40
0
 40
0
 40
1
 40
1
 40
1
 40
1
 10
321.684288
 20
-89.799608
 30
0.0
 10
322.610640
 20
-90.041856
 30
0.0
 10
323.212440
 20
-90.713840
 30
0.0
 10
323.021624
 20
-91.292912
 30
0.0
  0
SPLINE
  5
13c
100
AcDbEntity
  8
0
 62
7
100
AcDbSpline
 70
8
 71
3
 72
8
 73
4
 74
0
 40
0
 40
0
 40
0
 40
0
 40
1
 40
1
 40
1
 40
1
 10
323.021624
 20
-91.292912
 30
0.0
 10
322.615448
 20
-92.525496
 30
0.0
 10
319.200000
 20
-93.225624
 30
0.0
 10
319.200000
 20
-92.076304
 30
0.0
  0
LWPOLYLINE
  5
13d
100
AcDbEntity
  8
0
 62
7
100
AcDbPolyline
 90
3
 70
1
 10
321.000000
 20
-91.688776
 30
0.0
 10
322.800000
 20
-92.081984
 30
0.0
 10
320.884944
 20
-90.523648
 30
0.0
  0
SPLINE
  5
13e
100
AcDbEntity
  8
0
 62
7
100
AcDbSpline
 70
8
 71
3
 72
8
 73
4
 74
0
 40
0
 40
0
 40
0
 40
0
 40
1
 40
1
 40
1
 40
1
 10
324.000000
 20
-89.498552
 30
0.0
 10
324.000000
 20
-87.712584
 30
0.0
 10
324.299976
 20
-86.436736
 30
0.0
 10
324.666616
 20
-86.663328
 30
0.0
  0
SPLINE
  5
13f
100
AcDbEntity
  8
0
 62
7
100
AcDbSpline
 70
8
 71
3
 72
8
 73
4
 74
0
 40
0
 40
0
 40
0
 40
0
 40
1
 40
1
 40
1
 40
1
 10
324.666616
 20
-86.663328
 30
0.0
 10
325.033256
 20
-86.889928
 30
0.0
 10
325.172392
 20
-88.171176
 30
0.0
 10
324.975816
 20
-89.510544
 30
0.0
  0
SPLINE
  5
140
100
AcDbEntity
  8
0
 62
7
100
AcDbSpline
 70
8
 71
3
 72
8
 73
4
 74
0
 40
0
 40
0
 40
0
 40
0
 40
1
 40
1
 40
1
 40
1
 10
324.975816
 20
-89.510544
 30
0.0
 10
324.760120
 20
-90.980168
 30
0.0
 10
324.971816
 20
-91.945768
 30
0.0
 10
325.509200
 20
-91.945768
 30
0.0
  0
SPLINE
  5
141
100
AcDbEntity
  8
0
 62
7
100
AcDbSpline
 70
8
 71
3
 72
8
 73
4
 74
0
 40
0
 40
0
 40
0
 40
0
 40
1
 40
1
 40
1
 40
1
 10
325.509200
 20
-91.945768
 30
0.0
 10
325.999144
 20
-91.945768
 30
0.0
 10
326.445000
 20
-91.405768
 30
0.0
 10
326.500000
 20
-90.745768
 30
0.0
  0
SPLINE
  5
142
100
AcDbEntity
  8
0
 62
7
100
AcDbSpline
 70
8
 71
3
 72
8
 73
4
 74
0
 40
0
 40
0
 40
0
 40
0
 40
1
 40
1
 40
1
 40
1
 10
326.500000
 20
-90.745768
 30
0.0
 10
326.555040
 20
-90.085768
 30
0.0
 10
326.645000
 20
-89.100696
 30
0.0
 10
326.700000
 20
-88.556728
 30
0.0
  0
SPLINE
  5
143
100
AcDbEntity
  8
0
 62
7
100
AcDbSpline
 70
8
 71
3
 72
8
 73
4
 74
0
 40
0
 40
0
 40
0
 40
0
 40
1
 40
1
 40
1
 40
1
 10
326.700000
 20
-88.556728
 30
0.0
 10
326.755040
 20
-88.012752
 30
0.0
 10
327.520000
 20
-87.437808
 30
0.0
 10
328.400000
 20
-87.279072
 30
0.0
  0
SPLINE
  5
144
100
AcDbEntity
  8
0
 62
7
100
AcDbSpline
 70
8
 71
3
 72
8
 73
4
 74
0
 40
0
 40
0
 40
0
 40
0
 40
1
 40
1
 40
1
 40
1
 10
328.400000
 20
-87.279072
 30
0.0
 10
329.694056
 20
-87.045648
 30
0.0
 10
329.808784
 20
-87.188880
 30
0.0
 10
329.000000
 20
-88.028120
 30
0.0
  0
SPLINE
  5
145
100
AcDbEntity
  8
0
 62
7
100
AcDbSpline
 70
8
 71
3
 72
8
 73
4
 74
0
 40
0
 40
0
 40
0
 40
0
 40
1
 40
1
 40
1
 40
1
 10
329.000000
 20
-88.028120
 30
0.0
 10
328.450000
 20
-88.598824
 30
0.0
 10
328.000000
 20
-89.893768
 30
0.0
 10
328.000000
 20
-90.905768
 30
0.0
  0
SPLINE
  5
146
100
AcDbEntity
  8
0
 62
7
100
AcDbSpline
 70
8
 71
3
 72
8
 73
4
 74
0
 40
0
 40
0
 40
0
 40
0
 40
1
 40
1
 40
1
 40
1
 10
328.000000
 20
-90.905768
 30
0.0
 10
328.000000
 20
-92.335104
 30
0.0
 10
327.553624
 20
-92.745768
 30
0.0
 10
326.000000
 20
-92.745768
 30
0.0
  0
SPLINE
  5
147
100
AcDbEntity
  8
0
 62
7
100
AcDbSpline
 70
8
 71
3
 72
8
 73
4
 74
0
 40
0
 40
0
 40
0
 40
0
 40
1
 40
1
 40
1
 40
1
 10
326.000000
 20
-92.745768
 30
0.0
 10
324.195152
 20
-92.745768
 30
0.0
 10
324.000000
 20
-92.428912
 30
0.0
 10
324.000000
 20
-89.498552
 30
0.0
  0
LWPOLYLINE
  5
148
100
AcDbEntity
  8
0
 62
7
100
AcDbPolyline
 90
2
 70
1
 10
319.200000
 20
-92.076304
 30
0.0
 10
319.200000
 20
-92.076304
 30
0.0
  0
SPLINE
  5
149
100
AcDbEntity
  8
0
 62
7
100
AcDbSpline
 70
8
 71
3
 72
8
 73
4
 74
0
 40
0
 40
0
 40
0
 40
0
 40
1
 40
1
 40
1
 40
1
 10
329.869104
 20
-91.493136
 30
0.0
 10
329.175704
 20
-89.686160
 30
0.0
 10
330.595312
 20
-87.545768
 30
0.0
 10
332.487192
 20
-87.545768
 30
0.0
  0
SPLINE
  5
14a
100
AcDbEntity
  8
0
 62
7
100
AcDbSpline
 70
8
 71
3
 72
8
 73
4
 74
0
 40
0
 40
0
 40
0
 40
0
 40
1
 40
1
 40
1
 40
1
 10
332.487192
 20
-87.545768
 30
0.0
 10
334.884544
 20
-87.545768
 30
0.0
 10
334.613512
 20
-92.258648
 30
0.0
 10
332.196424
 20
-92.601880
 30
0.0
  0
SPLINE
  5
14b
100
AcDbEntity
  8
0
 62
7
100
AcDbSpline
 70
8
 71
3
 72
8
 73
4
 74
0
 40
0
 40
0
 40
0
 40
0
 40
1
 40
1
 40
1
 40
1
 10
332.196424
 20
-92.601880
 30
0.0
 10
331.064960
 20
-92.762544
 30
0.0
 10
330.197672
 20
-92.349368
 30
0.0
 10
329.869104
 20
-91.493136
 30
0.0
  0
LWPOLYLINE
  5
14c
100
AcDbEntity
  8
0
 62
7
100
AcDbPolyline
 90
2
 70
1
 10
324.000000
 20
-89.498552
 30
0.0
 10
324.000000
 20
-89.498552
 30
0.0
  0
SPLINE
  5
14d
100
AcDbEntity
  8
0
 62
7
100
AcDbSpline
 70
8
 71
3
 72
8
 73
4
 74
0
 40
0
 40
0
 40
0
 40
0
 40
1
 40
1
 40
1
 40
1
 10
333.331336
 20
-90.691992
 30
0.0
 10
333.998104
 20
-88.954424
 30
0.0
 10
332.305384
 20
-87.320384
 30
0.0
 10
331.093776
 20
-88.531992
 30
0.0
  0
SPLINE
  5
14e
100
AcDbEntity
  8
0
 62
7
100
AcDbSpline
 70
8
 71
3
 72
8
 73
4
 74
0
 40
0
 40
0
 40
0
 40
0
 40
1
 40
1
 40
1
 40
1
 10
331.093776
 20
-88.531992
 30
0.0
 10
330.069744
 20
-89.556024
 30
0.0
 10
330.704136
 20
-91.945768
 30
0.0
 10
332.000000
 20
-91.945768
 30
0.0
  0
SPLINE
  5
14f
100
AcDbEntity
  8
0
 62
7
100
AcDbSpline
 70
8
 71
3
 72
8
 73
4
 74
0
 40
0
 40
0
 40
0
 40
0
 40
1
 40
1
 40
1
 40
1
 10
332.000000
 20
-91.945768
 30
0.0
 10
332.467616
 20
-91.945768
 30
0.0
 10
333.066720
 20
-91.381568
 30
0.0
 10
333.331336
 20
-90.691992
 30
0.0
  0
LWPOLYLINE
  5
150
100
AcDbEntity
  8
0
 62
7
100
AcDbPolyline
 90
2
 70
1
 10
329.869104
 20
-91.493136
 30
0.0
 10
329.869104
 20
-91.493136
 30
0.0
  0
SPLINE
  5
151
100
AcDbEntity
  8
0
 62
7
100
AcDbSpline
 70
8
 71
3
 72
8
 73
4
 74
0
 40
0
 40
0
 40
0
 40
0
 40
1
 40
1
 40
1
 40
1
 10
335.507232
 20
-91.592496
 30
0.0
 10
334.205776
 20
-88.200968
 30
0.0
 10
337.511640
 20
-85.591040
 30
0.0
 10
339.174168
 20
-88.697504
 30
0.0
  0
SPLINE
  5
152
100
AcDbEntity
  8
0
 62
7
100
AcDbSpline
 70
8
 71
3
 72
8
 73
4
 74
0
 40
0
 40
0
 40
0
 40
0
 40
1
 40
1
 40
1
 40
1
 10
339.174168
 20
-88.697504
 30
0.0
 10
339.957080
 20
-90.160384
 30
0.0
 10
339.828184
 20
-90.345768
 30
0.0
 10
338.028144
 20
-90.345768
 30
0.0
  0
SPLINE
  5
153
100
AcDbEntity
  8
0
 62
7
100
AcDbSpline
 70
8
 71
3
 72
8
 73
4
 74
0
 40
0
 40
0
 40
0
 40
0
 40
1
 40
1
 40
1
 40
1
 10
338.028144
 20
-90.345768
 30
0.0
 10
336.912664
 20
-90.345768
 30
0.0
 10
336.000000
 20
-90.747752
 30
0.0
 10
336.000000
 20
-91.239072
 30
0.0
  0
SPLINE
  5
154
100
AcDbEntity
  8
0
 62
7
100
AcDbSpline
 70
8
 71
3
 72
8
 73
4
 74
0
 40
0
 40
0
 40
0
 40
0
 40
1
 40
1
 40
1
 40
1
 10
336.000000
 20
-91.239072
 30
0.0
 10
336.000000
 20
-91.738512
 30
0.0
 10
336.705448
 20
-91.947896
 30
0.0
 10
337.600000
 20
-91.713968
 30
0.0
  0
SPLINE
  5
155
100
AcDbEntity
  8
0
 62
7
100
AcDbSpline
 70
8
 71
3
 72
8
 73
4
 74
0
 40
0
 40
0
 40
0
 40
0
 40
1
 40
1
 40
1
 40
1
 10
337.600000
 20
-91.713968
 30
0.0
 10
338.480000
 20
-91.483840
 30
0.0
 10
339.200000
 20
-91.621856
 30
0.0
 10
339.200000
 20
-92.020664
 30
0.0
  0
SPLINE
  5
156
100
AcDbEntity
  8
0
 62
7
100
AcDbSpline
 70
8
 71
3
 72
8
 73
4
 74
0
 40
0
 40
0
 40
0
 40
0
 40
1
 40
1
 40
1
 40
1
 10
339.200000
 20
-92.020664
 30
0.0
 10
339.200000
 20
-93.212704
 30
0.0
 10
335.985960
 20
-92.840048
 30
0.0
 10
335.507232
 20
-91.592496
 30
0.0
  0
LWPOLYLINE
  5
157
100
AcDbEntity
  8
0
 62
7
100
AcDbPolyline
 90
2
 70
1
 10
333.331336
 20
-90.691992
 30
0.0
 10
333.331336
 20
-90.691992
 30
0.0
  0
SPLINE
  5
158
100
AcDbEntity
  8
0
 62
7
100
AcDbSpline
 70
8
 71
3
 72
8
 73
4
 74
0
 40
0
 40
0
 40
0
 40
0
 40
1
 40
1
 40
1
 40
1
 10
338.400000
 20
-88.745768
 30
0.0
 10
338.400000
 20
-88.305768
 30
0.0
 10
338.061248
 20
-87.945768
 30
0.0
 10
337.647216
 20
-87.945768
 30
0.0
  0
SPLINE
  5
159
100
AcDbEntity
  8
0
 62
7
100
AcDbSpline
 70
8
 71
3
 72
8
 73
4
 74
0
 40
0
 40
0
 40
0
 40
0
 40
1
 40
1
 40
1
 40
1
 10
337.647216
 20
-87.945768
 30
0.0
 10
337.233184
 20
-87.945768
 30
0.0
 10
336.671936
 20
-88.305768
 30
0.0
 10
336.400000
 20
-88.745768
 30
0.0
  0
SPLINE
  5
15a
100
AcDbEntity
  8
0
 62
7
100
AcDbSpline
 70
8
 71
3
 72
8
 73
4
 74
0
 40
0
 40
0
 40
0
 40
0
 40
1
 40
1
 40
1
 40
1
 10
336.400000
 20
-88.745768
 30
0.0
 10
336.128064
 20
-89.185768
 30
0.0
 10
336.466800
 20
-89.545768
 30
0.0
 10
337.152784
 20
-89.545768
 30
0.0
  0
SPLINE
  5
15b
100
AcDbEntity
  8
0
 62
7
100
AcDbSpline
 70
8
 71
3
 72
8
 73
4
 74
0
 40
0
 40
0
 40
0
 40
0
 40
1
 40
1
 40
1
 40
1
 10
337.152784
 20
-89.545768
 30
0.0
 10
337.838752
 20
-89.545768
 30
0.0
 10
338.400000
 20
-89.185768
 30
0.0
 10
338.400000
 20
-88.745768
 30
0.0
  0
LWPOLYLINE
  5
15c
100
AcDbEntity
  8
0
 62
7
100
AcDbPolyline
 90
2
 70
1
 10
335.507232
 20
-91.592496
 30
0.0
 10
335.507232
 20
-91.592496
 30
0.0
  0
SPLINE
  5
15d
100
AcDbEntity
  8
0
 62
7
100
AcDbSpline
 70
8
 71
3
 72
8
 73
4
 74
0
 40
0
 40
0
 40
0
 40
0
 40
1
 40
1
 40
1
 40
1
 10
340.375304
 20
-91.905808
 30
0.0
 10
339.973456
 20
-91.255608
 30
0.0
 10
340.312984
 20
-91.137296
 30
0.0
 10
341.499816
 20
-91.513968
 30
0.0
  0
SPLINE
  5
15e
100
AcDbEntity
  8
0
 62
7
100
AcDbSpline
 70
8
 71
3
 72
8
 73
4
 74
0
 40
0
 40
0
 40
0
 40
0
 40
1
 40
1
 40
1
 40
1
 10
341.499816
 20
-91.513968
 30
0.0
 10
342.508528
 20
-91.834128
 30
0.0
 10
343.200000
 20
-91.706304
 30
0.0
 10
343.200000
 20
-91.199680
 30
0.0
  0
SPLINE
  5
15f
100
AcDbEntity
  8
0
 62
7
100
AcDbSpline
 70
8
 71
3
 72
8
 73
4
 74
0
 40
0
 40
0
 40
0
 40
0
 40
1
 40
1
 40
1
 40
1
 10
343.200000
 20
-91.199680
 30
0.0
 10
343.200000
 20
-90.730024
 30
0.0
 10
342.660000
 20
-90.345768
 30
0.0
 10
342.000000
 20
-90.345768
 30
0.0
  0
SPLINE
  5
160
100
AcDbEntity
  8
0
 62
7
100
AcDbSpline
 70
8
 71
3
 72
8
 73
4
 74
0
 40
0
 40
0
 40
0
 40
0
 40
1
 40
1
 40
1
 40
1
 10
342.000000
 20
-90.345768
 30
0.0
 10
341.333336
 20
-90.345768
 30
0.0
 10
340.800000
 20
-89.634656
 30
0.0
 10
340.800000
 20
-88.745768
 30
0.0
  0
SPLINE
  5
161
100
AcDbEntity
  8
0
 62
7
100
AcDbSpline
 70
8
 71
3
 72
8
 73
4
 74
0
 40
0
 40
0
 40
0
 40
0
 40
1
 40
1
 40
1
 40
1
 10
340.800000
 20
-88.745768
 30
0.0
 10
340.800000
 20
-87.679104
 30
0.0
 10
341.333336
 20
-87.145768
 30
0.0
 10
342.400000
 20
-87.145768
 30
0.0
  0
SPLINE
  5
162
100
AcDbEntity
  8
0
 62
7
100
AcDbSpline
 70
8
 71
3
 72
8
 73
4
 74
0
 40
0
 40
0
 40
0
 40
0
 40
1
 40
1
 40
1
 40
1
 10
342.400000
 20
-87.145768
 30
0.0
 10
343.280000
 20
-87.145768
 30
0.0
 10
344.000000
 20
-87.494472
 30
0.0
 10
344.000000
 20
-87.920664
 30
0.0
  0
SPLINE
  5
163
100
AcDbEntity
  8
0
 62
7
100
AcDbSpline
 70
8
 71
3
 72
8
 73
4
 74
0
 40
0
 40
0
 40
0
 40
0
 40
1
 40
1
 40
1
 40
1
 10
344.000000
 20
-87.920664
 30
0.0
 10
344.000000
 20
-88.346848
 30
0.0
 10
343.460000
 20
-88.488336
 30
0.0
 10
342.800000
 20
-88.235072
 30
0.0
  0
SPLINE
  5
164
100
AcDbEntity
  8
0
 62
7
100
AcDbSpline
 70
8
 71
3
 72
8
 73
4
 74
0
 40
0
 40
0
 40
0
 40
0
 40
1
 40
1
 40
1
 40
1
 10
342.800000
 20
-88.235072
 30
0.0
 10
342.140000
 20
-87.981800
 30
0.0
 10
341.600000
 20
-88.131112
 30
0.0
 10
341.600000
 20
-88.566872
 30
0.0
  0
SPLINE
  5
165
100
AcDbEntity
  8
0
 62
7
100
AcDbSpline
 70
8
 71
3
 72
8
 73
4
 74
0
 40
0
 40
0
 40
0
 40
0
 40
1
 40
1
 40
1
 40
1
 10
341.600000
 20
-88.566872
 30
0.0
 10
341.600000
 20
-89.002632
 30
0.0
 10
342.357928
 20
-89.557360
 30
0.0
 10
343.284288
 20
-89.799608
 30
0.0
  0
SPLINE
  5
166
100
AcDbEntity
  8
0
 62
7
100
AcDbSpline
 70
8
 71
3
 72
8
 73
4
 74
0
 40
0
 40
0
 40
0
 40
0
 40
1
 40
1
 40
1
 40
1
 10
343.284288
 20
-89.799608
 30
0.0
 10
344.210640
 20
-90.041856
 30
0.0
 10
344.812440
 20
-90.713840
 30
0.0
 10
344.621624
 20
-91.292912
 30
0.0
  0
SPLINE
  5
167
100
AcDbEntity
  8
0
 62
7
100
AcDbSpline
 70
8
 71
3
 72
8
 73
4
 74
0
 40
0
 40
0
 40
0
 40
0
 40
1
 40
1
 40
1
 40
1
 10
344.621624
 20
-91.292912
 30
0.0
 10
344.169384
 20
-92.665288
 30
0.0
 10
341.116976
 20
-93.105864
 30
0.0
 10
340.375304
 20
-91.905808
 30
0.0
  0
LWPOLYLINE
  5
168
100
AcDbEntity
  8
0
 62
7
100
AcDbPolyline
 90
2
 70
1
 10
338.400000
 20
-88.745768
 30
0.0
 10
338.400000
 20
-88.745768
 30
0.0
  0
SPLINE
  5
169
100
AcDbEntity
  8
0
 62
7
100
AcDbSpline
 70
8
 71
3
 72
8
 73
4
 74
0
 40
0
 40
0
 40
0
 40
0
 40
1
 40
1
 40
1
 40
1
 10
348.094648
 20
-90.090128
 30
0.0
 10
348.009984
 20
-87.356760
 30
0.0
 10
348.189840
 20
-87.061448
 30
0.0
 10
349.800000
 20
-87.290128
 30
0.0
  0
SPLINE
  5
16a
100
AcDbEntity
  8
0
 62
7
100
AcDbSpline
 70
8
 71
3
 72
8
 73
4
 74
0
 40
0
 40
0
 40
0
 40
0
 40
1
 40
1
 40
1
 40
1
 10
349.800000
 20
-87.290128
 30
0.0
 10
351.188824
 20
-87.487368
 30
0.0
 10
351.617040
 20
-88.094008
 30
0.0
 10
351.674584
 20
-89.945768
 30
0.0
  0
SPLINE
  5
16b
100
AcDbEntity
  8
0
 62
7
100
AcDbSpline
 70
8
 71
3
 72
8
 73
4
 74
0
 40
0
 40
0
 40
0
 40
0
 40
1
 40
1
 40
1
 40
1
 10
351.674584
 20
-89.945768
 30
0.0
 10
351.748104
 20
-92.310304
 30
0.0
 10
351.744344
 20
-92.312544
 30
0.0
 10
351.420272
 20
-90.097208
 30
0.0
  0
SPLINE
  5
16c
100
AcDbEntity
  8
0
 62
7
100
AcDbSpline
 70
8
 71
3
 72
8
 73
4
 74
0
 40
0
 40
0
 40
0
 40
0
 40
1
 40
1
 40
1
 40
1
 10
351.420272
 20
-90.097208
 30
0.0
 10
351.006520
 20
-87.268456
 30
0.0
 10
349.368880
 20
-87.697792
 30
0.0
 10
348.694648
 20
-90.811768
 30
0.0
  0
SPLINE
  5
16d
100
AcDbEntity
  8
0
 62
7
100
AcDbSpline
 70
8
 71
3
 72
8
 73
4
 74
0
 40
0
 40
0
 40
0
 40
0
 40
1
 40
1
 40
1
 40
1
 10
348.694648
 20
-90.811768
 30
0.0
 10
348.222664
 20
-92.991696
 30
0.0
 10
348.183056
 20
-92.944064
 30
0.0
 10
348.094648
 20
-90.090128
 30
0.0
  0
LWPOLYLINE
  5
16e
100
AcDbEntity
  8
0
 62
7
100
AcDbPolyline
 90
2
 70
1
 10
340.375304
 20
-91.905808
 30
0.0
 10
340.375304
 20
-91.905808
 30
0.0
  0
SPLINE
  5
16f
100
AcDbEntity
  8
0
 62
7
100
AcDbSpline
 70
8
 71
3
 72
8
 73
4
 74
0
 40
0
 40
0
 40
0
 40
0
 40
1
 40
1
 40
1
 40
1
 10
353.828808
 20
-89.145768
 30
0.0
 10
353.835208
 20
-86.945768
 30
0.0
 10
353.990184
 20
-86.140720
 30
0.0
 10
354.174064
 20
-87.356768
 30
0.0
  0
SPLINE
  5
170
100
AcDbEntity
  8
0
 62
7
100
AcDbSpline
 70
8
 71
3
 72
8
 73
4
 74
0
 40
0
 40
0
 40
0
 40
0
 40
1
 40
1
 40
1
 40
1
 10
354.174064
 20
-87.356768
 30
0.0
 10
354.357952
 20
-88.572816
 30
0.0
 10
354.353032
 20
-90.372816
 30
0.0
 10
354.163184
 20
-91.356768
 30
0.0
  0
SPLINE
  5
171
100
AcDbEntity
  8
0
 62
7
100
AcDbSpline
 70
8
 71
3
 72
8
 73
4
 74
0
 40
0
 40
0
 40
0
 40
0
 40
1
 40
1
 40
1
 40
1
 10
354.163184
 20
-91.356768
 30
0.0
 10
353.973296
 20
-92.340720
 30
0.0
 10
353.822848
 20
-91.345808
 30
0.0
 10
353.828848
 20
-89.145768
 30
0.0
  0
LWPOLYLINE
  5
172
100
AcDbEntity
  8
0
 62
7
100
AcDbPolyline
 90
2
 70
1
 10
348.094648
 20
-90.090128
 30
0.0
 10
348.094648
 20
-90.090128
 30
0.0
  0
SPLINE
  5
173
100
AcDbEntity
  8
0
 62
7
100
AcDbSpline
 70
8
 71
3
 72
8
 73
4
 74
0
 40
0
 40
0
 40
0
 40
0
 40
1
 40
1
 40
1
 40
1
 10
301.600000
 20
-89.192984
 30
0.0
 10
301.600000
 20
-88.558952
 30
0.0
 10
301.960000
 20
-87.817704
 30
0.0
 10
302.400000
 20
-87.545768
 30
0.0
  0
SPLINE
  5
174
100
AcDbEntity
  8
0
 62
7
100
AcDbSpline
 70
8
 71
3
 72
8
 73
4
 74
0
 40
0
 40
0
 40
0
 40
0
 40
1
 40
1
 40
1
 40
1
 10
302.400000
 20
-87.545768
 30
0.0
 10
302.840000
 20
-87.273832
 30
0.0
 10
303.200000
 20
-87.792584
 30
0.0
 10
303.200000
 20
-88.698552
 30
0.0
  0
SPLINE
  5
175
100
AcDbEntity
  8
0
 62
7
100
AcDbSpline
 70
8
 71
3
 72
8
 73
4
 74
0
 40
0
 40
0
 40
0
 40
0
 40
1
 40
1
 40
1
 40
1
 10
303.200000
 20
-88.698552
 30
0.0
 10
303.200000
 20
-89.604520
 30
0.0
 10
302.840000
 20
-90.345768
 30
0.0
 10
302.400000
 20
-90.345768
 30
0.0
  0
SPLINE
  5
176
100
AcDbEntity
  8
0
 62
7
100
AcDbSpline
 70
8
 71
3
 72
8
 73
4
 74
0
 40
0
 40
0
 40
0
 40
0
 40
1
 40
1
 40
1
 40
1
 10
302.400000
 20
-90.345768
 30
0.0
 10
301.960000
 20
-90.345768
 30
0.0
 10
301.600000
 20
-89.827016
 30
0.0
 10
301.600000
 20
-89.192984
 30
0.0
  0
LWPOLYLINE
  5
177
100
AcDbEntity
  8
0
 62
7
100
AcDbPolyline
 90
2
 70
1
 10
353.828848
 20
-89.145768
 30
0.0
 10
353.828808
 20
-89.145768
 30
0.0
  0
SPLINE
  5
178
100
AcDbEntity
  8
0
 62
7
100
AcDbSpline
 70
8
 71
3
 72
8
 73
4
 74
0
 40
0
 40
0
 40
0
 40
0
 40
1
 40
1
 40
1
 40
1
 10
72.283784
 20
-83.531400
 30
0.0
 10
71.527919
 20
-81.561648
 30
0.0
 10
73.487271
 20
-77.893736
 30
0.0
 10
79.521678
 20
-69.982040
 30
0.0
  0
SPLINE
  5
179
100
AcDbEntity
  8
0
 62
7
100
AcDbSpline
 70
8
 71
3
 72
8
 73
4
 74
0
 40
0
 40
0
 40
0
 40
0
 40
1
 40
1
 40
1
 40
1
 10
79.521678
 20
-69.982040
 30
0.0
 10
91.468216
 20
-54.318968
 30
0.0
 10
103.653072
 20
-41.798944
 30
0.0
 10
110.285248
 20
-38.372288
 30
0.0
  0
SPLINE
  5
17a
100
AcDbEntity
  8
0
 62
7
100
AcDbSpline
 70
8
 71
3
 72
8
 73
4
 74
0
 40
0
 40
0
 40
0
 40
0
 40
1
 40
1
 40
1
 40
1
 10
110.285248
 20
-38.372288
 30
0.0
 10
112.588744
 20
-37.182128
 30
0.0
 10
112.271768
 20
-34.411760
 30
0.0
 10
109.292000
 20
-29.691512
 30
0.0
  0
SPLINE
  5
17b
100
AcDbEntity
  8
0
 62
7
100
AcDbSpline
 70
8
 71
3
 72
8
 73
4
 74
0
 40
0
 40
0
 40
0
 40
0
 40
1
 40
1
 40
1
 40
1
 10
109.292000
 20
-29.691512
 30
0.0
 10
108.215520
 20
-27.986256
 30
0.0
 10
105.728392
 20
-22.845856
 30
0.0
 10
103.765040
 20
-18.268408
 30
0.0
  0
SPLINE
  5
17c
100
AcDbEntity
  8
0
 62
7
100
AcDbSpline
 70
8
 71
3
 72
8
 73
4
 74
0
 40
0
 40
0
 40
0
 40
0
 40
1
 40
1
 40
1
 40
1
 10
103.765040
 20
-18.268408
 30
0.0
 10
101.801696
 20
-13.690952
 30
0.0
 10
97.852744
 20
-4.545768
 30
0.0
 10
94.989584
 20
2.054232
 30
0.0
  0
SPLINE
  5
17d
100
AcDbEntity
  8
0
 62
7
100
AcDbSpline
 70
8
 71
3
 72
8
 73
4
 74
0
 40
0
 40
0
 40
0
 40
0
 40
1
 40
1
 40
1
 40
1
 10
94.989584
 20
2.054232
 30
0.0
 10
84.849496
 20
25.428664
 30
0.0
 10
77.188588
 20
48.098896
 30
0.0
 10
73.497362
 20
65.654232
 30
0.0
  0
SPLINE
  5
17e
100
AcDbEntity
  8
0
 62
7
100
AcDbSpline
 70
8
 71
3
 72
8
 73
4
 74
0
 40
0
 40
0
 40
0
 40
0
 40
1
 40
1
 40
1
 40
1
 10
73.497362
 20
65.654232
 30
0.0
 10
72.048678
 20
72.544120
 30
0.0
 10
71.719369
 20
76.821144
 30
0.0
 10
71.665578
 20
89.445208
 30
0.0
  0
SPLINE
  5
17f
100
AcDbEntity
  8
0
 62
7
100
AcDbSpline
 70
8
 71
3
 72
8
 73
4
 74
0
 40
0
 40
0
 40
0
 40
0
 40
1
 40
1
 40
1
 40
1
 10
71.665578
 20
89.445208
 30
0.0
 10
71.591786
 20
106.764224
 30
0.0
 10
71.548714
 20
106.821608
 30
0.0
 10
66.404906
 20
96.454232
 30
0.0
  0
SPLINE
  5
180
100
AcDbEntity
  8
0
 62
7
100
AcDbSpline
 70
8
 71
3
 72
8
 73
4
 74
0
 40
0
 40
0
 40
0
 40
0
 40
1
 40
1
 40
1
 40
1
 10
66.404906
 20
96.454232
 30
0.0
 10
60.783065
 20
85.123376
 30
0.0
 10
62.329883
 20
74.043952
 30
0.0
 10
74.855019
 20
35.928448
 30
0.0
  0
SPLINE
  5
181
100
AcDbEntity
  8
0
 62
7
100
AcDbSpline
 70
8
 71
3
 72
8
 73
4
 74
0
 40
0
 40
0
 40
0
 40
0
 40
1
 40
1
 40
1
 40
1
 10
74.855019
 20
35.928448
 30
0.0
 10
78.564757
 20
24.639264
 30
0.0
 10
81.600000
 20
14.829264
 30
0.0
 10
81.600000
 20
14.128448
 30
0.0
  0
SPLINE
  5
182
100
AcDbEntity
  8
0
 62
7
100
AcDbSpline
 70
8
 71
3
 72
8
 73
4
 74
0
 40
0
 40
0
 40
0
 40
0
 40
1
 40
1
 40
1
 40
1
 10
81.600000
 20
14.128448
 30
0.0
 10
81.600000
 20
6.960184
 30
0.0
 10
58.535286
 20
30.943880
 30
0.0
 10
45.530814
 20
51.634752
 30
0.0
  0
SPLINE
  5
183
100
AcDbEntity
  8
0
 62
7
100
AcDbSpline
 70
8
 71
3
 72
8
 73
4
 74
0
 40
0
 40
0
 40
0
 40
0
 40
1
 40
1
 40
1
 40
1
 10
45.530814
 20
51.634752
 30
0.0
 10
33.585948
 20
70.639736
 30
0.0
 10
29.748421
 20
85.379096
 30
0.0
 10
33.228480
 20
98.886152
 30
0.0
  0
SPLINE
  5
184
100
AcDbEntity
  8
0
 62
7
100
AcDbSpline
 70
8
 71
3
 72
8
 73
4
 74
0
 40
0
 40
0
 40
0
 40
0
 40
1
 40
1
 40
1
 40
1
 10
33.228480
 20
98.886152
 30
0.0
 10
37.377294
 20
114.988824
 30
0.0
 10
58.971194
 20
146.455368
 30
0.0
 10
89.313144
 20
180.612488
 30
0.0
  0
SPLINE
  5
185
100
AcDbEntity
  8
0
 62
7
100
AcDbSpline
 70
8
 71
3
 72
8
 73
4
 74
0
 40
0
 40
0
 40
0
 40
0
 40
1
 40
1
 40
1
 40
1
 10
89.313144
 20
180.612488
 30
0.0
 10
91.735592
 20
183.339536
 30
0.0
 10
95.443336
 20
188.019536
 30
0.0
 10
97.552576
 20
191.012488
 30
0.0
  0
SPLINE
  5
186
100
AcDbEntity
  8
0
 62
7
100
AcDbSpline
 70
8
 71
3
 72
8
 73
4
 74
0
 40
0
 40
0
 40
0
 40
0
 40
1
 40
1
 40
1
 40
1
 10
97.552576
 20
191.012488
 30
0.0
 10
99.661816
 20
194.005448
 30
0.0
 10
103.413608
 20
198.554776
 30
0.0
 10
105.889896
 20
201.122112
 30
0.0
  0
LWPOLYLINE
  5
187
100
AcDbEntity
  8
0
 62
7
100
AcDbPolyline
 90
2
 70
1
 10
301.600000
 20
-89.192984
 30
0.0
 10
301.600000
 20
-89.192984
 30
0.0
  0
SPLINE
  5
188
100
AcDbEntity
  8
0
 62
7
100
AcDbSpline
 70
8
 71
3
 72
8
 73
4
 74
0
 40
0
 40
0
 40
0
 40
0
 40
1
 40
1
 40
1
 40
1
 10
105.796120
 20
210.364808
 30
0.0
 10
100.535248
 20
215.601296
 30
0.0
 10
90.626600
 20
220.962048
 30
0.0
 10
72.399997
 20
228.432696
 30
0.0
  0
SPLINE
  5
189
100
AcDbEntity
  8
0
 62
7
100
AcDbSpline
 70
8
 71
3
 72
8
 73
4
 74
0
 40
0
 40
0
 40
0
 40
0
 40
1
 40
1
 40
1
 40
1
 10
72.399997
 20
228.432696
 30
0.0
 10
44.514197
 20
239.862416
 30
0.0
 10
38.881284
 20
243.052888
 30
0.0
 10
39.355980
 20
247.148760
 30
0.0
  0
SPLINE
  5
18a
100
AcDbEntity
  8
0
 62
7
100
AcDbSpline
 70
8
 71
3
 72
8
 73
4
 74
0
 40
0
 40
0
 40
0
 40
0
 40
1
 40
1
 40
1
 40
1
 10
39.355980
 20
247.148760
 30
0.0
 10
39.678758
 20
249.933816
 30
0.0
 10
43.897071
 20
252.007656
 30
0.0
 10
56.614107
 20
255.633360
 30
0.0
  0
SPLINE
  5
18b
100
AcDbEntity
  8
0
 62
7
100
AcDbSpline
 70
8
 71
3
 72
8
 73
4
 74
0
 40
0
 40
0
 40
0
 40
0
 40
1
 40
1
 40
1
 40
1
 10
56.614107
 20
255.633360
 30
0.0
 10
62.000410
 20
257.169024
 30
0.0
 10
67.755722
 20
259.123384
 30
0.0
 10
69.403690
 20
259.976368
 30
0.0
  0
SPLINE
  5
18c
100
AcDbEntity
  8
0
 62
7
100
AcDbSpline
 70
8
 71
3
 72
8
 73
4
 74
0
 40
0
 40
0
 40
0
 40
0
 40
1
 40
1
 40
1
 40
1
 10
69.403690
 20
259.976368
 30
0.0
 10
72.779763
 20
261.723824
 30
0.0
 10
78.269587
 20
267.264776
 30
0.0
 10
85.172112
 20
275.891632
 30
0.0
  0
SPLINE
  5
18d
100
AcDbEntity
  8
0
 62
7
100
AcDbSpline
 70
8
 71
3
 72
8
 73
4
 74
0
 40
0
 40
0
 40
0
 40
0
 40
1
 40
1
 40
1
 40
1
 10
85.172112
 20
275.891632
 30
0.0
 10
90.227888
 20
282.210408
 30
0.0
 10
94.297336
 20
285.052608
 30
0.0
 10
101.428640
 20
287.245608
 30
0.0
  0
SPLINE
  5
18e
100
AcDbEntity
  8
0
 62
7
100
AcDbSpline
 70
8
 71
3
 72
8
 73
4
 74
0
 40
0
 40
0
 40
0
 40
0
 40
1
 40
1
 40
1
 40
1
 10
101.428640
 20
287.245608
 30
0.0
 10
116.831896
 20
291.982360
 30
0.0
 10
126.773864
 20
289.103920
 30
0.0
 10
135.713240
 20
277.319392
 30
0.0
  0
SPLINE
  5
18f
100
AcDbEntity
  8
0
 62
7
100
AcDbSpline
 70
8
 71
3
 72
8
 73
4
 74
0
 40
0
 40
0
 40
0
 40
0
 40
1
 40
1
 40
1
 40
1
 10
135.713240
 20
277.319392
 30
0.0
 10
141.042600
 20
270.293840
 30
0.0
 10
148.739904
 20
255.439936
 30
0.0
 10
152.131880
 20
245.635456
 30
0.0
  0
SPLINE
  5
190
100
AcDbEntity
  8
0
 62
7
100
AcDbSpline
 70
8
 71
3
 72
8
 73
4
 74
0
 40
0
 40
0
 40
0
 40
0
 40
1
 40
1
 40
1
 40
1
 10
152.131880
 20
245.635456
 30
0.0
 10
154.500072
 20
238.790200
 30
0.0
 10
154.755640
 20
237.161120
 30
0.0
 10
154.764424
 20
228.854232
 30
0.0
  0
SPLINE
  5
191
100
AcDbEntity
  8
0
 62
7
100
AcDbSpline
 70
8
 71
3
 72
8
 73
4
 74
0
 40
0
 40
0
 40
0
 40
0
 40
1
 40
1
 40
1
 40
1
 10
154.764424
 20
228.854232
 30
0.0
 10
154.773464
 20
220.296328
 30
0.0
 10
154.568968
 20
219.069696
 30
0.0
 10
151.834272
 20
211.279032
 30
0.0
  0
LWPOLYLINE
  5
192
100
AcDbEntity
  8
0
 62
7
100
AcDbPolyline
 90
3
 70
1
 10
105.889896
 20
201.122112
 30
0.0
 10
110.392240
 20
205.789992
 30
0.0
 10
105.796120
 20
210.364808
 30
0.0
  0
SPLINE
  5
193
100
AcDbEntity
  8
0
 62
7
100
AcDbSpline
 70
8
 71
3
 72
8
 73
4
 74
0
 40
0
 40
0
 40
0
 40
0
 40
1
 40
1
 40
1
 40
1
 10
151.847192
 20
199.417472
 30
0.0
 10
153.471240
 20
197.499976
 30
0.0
 10
156.527168
 20
193.539112
 30
0.0
 10
158.638160
 20
190.615552
 30
0.0
  0
SPLINE
  5
194
100
AcDbEntity
  8
0
 62
7
100
AcDbSpline
 70
8
 71
3
 72
8
 73
4
 74
0
 40
0
 40
0
 40
0
 40
0
 40
1
 40
1
 40
1
 40
1
 10
158.638160
 20
190.615552
 30
0.0
 10
160.749144
 20
187.691992
 30
0.0
 10
163.875536
 20
183.762520
 30
0.0
 10
165.585688
 20
181.883400
 30
0.0
  0
SPLINE
  5
195
100
AcDbEntity
  8
0
 62
7
100
AcDbSpline
 70
8
 71
3
 72
8
 73
4
 74
0
 40
0
 40
0
 40
0
 40
0
 40
1
 40
1
 40
1
 40
1
 10
165.585688
 20
181.883400
 30
0.0
 10
167.295840
 20
180.004280
 30
0.0
 10
173.134744
 20
173.153984
 30
0.0
 10
178.561040
 20
166.660528
 30
0.0
  0
SPLINE
  5
196
100
AcDbEntity
  8
0
 62
7
100
AcDbSpline
 70
8
 71
3
 72
8
 73
4
 74
0
 40
0
 40
0
 40
0
 40
0
 40
1
 40
1
 40
1
 40
1
 10
178.561040
 20
166.660528
 30
0.0
 10
211.151520
 20
127.660616
 30
0.0
 10
224.000000
 20
105.686096
 30
0.0
 10
224.000000
 20
88.947136
 30
0.0
  0
SPLINE
  5
197
100
AcDbEntity
  8
0
 62
7
100
AcDbSpline
 70
8
 71
3
 72
8
 73
4
 74
0
 40
0
 40
0
 40
0
 40
0
 40
1
 40
1
 40
1
 40
1
 10
224.000000
 20
88.947136
 30
0.0
 10
224.000000
 20
77.907504
 30
0.0
 10
218.903256
 20
64.419784
 30
0.0
 10
209.000816
 20
49.254232
 30
0.0
  0
SPLINE
  5
198
100
AcDbEntity
  8
0
 62
7
100
AcDbSpline
 70
8
 71
3
 72
8
 73
4
 74
0
 40
0
 40
0
 40
0
 40
0
 40
1
 40
1
 40
1
 40
1
 10
209.000816
 20
49.254232
 30
0.0
 10
196.049192
 20
29.418848
 30
0.0
 10
174.400000
 20
7.425496
 30
0.0
 10
174.400000
 20
14.103360
 30
0.0
  0
SPLINE
  5
199
100
AcDbEntity
  8
0
 62
7
100
AcDbSpline
 70
8
 71
3
 72
8
 73
4
 74
0
 40
0
 40
0
 40
0
 40
0
 40
1
 40
1
 40
1
 40
1
 10
174.400000
 20
14.103360
 30
0.0
 10
174.400000
 20
14.790376
 30
0.0
 10
177.605928
 20
25.140376
 30
0.0
 10
181.524288
 20
37.103360
 30
0.0
  0
SPLINE
  5
19a
100
AcDbEntity
  8
0
 62
7
100
AcDbSpline
 70
8
 71
3
 72
8
 73
4
 74
0
 40
0
 40
0
 40
0
 40
0
 40
1
 40
1
 40
1
 40
1
 10
181.524288
 20
37.103360
 30
0.0
 10
190.105520
 20
63.302344
 30
0.0
 10
192.168144
 20
72.061520
 30
0.0
 10
192.297784
 20
82.854232
 30
0.0
  0
SPLINE
  5
19b
100
AcDbEntity
  8
0
 62
7
100
AcDbSpline
 70
8
 71
3
 72
8
 73
4
 74
0
 40
0
 40
0
 40
0
 40
0
 40
1
 40
1
 40
1
 40
1
 10
192.297784
 20
82.854232
 30
0.0
 10
192.387960
 20
90.361720
 30
0.0
 10
192.234664
 20
91.174360
 30
0.0
 10
189.807496
 20
96.054232
 30
0.0
  0
SPLINE
  5
19c
100
AcDbEntity
  8
0
 62
7
100
AcDbSpline
 70
8
 71
3
 72
8
 73
4
 74
0
 40
0
 40
0
 40
0
 40
0
 40
1
 40
1
 40
1
 40
1
 10
189.807496
 20
96.054232
 30
0.0
 10
184.426120
 20
106.873680
 30
0.0
 10
184.408592
 20
106.852512
 30
0.0
 10
184.334416
 20
89.445208
 30
0.0
  0
SPLINE
  5
19d
100
AcDbEntity
  8
0
 62
7
100
AcDbSpline
 70
8
 71
3
 72
8
 73
4
 74
0
 40
0
 40
0
 40
0
 40
0
 40
1
 40
1
 40
1
 40
1
 10
184.334416
 20
89.445208
 30
0.0
 10
184.280656
 20
76.821144
 30
0.0
 10
183.951320
 20
72.544120
 30
0.0
 10
182.502632
 20
65.654232
 30
0.0
  0
SPLINE
  5
19e
100
AcDbEntity
  8
0
 62
7
100
AcDbSpline
 70
8
 71
3
 72
8
 73
4
 74
0
 40
0
 40
0
 40
0
 40
0
 40
1
 40
1
 40
1
 40
1
 10
182.502632
 20
65.654232
 30
0.0
 10
178.811408
 20
48.098896
 30
0.0
 10
171.150504
 20
25.428664
 30
0.0
 10
161.010416
 20
2.054232
 30
0.0
  0
SPLINE
  5
19f
100
AcDbEntity
  8
0
 62
7
100
AcDbSpline
 70
8
 71
3
 72
8
 73
4
 74
0
 40
0
 40
0
 40
0
 40
0
 40
1
 40
1
 40
1
 40
1
 10
161.010416
 20
2.054232
 30
0.0
 10
158.147256
 20
-4.545768
 30
0.0
 10
154.213432
 20
-13.655048
 30
0.0
 10
152.268584
 20
-18.188616
 30
0.0
  0
SPLINE
  5
1a0
100
AcDbEntity
  8
0
 62
7
100
AcDbSpline
 70
8
 71
3
 72
8
 73
4
 74
0
 40
0
 40
0
 40
0
 40
0
 40
1
 40
1
 40
1
 40
1
 10
152.268584
 20
-18.188616
 30
0.0
 10
150.323728
 20
-22.722176
 30
0.0
 10
147.667672
 20
-28.161992
 30
0.0
 10
146.366240
 20
-30.277096
 30
0.0
  0
LWPOLYLINE
  5
1a1
100
AcDbEntity
  8
0
 62
7
100
AcDbPolyline
 90
3
 70
1
 10
151.834272
 20
211.279032
 30
0.0
 10
148.894392
 20
202.903824
 30
0.0
 10
151.847192
 20
199.417472
 30
0.0
  0
SPLINE
  5
1a2
100
AcDbEntity
  8
0
 62
7
100
AcDbSpline
 70
8
 71
3
 72
8
 73
4
 74
0
 40
0
 40
0
 40
0
 40
0
 40
1
 40
1
 40
1
 40
1
 10
153.000000
 20
-63.442776
 30
0.0
 10
167.829744
 20
-68.215648
 30
0.0
 10
185.068600
 20
-74.751568
 30
0.0
 10
185.392792
 20
-75.724144
 30
0.0
  0
SPLINE
  5
1a3
100
AcDbEntity
  8
0
 62
7
100
AcDbSpline
 70
8
 71
3
 72
8
 73
4
 74
0
 40
0
 40
0
 40
0
 40
0
 40
1
 40
1
 40
1
 40
1
 10
185.392792
 20
-75.724144
 30
0.0
 10
185.609168
 20
-76.373272
 30
0.0
 10
184.475704
 20
-76.478512
 30
0.0
 10
181.448208
 20
-76.090384
 30
0.0
  0
SPLINE
  5
1a4
100
AcDbEntity
  8
0
 62
7
100
AcDbSpline
 70
8
 71
3
 72
8
 73
4
 74
0
 40
0
 40
0
 40
0
 40
0
 40
1
 40
1
 40
1
 40
1
 10
181.448208
 20
-76.090384
 30
0.0
 10
179.111696
 20
-75.790848
 30
0.0
 10
174.860000
 20
-75.545768
 30
0.0
 10
172.000000
 20
-75.545768
 30
0.0
  0
SPLINE
  5
1a5
100
AcDbEntity
  8
0
 62
7
100
AcDbSpline
 70
8
 71
3
 72
8
 73
4
 74
0
 40
0
 40
0
 40
0
 40
0
 40
1
 40
1
 40
1
 40
1
 10
172.000000
 20
-75.545768
 30
0.0
 10
167.063952
 20
-75.545768
 30
0.0
 10
166.527136
 20
-75.741336
 30
0.0
 10
161.424400
 20
-79.398584
 30
0.0
  0
SPLINE
  5
1a6
100
AcDbEntity
  8
0
 62
7
100
AcDbSpline
 70
8
 71
3
 72
8
 73
4
 74
0
 40
0
 40
0
 40
0
 40
0
 40
1
 40
1
 40
1
 40
1
 10
161.424400
 20
-79.398584
 30
0.0
 10
155.343176
 20
-83.757128
 30
0.0
 10
152.737784
 20
-84.226664
 30
0.0
 10
148.650608
 20
-81.700656
 30
0.0
  0
SPLINE
  5
1a7
100
AcDbEntity
  8
0
 62
7
100
AcDbSpline
 70
8
 71
3
 72
8
 73
4
 74
0
 40
0
 40
0
 40
0
 40
0
 40
1
 40
1
 40
1
 40
1
 10
148.650608
 20
-81.700656
 30
0.0
 10
142.667296
 20
-78.002760
 30
0.0
 10
130.176720
 20
-61.448680
 30
0.0
 10
131.614520
 20
-59.122272
 30
0.0
  0
SPLINE
  5
1a8
100
AcDbEntity
  8
0
 62
7
100
AcDbSpline
 70
8
 71
3
 72
8
 73
4
 74
0
 40
0
 40
0
 40
0
 40
0
 40
1
 40
1
 40
1
 40
1
 10
131.614520
 20
-59.122272
 30
0.0
 10
131.878472
 20
-58.695192
 30
0.0
 10
132.973184
 20
-58.345768
 30
0.0
 10
134.047216
 20
-58.345768
 30
0.0
  0
SPLINE
  5
1a9
100
AcDbEntity
  8
0
 62
7
100
AcDbSpline
 70
8
 71
3
 72
8
 73
4
 74
0
 40
0
 40
0
 40
0
 40
0
 40
1
 40
1
 40
1
 40
1
 10
134.047216
 20
-58.345768
 30
0.0
 10
135.996496
 20
-58.345768
 30
0.0
 10
136.000000
 20
-58.330328
 30
0.0
 10
136.000000
 20
-49.745768
 30
0.0
  0
LWPOLYLINE
  5
1aa
100
AcDbEntity
  8
0
 62
7
100
AcDbPolyline
 90
5
 70
1
 10
146.366240
 20
-30.277096
 30
0.0
 10
144.000000
 20
-34.122728
 30
0.0
 10
144.000000
 20
-47.334456
 30
0.0
 10
144.000000
 20
-60.546176
 30
0.0
 10
153.000000
 20
-63.442776
 30
0.0
  0
SPLINE
  5
1ab
100
AcDbEntity
  8
0
 62
7
100
AcDbSpline
 70
8
 71
3
 72
8
 73
4
 74
0
 40
0
 40
0
 40
0
 40
0
 40
1
 40
1
 40
1
 40
1
 10
127.991160
 20
-41.145768
 30
0.0
 10
121.293752
 20
-41.145768
 30
0.0
 10
120.055800
 20
-41.337272
 30
0.0
 10
120.431080
 20
-42.315248
 30
0.0
  0
SPLINE
  5
1ac
100
AcDbEntity
  8
0
 62
7
100
AcDbSpline
 70
8
 71
3
 72
8
 73
4
 74
0
 40
0
 40
0
 40
0
 40
0
 40
1
 40
1
 40
1
 40
1
 10
120.431080
 20
-42.315248
 30
0.0
 10
121.721968
 20
-45.679248
 30
0.0
 10
122.562808
 20
-57.646576
 30
0.0
 10
122.232128
 20
-67.948808
 30
0.0
  0
SPLINE
  5
1ad
100
AcDbEntity
  8
0
 62
7
100
AcDbSpline
 70
8
 71
3
 72
8
 73
4
 74
0
 40
0
 40
0
 40
0
 40
0
 40
1
 40
1
 40
1
 40
1
 10
122.232128
 20
-67.948808
 30
0.0
 10
121.862688
 20
-79.458296
 30
0.0
 10
120.920048
 20
-83.797912
 30
0.0
 10
118.627280
 20
-84.544272
 30
0.0
  0
SPLINE
  5
1ae
100
AcDbEntity
  8
0
 62
7
100
AcDbSpline
 70
8
 71
3
 72
8
 73
4
 74
0
 40
0
 40
0
 40
0
 40
0
 40
1
 40
1
 40
1
 40
1
 10
118.627280
 20
-84.544272
 30
0.0
 10
118.092280
 20
-84.718424
 30
0.0
 10
115.901976
 20
-83.221576
 30
0.0
 10
113.759928
 20
-81.217944
 30
0.0
  0
SPLINE
  5
1af
100
AcDbEntity
  8
0
 62
7
100
AcDbSpline
 70
8
 71
3
 72
8
 73
4
 74
0
 40
0
 40
0
 40
0
 40
0
 40
1
 40
1
 40
1
 40
1
 10
113.759928
 20
-81.217944
 30
0.0
 10
106.170112
 20
-74.118560
 30
0.0
 10
104.766104
 20
-74.094456
 30
0.0
 10
86.775816
 20
-80.754720
 30
0.0
  0
SPLINE
  5
1b0
100
AcDbEntity
  8
0
 62
7
100
AcDbSpline
 70
8
 71
3
 72
8
 73
4
 74
0
 40
0
 40
0
 40
0
 40
0
 40
1
 40
1
 40
1
 40
1
 10
86.775816
 20
-80.754720
 30
0.0
 10
75.261676
 20
-85.017424
 30
0.0
 10
73.018920
 20
-85.447136
 30
0.0
 10
72.283784
 20
-83.531400
 30
0.0
  0
LWPOLYLINE
  5
1b1
100
AcDbEntity
  8
0
 62
7
100
AcDbPolyline
 90
3
 70
1
 10
136.000000
 20
-49.745768
 30
0.0
 10
136.000000
 20
-41.145768
 30
0.0
 10
127.991160
 20
-41.145768
 30
0.0
  0
SPLINE
  5
1b2
100
AcDbEntity
  8
0
 62
7
100
AcDbSpline
 70
8
 71
3
 72
8
 73
4
 74
0
 40
0
 40
0
 40
0
 40
0
 40
1
 40
1
 40
1
 40
1
 10
135.680896
 20
-39.220640
 30
0.0
 10
145.148744
 20
-34.920888
 30
0.0
 10
150.887144
 20
-23.469256
 30
0.0
 10
157.206312
 20
3.735832
 30
0.0
  0
SPLINE
  5
1b3
100
AcDbEntity
  8
0
 62
7
100
AcDbSpline
 70
8
 71
3
 72
8
 73
4
 74
0
 40
0
 40
0
 40
0
 40
0
 40
1
 40
1
 40
1
 40
1
 10
157.206312
 20
3.735832
 30
0.0
 10
165.955632
 20
41.403072
 30
0.0
 10
169.258304
 20
77.014896
 30
0.0
 10
166.027688
 20
98.854232
 30
0.0
  0
SPLINE
  5
1b4
100
AcDbEntity
  8
0
 62
7
100
AcDbSpline
 70
8
 71
3
 72
8
 73
4
 74
0
 40
0
 40
0
 40
0
 40
0
 40
1
 40
1
 40
1
 40
1
 10
166.027688
 20
98.854232
 30
0.0
 10
162.401256
 20
123.369304
 30
0.0
 10
151.410656
 20
153.716080
 30
0.0
 10
142.339952
 20
164.259752
 30
0.0
  0
SPLINE
  5
1b5
100
AcDbEntity
  8
0
 62
7
100
AcDbSpline
 70
8
 71
3
 72
8
 73
4
 74
0
 40
0
 40
0
 40
0
 40
0
 40
1
 40
1
 40
1
 40
1
 10
142.339952
 20
164.259752
 30
0.0
 10
133.213832
 20
174.867848
 30
0.0
 10
122.786168
 20
174.867848
 30
0.0
 10
113.660048
 20
164.259752
 30
0.0
  0
SPLINE
  5
1b6
100
AcDbEntity
  8
0
 62
7
100
AcDbSpline
 70
8
 71
3
 72
8
 73
4
 74
0
 40
0
 40
0
 40
0
 40
0
 40
1
 40
1
 40
1
 40
1
 10
113.660048
 20
164.259752
 30
0.0
 10
105.282296
 20
154.521560
 30
0.0
 10
95.211232
 20
127.958040
 30
0.0
 10
90.817160
 20
104.009192
 30
0.0
  0
SPLINE
  5
1b7
100
AcDbEntity
  8
0
 62
7
100
AcDbSpline
 70
8
 71
3
 72
8
 73
4
 74
0
 40
0
 40
0
 40
0
 40
0
 40
1
 40
1
 40
1
 40
1
 10
90.817160
 20
104.009192
 30
0.0
 10
86.826720
 20
82.260224
 30
0.0
 10
88.470568
 20
54.793496
 30
0.0
 10
96.033264
 20
16.854232
 30
0.0
  0
SPLINE
  5
1b8
100
AcDbEntity
  8
0
 62
7
100
AcDbSpline
 70
8
 71
3
 72
8
 73
4
 74
0
 40
0
 40
0
 40
0
 40
0
 40
1
 40
1
 40
1
 40
1
 10
96.033264
 20
16.854232
 30
0.0
 10
103.420856
 20
-20.206528
 30
0.0
 10
109.521880
 20
-34.318616
 30
0.0
 10
120.265552
 20
-39.196656
 30
0.0
  0
SPLINE
  5
1b9
100
AcDbEntity
  8
0
 62
7
100
AcDbSpline
 70
8
 71
3
 72
8
 73
4
 74
0
 40
0
 40
0
 40
0
 40
0
 40
1
 40
1
 40
1
 40
1
 10
120.265552
 20
-39.196656
 30
0.0
 10
124.589040
 20
-41.159696
 30
0.0
 10
131.387896
 20
-41.170264
 30
0.0
 10
135.680896
 20
-39.220656
 30
0.0
  0
LWPOLYLINE
  5
1ba
100
AcDbEntity
  8
0
 62
7
100
AcDbPolyline
 90
2
 70
1
 10
72.283784
 20
-83.531400
 30
0.0
 10
72.283784
 20
-83.531400
 30
0.0
  0
SPLINE
  5
1bb
100
AcDbEntity
  8
0
 62
7
100
AcDbSpline
 70
8
 71
3
 72
8
 73
4
 74
0
 40
0
 40
0
 40
0
 40
0
 40
1
 40
1
 40
1
 40
1
 10
112.259696
 20
244.292976
 30
0.0
 10
123.898720
 20
253.170496
 30
0.0
 10
120.612640
 20
276.442584
 30
0.0
 10
107.210504
 20
280.051400
 30
0.0
  0
SPLINE
  5
1bc
100
AcDbEntity
  8
0
 62
7
100
AcDbSpline
 70
8
 71
3
 72
8
 73
4
 74
0
 40
0
 40
0
 40
0
 40
0
 40
1
 40
1
 40
1
 40
1
 10
107.210504
 20
280.051400
 30
0.0
 10
101.332800
 20
281.634104
 30
0.0
 10
94.420696
 20
278.345664
 30
0.0
 10
91.461824
 20
272.558936
 30
0.0
  0
LWPOLYLINE
  5
1bd
100
AcDbEntity
  8
0
 62
7
100
AcDbPolyline
 90
2
 70
1
 10
135.680896
 20
-39.220656
 30
0.0
 10
135.680896
 20
-39.220640
 30
0.0
  0
SPLINE
  5
1be
100
AcDbEntity
  8
0
 62
7
100
AcDbSpline
 70
8
 71
3
 72
8
 73
4
 74
0
 40
0
 40
0
 40
0
 40
0
 40
1
 40
1
 40
1
 40
1
 10
91.900880
 20
271.587568
 30
0.0
 10
95.342416
 20
274.656016
 30
0.0
 10
100.237016
 20
273.010496
 30
0.0
 10
102.881904
 20
267.895848
 30
0.0
  0
SPLINE
  5
1bf
100
AcDbEntity
  8
0
 62
7
100
AcDbSpline
 70
8
 71
3
 72
8
 73
4
 74
0
 40
0
 40
0
 40
0
 40
0
 40
1
 40
1
 40
1
 40
1
 10
102.881904
 20
267.895848
 30
0.0
 10
104.319144
 20
265.116528
 30
0.0
 10
104.320576
 20
257.570080
 30
0.0
 10
102.884304
 20
254.133088
 30
0.0
  0
SPLINE
  5
1c0
100
AcDbEntity
  8
0
 62
7
100
AcDbSpline
 70
8
 71
3
 72
8
 73
4
 74
0
 40
0
 40
0
 40
0
 40
0
 40
1
 40
1
 40
1
 40
1
 10
102.884304
 20
254.133088
 30
0.0
 10
100.829968
 20
249.216376
 30
0.0
 10
95.968672
 20
247.444368
 30
0.0
 10
92.054944
 20
250.185648
 30
0.0
  0
LWPOLYLINE
  5
1c1
100
AcDbEntity
  8
0
 62
7
100
AcDbPolyline
 90
3
 70
1
 10
91.461824
 20
272.558936
 30
0.0
 10
90.181112
 20
270.054232
 30
0.0
 10
91.900880
 20
271.587568
 30
0.0
  0
SPLINE
  5
1c2
100
AcDbEntity
  8
0
 62
7
100
AcDbSpline
 70
8
 71
3
 72
8
 73
4
 74
0
 40
0
 40
0
 40
0
 40
0
 40
1
 40
1
 40
1
 40
1
 10
91.676944
 20
248.931976
 30
0.0
 10
94.839848
 20
243.562872
 30
0.0
 10
98.760296
 20
241.469248
 30
0.0
 10
104.921584
 20
241.858984
 30
0.0
  0
SPLINE
  5
1c3
100
AcDbEntity
  8
0
 62
7
100
AcDbSpline
 70
8
 71
3
 72
8
 73
4
 74
0
 40
0
 40
0
 40
0
 40
0
 40
1
 40
1
 40
1
 40
1
 10
104.921584
 20
241.858984
 30
0.0
 10
108.304872
 20
242.072992
 30
0.0
 10
110.152408
 20
242.685824
 30
0.0
 10
112.259496
 20
244.292976
 30
0.0
  0
LWPOLYLINE
  5
1c4
100
AcDbEntity
  8
0
 62
7
100
AcDbPolyline
 90
3
 70
1
 10
92.054944
 20
250.185648
 30
0.0
 10
90.154080
 20
251.517064
 30
0.0
 10
91.676944
 20
248.931976
 30
0.0
  0
SPLINE
  5
1c5
100
AcDbEntity
  8
0
 62
7
100
AcDbSpline
 70
8
 71
3
 72
8
 73
4
 74
0
 40
0
 40
0
 40
0
 40
0
 40
1
 40
1
 40
1
 40
1
 10
-833.478960
 20
220.197440
 30
0.0
 10
-834.234800
 20
222.167192
 30
0.0
 10
-832.275440
 20
225.835104
 30
0.0
 10
-826.241040
 20
233.746800
 30
0.0
  0
SPLINE
  5
1c6
100
AcDbEntity
  8
0
 62
7
100
AcDbSpline
 70
8
 71
3
 72
8
 73
4
 74
0
 40
0
 40
0
 40
0
 40
0
 40
1
 40
1
 40
1
 40
1
 10
-826.241040
 20
233.746800
 30
0.0
 10
-814.294480
 20
249.409872
 30
0.0
 10
-802.109680
 20
261.929896
 30
0.0
 10
-795.477464
 20
265.356552
 30
0.0
  0
SPLINE
  5
1c7
100
AcDbEntity
  8
0
 62
7
100
AcDbSpline
 70
8
 71
3
 72
8
 73
4
 74
0
 40
0
 40
0
 40
0
 40
0
 40
1
 40
1
 40
1
 40
1
 10
-795.477464
 20
265.356552
 30
0.0
 10
-793.173968
 20
266.546712
 30
0.0
 10
-793.490944
 20
269.317080
 30
0.0
 10
-796.470712
 20
274.037328
 30
0.0
  0
SPLINE
  5
1c8
100
AcDbEntity
  8
0
 62
7
100
AcDbSpline
 70
8
 71
3
 72
8
 73
4
 74
0
 40
0
 40
0
 40
0
 40
0
 40
1
 40
1
 40
1
 40
1
 10
-796.470712
 20
274.037328
 30
0.0
 10
-797.547192
 20
275.742584
 30
0.0
 10
-800.034320
 20
280.882984
 30
0.0
 10
-801.997680
 20
285.460432
 30
0.0
  0
SPLINE
  5
1c9
100
AcDbEntity
  8
0
 62
7
100
AcDbSpline
 70
8
 71
3
 72
8
 73
4
 74
0
 40
0
 40
0
 40
0
 40
0
 40
1
 40
1
 40
1
 40
1
 10
-801.997680
 20
285.460432
 30
0.0
 10
-803.961040
 20
290.037888
 30
0.0
 10
-807.910000
 20
299.183072
 30
0.0
 10
-810.773120
 20
305.783072
 30
0.0
  0
SPLINE
  5
1ca
100
AcDbEntity
  8
0
 62
7
100
AcDbSpline
 70
8
 71
3
 72
8
 73
4
 74
0
 40
0
 40
0
 40
0
 40
0
 40
1
 40
1
 40
1
 40
1
 10
-810.773120
 20
305.783072
 30
0.0
 10
-820.913200
 20
329.157504
 30
0.0
 10
-828.574160
 20
351.827736
 30
0.0
 10
-832.265360
 20
369.383072
 30
0.0
  0
SPLINE
  5
1cb
100
AcDbEntity
  8
0
 62
7
100
AcDbSpline
 70
8
 71
3
 72
8
 73
4
 74
0
 40
0
 40
0
 40
0
 40
0
 40
1
 40
1
 40
1
 40
1
 10
-832.265360
 20
369.383072
 30
0.0
 10
-833.714000
 20
376.272960
 30
0.0
 10
-834.043360
 20
380.549984
 30
0.0
 10
-834.097120
 20
393.174048
 30
0.0
  0
SPLINE
  5
1cc
100
AcDbEntity
  8
0
 62
7
100
AcDbSpline
 70
8
 71
3
 72
8
 73
4
 74
0
 40
0
 40
0
 40
0
 40
0
 40
1
 40
1
 40
1
 40
1
 10
-834.097120
 20
393.174048
 30
0.0
 10
-834.170720
 20
410.493064
 30
0.0
 10
-834.214000
 20
410.550448
 30
0.0
 10
-839.357840
 20
400.183072
 30
0.0
  0
SPLINE
  5
1cd
100
AcDbEntity
  8
0
 62
7
100
AcDbSpline
 70
8
 71
3
 72
8
 73
4
 74
0
 40
0
 40
0
 40
0
 40
0
 40
1
 40
1
 40
1
 40
1
 10
-839.357840
 20
400.183072
 30
0.0
 10
-844.979680
 20
388.852216
 30
0.0
 10
-843.432800
 20
377.772792
 30
0.0
 10
-830.907680
 20
339.657288
 30
0.0
  0
SPLINE
  5
1ce
100
AcDbEntity
  8
0
 62
7
100
AcDbSpline
 70
8
 71
3
 72
8
 73
4
 74
0
 40
0
 40
0
 40
0
 40
0
 40
1
 40
1
 40
1
 40
1
 10
-830.907680
 20
339.657288
 30
0.0
 10
-827.197920
 20
328.368104
 30
0.0
 10
-824.162720
 20
318.558104
 30
0.0
 10
-824.162720
 20
317.857288
 30
0.0
  0
SPLINE
  5
1cf
100
AcDbEntity
  8
0
 62
7
100
AcDbSpline
 70
8
 71
3
 72
8
 73
4
 74
0
 40
0
 40
0
 40
0
 40
0
 40
1
 40
1
 40
1
 40
1
 10
-824.162720
 20
317.857288
 30
0.0
 10
-824.162720
 20
310.689024
 30
0.0
 10
-847.227440
 20
334.672720
 30
0.0
 10
-860.231920
 20
355.363592
 30
0.0
  0
SPLINE
  5
1d0
100
AcDbEntity
  8
0
 62
7
100
AcDbSpline
 70
8
 71
3
 72
8
 73
4
 74
0
 40
0
 40
0
 40
0
 40
0
 40
1
 40
1
 40
1
 40
1
 10
-860.231920
 20
355.363592
 30
0.0
 10
-872.176800
 20
374.368576
 30
0.0
 10
-876.014320
 20
389.107936
 30
0.0
 10
-872.534240
 20
402.614992
 30
0.0
  0
SPLINE
  5
1d1
100
AcDbEntity
  8
0
 62
7
100
AcDbSpline
 70
8
 71
3
 72
8
 73
4
 74
0
 40
0
 40
0
 40
0
 40
0
 40
1
 40
1
 40
1
 40
1
 10
-872.534240
 20
402.614992
 30
0.0
 10
-868.385440
 20
418.717664
 30
0.0
 10
-846.791520
 20
450.184208
 30
0.0
 10
-816.449600
 20
484.341328
 30
0.0
  0
SPLINE
  5
1d2
100
AcDbEntity
  8
0
 62
7
100
AcDbSpline
 70
8
 71
3
 72
8
 73
4
 74
0
 40
0
 40
0
 40
0
 40
0
 40
1
 40
1
 40
1
 40
1
 10
-816.449600
 20
484.341328
 30
0.0
 10
-814.027120
 20
487.068376
 30
0.0
 10
-810.319360
 20
491.748376
 30
0.0
 10
-808.210160
 20
494.741328
 30
0.0
  0
SPLINE
  5
1d3
100
AcDbEntity
  8
0
 62
7
100
AcDbSpline
 70
8
 71
3
 72
8
 73
4
 74
0
 40
0
 40
0
 40
0
 40
0
 40
1
 40
1
 40
1
 40
1
 10
-808.210160
 20
494.741328
 30
0.0
 10
-806.100880
 20
497.734288
 30
0.0
 10
-802.349120
 20
502.283616
 30
0.0
 10
-799.872816
 20
504.850952
 30
0.0
  0
LWPOLYLINE
  5
1d4
100
AcDbEntity
  8
0
 62
7
100
AcDbPolyline
 90
2
 70
1
 10
112.259496
 20
244.292976
 30
0.0
 10
112.259696
 20
244.292976
 30
0.0
  0
SPLINE
  5
1d5
100
AcDbEntity
  8
0
 62
7
100
AcDbSpline
 70
8
 71
3
 72
8
 73
4
 74
0
 40
0
 40
0
 40
0
 40
0
 40
1
 40
1
 40
1
 40
1
 10
-799.966592
 20
514.093648
 30
0.0
 10
-805.227440
 20
519.330136
 30
0.0
 10
-815.136080
 20
524.690888
 30
0.0
 10
-833.362720
 20
532.161536
 30
0.0
  0
SPLINE
  5
1d6
100
AcDbEntity
  8
0
 62
7
100
AcDbSpline
 70
8
 71
3
 72
8
 73
4
 74
0
 40
0
 40
0
 40
0
 40
0
 40
1
 40
1
 40
1
 40
1
 10
-833.362720
 20
532.161536
 30
0.0
 10
-861.248480
 20
543.591256
 30
0.0
 10
-866.881440
 20
546.781728
 30
0.0
 10
-866.406720
 20
550.877600
 30
0.0
  0
SPLINE
  5
1d7
100
AcDbEntity
  8
0
 62
7
100
AcDbSpline
 70
8
 71
3
 72
8
 73
4
 74
0
 40
0
 40
0
 40
0
 40
0
 40
1
 40
1
 40
1
 40
1
 10
-866.406720
 20
550.877600
 30
0.0
 10
-866.083920
 20
553.662656
 30
0.0
 10
-861.865680
 20
555.736496
 30
0.0
 10
-849.148640
 20
559.362200
 30
0.0
  0
SPLINE
  5
1d8
100
AcDbEntity
  8
0
 62
7
100
AcDbSpline
 70
8
 71
3
 72
8
 73
4
 74
0
 40
0
 40
0
 40
0
 40
0
 40
1
 40
1
 40
1
 40
1
 10
-849.148640
 20
559.362200
 30
0.0
 10
-843.762320
 20
560.897862
 30
0.0
 10
-838.006960
 20
562.852222
 30
0.0
 10
-836.359040
 20
563.705206
 30
0.0
  0
SPLINE
  5
1d9
100
AcDbEntity
  8
0
 62
7
100
AcDbSpline
 70
8
 71
3
 72
8
 73
4
 74
0
 40
0
 40
0
 40
0
 40
0
 40
1
 40
1
 40
1
 40
1
 10
-836.359040
 20
563.705206
 30
0.0
 10
-832.982960
 20
565.452662
 30
0.0
 10
-827.493120
 20
570.993614
 30
0.0
 10
-820.590640
 20
579.620470
 30
0.0
  0
SPLINE
  5
1da
100
AcDbEntity
  8
0
 62
7
100
AcDbSpline
 70
8
 71
3
 72
8
 73
4
 74
0
 40
0
 40
0
 40
0
 40
0
 40
1
 40
1
 40
1
 40
1
 10
-820.590640
 20
579.620470
 30
0.0
 10
-815.534800
 20
585.939246
 30
0.0
 10
-811.465360
 20
588.781446
 30
0.0
 10
-804.334080
 20
590.974446
 30
0.0
  0
SPLINE
  5
1db
100
AcDbEntity
  8
0
 62
7
100
AcDbSpline
 70
8
 71
3
 72
8
 73
4
 74
0
 40
0
 40
0
 40
0
 40
0
 40
1
 40
1
 40
1
 40
1
 10
-804.334080
 20
590.974446
 30
0.0
 10
-788.930816
 20
595.711198
 30
0.0
 10
-778.988848
 20
592.832758
 30
0.0
 10
-770.049472
 20
581.048230
 30
0.0
  0
SPLINE
  5
1dc
100
AcDbEntity
  8
0
 62
7
100
AcDbSpline
 70
8
 71
3
 72
8
 73
4
 74
0
 40
0
 40
0
 40
0
 40
0
 40
1
 40
1
 40
1
 40
1
 10
-770.049472
 20
581.048230
 30
0.0
 10
-764.720112
 20
574.022678
 30
0.0
 10
-757.022808
 20
559.168776
 30
0.0
 10
-753.630832
 20
549.364296
 30
0.0
  0
SPLINE
  5
1dd
100
AcDbEntity
  8
0
 62
7
100
AcDbSpline
 70
8
 71
3
 72
8
 73
4
 74
0
 40
0
 40
0
 40
0
 40
0
 40
1
 40
1
 40
1
 40
1
 10
-753.630832
 20
549.364296
 30
0.0
 10
-751.262640
 20
542.519040
 30
0.0
 10
-751.007072
 20
540.889960
 30
0.0
 10
-750.998288
 20
532.583072
 30
0.0
  0
SPLINE
  5
1de
100
AcDbEntity
  8
0
 62
7
100
AcDbSpline
 70
8
 71
3
 72
8
 73
4
 74
0
 40
0
 40
0
 40
0
 40
0
 40
1
 40
1
 40
1
 40
1
 10
-750.998288
 20
532.583072
 30
0.0
 10
-750.989248
 20
524.025168
 30
0.0
 10
-751.193744
 20
522.798536
 30
0.0
 10
-753.928440
 20
515.007872
 30
0.0
  0
LWPOLYLINE
  5
1df
100
AcDbEntity
  8
0
 62
7
100
AcDbPolyline
 90
3
 70
1
 10
-799.872816
 20
504.850952
 30
0.0
 10
-795.370472
 20
509.518832
 30
0.0
 10
-799.966592
 20
514.093648
 30
0.0
  0
SPLINE
  5
1e0
100
AcDbEntity
  8
0
 62
7
100
AcDbSpline
 70
8
 71
3
 72
8
 73
4
 74
0
 40
0
 40
0
 40
0
 40
0
 40
1
 40
1
 40
1
 40
1
 10
-753.915520
 20
503.146312
 30
0.0
 10
-752.291472
 20
501.228816
 30
0.0
 10
-749.235544
 20
497.267952
 30
0.0
 10
-747.124552
 20
494.344392
 30
0.0
  0
SPLINE
  5
1e1
100
AcDbEntity
  8
0
 62
7
100
AcDbSpline
 70
8
 71
3
 72
8
 73
4
 74
0
 40
0
 40
0
 40
0
 40
0
 40
1
 40
1
 40
1
 40
1
 10
-747.124552
 20
494.344392
 30
0.0
 10
-745.013568
 20
491.420832
 30
0.0
 10
-741.887176
 20
487.491360
 30
0.0
 10
-740.177024
 20
485.612240
 30
0.0
  0
SPLINE
  5
1e2
100
AcDbEntity
  8
0
 62
7
100
AcDbSpline
 70
8
 71
3
 72
8
 73
4
 74
0
 40
0
 40
0
 40
0
 40
0
 40
1
 40
1
 40
1
 40
1
 10
-740.177024
 20
485.612240
 30
0.0
 10
-738.466872
 20
483.733120
 30
0.0
 10
-732.627968
 20
476.882824
 30
0.0
 10
-727.201672
 20
470.389368
 30
0.0
  0
SPLINE
  5
1e3
100
AcDbEntity
  8
0
 62
7
100
AcDbSpline
 70
8
 71
3
 72
8
 73
4
 74
0
 40
0
 40
0
 40
0
 40
0
 40
1
 40
1
 40
1
 40
1
 10
-727.201672
 20
470.389368
 30
0.0
 10
-694.611192
 20
431.389456
 30
0.0
 10
-681.762712
 20
409.414936
 30
0.0
 10
-681.762712
 20
392.675976
 30
0.0
  0
SPLINE
  5
1e4
100
AcDbEntity
  8
0
 62
7
100
AcDbSpline
 70
8
 71
3
 72
8
 73
4
 74
0
 40
0
 40
0
 40
0
 40
0
 40
1
 40
1
 40
1
 40
1
 10
-681.762712
 20
392.675976
 30
0.0
 10
-681.762712
 20
381.636344
 30
0.0
 10
-686.859456
 20
368.148624
 30
0.0
 10
-696.761896
 20
352.983072
 30
0.0
  0
SPLINE
  5
1e5
100
AcDbEntity
  8
0
 62
7
100
AcDbSpline
 70
8
 71
3
 72
8
 73
4
 74
0
 40
0
 40
0
 40
0
 40
0
 40
1
 40
1
 40
1
 40
1
 10
-696.761896
 20
352.983072
 30
0.0
 10
-709.713520
 20
333.147688
 30
0.0
 10
-731.362712
 20
311.154336
 30
0.0
 10
-731.362712
 20
317.832200
 30
0.0
  0
SPLINE
  5
1e6
100
AcDbEntity
  8
0
 62
7
100
AcDbSpline
 70
8
 71
3
 72
8
 73
4
 74
0
 40
0
 40
0
 40
0
 40
0
 40
1
 40
1
 40
1
 40
1
 10
-731.362712
 20
317.832200
 30
0.0
 10
-731.362712
 20
318.519216
 30
0.0
 10
-728.156784
 20
328.869216
 30
0.0
 10
-724.238424
 20
340.832200
 30
0.0
  0
SPLINE
  5
1e7
100
AcDbEntity
  8
0
 62
7
100
AcDbSpline
 70
8
 71
3
 72
8
 73
4
 74
0
 40
0
 40
0
 40
0
 40
0
 40
1
 40
1
 40
1
 40
1
 10
-724.238424
 20
340.832200
 30
0.0
 10
-715.657192
 20
367.031184
 30
0.0
 10
-713.594568
 20
375.790360
 30
0.0
 10
-713.464928
 20
386.583072
 30
0.0
  0
SPLINE
  5
1e8
100
AcDbEntity
  8
0
 62
7
100
AcDbSpline
 70
8
 71
3
 72
8
 73
4
 74
0
 40
0
 40
0
 40
0
 40
0
 40
1
 40
1
 40
1
 40
1
 10
-713.464928
 20
386.583072
 30
0.0
 10
-713.374752
 20
394.090560
 30
0.0
 10
-713.528048
 20
394.903200
 30
0.0
 10
-715.955216
 20
399.783072
 30
0.0
  0
SPLINE
  5
1e9
100
AcDbEntity
  8
0
 62
7
100
AcDbSpline
 70
8
 71
3
 72
8
 73
4
 74
0
 40
0
 40
0
 40
0
 40
0
 40
1
 40
1
 40
1
 40
1
 10
-715.955216
 20
399.783072
 30
0.0
 10
-721.336592
 20
410.602520
 30
0.0
 10
-721.354120
 20
410.581352
 30
0.0
 10
-721.428296
 20
393.174048
 30
0.0
  0
SPLINE
  5
1ea
100
AcDbEntity
  8
0
 62
7
100
AcDbSpline
 70
8
 71
3
 72
8
 73
4
 74
0
 40
0
 40
0
 40
0
 40
0
 40
1
 40
1
 40
1
 40
1
 10
-721.428296
 20
393.174048
 30
0.0
 10
-721.482056
 20
380.549984
 30
0.0
 10
-721.811392
 20
376.272960
 30
0.0
 10
-723.260080
 20
369.383072
 30
0.0
  0
SPLINE
  5
1eb
100
AcDbEntity
  8
0
 62
7
100
AcDbSpline
 70
8
 71
3
 72
8
 73
4
 74
0
 40
0
 40
0
 40
0
 40
0
 40
1
 40
1
 40
1
 40
1
 10
-723.260080
 20
369.383072
 30
0.0
 10
-726.951304
 20
351.827736
 30
0.0
 10
-734.612208
 20
329.157504
 30
0.0
 10
-744.752296
 20
305.783072
 30
0.0
  0
SPLINE
  5
1ec
100
AcDbEntity
  8
0
 62
7
100
AcDbSpline
 70
8
 71
3
 72
8
 73
4
 74
0
 40
0
 40
0
 40
0
 40
0
 40
1
 40
1
 40
1
 40
1
 10
-744.752296
 20
305.783072
 30
0.0
 10
-747.615456
 20
299.183072
 30
0.0
 10
-751.549280
 20
290.073792
 30
0.0
 10
-753.494128
 20
285.540224
 30
0.0
  0
SPLINE
  5
1ed
100
AcDbEntity
  8
0
 62
7
100
AcDbSpline
 70
8
 71
3
 72
8
 73
4
 74
0
 40
0
 40
0
 40
0
 40
0
 40
1
 40
1
 40
1
 40
1
 10
-753.494128
 20
285.540224
 30
0.0
 10
-755.438984
 20
281.006664
 30
0.0
 10
-758.095040
 20
275.566848
 30
0.0
 10
-759.396472
 20
273.451744
 30
0.0
  0
LWPOLYLINE
  5
1ee
100
AcDbEntity
  8
0
 62
7
100
AcDbPolyline
 90
3
 70
1
 10
-753.928440
 20
515.007872
 30
0.0
 10
-756.868320
 20
506.632664
 30
0.0
 10
-753.915520
 20
503.146312
 30
0.0
  0
SPLINE
  5
1ef
100
AcDbEntity
  8
0
 62
7
100
AcDbSpline
 70
8
 71
3
 72
8
 73
4
 74
0
 40
0
 40
0
 40
0
 40
0
 40
1
 40
1
 40
1
 40
1
 10
-752.762712
 20
240.286064
 30
0.0
 10
-737.932968
 20
235.513192
 30
0.0
 10
-720.694112
 20
228.977272
 30
0.0
 10
-720.369920
 20
228.004696
 30
0.0
  0
SPLINE
  5
1f0
100
AcDbEntity
  8
0
 62
7
100
AcDbSpline
 70
8
 71
3
 72
8
 73
4
 74
0
 40
0
 40
0
 40
0
 40
0
 40
1
 40
1
 40
1
 40
1
 10
-720.369920
 20
228.004696
 30
0.0
 10
-720.153544
 20
227.355568
 30
0.0
 10
-721.287008
 20
227.250328
 30
0.0
 10
-724.314504
 20
227.638456
 30
0.0
  0
SPLINE
  5
1f1
100
AcDbEntity
  8
0
 62
7
100
AcDbSpline
 70
8
 71
3
 72
8
 73
4
 74
0
 40
0
 40
0
 40
0
 40
0
 40
1
 40
1
 40
1
 40
1
 10
-724.314504
 20
227.638456
 30
0.0
 10
-726.651016
 20
227.937992
 30
0.0
 10
-730.902712
 20
228.183072
 30
0.0
 10
-733.762712
 20
228.183072
 30
0.0
  0
SPLINE
  5
1f2
100
AcDbEntity
  8
0
 62
7
100
AcDbSpline
 70
8
 71
3
 72
8
 73
4
 74
0
 40
0
 40
0
 40
0
 40
0
 40
1
 40
1
 40
1
 40
1
 10
-733.762712
 20
228.183072
 30
0.0
 10
-738.698760
 20
228.183072
 30
0.0
 10
-739.235576
 20
227.987504
 30
0.0
 10
-744.338312
 20
224.330256
 30
0.0
  0
SPLINE
  5
1f3
100
AcDbEntity
  8
0
 62
7
100
AcDbSpline
 70
8
 71
3
 72
8
 73
4
 74
0
 40
0
 40
0
 40
0
 40
0
 40
1
 40
1
 40
1
 40
1
 10
-744.338312
 20
224.330256
 30
0.0
 10
-750.419536
 20
219.971712
 30
0.0
 10
-753.024928
 20
219.502176
 30
0.0
 10
-757.112104
 20
222.028184
 30
0.0
  0
SPLINE
  5
1f4
100
AcDbEntity
  8
0
 62
7
100
AcDbSpline
 70
8
 71
3
 72
8
 73
4
 74
0
 40
0
 40
0
 40
0
 40
0
 40
1
 40
1
 40
1
 40
1
 10
-757.112104
 20
222.028184
 30
0.0
 10
-763.095416
 20
225.726080
 30
0.0
 10
-775.585992
 20
242.280160
 30
0.0
 10
-774.148192
 20
244.606568
 30
0.0
  0
SPLINE
  5
1f5
100
AcDbEntity
  8
0
 62
7
100
AcDbSpline
 70
8
 71
3
 72
8
 73
4
 74
0
 40
0
 40
0
 40
0
 40
0
 40
1
 40
1
 40
1
 40
1
 10
-774.148192
 20
244.606568
 30
0.0
 10
-773.884240
 20
245.033648
 30
0.0
 10
-772.789528
 20
245.383072
 30
0.0
 10
-771.715496
 20
245.383072
 30
0.0
  0
SPLINE
  5
1f6
100
AcDbEntity
  8
0
 62
7
100
AcDbSpline
 70
8
 71
3
 72
8
 73
4
 74
0
 40
0
 40
0
 40
0
 40
0
 40
1
 40
1
 40
1
 40
1
 10
-771.715496
 20
245.383072
 30
0.0
 10
-769.766216
 20
245.383072
 30
0.0
 10
-769.762712
 20
245.398512
 30
0.0
 10
-769.762712
 20
253.983072
 30
0.0
  0
LWPOLYLINE
  5
1f7
100
AcDbEntity
  8
0
 62
7
100
AcDbPolyline
 90
5
 70
1
 10
-759.396472
 20
273.451744
 30
0.0
 10
-761.762712
 20
269.606112
 30
0.0
 10
-761.762712
 20
256.394384
 30
0.0
 10
-761.762712
 20
243.182664
 30
0.0
 10
-752.762712
 20
240.286064
 30
0.0
  0
SPLINE
  5
1f8
100
AcDbEntity
  8
0
 62
7
100
AcDbSpline
 70
8
 71
3
 72
8
 73
4
 74
0
 40
0
 40
0
 40
0
 40
0
 40
1
 40
1
 40
1
 40
1
 10
-777.771552
 20
262.583072
 30
0.0
 10
-784.468960
 20
262.583072
 30
0.0
 10
-785.706912
 20
262.391568
 30
0.0
 10
-785.331632
 20
261.413592
 30
0.0
  0
SPLINE
  5
1f9
100
AcDbEntity
  8
0
 62
7
100
AcDbSpline
 70
8
 71
3
 72
8
 73
4
 74
0
 40
0
 40
0
 40
0
 40
0
 40
1
 40
1
 40
1
 40
1
 10
-785.331632
 20
261.413592
 30
0.0
 10
-784.040744
 20
258.049592
 30
0.0
 10
-783.199904
 20
246.082264
 30
0.0
 10
-783.530584
 20
235.780032
 30
0.0
  0
SPLINE
  5
1fa
100
AcDbEntity
  8
0
 62
7
100
AcDbSpline
 70
8
 71
3
 72
8
 73
4
 74
0
 40
0
 40
0
 40
0
 40
0
 40
1
 40
1
 40
1
 40
1
 10
-783.530584
 20
235.780032
 30
0.0
 10
-783.900024
 20
224.270544
 30
0.0
 10
-784.842664
 20
219.930928
 30
0.0
 10
-787.135432
 20
219.184568
 30
0.0
  0
SPLINE
  5
1fb
100
AcDbEntity
  8
0
 62
7
100
AcDbSpline
 70
8
 71
3
 72
8
 73
4
 74
0
 40
0
 40
0
 40
0
 40
0
 40
1
 40
1
 40
1
 40
1
 10
-787.135432
 20
219.184568
 30
0.0
 10
-787.670432
 20
219.010416
 30
0.0
 10
-789.860736
 20
220.507264
 30
0.0
 10
-792.002784
 20
222.510896
 30
0.0
  0
SPLINE
  5
1fc
100
AcDbEntity
  8
0
 62
7
100
AcDbSpline
 70
8
 71
3
 72
8
 73
4
 74
0
 40
0
 40
0
 40
0
 40
0
 40
1
 40
1
 40
1
 40
1
 10
-792.002784
 20
222.510896
 30
0.0
 10
-799.592600
 20
229.610280
 30
0.0
 10
-800.996640
 20
229.634384
 30
0.0
 10
-818.986880
 20
222.974120
 30
0.0
  0
SPLINE
  5
1fd
100
AcDbEntity
  8
0
 62
7
100
AcDbSpline
 70
8
 71
3
 72
8
 73
4
 74
0
 40
0
 40
0
 40
0
 40
0
 40
1
 40
1
 40
1
 40
1
 10
-818.986880
 20
222.974120
 30
0.0
 10
-830.501040
 20
218.711416
 30
0.0
 10
-832.743760
 20
218.281704
 30
0.0
 10
-833.478960
 20
220.197440
 30
0.0
  0
LWPOLYLINE
  5
1fe
100
AcDbEntity
  8
0
 62
7
100
AcDbPolyline
 90
3
 70
1
 10
-769.762712
 20
253.983072
 30
0.0
 10
-769.762712
 20
262.583072
 30
0.0
 10
-777.771552
 20
262.583072
 30
0.0
  0
SPLINE
  5
1ff
100
AcDbEntity
  8
0
 62
7
100
AcDbSpline
 70
8
 71
3
 72
8
 73
4
 74
0
 40
0
 40
0
 40
0
 40
0
 40
1
 40
1
 40
1
 40
1
 10
-770.081816
 20
264.508200
 30
0.0
 10
-760.613968
 20
268.807952
 30
0.0
 10
-754.875568
 20
280.259584
 30
0.0
 10
-748.556400
 20
307.464672
 30
0.0
  0
SPLINE
  5
200
100
AcDbEntity
  8
0
 62
7
100
AcDbSpline
 70
8
 71
3
 72
8
 73
4
 74
0
 40
0
 40
0
 40
0
 40
0
 40
1
 40
1
 40
1
 40
1
 10
-748.556400
 20
307.464672
 30
0.0
 10
-739.807080
 20
345.131912
 30
0.0
 10
-736.504408
 20
380.743736
 30
0.0
 10
-739.735024
 20
402.583072
 30
0.0
  0
SPLINE
  5
201
100
AcDbEntity
  8
0
 62
7
100
AcDbSpline
 70
8
 71
3
 72
8
 73
4
 74
0
 40
0
 40
0
 40
0
 40
0
 40
1
 40
1
 40
1
 40
1
 10
-739.735024
 20
402.583072
 30
0.0
 10
-743.361456
 20
427.098144
 30
0.0
 10
-754.352056
 20
457.444920
 30
0.0
 10
-763.422760
 20
467.988592
 30
0.0
  0
SPLINE
  5
202
100
AcDbEntity
  8
0
 62
7
100
AcDbSpline
 70
8
 71
3
 72
8
 73
4
 74
0
 40
0
 40
0
 40
0
 40
0
 40
1
 40
1
 40
1
 40
1
 10
-763.422760
 20
467.988592
 30
0.0
 10
-772.548880
 20
478.596688
 30
0.0
 10
-782.976544
 20
478.596688
 30
0.0
 10
-792.102664
 20
467.988592
 30
0.0
  0
SPLINE
  5
203
100
AcDbEntity
  8
0
 62
7
100
AcDbSpline
 70
8
 71
3
 72
8
 73
4
 74
0
 40
0
 40
0
 40
0
 40
0
 40
1
 40
1
 40
1
 40
1
 10
-792.102664
 20
467.988592
 30
0.0
 10
-800.480400
 20
458.250400
 30
0.0
 10
-810.551520
 20
431.686880
 30
0.0
 10
-814.945520
 20
407.738032
 30
0.0
  0
SPLINE
  5
204
100
AcDbEntity
  8
0
 62
7
100
AcDbSpline
 70
8
 71
3
 72
8
 73
4
 74
0
 40
0
 40
0
 40
0
 40
0
 40
1
 40
1
 40
1
 40
1
 10
-814.945520
 20
407.738032
 30
0.0
 10
-818.936000
 20
385.989064
 30
0.0
 10
-817.292160
 20
358.522336
 30
0.0
 10
-809.729440
 20
320.583072
 30
0.0
  0
SPLINE
  5
205
100
AcDbEntity
  8
0
 62
7
100
AcDbSpline
 70
8
 71
3
 72
8
 73
4
 74
0
 40
0
 40
0
 40
0
 40
0
 40
1
 40
1
 40
1
 40
1
 10
-809.729440
 20
320.583072
 30
0.0
 10
-802.341840
 20
283.522312
 30
0.0
 10
-796.240832
 20
269.410224
 30
0.0
 10
-785.497160
 20
264.532184
 30
0.0
  0
SPLINE
  5
206
100
AcDbEntity
  8
0
 62
7
100
AcDbSpline
 70
8
 71
3
 72
8
 73
4
 74
0
 40
0
 40
0
 40
0
 40
0
 40
1
 40
1
 40
1
 40
1
 10
-785.497160
 20
264.532184
 30
0.0
 10
-781.173672
 20
262.569144
 30
0.0
 10
-774.374816
 20
262.558576
 30
0.0
 10
-770.081816
 20
264.508184
 30
0.0
  0
LWPOLYLINE
  5
207
100
AcDbEntity
  8
0
 62
7
100
AcDbPolyline
 90
2
 70
1
 10
-833.478960
 20
220.197440
 30
0.0
 10
-833.478960
 20
220.197440
 30
0.0
  0
SPLINE
  5
208
100
AcDbEntity
  8
0
 62
7
100
AcDbSpline
 70
8
 71
3
 72
8
 73
4
 74
0
 40
0
 40
0
 40
0
 40
0
 40
1
 40
1
 40
1
 40
1
 10
-793.503016
 20
548.021800
 30
0.0
 10
-781.863992
 20
556.899320
 30
0.0
 10
-785.150072
 20
580.171406
 30
0.0
 10
-798.552208
 20
583.780222
 30
0.0
  0
SPLINE
  5
209
100
AcDbEntity
  8
0
 62
7
100
AcDbSpline
 70
8
 71
3
 72
8
 73
4
 74
0
 40
0
 40
0
 40
0
 40
0
 40
1
 40
1
 40
1
 40
1
 10
-798.552208
 20
583.780222
 30
0.0
 10
-804.429920
 20
585.362926
 30
0.0
 10
-811.342000
 20
582.074486
 30
0.0
 10
-814.300880
 20
576.287758
 30
0.0
  0
LWPOLYLINE
  5
20a
100
AcDbEntity
  8
0
 62
7
100
AcDbPolyline
 90
2
 70
1
 10
-770.081816
 20
264.508184
 30
0.0
 10
-770.081816
 20
264.508200
 30
0.0
  0
SPLINE
  5
20b
100
AcDbEntity
  8
0
 62
7
100
AcDbSpline
 70
8
 71
3
 72
8
 73
4
 74
0
 40
0
 40
0
 40
0
 40
0
 40
1
 40
1
 40
1
 40
1
 10
-813.861840
 20
575.316390
 30
0.0
 10
-810.420320
 20
578.384838
 30
0.0
 10
-805.525680
 20
576.739318
 30
0.0
 10
-802.880800
 20
571.624670
 30
0.0
  0
SPLINE
  5
20c
100
AcDbEntity
  8
0
 62
7
100
AcDbSpline
 70
8
 71
3
 72
8
 73
4
 74
0
 40
0
 40
0
 40
0
 40
0
 40
1
 40
1
 40
1
 40
1
 10
-802.880800
 20
571.624670
 30
0.0
 10
-801.443600
 20
568.845350
 30
0.0
 10
-801.442160
 20
561.298902
 30
0.0
 10
-802.880800
 20
557.861912
 30
0.0
  0
SPLINE
  5
20d
100
AcDbEntity
  8
0
 62
7
100
AcDbSpline
 70
8
 71
3
 72
8
 73
4
 74
0
 40
0
 40
0
 40
0
 40
0
 40
1
 40
1
 40
1
 40
1
 10
-802.880800
 20
557.861912
 30
0.0
 10
-804.935120
 20
552.945200
 30
0.0
 10
-809.796480
 20
551.173192
 30
0.0
 10
-813.710160
 20
553.914472
 30
0.0
  0
LWPOLYLINE
  5
20e
100
AcDbEntity
  8
0
 62
7
100
AcDbPolyline
 90
3
 70
1
 10
-814.300880
 20
576.287758
 30
0.0
 10
-815.581600
 20
573.783054
 30
0.0
 10
-813.861840
 20
575.316390
 30
0.0
  0
SPLINE
  5
20f
100
AcDbEntity
  8
0
 62
7
100
AcDbSpline
 70
8
 71
3
 72
8
 73
4
 74
0
 40
0
 40
0
 40
0
 40
0
 40
1
 40
1
 40
1
 40
1
 10
-814.088160
 20
552.660800
 30
0.0
 10
-810.925280
 20
547.291696
 30
0.0
 10
-807.004800
 20
545.198072
 30
0.0
 10
-800.843520
 20
545.587808
 30
0.0
  0
SPLINE
  5
210
100
AcDbEntity
  8
0
 62
7
100
AcDbSpline
 70
8
 71
3
 72
8
 73
4
 74
0
 40
0
 40
0
 40
0
 40
0
 40
1
 40
1
 40
1
 40
1
 10
-800.843520
 20
545.587808
 30
0.0
 10
-797.460240
 20
545.801816
 30
0.0
 10
-795.612704
 20
546.414648
 30
0.0
 10
-793.505616
 20
548.021800
 30
0.0
  0
LWPOLYLINE
  5
211
100
AcDbEntity
  8
0
 62
7
100
AcDbPolyline
 90
3
 70
1
 10
-813.710160
 20
553.914472
 30
0.0
 10
-815.611040
 20
555.245888
 30
0.0
 10
-814.088160
 20
552.660800
 30
0.0
  0
LWPOLYLINE
  5
212
100
AcDbEntity
  8
0
 62
7
100
AcDbPolyline
 90
2
 70
1
 10
-793.505616
 20
548.021800
 30
0.0
 10
-793.503016
 20
548.021800
 30
0.0
  0
ENDSEC
  0
SECTION
  2
OBJECTS
  0
DICTIONARY
  5
C
330
0
100
AcDbDictionary
  3
ACAD_GROUP
350
D
  3
ACAD_MLINESTYLE
350
17
  0
DICTIONARY
  5
D
330
C
100
AcDbDictionary
  0
DICTIONARY
  5
1A
330
C
100
AcDbDictionary
  0
DICTIONARY
  5
17
330
C
100
AcDbDictionary
  3
STANDARD
350
18
  0
DICTIONARY
  5
19
330
C
100
AcDbDictionary
  0
ENDSEC
  0
EOF
