<?xml version="1.0" encoding="UTF-8" standalone="no"?>
<!-- Created with Inkscape (http://www.inkscape.org/) -->

<svg
   xmlns:dc="http://purl.org/dc/elements/1.1/"
   xmlns:cc="http://creativecommons.org/ns#"
   xmlns:rdf="http://www.w3.org/1999/02/22-rdf-syntax-ns#"
   xmlns:svg="http://www.w3.org/2000/svg"
   xmlns="http://www.w3.org/2000/svg"
   xmlns:sodipodi="http://sodipodi.sourceforge.net/DTD/sodipodi-0.dtd"
   xmlns:inkscape="http://www.inkscape.org/namespaces/inkscape"
   width="20cm"
   height="20cm"
   viewBox="0 0 708.66142 708.6614"
   id="svg5665"
   version="1.1"
   inkscape:version="0.91 r13725"
   sodipodi:docname="cufftulppath.svg">
  <defs
     id="defs5667" />
  <sodipodi:namedview
     id="base"
     pagecolor="#ffffff"
     bordercolor="#666666"
     borderopacity="1.0"
     inkscape:pageopacity="0.0"
     inkscape:pageshadow="2"
     inkscape:zoom="0.59726097"
     inkscape:cx="-102.85717"
     inkscape:cy="501.1628"
     inkscape:document-units="px"
     inkscape:current-layer="layer1"
     showgrid="false"
     units="cm"
     showborder="false"
     inkscape:window-width="1395"
     inkscape:window-height="855"
     inkscape:window-x="0"
     inkscape:window-y="1"
     inkscape:window-maximized="1" />
  <metadata
     id="metadata5670">
    <rdf:RDF>
      <cc:Work
         rdf:about="">
        <dc:format>image/svg+xml</dc:format>
        <dc:type
           rdf:resource="http://purl.org/dc/dcmitype/StillImage" />
        <dc:title></dc:title>
      </cc:Work>
    </rdf:RDF>
  </metadata>
  <g
     inkscape:label="Layer 1"
     inkscape:groupmode="layer"
     id="layer1"
     transform="translate(0,-343.70081)">
    <path
       style="color:#000000;font-style:normal;font-variant:normal;font-weight:normal;font-stretch:normal;font-size:medium;line-height:normal;font-family:sans-serif;text-indent:0;text-align:start;text-decoration:none;text-decoration-line:none;text-decoration-style:solid;text-decoration-color:#000000;letter-spacing:normal;word-spacing:normal;text-transform:none;direction:ltr;block-progression:tb;writing-mode:lr-tb;baseline-shift:baseline;text-anchor:start;white-space:normal;clip-rule:nonzero;display:inline;overflow:visible;visibility:visible;opacity:1;isolation:auto;mix-blend-mode:normal;color-interpolation:sRGB;color-interpolation-filters:linearRGB;solid-color:#000000;solid-opacity:1;fill:#000000;fill-opacity:1;fill-rule:nonzero;stroke:none;stroke-width:31.28910446;stroke-linecap:round;stroke-linejoin:miter;stroke-miterlimit:4;stroke-dasharray:none;stroke-dashoffset:0;stroke-opacity:1;paint-order:fill stroke markers;color-rendering:auto;image-rendering:auto;shape-rendering:auto;text-rendering:auto;enable-background:accumulate"
       d="M 418.29688 -310.88867 A 15.646117 15.646117 0 0 0 418.04492 -310.88086 A 15.646117 15.646117 0 0 0 415.72852 -310.59961 A 15.646117 15.646117 0 0 0 415.12891 -310.48438 A 15.646117 15.646117 0 0 0 414.75977 -310.39453 A 15.646117 15.646117 0 0 0 407.06055 -305.95508 A 15.646117 15.646117 0 0 0 406.81445 -305.70898 A 15.646117 15.646117 0 0 0 406.56445 -305.41016 A 15.646117 15.646117 0 0 0 404.21484 -301.85938 A 15.646117 15.646117 0 0 0 403.61328 -300.41602 A 15.646117 15.646117 0 0 0 403.38672 -299.67383 C 400.1111 -293.29266 371.24992 -236.18083 357.49023 -175.3457 C 355.38548 -179.45254 353.17011 -183.52872 350.86523 -187.56055 C 344.61184 -198.49936 337.63964 -209.17576 330.4082 -219.33789 C 317.33813 -254.14532 294.25952 -285.42504 258.80078 -303.11914 C 257.62408 -303.75893 256.41279 -304.37006 255.18164 -304.96484 A 15.646117 15.646117 0 0 0 246.80469 -307.67969 A 15.646117 15.646117 0 0 0 244.41602 -307.53711 A 15.646117 15.646117 0 0 0 243.79102 -307.45898 A 15.646117 15.646117 0 0 0 243.54688 -307.41211 A 15.646117 15.646117 0 0 0 236.33398 -304.16406 A 15.646117 15.646117 0 0 0 236.31055 -304.14648 A 15.646117 15.646117 0 0 0 236.06445 -303.92773 A 15.646117 15.646117 0 0 0 235.22656 -303.18555 A 15.646117 15.646117 0 0 0 234.41016 -302.31641 A 15.646117 15.646117 0 0 0 234.19922 -302.08789 A 15.646117 15.646117 0 0 0 231.46094 -297.42383 C 227.73276 -291.17692 194.29324 -234.36932 176.51953 -173.54688 C 175.38143 -176.09283 174.2194 -178.63203 173.01172 -181.1543 C 167.55251 -192.55598 161.34735 -203.75054 154.83984 -214.44922 C 144.36275 -250.15113 123.52027 -283.09472 89.199219 -303.42969 C 88.065482 -304.15641 86.896499 -304.85696 85.705078 -305.54297 A 15.646117 15.646117 0 0 0 76.150391 -308.93359 A 15.646117 15.646117 0 0 0 75.126953 -308.89062 A 15.646117 15.646117 0 0 0 74.607422 -308.86914 A 15.646117 15.646117 0 0 0 74.537109 -308.86133 A 15.646117 15.646117 0 0 0 68.173828 -306.93359 A 15.646117 15.646117 0 0 0 68.048828 -306.86133 A 15.646117 15.646117 0 0 0 66.9375 -306.17578 A 15.646117 15.646117 0 0 0 66.470703 -305.83789 A 15.646117 15.646117 0 0 0 65.767578 -305.30078 A 15.646117 15.646117 0 0 0 65.029297 -304.64453 A 15.646117 15.646117 0 0 0 64.691406 -304.32617 A 15.646117 15.646117 0 0 0 64.425781 -304.07812 A 15.646117 15.646117 0 0 0 63.78125 -303.33789 A 15.646117 15.646117 0 0 0 63.691406 -303.23438 A 15.646117 15.646117 0 0 0 63.398438 -302.89844 A 15.646117 15.646117 0 0 0 61.71875 -300.26562 A 15.646117 15.646117 0 0 0 61.554688 -299.89453 C 57.007701 -293.54997 13.884969 -232.59436 -7.9277344 -168.90234 C -8.7682719 -166.44802 -9.5705704 -163.98509 -10.351562 -161.51953 C -11.379873 -164.26985 -12.435151 -167.0153 -13.541016 -169.74609 C -18.295536 -181.48679 -23.801555 -193.074 -29.632812 -204.19141 C -37.964375 -240.51452 -56.693177 -274.79454 -89.482422 -297.4668 C -90.583566 -298.28621 -91.723623 -299.08185 -92.886719 -299.86328 A 15.646117 15.646117 0 0 0 -103.23828 -303.91602 A 15.646117 15.646117 0 0 0 -103.58594 -303.93555 A 15.646117 15.646117 0 0 0 -103.79883 -303.92578 A 15.646117 15.646117 0 0 0 -104.07422 -303.91406 A 15.646117 15.646117 0 0 0 -111.625 -301.72266 A 15.646117 15.646117 0 0 0 -111.97461 -301.49414 A 15.646117 15.646117 0 0 0 -112.87695 -300.90039 A 15.646117 15.646117 0 0 0 -117.13477 -296.25195 A 15.646117 15.646117 0 0 0 -117.41992 -295.71484 C -122.28813 -289.67636 -168.34558 -231.81828 -193.48242 -169.74609 C -194.04672 -168.35262 -194.58756 -166.95173 -195.13281 -165.55273 C -217.11326 -228.69994 -259.57729 -288.73008 -264.07227 -295.00195 A 15.646117 15.646117 0 0 0 -264.09961 -295.05273 A 15.646117 15.646117 0 0 0 -264.74609 -296.26953 A 15.646117 15.646117 0 0 0 -264.91406 -296.54297 A 15.646117 15.646117 0 0 0 -265.54297 -297.48828 A 15.646117 15.646117 0 0 0 -265.88672 -297.94141 A 15.646117 15.646117 0 0 0 -266.21094 -298.37109 A 15.646117 15.646117 0 0 0 -266.47266 -298.6543 A 15.646117 15.646117 0 0 0 -266.98047 -299.20117 A 15.646117 15.646117 0 0 0 -267.49219 -299.71094 A 15.646117 15.646117 0 0 0 -268.23828 -300.36719 A 15.646117 15.646117 0 0 0 -268.60352 -300.66602 A 15.646117 15.646117 0 0 0 -269.59766 -301.37891 A 15.646117 15.646117 0 0 0 -269.7168 -301.46484 A 15.646117 15.646117 0 0 0 -269.80273 -301.51367 A 15.646117 15.646117 0 0 0 -271.07227 -302.24609 A 15.646117 15.646117 0 0 0 -271.08789 -302.25195 A 15.646117 15.646117 0 0 0 -277.20898 -303.9707 A 15.646117 15.646117 0 0 0 -277.71484 -304.01367 A 15.646117 15.646117 0 0 0 -277.8125 -304.01367 A 15.646117 15.646117 0 0 0 -279.13672 -304.0293 A 15.646117 15.646117 0 0 0 -288.17969 -300.67188 C -289.38585 -299.97867 -290.56995 -299.27032 -291.7168 -298.53516 C -326.03716 -278.20001 -346.87872 -245.25657 -357.35547 -209.55469 C -363.86395 -198.85522 -370.06926 -187.66106 -375.52734 -176.26172 C -376.94806 -173.29452 -378.30643 -170.30404 -379.62891 -167.30469 C -397.13963 -229.30673 -431.67086 -287.99215 -435.4707 -294.35938 A 15.646117 15.646117 0 0 0 -436.57031 -296.72656 A 15.646117 15.646117 0 0 0 -436.84766 -297.1543 A 15.646117 15.646117 0 0 0 -436.94141 -297.29883 A 15.646117 15.646117 0 0 0 -437.68359 -298.36719 A 15.646117 15.646117 0 0 0 -437.96289 -298.71484 A 15.646117 15.646117 0 0 0 -438.39844 -299.25781 A 15.646117 15.646117 0 0 0 -438.63867 -299.50195 A 15.646117 15.646117 0 0 0 -439.13086 -300.00391 A 15.646117 15.646117 0 0 0 -439.67773 -300.52734 A 15.646117 15.646117 0 0 0 -440.49414 -301.20703 A 15.646117 15.646117 0 0 0 -440.69531 -301.37695 A 15.646117 15.646117 0 0 0 -440.8125 -301.45703 A 15.646117 15.646117 0 0 0 -441.90039 -302.19336 A 15.646117 15.646117 0 0 0 -442.03711 -302.2793 A 15.646117 15.646117 0 0 0 -447.80469 -304.39062 A 15.646117 15.646117 0 0 0 -448.41602 -304.48633 A 15.646117 15.646117 0 0 0 -448.70312 -304.51367 A 15.646117 15.646117 0 0 0 -449.72461 -304.60938 A 15.646117 15.646117 0 0 0 -459.16211 -301.92188 C -460.40274 -301.3229 -461.62277 -300.70716 -462.80859 -300.0625 C -498.26735 -282.3701 -521.34703 -251.0929 -534.41797 -216.28711 C -541.65175 -206.12248 -548.62445 -195.44263 -554.87891 -184.50195 C -557.59552 -179.74988 -560.178 -174.93403 -562.60742 -170.08008 C -576.09785 -231.83198 -605.70459 -290.44198 -609.08203 -297.02344 A 15.646117 15.646117 0 0 0 -610.13867 -299.67383 A 15.646117 15.646117 0 0 0 -610.92188 -301.02734 A 15.646117 15.646117 0 0 0 -611.11328 -301.29297 A 15.646117 15.646117 0 0 0 -611.23438 -301.45898 A 15.646117 15.646117 0 0 0 -611.83594 -302.29492 A 15.646117 15.646117 0 0 0 -612.00391 -302.48438 A 15.646117 15.646117 0 0 0 -612.42188 -302.95703 A 15.646117 15.646117 0 0 0 -612.87305 -303.4668 A 15.646117 15.646117 0 0 0 -613 -303.58398 A 15.646117 15.646117 0 0 0 -613.75 -304.27734 A 15.646117 15.646117 0 0 0 -614.0918 -304.58008 A 15.646117 15.646117 0 0 0 -615.27148 -305.46875 A 15.646117 15.646117 0 0 0 -615.28125 -305.47461 A 15.646117 15.646117 0 0 0 -620.78516 -307.85742 A 15.646117 15.646117 0 0 0 -621.44922 -307.99805 A 15.646117 15.646117 0 0 0 -621.75 -308.04688 A 15.646117 15.646117 0 0 0 -624.23047 -308.28516 A 15.646117 15.646117 0 0 0 -632.45312 -306.00195 C -633.73024 -305.46403 -634.98769 -304.90777 -636.21289 -304.32227 C -672.75716 -288.37894 -697.87912 -258.31769 -713.27344 -224.23438 C -721.18757 -214.43943 -728.87731 -204.12057 -735.86523 -193.50781 C -755.35616 -163.9064 -770.36586 -131.78871 -764.55273 -99.941406 C -761.64617 -84.017766 -752.66046 -68.858961 -737.9707 -57.462891 C -735.51733 -55.559607 -732.90367 -53.757717 -730.1543 -52.037109 C -747.36563 -11.062497 -802.2957 123.2686 -844.76172 267.17383 C -870.25207 353.55337 -891.29671 443.23037 -896.76953 519.12891 C -899.50594 557.07818 -898.41494 591.61494 -891.44336 621.0918 C -885.91825 644.45276 -876.43995 665.04696 -861.65039 680.34375 C -860.40086 685.18035 -857.69852 690.13773 -853.76953 693.54492 C -848.73605 697.90982 -842.93493 699.72978 -837.28516 700.61328 L -799.23633 706.5625 L -797.22461 706.35742 C -796.90541 706.32475 -796.58949 706.28261 -796.27148 706.24609 L -793.27344 706.8418 L -793.63867 705.89844 C -776.51003 703.33698 -761.1829 695.1921 -747.96484 683.50977 C -743.70133 695.79488 -734.44836 705.81761 -723.3418 712.27734 C -709.86309 720.11674 -693.35837 723.46248 -676.30664 721.48828 C -659.2549 719.51418 -644.30112 712.52572 -633.59766 701.88672 C -630.05345 698.36383 -626.97917 694.34614 -624.52148 689.97656 C -623.21804 691.32514 -621.87572 692.63089 -620.49805 693.89648 C -618.9488 698.6496 -615.94824 703.42047 -611.83984 706.59766 C -606.61432 710.63886 -600.75668 712.17766 -595.07031 712.78906 L -556.67969 716.91797 L -554.67969 716.61523 C -554.36639 716.5679 -554.05605 716.512 -553.74414 716.46094 L -550.21289 716.98633 L -550.71484 715.90625 C -533.70454 712.41801 -518.84426 703.36678 -506.39062 690.87109 C -501.69082 701.55519 -493.1692 710.29029 -483.14062 716.12305 C -469.66192 723.96245 -453.1572 727.30818 -436.10547 725.33398 C -419.05373 723.35988 -404.09994 716.37152 -393.39648 705.73242 C -389.82702 702.18446 -386.73568 698.13438 -384.26953 693.72852 C -380.66236 697.57533 -376.80522 701.11038 -372.6875 704.30078 C -370.74143 708.93013 -367.33509 713.44544 -362.97852 716.26758 C -357.43317 719.85968 -351.47823 720.92244 -345.73633 721.08984 L -306.71484 722.22852 L -304.76758 721.7832 C -304.4375 721.70773 -304.11141 721.62249 -303.7832 721.54297 L -300.30859 721.78516 L -300.87891 720.78516 C -285.54304 716.44125 -272.33925 707.63284 -261.34961 695.96094 C -251.62596 714.7414 -229.50524 725.57298 -206.93164 722.51172 C -191.37307 720.40173 -177.68834 711.97047 -169.1543 700.15039 C -160.203 709.18334 -149.73688 716.27629 -137.71094 720.58594 L -138.28711 721.47656 L -135.07422 721.47656 C -134.76027 721.57661 -134.4488 721.68102 -134.13281 721.77734 L -132.21094 722.36328 L -93.527344 723.93359 C -87.80711 724.16599 -81.783259 723.52087 -75.998047 720.26367 C -71.476639 717.7181 -67.823844 713.4115 -65.619141 708.91992 C -57.87831 703.62967 -50.932555 697.14239 -44.71875 689.68359 C -34.043784 710.57899 -8.691303 722.30689 16.791016 719.05664 C 35.143085 716.71579 51.344381 706.88508 60.738281 693.03125 C 71.339643 703.72411 83.901957 711.79449 98.363281 715.89062 L 97.792969 716.89062 L 101.26953 716.64844 C 101.59712 716.7278 101.92249 716.81335 102.25195 716.88867 L 104.19922 717.33398 L 143.2207 716.19727 C 148.9626 716.02987 154.91755 714.9671 160.46289 711.375 C 164.81937 708.55301 168.22435 704.03746 170.16992 699.4082 C 174.70021 695.89848 178.91418 691.96959 182.82812 687.66992 C 186.25099 692.4403 190.49271 696.63081 195.22461 700.05859 C 207.26201 708.77849 222.71574 713.55664 239.47461 713.55664 C 256.23348 713.55664 271.6872 708.77849 283.72461 700.05859 C 289.68344 695.74201 294.88149 690.22736 298.61719 683.84961 C 311.80115 698.38614 327.94303 709.0005 346.70117 712.84766 L 346.19922 713.92773 L 349.73242 713.40234 C 350.04433 713.4534 350.35467 713.50931 350.66797 713.55664 L 352.66602 713.85938 L 391.05664 709.73047 C 396.74301 709.11907 402.60262 707.58026 407.82812 703.53906 C 411.93585 700.3624 414.9349 695.59219 416.48438 690.83984 C 418.9213 688.60124 421.24069 686.23049 423.44727 683.73633 C 426.98729 688.9455 431.50332 693.49818 436.58008 697.17578 C 448.61748 705.89558 464.07121 710.67383 480.83008 710.67383 C 497.58895 710.67383 513.04267 705.89558 525.08008 697.17578 C 531.47166 692.54572 536.97713 686.53057 540.75195 679.55664 C 554.30524 691.95939 570.1459 700.63067 587.92578 703.28906 L 587.56055 704.23438 L 590.56445 703.63672 C 590.8799 703.67291 591.19314 703.71564 591.50977 703.74805 L 593.52148 703.95508 L 631.57227 698.00391 C 637.22204 697.12041 643.02121 695.3024 648.05469 690.9375 C 651.98368 687.53031 654.68602 682.57291 655.93555 677.73633 C 670.72562 662.43953 680.20536 641.84533 685.73047 618.48438 C 692.70205 589.00752 693.7911 554.4688 691.05469 516.51953 C 685.58187 440.621 664.53723 350.944 639.04688 264.56445 C 596.58171 120.66217 541.65393 -13.666928 524.44141 -54.644531 C 527.19026 -56.364878 529.80291 -58.167352 532.25586 -60.070312 C 546.94562 -71.466383 555.93133 -86.627131 558.83789 -102.55078 C 564.65101 -134.39807 549.64131 -166.51578 530.15039 -196.11719 C 523.16364 -206.72816 515.47559 -217.04619 507.5625 -226.83984 C 492.16899 -260.92235 467.04741 -290.9833 430.50586 -306.92773 C 429.27566 -307.51575 428.01306 -308.07351 426.73047 -308.61328 A 15.646117 15.646117 0 0 0 418.29688 -310.88867 z M 423.76367 -269.28125 C 428.51926 -264.91567 434.1795 -259.59546 440.3457 -253.56445 C 442.04762 -248.21785 443.03976 -242.16141 443.61328 -235.29102 C 445.52097 -212.43821 439.69769 -182.42787 432.96289 -153.54688 C 426.22809 -124.66589 418.41928 -97.56543 419.21484 -74.3125 C 419.33343 -70.846488 419.69102 -67.301859 420.39258 -63.810547 C 418.15574 -64.176269 416.05587 -64.62154 414.11719 -65.148438 C 402.54212 -68.294317 395.95124 -73.537785 390.98633 -81.078125 C 381.0565 -96.158825 379.6438 -124.27758 385.33789 -155.47266 C 393.26352 -198.89326 412.51002 -244.64674 423.76367 -269.28125 z M 77.515625 -267.29492 C 81.660305 -262.35379 86.580572 -256.33607 91.904297 -249.54492 C 92.796182 -244.09795 92.879707 -238.03016 92.441406 -231.1875 C 90.981304 -208.39266 80.694021 -179.38939 69.662109 -151.64844 C 58.630198 -123.90748 46.792396 -98.113766 44.146484 -74.947266 C 43.735935 -71.352667 43.564595 -67.62522 43.796875 -63.904297 C 41.334398 -64.597636 39.0734 -65.37367 37.009766 -66.216797 C 25.84892 -70.776727 20.112033 -76.715544 16.296875 -84.683594 C 8.6665589 -100.61969 11.341019 -128.60004 21.671875 -158.76562 C 36.16837 -201.09467 62.640446 -244.4688 77.515625 -267.29492 z M -629.47852 -266.67188 C -618.22479 -242.0371 -598.97826 -196.28525 -591.05273 -152.86523 C -585.35864 -121.67015 -586.76939 -93.551403 -596.69922 -78.470703 C -601.66414 -70.930353 -608.25697 -65.686906 -619.83203 -62.541016 C -621.77071 -62.01412 -623.87058 -61.568847 -626.10742 -61.203125 C -625.40586 -64.694437 -625.04827 -68.239067 -624.92969 -71.705078 C -624.13413 -94.958008 -631.94098 -122.05651 -638.67578 -150.9375 C -645.41058 -179.81849 -651.23582 -209.82882 -649.32812 -232.68164 C -648.75461 -239.55203 -647.76247 -245.60848 -646.06055 -250.95508 C -639.89436 -256.9861 -634.23413 -262.30624 -629.47852 -266.67188 z M 249.9082 -265.92773 C 254.33047 -261.36793 259.57866 -255.82453 265.27734 -249.55859 C 266.57232 -244.19899 267.12868 -238.16219 267.22852 -231.32031 C 267.56259 -208.42503 259.68034 -178.70491 250.9707 -150.1875 C 242.26106 -121.67009 232.61216 -95.022221 231.80859 -71.769531 C 231.68454 -68.179632 231.80261 -64.481952 232.30859 -60.822266 C 229.96212 -61.309497 227.78458 -61.880967 225.78711 -62.53125 C 214.50207 -66.20512 208.41154 -71.658074 204.02344 -79.333984 C 195.24724 -94.685814 195.71074 -122.87549 203.54492 -153.77148 C 214.48648 -196.9222 236.99624 -241.92323 249.9082 -265.92773 z M -453.91992 -262.86914 C -441.00791 -238.86452 -418.49814 -193.86336 -407.55664 -150.71289 C -399.72246 -119.81689 -399.25896 -91.629174 -408.03516 -76.277344 C -412.42325 -68.601434 -418.51379 -63.148479 -429.79883 -59.474609 C -431.79585 -58.824471 -433.97434 -58.252787 -436.32031 -57.765625 C -435.81456 -61.424684 -435.69628 -65.121667 -435.82031 -68.710938 C -436.62388 -91.963628 -446.27278 -118.6115 -454.98242 -147.12891 C -463.69206 -175.64633 -471.57431 -205.36839 -471.24023 -228.26367 C -471.14043 -235.10387 -470.58507 -241.13967 -469.29102 -246.49805 C -463.59162 -252.7648 -458.34264 -258.30888 -453.91992 -262.86914 z M -280.0293 -262.40234 C -265.15401 -239.57599 -238.68579 -196.19968 -224.18945 -153.87109 C -213.8586 -123.7055 -211.18414 -95.727116 -218.81445 -79.791016 C -222.62961 -71.822976 -228.36454 -65.882196 -239.52539 -61.322266 C -241.58903 -60.479139 -243.85002 -59.703105 -246.3125 -59.009766 C -246.08022 -62.730429 -246.25156 -66.458136 -246.66211 -70.052734 C -249.30802 -93.219234 -261.14778 -119.01296 -272.17969 -146.75391 C -283.2116 -174.49487 -293.49693 -203.49813 -294.95703 -226.29297 C -295.39533 -233.13563 -295.31181 -239.20317 -294.41992 -244.65039 C -289.09543 -251.44249 -284.17434 -257.46082 -280.0293 -262.40234 z M -103.51172 -261.99609 C -99.690036 -256.78934 -95.157396 -250.45867 -90.263672 -243.32227 C -89.680302 -237.80646 -89.92962 -231.73552 -90.744141 -224.94727 C -93.464197 -202.27817 -105.24977 -174.07103 -117.70898 -147.15039 C -130.16819 -120.22975 -143.3254 -95.275059 -147.23438 -72.349609 C -147.8228 -68.898559 -148.18818 -65.313932 -148.19141 -61.712891 C -150.42437 -62.532605 -152.48874 -63.408221 -154.36719 -64.335938 C -165.15465 -69.663588 -170.56107 -76.043525 -173.91602 -84.328125 C -180.62591 -100.89733 -176.37991 -128.62262 -164.48242 -158.00195 C -147.87614 -199.00903 -119.54524 -240.15158 -103.51172 -261.99609 z M 475.03125 -216.78711 C 476.88126 -214.63991 478.71833 -212.46387 480.54688 -210.26172 C 487.3617 -194.29539 491.84594 -177.16969 493.98242 -160.2168 C 497.14619 -135.11238 495.00639 -110.89155 489.03906 -93.671875 C 483.07765 -76.469291 474.62909 -67.927977 465.46484 -66.09375 C 465.45553 -66.091899 465.44681 -66.089741 465.4375 -66.087891 L 465.3457 -66.070312 C 465.3239 -66.065991 465.30304 -66.062906 465.28125 -66.058594 C 455.54462 -64.148606 452.89373 -65.824567 452.59961 -66.064453 C 452.30385 -66.305633 450.72974 -68.268183 450.48633 -75.382812 C 449.9995 -89.612073 456.5701 -117.00851 463.43359 -146.44141 C 468.70601 -169.05122 473.97596 -193.23261 475.03125 -216.78711 z M -680.74609 -214.17578 C -679.6904 -190.62221 -674.42057 -166.44066 -669.14844 -143.83203 C -662.28494 -114.39913 -655.71434 -87.002697 -656.20117 -72.773438 C -656.44459 -65.658808 -658.01869 -63.698211 -658.31445 -63.457031 C -658.61021 -63.215851 -661.28217 -61.519629 -671.15234 -63.480469 C -680.3271 -65.303189 -688.78658 -73.844793 -694.75391 -91.064453 C -700.72124 -108.28411 -702.86104 -132.50495 -699.69727 -157.60938 C -697.56068 -174.56306 -693.0754 -191.68778 -686.25977 -207.6543 C -684.43191 -209.85559 -682.5954 -212.0294 -680.74609 -214.17578 z M 297.36328 -211.22266 C 299.0678 -208.98506 300.75643 -206.71945 302.43555 -204.42773 C 308.10806 -188.22228 311.39111 -170.96678 312.35742 -153.9707 C 313.7903 -128.76845 309.99736 -104.68297 302.83008 -87.712891 C 295.6628 -70.742801 286.4246 -62.431579 277.0625 -61.037109 L 277.03125 -61.033203 C 267.04402 -59.550481 264.54364 -61.408853 264.41406 -61.527344 C 264.28434 -61.645974 262.83227 -63.574853 263.07812 -70.689453 C 263.56986 -84.918643 272.0211 -111.99318 280.89453 -141.04688 C 287.76207 -163.53281 294.73794 -187.5928 297.36328 -211.22266 z M 120.97461 -209.21875 C 122.63868 -206.67789 124.28167 -204.10547 125.91016 -201.50781 C 130.33093 -184.96138 132.26432 -167.56167 131.9043 -150.60156 C 131.36939 -125.40345 125.65658 -101.72452 117.0957 -85.382812 C 108.53483 -69.041103 98.54713 -61.407199 88.808594 -60.730469 C 78.523974 -60.015779 75.987691 -62.115855 75.845703 -62.265625 C 75.703716 -62.415395 74.430079 -64.354404 75.234375 -71.396484 C 76.842967 -85.480644 87.497244 -111.81911 98.738281 -140.08594 C 107.49409 -162.10337 116.49256 -185.70296 120.97461 -209.21875 z M -501.375 -208.16211 C -498.74925 -184.53294 -491.77359 -160.47355 -484.90625 -137.98828 C -476.03282 -108.93458 -467.58353 -81.860049 -467.0918 -67.630859 C -466.84593 -60.516259 -468.29606 -58.58737 -468.42578 -58.46875 C -468.5555 -58.35012 -471.0617 -56.488829 -481.07617 -57.980469 C -481.07812 -57.980758 -481.08009 -57.980179 -481.08203 -57.980469 C -490.44221 -59.37744 -499.67596 -67.687631 -506.8418 -84.654297 C -514.00908 -101.62439 -517.80202 -125.70985 -516.36914 -150.91211 C -515.40289 -167.90709 -512.12262 -185.1624 -506.45117 -201.36719 C -504.77151 -203.6597 -503.08009 -205.92375 -501.375 -208.16211 z M -323.49219 -204.32031 C -319.00966 -180.806 -310.00924 -157.20962 -301.25391 -135.19336 C -290.01287 -106.92653 -279.35859 -80.586113 -277.75 -66.501953 C -276.9457 -59.459873 -278.21934 -57.522817 -278.36133 -57.373047 C -278.50332 -57.223267 -281.0396 -55.121247 -291.32422 -55.835938 C -301.06275 -56.512668 -311.05046 -64.148534 -319.61133 -80.490234 C -328.1722 -96.831944 -333.88502 -120.50892 -334.41992 -145.70703 C -334.77996 -162.6677 -332.84639 -180.0682 -328.42578 -196.61523 C -326.79832 -199.21122 -325.15519 -201.78105 -323.49219 -204.32031 z M -63.611328 -200.87109 C -62.172025 -198.33152 -60.750647 -195.76439 -59.345703 -193.17188 C -55.867352 -176.28869 -54.90966 -158.72729 -56.216797 -141.78125 C -58.155048 -116.6533 -65.138551 -93.414981 -74.494141 -77.738281 C -83.849731 -62.061581 -93.984023 -55.275391 -103.51172 -55.275391 C -113.67572 -55.275391 -116.02664 -57.496238 -116.23047 -57.742188 C -116.4343 -57.988128 -117.58073 -60.112087 -116.39062 -67.091797 C -114.01044 -81.051227 -102.01219 -106.57178 -89.314453 -134.00781 C -79.511262 -155.18958 -69.386471 -177.92085 -63.611328 -200.87109 z M 526.68359 -130.42773 C 528.67738 -122.11827 529.2225 -114.55517 528.05664 -108.16797 C 527.05152 -102.66143 525.12234 -97.753971 521.51953 -93.066406 C 524.57343 -104.67894 526.27773 -117.27551 526.68359 -130.42773 z M -732.39844 -127.82031 C -731.99299 -114.66722 -730.28649 -102.0702 -727.23242 -90.457031 C -730.83571 -95.14546 -732.76631 -100.05363 -733.77148 -105.56055 C -734.93744 -111.94822 -734.39259 -119.51045 -732.39844 -127.82031 z M 342.99023 -122.56836 C 344.38758 -114.23433 344.39941 -106.69491 342.79492 -100.36719 C 341.45044 -95.064861 339.24275 -90.332829 335.50781 -85.894531 C 339.23679 -97.239342 341.73155 -109.59759 342.99023 -122.56836 z M -547.00195 -119.50977 C -545.74327 -106.539 -543.24851 -94.180747 -539.51953 -82.835938 C -543.25464 -87.274087 -545.46201 -92.005692 -546.80664 -97.308594 C -548.41113 -103.63632 -548.3993 -111.17573 -547.00195 -119.50977 z M 160.21875 -118.31836 C 161.16955 -109.35934 160.6452 -101.38051 158.41992 -94.882812 C 156.5684 -89.476448 153.81035 -84.747592 149.33203 -80.449219 C 154.25859 -91.99831 157.9038 -104.77685 160.21875 -118.31836 z M -362.73438 -113.42383 C -360.4192 -99.881536 -356.77491 -87.10241 -351.84766 -75.552734 C -356.32653 -79.851349 -359.08389 -84.581535 -360.93555 -89.988281 C -363.16082 -96.485981 -363.68523 -104.46481 -362.73438 -113.42383 z M -29.996094 -106.85352 C -29.642915 -98.137182 -30.621892 -90.465833 -33.107422 -84.328125 C -35.221553 -79.107548 -38.153914 -74.64386 -42.730469 -70.722656 C -37.310809 -81.654608 -33.046753 -93.84466 -29.996094 -106.85352 z M 361.76562 -68.982422 C 362.72497 -67.248624 363.75233 -65.543494 364.85352 -63.871094 C 373.76654 -50.334654 387.9343 -39.841108 405.91211 -34.955078 C 416.52106 -32.071759 428.37873 -30.952193 441.67383 -31.574219 C 425.71321 33.144845 422.9169 86.549909 429.14062 131.86719 L 427.00781 134.60547 L 427.01367 139.98828 C 427.01367 139.98828 427.07282 215.73586 435.20703 311.34961 C 432.88275 300.09008 430.46481 288.84375 427.9668 277.64844 C 395.43523 131.85195 349.78642 -4.9626443 335.44727 -46.601562 C 338.39448 -48.223735 341.19932 -49.939763 343.84375 -51.767578 C 351.02965 -56.734436 357.00977 -62.574307 361.76562 -68.982422 z M -566.9043 -67.458984 C -561.98349 -60.44303 -555.61542 -54.071277 -547.85742 -48.708984 C -545.21344 -46.881479 -542.40956 -45.1649 -539.46289 -43.542969 C -553.80301 -1.9010682 -599.44955 134.91151 -631.98047 280.70508 C -635.61516 296.99464 -639.08717 313.39116 -642.33398 329.78125 C -632.8022 226.84315 -632.72852 142.5957 -632.72852 142.5957 L -632.72266 137.21289 L -634.86328 134.46484 C -628.65361 89.142446 -631.45443 35.743088 -647.41406 -28.96875 C -634.10866 -28.343537 -622.24266 -29.460554 -611.62695 -32.345703 C -593.64914 -37.231733 -579.47943 -47.727232 -570.56641 -61.263672 C -569.23756 -63.281818 -568.02756 -65.352086 -566.9043 -67.458984 z M -8.1230469 -64.380859 C -0.71615108 -52.792701 10.617946 -43.199774 25.175781 -37.251953 C 35.32173 -33.10668 46.934645 -30.533081 60.216797 -29.478516 C 34.743815 32.39384 24.073954 84.782486 23.623047 130.34766 L 21.076172 132.79297 L 20.291016 138.08203 C 20.291016 138.08203 8.2528252 219.07202 2.4960938 320.0957 C 2.0179747 313.9724 1.5198254 307.85334 0.9921875 301.74609 C -11.866785 152.90751 -38.928652 11.000814 -47.654297 -32.474609 C -44.576439 -33.627309 -41.618805 -34.889498 -38.800781 -36.28125 C -25.203944 -42.996388 -14.804249 -52.861689 -8.1230469 -64.380859 z M 176.60938 -64.265625 C 176.69499 -64.113426 176.77261 -63.958421 176.85938 -63.806641 C 184.87821 -49.779631 198.43401 -38.531017 216.10156 -32.779297 C 226.41731 -29.420984 238.04848 -27.739143 251.18945 -27.693359 C 230.8817 36.029902 224.44369 89.123193 227.55078 134.61523 L 225.22656 137.25586 L 224.86719 142.55273 C 224.86719 142.55273 218.41134 237.44323 222.14453 349.36133 C 219.83733 329.05908 217.18743 308.68391 214.26172 288.44727 C 192.908 140.74728 157.63147 0.96956992 146.40234 -41.761719 C 149.50582 -43.1496 152.47198 -44.642932 155.28516 -46.259766 C 163.85319 -51.184124 170.98849 -57.322753 176.60938 -64.265625 z M -380.59961 -61.248047 C -374.7754 -53.530424 -367.13372 -46.729211 -357.80078 -41.365234 C -354.9876 -39.748401 -352.02144 -38.254973 -348.91797 -36.867188 C -360.14709 5.8641033 -395.42363 145.64182 -416.77734 293.3418 C -420.82389 321.33105 -424.37185 349.58947 -427.16016 377.54492 C -421.43029 255.08218 -428.88086 145.60938 -428.88086 145.60938 L -429.23828 140.31445 L -431.57422 137.66016 C -428.48157 92.165425 -434.92397 39.077715 -455.22852 -24.634766 C -442.0758 -24.678852 -430.43616 -26.362017 -420.11328 -29.722656 C -402.44573 -35.474376 -388.89188 -46.721037 -380.87305 -60.748047 C -380.77844 -60.913543 -380.69285 -61.082053 -380.59961 -61.248047 z M -195.0293 -58.486328 C -188.45765 -49.504158 -179.43243 -41.818429 -168.2207 -36.28125 C -158.37437 -31.418397 -146.95959 -28.031346 -133.78711 -26.058594 C -162.49837 34.010603 -176.00013 85.614559 -179 131.08789 L -181.65039 133.34766 L -182.73242 138.62109 C -182.73242 138.62109 -196.22411 204.35936 -207.19336 291.43164 C -213.35163 206.62227 -222.80664 142.97656 -222.80664 142.97656 L -223.5918 137.68555 L -226.15039 135.23047 C -226.61547 89.663398 -237.2874 37.279816 -262.75586 -24.582031 C -249.46394 -25.63486 -237.8433 -28.209712 -227.69141 -32.357422 C -213.55207 -38.134254 -202.44291 -47.344491 -195.0293 -58.486328 z M 492.42969 -40.580078 C 514.70144 50.904775 524.78725 155.30236 530.04297 255.78125 C 508.01598 229.4297 488.8822 201.73129 476.86523 168.7207 C 458.59214 118.52451 455.64401 54.917354 486.50391 -38.880859 C 488.52444 -39.424551 490.4961 -39.992677 492.42969 -40.580078 z M -698.14453 -37.972656 C -696.21095 -37.385254 -694.23928 -36.817129 -692.21875 -36.273438 C -661.35885 57.524767 -664.30698 121.13194 -682.58008 171.32812 C -694.59704 204.33871 -713.73083 232.03712 -735.75781 258.38867 C -730.50227 157.91004 -720.41636 53.512071 -698.14453 -37.972656 z M 302.65234 -34.210938 C 318.57208 58.256598 321.43729 163.0492 319.76172 263.66406 C 299.56474 236.30106 282.36201 207.75398 272.63281 174.22461 C 257.84728 123.26974 259.27643 59.531652 296.63281 -32.804688 C 298.68362 -33.248339 300.68548 -33.719919 302.65234 -34.210938 z M 112.68945 -32.033203 C 121.50461 61.490361 116.12565 166.33714 106.49219 266.63281 C 88.103584 237.62934 72.838336 207.69466 65.615234 173.33789 C 54.706547 121.45059 61.150087 58.090427 106.12891 -31.041016 C 108.36438 -31.340277 110.54573 -31.673397 112.68945 -32.033203 z M -506.66602 -31.152344 C -504.69855 -30.661175 -502.69599 -30.189866 -500.64453 -29.746094 C -463.28816 62.590148 -461.859 126.32638 -476.64453 177.28125 C -486.37347 210.80973 -503.57659 239.3578 -523.77344 266.7207 C -525.44956 166.10665 -522.58553 61.314347 -506.66602 -31.152344 z M -315.20703 -27.140625 C -313.06326 -26.78086 -310.88201 -26.44767 -308.64648 -26.148438 C -263.6667 62.984131 -257.22403 126.34271 -268.13281 178.23047 C -275.35575 212.58645 -290.62035 242.52197 -309.00781 271.52539 C -318.64166 171.22984 -324.02209 66.382901 -315.20703 -27.140625 z M -81.851562 -24.996094 C -78.343073 68.813603 -89.46897 172.90251 -104.55859 272.20117 C -121.0309 242.0861 -134.37214 211.23466 -139.57812 176.55859 C -147.47058 123.98849 -137.56624 61.25505 -88.203125 -24.472656 C -86.042952 -24.61418 -83.930124 -24.791645 -81.851562 -24.996094 z M 547.50391 89.667969 C 567.41684 143.53537 589.558 207.41273 609.03711 273.42188 C 620.2822 311.52827 630.58082 350.23959 639.00977 387.83203 C 619.33166 354.55298 594.00555 326.64677 569.26758 299.73438 C 567.2246 297.51182 565.21213 295.30998 563.17969 293.09766 C 560.46532 226.74849 556.0191 157.35789 547.50391 89.667969 z M -753.21875 92.277344 C -761.73368 159.96564 -766.17872 229.35501 -768.89258 295.70312 C -770.92564 297.91613 -772.93882 300.11856 -774.98242 302.3418 C -799.72076 329.25459 -825.04638 357.16309 -844.72461 390.44336 C -836.29552 352.8494 -825.99739 314.13686 -814.75195 276.0293 C -795.27285 210.02017 -773.13168 146.14472 -753.21875 92.277344 z M 348.55469 97.857422 C 364.75216 152.63197 382.49655 217.53714 397.42969 284.46289 C 406.10842 323.35833 413.7797 362.81746 419.62891 401.03906 C 402.22586 366.66045 378.74091 337.43375 355.80273 309.27734 C 353.94603 306.99825 352.11838 304.74284 350.27148 302.47461 C 352.12897 235.85291 352.45477 166.09002 348.55469 97.857422 z M -552.56641 100.91602 C -556.46642 169.14728 -556.14059 238.90878 -554.2832 305.5293 C -556.131 307.79864 -557.9588 310.05574 -559.81641 312.33594 C -582.7541 340.49175 -606.23826 369.71666 -623.64062 404.09375 C -617.79102 365.87276 -610.11999 326.4143 -601.44141 287.51953 C -586.50826 220.59376 -568.76388 155.69058 -552.56641 100.91602 z M 148.29297 101.63281 C 160.43553 157.80761 173.38972 224.41122 183.29492 292.92383 C 189.04834 332.71923 193.71776 373.00495 196.60938 411.87305 C 181.72668 375.76741 160.08539 344.47762 138.92383 314.32227 C 137.23868 311.92092 135.58244 309.54419 133.90625 307.1543 C 141.0726 240.42979 146.92011 170.40769 148.29297 101.63281 z M -350.80859 106.51953 C -349.43602 175.29725 -343.58654 245.32149 -336.41992 312.04883 C -338.09631 314.43904 -339.75409 316.81514 -341.43945 319.2168 C -362.60101 349.37216 -384.2423 380.66057 -399.125 416.76562 C -396.23338 377.89813 -391.56387 337.6131 -385.81055 297.81836 C -375.90496 229.30311 -362.95156 162.69566 -350.80859 106.51953 z M -53.931641 112.1543 C -45.1179 168.83246 -36.107551 235.82629 -30.179688 304.43945 C -26.751689 344.11746 -24.395048 384.20516 -23.677734 422.80664 C -36.375779 386.16876 -55.842881 353.76131 -74.917969 322.4707 C -76.468921 319.92653 -77.99443 317.40911 -79.537109 314.87695 C -68.79724 249.22899 -59.160709 180.24451 -53.931641 112.1543 z M 485.55273 269.72656 C 500.60188 290.93038 517.04383 310.08941 533.13086 328.62109 C 534.26027 361.72045 535.06149 393.94724 535.7793 424.53125 C 535.78536 424.78943 535.79082 425.03501 535.79688 425.29297 C 517.51165 380.4788 499.95835 328.86536 485.55273 269.72656 z M -691.26758 272.33789 C -705.67286 331.47578 -723.22709 383.08857 -741.51172 427.90234 C -741.50565 427.64373 -741.50022 427.39752 -741.49414 427.13867 C -740.77633 396.55446 -739.97508 364.32804 -738.8457 331.22852 C -722.75945 312.69782 -706.3165 293.54035 -691.26758 272.33789 z M 59.246094 272.69922 C 71.365293 296.04045 85.276238 317.4405 98.912109 338.13086 C 95.157229 370.97618 91.204222 402.91898 87.408203 433.23047 C 87.305981 434.04672 87.209378 434.82475 87.107422 435.63867 C 75.153732 388.33521 64.976388 334.16912 59.246094 272.69922 z M 274.21875 274.63477 C 287.83411 296.64764 302.99968 316.65721 317.8457 336.00195 C 316.69963 369.07516 315.28819 401.26162 313.9043 431.80664 C 313.88294 432.27802 313.86313 432.72666 313.8418 433.19727 C 298.59321 387.37174 284.55089 334.72506 274.21875 274.63477 z M -151.39062 276.38867 C -140.78168 300.22664 -128.35031 322.30329 -116.14648 343.67969 C -121.69909 376.22452 -127.39808 407.85308 -132.84961 437.86328 C -132.93428 438.32936 -133.01507 438.77296 -133.09961 439.23828 C -142.16597 391.62528 -149.12363 337.42443 -151.39062 276.38867 z M -261.76172 277.59375 C -267.49204 339.06285 -277.66948 393.22828 -289.62305 440.53125 C -289.725 439.71732 -289.82161 438.9393 -289.92383 438.12305 C -293.71977 407.81216 -297.67283 375.87002 -301.42773 343.02539 C -287.79186 322.33503 -273.88092 300.93498 -261.76172 277.59375 z M -478.23047 277.68945 C -488.56261 337.78068 -502.60472 390.42796 -517.85352 436.25391 C -517.87482 435.78396 -517.89469 435.33595 -517.91602 434.86523 C -519.29995 404.31949 -520.71117 372.13264 -521.85742 339.05859 C -507.0111 319.71333 -491.84556 299.70309 -478.23047 277.68945 z M 33.753906 323.77344 C 44.040302 398.89826 60.456901 462.33591 77.451172 514.59766 C 72.809213 554.81123 69.419868 590.3664 68.654297 619.48242 C 68.332889 631.70613 68.418461 642.75889 69.173828 652.75195 C 60.437347 637.94183 53.110069 618.49108 47.472656 595.86523 C 34.540504 543.96181 30.318708 475.75105 30.828125 408.42188 C 31.046712 379.53138 32.216666 351.07613 33.753906 323.77344 z M 467.94336 324.69531 C 488.85676 396.98105 513.91771 457.16867 537.92969 506.41406 C 539.26693 546.91199 541.1484 582.62535 544.6543 611.60742 C 546.05201 623.16182 547.65469 633.62261 549.69336 643.04688 C 539.23926 629.48279 529.4846 611.42728 520.86914 590.17773 C 500.60965 540.20879 486.51589 473.03806 477.17383 406.16211 C 473.30526 378.46862 470.3885 351.11348 467.94336 324.69531 z M -179.68555 326.2168 C -173.66595 401.33098 -161.04256 465.3364 -147.23828 518.35547 C -154.07828 558.18268 -159.41848 593.44438 -161.80273 622.45312 C -162.7705 634.22764 -163.30395 644.94126 -163.16797 654.69531 C -170.83325 639.36784 -176.88148 619.68355 -181.13086 597.03711 C -191.027 544.2971 -191.3877 475.9157 -187.12109 408.74414 C -185.32947 380.53756 -182.6501 352.84233 -179.68555 326.2168 z M -673.65625 327.30273 C -676.1014 353.72092 -679.0201 381.07601 -682.88867 408.76953 C -692.23074 475.64548 -706.32254 542.81817 -726.58203 592.78711 C -735.19749 614.03667 -744.95368 632.09064 -755.4082 645.6543 C -753.36953 636.22956 -751.76685 625.76924 -750.36914 614.21484 C -746.86324 585.23278 -744.98177 549.51942 -743.64453 509.02148 C -719.63198 459.77622 -694.56969 399.5889 -673.65625 327.30273 z M -236.26953 328.66797 C -234.73229 355.97067 -233.56429 384.42396 -233.3457 413.31445 C -232.83629 480.64364 -237.05613 548.85635 -249.98828 600.75977 C -255.6257 623.38562 -262.95297 642.83632 -271.68945 657.64648 C -270.93445 647.6529 -270.85044 636.5995 -271.17188 624.375 C -271.9374 595.26042 -275.32576 559.7072 -279.9668 519.49609 C -262.97214 467.23348 -246.5562 403.79384 -236.26953 328.66797 z M 252.99219 328.70312 C 268.90925 401.96066 289.81184 463.32218 310.42188 513.68945 C 308.97444 554.17026 308.39971 589.90368 309.9082 619.00195 C 310.52617 630.92224 311.43349 641.70404 312.88867 651.41992 C 303.33955 637.39629 294.78352 618.83043 287.59961 597.07617 C 270.82182 546.26983 261.36389 478.53864 256.63281 411.33203 C 254.65259 383.20229 253.61285 355.4512 252.99219 328.70312 z M -457.00391 331.75977 C -457.62456 358.50843 -458.66622 386.2602 -460.64648 414.39062 C -465.37756 481.59722 -474.83354 549.32647 -491.61133 600.13281 C -498.79523 621.88707 -507.35282 640.45447 -516.90234 654.47852 C -515.44667 644.76263 -514.53789 633.98083 -513.91992 622.06055 C -512.41135 592.96086 -512.986 557.22542 -514.43359 516.74219 C -493.82374 466.37563 -472.92038 405.01525 -457.00391 331.75977 z M 565.64648 366.83594 C 590.0932 396.92973 610.80252 427.74377 621.87305 465.45508 C 632.18529 500.58335 634.58406 542.42091 622.79688 596.69727 C 614.11023 581.90125 604.2614 565.13371 593.62109 545.80859 C 585.73546 531.48656 577.45554 515.83158 569.02539 498.8457 C 568.28113 475.3422 567.68085 450.22669 567.06055 423.79688 C 566.62804 405.36888 566.17693 386.32753 565.64648 366.83594 z M -771.35938 369.44141 C -771.88977 388.93437 -772.3409 407.9771 -772.77344 426.40625 C -773.39374 452.83606 -773.99371 477.95157 -774.73828 501.45508 C -783.16834 518.44105 -791.44835 534.09593 -799.33398 548.41797 C -809.97447 567.74342 -819.82453 584.51088 -828.51172 599.30664 C -840.29936 545.02994 -837.90025 503.19313 -827.58789 468.06445 C -816.51709 430.35218 -795.80691 399.53649 -771.35938 369.44141 z M 347.68945 375.70117 C 370.03818 406.90975 388.58762 438.62459 397.04688 476.79297 C 404.93789 512.39748 404.43479 554.40996 388.82422 608.24609 C 381.1849 593.09432 372.53002 575.93801 363.26562 556.20312 C 356.38592 541.54806 349.20453 525.54676 341.96484 508.21289 C 342.83647 484.72047 343.96383 459.6277 345.16016 433.22266 C 346.00306 414.61819 346.87204 395.39216 347.68945 375.70117 z M -551.70117 378.75781 C -550.88373 398.44949 -550.01481 417.67617 -549.17188 436.28125 C -547.97555 462.68629 -546.84819 487.77906 -545.97656 511.27148 C -553.21601 528.60462 -560.39785 544.60517 -567.27734 559.25977 C -576.54232 578.99589 -585.19778 596.15375 -592.83789 611.30664 C -608.44897 557.46964 -608.95165 515.45646 -601.06055 479.85156 C -592.6011 441.68234 -574.05112 409.96708 -551.70117 378.75781 z M 125.59375 379.47656 C 145.85321 412.49097 162.22413 445.67935 167.78711 484.55469 C 172.96339 520.72771 169.11436 562.67589 148.96289 615.33203 C 142.39383 599.52002 134.93078 581.5822 127.04883 560.98047 C 121.26263 545.85659 115.2785 529.37071 109.33984 511.55469 C 112.06567 488.22461 115.17338 463.32182 118.45508 437.11719 C 120.789 418.48067 123.19926 399.21629 125.59375 379.47656 z M -328.10938 384.37109 C -325.71484 404.11126 -323.30467 423.37481 -320.9707 442.01172 C -317.68909 468.21564 -314.58124 493.11773 -311.85547 516.44727 C -317.79412 534.26329 -323.77826 550.74917 -329.56445 565.87305 C -337.44652 586.47508 -344.91134 604.412 -351.48047 620.22461 C -371.63116 567.569 -375.47894 525.61974 -370.30273 489.44727 C -364.73976 450.57193 -348.36884 417.38495 -328.10938 384.37109 z M -91.908203 387.11719 C -73.807188 421.36195 -59.546379 455.55359 -56.226562 494.63086 C -53.136169 531.00762 -59.231202 572.44676 -81.90625 623.35156 C -87.503461 607.15947 -93.857622 588.80016 -100.47656 567.76953 C -105.35911 552.25601 -110.36154 535.36553 -115.24414 517.14844 C -111.24343 494.04372 -106.77619 469.39279 -102.06445 443.45508 C -98.754953 425.23655 -95.336929 406.40808 -91.908203 387.11719 z M -432.8457 456.97656 C -434.12463 489.30747 -433.91734 520.39574 -431.73828 549.22852 C -429.79556 574.93403 -426.3083 598.86348 -420.73047 620.42773 C -430.57393 617.52572 -441.29492 616.58957 -452.24609 617.85742 C -456.85956 618.39154 -461.31254 619.30369 -465.57617 620.54492 C -464.31254 617.07243 -463.08713 613.53898 -461.90039 609.94531 C -447.23338 565.5308 -438.29881 511.92589 -432.8457 456.97656 z M 230.95508 473.60156 C 236.51914 521.58065 244.97983 567.79628 257.88867 606.88672 C 258.56161 608.92451 259.25005 610.9381 259.94727 612.9375 C 253.46469 611.27885 246.58913 610.4082 239.47461 610.4082 C 232.30752 610.4082 225.38198 611.28989 218.85742 612.97266 C 224.05774 592.0774 227.35437 569.0288 229.2207 544.33398 C 230.91176 521.95842 231.41052 498.21952 230.95508 473.60156 z M -664.96875 490.43555 C -665.98204 505.64352 -666.54702 520.45501 -666.59375 534.75391 C -666.69172 564.72992 -664.54402 592.46115 -659.23828 617.10156 C -669.53893 613.79249 -680.86528 612.67279 -692.44727 614.01367 C -695.84248 614.40675 -699.14949 615.00524 -702.36133 615.78516 C -700.7309 612.10932 -699.13603 608.36618 -697.58594 604.54297 C -683.95505 570.92313 -673.34261 531.6693 -664.96875 490.43555 z M 461.6543 499.33203 C 469.63202 536.34842 479.51374 571.45484 491.87109 601.93359 C 492.79262 604.20648 493.73419 606.44444 494.68359 608.66602 C 490.19998 607.92041 485.5703 607.52539 480.83008 607.52539 C 472.01937 607.52539 463.57542 608.85717 455.79297 611.37695 C 460.6881 587.40886 462.67452 560.59192 462.58008 531.69531 C 462.54569 521.17258 462.22159 510.36376 461.6543 499.33203 z M 4.6152344 529.32227 C 7.3817527 555.57677 11.423975 580.6034 17.111328 603.42969 C 18.055382 607.21866 19.049012 610.94432 20.085938 614.61133 C 14.365252 613.82445 8.4571478 613.76688 2.5410156 614.52148 C -1.8143392 615.07701 -6.042196 616.06948 -10.09375 617.42188 C -5.0562511 599.1947 -1.2961208 579.31835 1.4882812 558.1543 C 2.7206914 548.78683 3.7579562 539.16401 4.6152344 529.32227 z M 572.43359 572.08008 C 588.06311 599.92215 601.76923 622.4636 611.31445 639.41992 C 608.85609 647.2022 606.14014 655.21207 603.15234 663.46094 L 591.7207 664.71094 C 591.6714 664.71631 591.64903 664.72704 591.62109 664.73633 C 591.57663 664.67594 591.54393 664.62081 591.39648 664.49805 C 590.58276 663.82065 588.49165 661.30923 586.42188 656.61523 C 582.28233 647.22731 578.4033 630.058 575.7168 607.84961 C 574.41484 597.08675 573.34208 585.09813 572.43359 572.08008 z M -778.14844 574.6875 C -779.05713 587.70632 -780.12961 599.69559 -781.43164 610.45898 C -784.11814 632.66736 -787.99717 649.83478 -792.13672 659.22266 C -794.20649 663.91666 -796.29565 666.43002 -797.10938 667.10742 C -797.25575 667.22927 -797.28915 667.28351 -797.33398 667.34375 C -797.36211 667.33419 -797.38534 667.32386 -797.43555 667.31836 L -808.86719 666.06836 C -811.85475 657.82013 -814.57108 649.81098 -817.0293 642.0293 C -807.48449 625.07272 -793.77847 602.53086 -778.14844 574.6875 z M 340.33203 580.8457 C 354.02943 609.40636 366.17413 632.58217 374.54297 649.9668 C 371.51999 657.70805 368.21777 665.66944 364.62109 673.86133 L 352.91211 674.57812 C 352.90815 674.57836 352.9081 674.5798 352.9043 674.58008 C 352.87082 674.54121 352.84263 674.50484 352.78516 674.45117 C 352.10091 673.81237 350.21098 671.26923 348.47852 666.51562 C 345.01358 657.00842 342.31211 639.67884 341.15625 617.38281 C 340.58631 606.38881 340.3363 594.14967 340.33203 580.8457 z M 102.03711 583.03125 C 113.73548 612.91024 124.29186 637.21421 131.4375 655.34766 C 127.77647 662.8275 123.81484 670.50547 119.53906 678.39062 L 107.48438 678.19531 C 107.4181 678.19421 107.3807 678.20261 107.3418 678.20898 C 107.30748 678.15415 107.25402 678.08502 107.16602 677.99023 C 106.51551 677.28963 104.82348 674.63089 103.45312 669.77539 C 100.71245 660.06419 99.34729 642.60287 99.933594 620.30469 C 100.22863 609.08376 100.96 596.60281 102.03711 583.03125 z M -544.34375 583.90039 C -544.34797 597.2059 -544.59797 609.44631 -545.16797 620.44141 C -546.32383 642.73743 -549.0253 660.06517 -552.49023 669.57227 C -554.2227 674.32587 -556.11458 676.87097 -556.79883 677.50977 C -556.85616 677.5633 -556.88259 677.59986 -556.91602 677.63867 C -556.91982 677.63839 -556.91987 677.63696 -556.92383 677.63672 L -568.63477 676.91992 C -572.23118 668.72863 -575.53384 660.76806 -578.55664 653.02734 C -570.18786 635.64165 -558.04234 612.46417 -544.34375 583.90039 z M -214.69531 585.92969 C -213.85331 591.66455 -212.91892 597.29527 -211.88477 602.80664 C -210.50533 610.15815 -208.94862 617.30198 -207.19531 624.2168 C -211.232 623.88076 -215.35405 623.96393 -219.49414 624.52539 C -221.12943 624.74716 -222.74175 625.04444 -224.33203 625.40234 C -222.65115 619.8571 -221.08217 614.16476 -219.62695 608.32422 C -217.81996 601.0718 -216.18232 593.59495 -214.69531 585.92969 z M -304.55273 587.92578 C -303.47563 601.49734 -302.74426 613.97829 -302.44922 625.19922 C -301.86291 647.49741 -303.23002 664.95687 -305.9707 674.66797 C -307.34104 679.52357 -309.03309 682.18221 -309.68359 682.88281 C -309.7716 682.9776 -309.82505 683.04672 -309.85938 683.10156 C -309.89827 683.09517 -309.93568 683.08681 -310.00195 683.08789 L -322.05469 683.2832 C -326.33045 675.398 -330.29212 667.72014 -333.95312 660.24023 C -326.80748 642.10725 -316.25111 617.80457 -304.55273 587.92578 z M -126.57617 588.88086 C -116.73922 619.28035 -107.72522 644.0917 -101.70703 662.58594 C -105.70931 669.73242 -110.01523 677.05281 -114.63672 684.55469 L -126.30859 683.54297 C -126.37681 683.53707 -126.41912 683.54289 -126.45508 683.54883 C -126.48415 683.48354 -126.50498 683.42281 -126.62305 683.27734 C -127.26683 682.48414 -128.80694 679.66251 -129.89648 674.69531 C -132.07558 664.76081 -132.44545 647.23782 -130.61914 625.01758 C -129.72137 614.09457 -128.33944 601.99307 -126.57617 588.88086 z M 480.83008 638.81445 C 491.46419 638.81445 500.81057 642.07915 506.72461 646.36328 C 512.63865 650.64741 514.78516 655.01369 514.78516 659.09961 C 514.78516 663.18551 512.63865 667.55184 506.72461 671.83594 C 500.81057 676.12004 491.46419 679.38477 480.83008 679.38477 C 470.19596 679.38477 460.84959 676.12004 454.93555 671.83594 C 449.0215 667.55184 446.875 663.18551 446.875 659.09961 C 446.875 655.01369 449.0215 650.64741 454.93555 646.36328 C 460.84959 642.07915 470.19596 638.81445 480.83008 638.81445 z M 239.47461 641.69727 C 250.10872 641.69727 259.45314 644.96196 265.36719 649.24609 C 271.28123 653.53021 273.42773 657.89652 273.42773 661.98242 C 273.42773 666.06832 271.28123 670.43465 265.36719 674.71875 C 259.45314 679.00295 250.10872 682.26758 239.47461 682.26758 C 228.84049 682.26758 219.49412 679.00295 213.58008 674.71875 C 207.66604 670.43465 205.51953 666.06832 205.51953 661.98242 C 205.51953 657.89652 207.66604 653.53021 213.58008 649.24609 C 219.49412 644.96196 228.84049 641.69727 239.47461 641.69727 z M -681.93359 644.63281 C -673.6239 644.6607 -666.11773 646.78918 -660.6543 649.9668 C -653.93008 653.87769 -650.61632 658.63395 -649.84766 663.75195 C -649.07899 668.86995 -650.87512 674.21984 -656.21484 679.52734 C -661.55456 684.83494 -670.35196 689.30961 -680.95508 690.53711 C -691.5582 691.76471 -701.37539 689.44606 -708.09961 685.53516 C -714.82384 681.62426 -718.13758 676.86605 -718.90625 671.74805 C -719.67491 666.63005 -717.87877 661.28214 -712.53906 655.97461 C -707.19934 650.66702 -698.40195 646.19045 -687.79883 644.96289 C -685.81074 644.73272 -683.85122 644.62638 -681.93359 644.63281 z M 11.439453 645.21094 C 26.079574 645.13515 36.537845 653.80391 37.818359 663.19727 C 39.231344 673.56247 29.614678 685.87803 12.564453 688.05273 C -4.4857611 690.22753 -17.073342 680.74401 -18.486328 670.37891 C -19.899308 660.01381 -10.282636 647.70014 6.7675781 645.52539 C 8.3660367 645.32151 9.9249579 645.21878 11.439453 645.21094 z M -441.73242 648.47852 C -433.42279 648.50593 -425.91655 650.63295 -420.45312 653.81055 C -413.7289 657.72144 -410.41514 662.47966 -409.64648 667.59766 C -408.87782 672.71566 -410.67396 678.06545 -416.01367 683.37305 C -421.35339 688.68055 -430.1508 693.15521 -440.75391 694.38281 C -451.35703 695.61031 -461.17422 693.28981 -467.89844 689.37891 C -474.62266 685.46801 -477.93643 680.71175 -478.70508 675.59375 C -479.47375 670.47575 -477.67761 665.12596 -472.33789 659.81836 C -466.99817 654.51077 -458.20078 650.03614 -447.59766 648.80859 C -445.60957 648.57843 -443.65003 648.47219 -441.73242 648.47852 z M -211.9043 655.30078 C -200.5787 655.22499 -192.37687 662.29307 -191.31836 670.54883 C -190.15035 679.65873 -197.74759 689.69156 -210.91016 691.47656 C -224.07272 693.26166 -233.93941 685.59808 -235.10742 676.48828 C -236.27542 667.37848 -228.67818 657.34554 -215.51562 655.56055 C -214.28163 655.3932 -213.07591 655.30862 -211.9043 655.30078 z "
       transform="translate(0,343.70078)"
       id="path314-1-6-2" />
  </g>
</svg>
